M48
; DRILL file {KiCad 8.0.4} date 2025-01-16T23:08:30-0800
; FORMAT={-:-/ absolute / inch / decimal}
; #@! TF.CreationDate,2025-01-16T23:08:30-08:00
; #@! TF.GenerationSoftware,Kicad,Pcbnew,8.0.4
; #@! TF.FileFunction,Plated,1,4,PTH
FMAT,2
INCH
; #@! TA.AperFunction,Plated,PTH,ViaDrill
T1C0.0079
; #@! TA.AperFunction,Plated,PTH,ViaDrill
T2C0.0118
%
G90
G05
T1
X1.0807Y-0.4016
X1.4606Y-0.9783
X1.4606Y-1.0039
X1.4882Y-0.9783
X1.4882Y-1.0039
X1.5118Y-0.2913
X1.5472Y-0.2913
T2
X0.2756Y-0.9331
X0.2795Y-0.5783
X0.2795Y-0.6614
X0.2795Y-0.8461
X0.2795Y-1.0433
X0.2795Y-1.063
X0.315Y-0.9331
X0.3169Y-1.0433
X0.3169Y-1.063
X0.3189Y-0.5783
X0.3189Y-0.6614
X0.3189Y-0.8465
X0.3386Y-0.7343
X0.3425Y-0.772
X0.3465Y-1.2264
X0.3465Y-1.3071
X0.3504Y-0.5886
X0.3504Y-0.6732
X0.3543Y-0.4173
X0.3543Y-0.4567
X0.3543Y-0.4902
X0.3543Y-0.5295
X0.3583Y-0.8465
X0.3583Y-1.0433
X0.3583Y-1.063
X0.3622Y-0.7343
X0.3819Y-0.7717
X0.3858Y-0.6732
X0.3858Y-0.7343
X0.3878Y-0.5886
X0.3957Y-1.0433
X0.3957Y-1.063
X0.3976Y-0.8465
X0.4154Y-1.1181
X0.4173Y-0.4213
X0.4173Y-0.4528
X0.4173Y-0.5039
X0.4173Y-0.5354
X0.4252Y-0.5886
X0.4252Y-0.6161
X0.4252Y-0.6437
X0.4252Y-0.6713
X0.4252Y-0.6988
X0.4252Y-0.7539
X0.4252Y-0.7815
X0.4252Y-0.8091
X0.4252Y-0.8366
X0.4252Y-0.8642
X0.4252Y-0.8917
X0.4272Y-0.561
X0.4272Y-0.9469
X0.437Y-0.9744
X0.437Y-1.0
X0.4409Y-0.4213
X0.4409Y-0.4528
X0.4409Y-0.5039
X0.4409Y-0.5354
X0.4409Y-1.3071
X0.4449Y-1.3681
X0.4488Y-0.561
X0.4488Y-0.5886
X0.4488Y-0.6161
X0.4488Y-0.6437
X0.4488Y-0.6713
X0.4488Y-0.6988
X0.4488Y-0.7539
X0.4488Y-0.7815
X0.4488Y-0.8091
X0.4488Y-0.8366
X0.4488Y-0.8642
X0.4488Y-0.8917
X0.4488Y-0.9469
X0.4567Y-0.0925
X0.4567Y-0.2323
X0.4567Y-0.313
X0.4606Y-0.9744
X0.4606Y-1.0
X0.4705Y-0.9469
X0.4724Y-0.561
X0.4724Y-0.5886
X0.4724Y-0.6161
X0.4724Y-0.6437
X0.4724Y-0.6713
X0.4724Y-0.6988
X0.4724Y-0.7539
X0.4724Y-0.7815
X0.4724Y-0.8091
X0.4724Y-0.8366
X0.4724Y-0.8642
X0.4724Y-0.8917
X0.4724Y-1.2598
X0.4764Y-0.4114
X0.4764Y-0.435
X0.4764Y-0.4587
X0.4843Y-1.3366
X0.4921Y-0.498
X0.4921Y-0.5217
X0.4921Y-0.5453
X0.5039Y-1.2598
X0.5138Y-1.4488
X0.5197Y-0.498
X0.5197Y-0.5217
X0.5197Y-0.5453
X0.5197Y-0.9902
X0.5197Y-1.0138
X0.5197Y-1.0374
X0.5236Y-1.4843
X0.5335Y-1.3346
X0.5354Y-0.3465
X0.5354Y-0.378
X0.5354Y-1.2598
X0.5374Y-1.4488
X0.5472Y-0.498
X0.5472Y-0.5217
X0.5472Y-0.5453
X0.5492Y-1.4843
X0.5551Y-1.1181
X0.5551Y-1.1398
X0.5551Y-1.1614
X0.5591Y-0.3465
X0.5591Y-0.378
X0.561Y-1.4488
X0.5748Y-0.498
X0.5748Y-0.5217
X0.5748Y-0.5453
X0.5787Y-1.1181
X0.5787Y-1.1398
X0.5787Y-1.1614
X0.5866Y-1.2638
X0.5886Y-0.4114
X0.5886Y-0.435
X0.5886Y-0.4587
X0.5886Y-1.3563
X0.6024Y-0.498
X0.6024Y-0.5217
X0.6024Y-0.9921
X0.6024Y-1.0138
X0.6024Y-1.0354
X0.6024Y-0.5453
X0.6063Y-1.2815
X0.6063Y-1.376
X0.6122Y-0.3406
X0.6122Y-0.3799
X0.6142Y-0.4213
X0.6142Y-0.4606
X0.626Y-0.1693
X0.6299Y-0.0945
X0.6299Y-1.1181
X0.6378Y-0.0433
X0.6457Y-0.1102
X0.6634Y-0.1535
X0.6634Y-0.185
X0.6791Y-0.4705
X0.685Y-0.9902
X0.685Y-1.0138
X0.685Y-1.0374
X0.69Y-0.4439
X0.7047Y-0.5827
X0.7047Y-0.622
X0.7047Y-0.6634
X0.7047Y-0.7028
X0.7126Y-0.252
X0.7126Y-0.2776
X0.7126Y-0.9921
X0.7126Y-1.0138
X0.7126Y-1.0354
X0.7283Y-0.3681
X0.7283Y-0.4331
X0.7283Y-0.5827
X0.7283Y-0.622
X0.7283Y-0.6634
X0.7283Y-0.7028
X0.7303Y-1.0807
X0.7303Y-1.1201
X0.7402Y-0.252
X0.7402Y-0.2776
X0.7402Y-0.498
X0.7402Y-0.5217
X0.7402Y-0.5453
X0.7402Y-0.9902
X0.7402Y-1.0138
X0.7402Y-1.0374
X0.7539Y-0.8484
X0.7618Y-0.498
X0.7618Y-0.5217
X0.7618Y-0.5453
X0.7677Y-1.0787
X0.7677Y-1.1004
X0.7677Y-1.122
X0.7697Y-0.252
X0.7697Y-0.2776
X0.7953Y-0.498
X0.7953Y-0.5217
X0.7953Y-0.9902
X0.7953Y-1.0138
X0.7953Y-1.0374
X0.7953Y-0.5453
X0.8169Y-0.3671
X0.8228Y-0.5217
X0.8228Y-0.561
X0.8228Y-0.9921
X0.8228Y-1.0138
X0.8228Y-1.0354
X0.8287Y-0.4035
X0.8307Y-1.1102
X0.8307Y-1.1378
X0.8484Y-1.4843
X0.8504Y-0.9902
X0.8504Y-1.0138
X0.8504Y-1.0374
X0.8508Y-0.2598
X0.8583Y-1.1102
X0.8583Y-1.1378
X0.872Y-0.9902
X0.872Y-1.0138
X0.872Y-1.0374
X0.878Y-0.498
X0.878Y-0.5197
X0.878Y-0.5413
X0.8858Y-1.1102
X0.8858Y-1.1378
X0.9055Y-0.498
X0.9055Y-0.5217
X0.9055Y-0.5453
X0.9055Y-0.9921
X0.9055Y-1.0138
X0.9055Y-1.0354
X0.9134Y-1.1102
X0.9134Y-1.1378
X0.9331Y-0.4114
X0.9331Y-0.4331
X0.9331Y-0.4547
X0.9331Y-0.9902
X0.9331Y-1.0138
X0.9331Y-1.0374
X0.9469Y-1.2343
X0.9469Y-1.2697
X0.9567Y-1.1693
X0.9606Y-0.5
X0.9606Y-0.5217
X0.9606Y-0.5433
X0.9606Y-0.9921
X0.9606Y-1.0138
X0.9606Y-1.0354
X0.9626Y-1.4114
X0.9744Y-1.189
X0.9803Y-1.4311
X0.9847Y-1.2525
X0.9882Y-0.498
X0.9882Y-0.5217
X0.9882Y-0.5453
X1.0433Y-0.6161
X1.0433Y-0.6437
X1.0433Y-0.9921
X1.0433Y-1.0138
X1.0433Y-1.0354
X1.063Y-0.7539
X1.065Y-0.7264
X1.0725Y-1.3602
X1.0737Y-1.252
X1.0748Y-1.3031
X1.0787Y-1.4843
X1.0807Y-0.2323
X1.0807Y-0.2894
X1.0866Y-0.6161
X1.0866Y-0.6437
X1.0866Y-0.7264
X1.0866Y-0.7539
X1.0898Y-0.2071
X1.1083Y-0.7264
X1.1102Y-0.7539
X1.1185Y-0.4232
X1.126Y-1.2421
X1.126Y-1.2677
X1.126Y-1.2933
X1.1732Y-0.7008
X1.1811Y-1.2441
X1.1811Y-1.2672
X1.1811Y-1.2894
X1.1833Y-0.7227
X1.1969Y-0.7618
X1.1986Y-0.738
X1.2067Y-0.6811
X1.2106Y-0.6161
X1.2126Y-1.3637
X1.2244Y-0.6388
X1.2244Y-0.6604
X1.2362Y-1.3637
X1.2362Y-1.3996
X1.2598Y-1.3637
X1.2894Y-1.4823
X1.2992Y-0.7362
X1.2992Y-0.7972
X1.313Y-0.5797
X1.313Y-0.6014
X1.313Y-0.7569
X1.313Y-0.7785
X1.3287Y-0.7362
X1.3287Y-0.7972
X1.3307Y-0.561
X1.3307Y-0.6201
X1.3917Y-0.5591
X1.3917Y-0.6201
X1.3917Y-0.6791
X1.3917Y-0.7382
X1.3917Y-0.7953
X1.3917Y-0.8583
X1.4291Y-0.3307
X1.4311Y-0.9154
X1.5Y-1.2402
X1.5Y-1.2717
X1.5118Y-0.3307
X1.5118Y-0.561
X1.5118Y-0.6201
X1.5118Y-0.6791
X1.5118Y-0.7382
X1.5118Y-0.7972
X1.5138Y-0.8563
X1.5138Y-0.9154
X1.5295Y-0.2126
X1.5394Y-1.2402
X1.5394Y-1.2717
X1.5472Y-0.3307
X1.5669Y-0.4606
X1.5669Y-0.5118
X1.5669Y-1.0236
X1.5669Y-1.0748
X1.6142Y-1.1417
X1.6142Y-1.189
X1.6142Y-1.3976
X1.6142Y-1.4449
X1.6339Y-0.4606
X1.6339Y-0.5118
X1.6339Y-1.0236
X1.6339Y-1.0748
X1.6535Y-1.1417
X1.6535Y-1.189
X1.6535Y-1.3976
X1.6535Y-1.4449
X1.6614Y-0.1496
X1.6614Y-0.1732
X1.6614Y-0.3701
X1.6614Y-0.3937
X1.7047Y-0.1496
X1.7047Y-0.1732
X1.7047Y-0.3701
X1.7047Y-0.3937
M30
