G04 #@! TF.GenerationSoftware,KiCad,Pcbnew,8.0.4*
G04 #@! TF.CreationDate,2025-01-16T23:08:25-08:00*
G04 #@! TF.ProjectId,GMAX4002_MIPI_Breakout,474d4158-3430-4303-925f-4d4950495f42,rev?*
G04 #@! TF.SameCoordinates,Original*
G04 #@! TF.FileFunction,Copper,L4,Bot*
G04 #@! TF.FilePolarity,Positive*
%FSLAX46Y46*%
G04 Gerber Fmt 4.6, Leading zero omitted, Abs format (unit mm)*
G04 Created by KiCad (PCBNEW 8.0.4) date 2025-01-16 23:08:25*
%MOMM*%
%LPD*%
G01*
G04 APERTURE LIST*
G04 #@! TA.AperFunction,SMDPad,CuDef*
%ADD10R,0.400000X1.200000*%
G04 #@! TD*
G04 #@! TA.AperFunction,SMDPad,CuDef*
%ADD11R,1.200000X0.400000*%
G04 #@! TD*
G04 #@! TA.AperFunction,ViaPad*
%ADD12C,0.400000*%
G04 #@! TD*
G04 #@! TA.AperFunction,ViaPad*
%ADD13C,0.450000*%
G04 #@! TD*
G04 #@! TA.AperFunction,Conductor*
%ADD14C,0.200000*%
G04 #@! TD*
G04 #@! TA.AperFunction,Conductor*
%ADD15C,0.150000*%
G04 #@! TD*
G04 #@! TA.AperFunction,Conductor*
%ADD16C,0.100000*%
G04 #@! TD*
G04 #@! TA.AperFunction,Conductor*
%ADD17C,0.400000*%
G04 #@! TD*
G04 #@! TA.AperFunction,Conductor*
%ADD18C,0.560000*%
G04 #@! TD*
G04 APERTURE END LIST*
G04 #@! TO.P,C98,2*
G04 #@! TO.N,GND*
G04 #@! TA.AperFunction,SMDPad,CuDef*
G36*
G01*
X18820000Y-28280000D02*
X18820000Y-28620000D01*
G75*
G02*
X18680000Y-28760000I-140000J0D01*
G01*
X18400000Y-28760000D01*
G75*
G02*
X18260000Y-28620000I0J140000D01*
G01*
X18260000Y-28280000D01*
G75*
G02*
X18400000Y-28140000I140000J0D01*
G01*
X18680000Y-28140000D01*
G75*
G02*
X18820000Y-28280000I0J-140000D01*
G01*
G37*
G04 #@! TD.AperFunction*
G04 #@! TO.P,C98,1*
G04 #@! TO.N,VDDA*
G04 #@! TA.AperFunction,SMDPad,CuDef*
G36*
G01*
X19780000Y-28280000D02*
X19780000Y-28620000D01*
G75*
G02*
X19640000Y-28760000I-140000J0D01*
G01*
X19360000Y-28760000D01*
G75*
G02*
X19220000Y-28620000I0J140000D01*
G01*
X19220000Y-28280000D01*
G75*
G02*
X19360000Y-28140000I140000J0D01*
G01*
X19640000Y-28140000D01*
G75*
G02*
X19780000Y-28280000I0J-140000D01*
G01*
G37*
G04 #@! TD.AperFunction*
G04 #@! TD*
G04 #@! TO.P,C97,2*
G04 #@! TO.N,GND*
G04 #@! TA.AperFunction,SMDPad,CuDef*
G36*
G01*
X18820000Y-27280000D02*
X18820000Y-27620000D01*
G75*
G02*
X18680000Y-27760000I-140000J0D01*
G01*
X18400000Y-27760000D01*
G75*
G02*
X18260000Y-27620000I0J140000D01*
G01*
X18260000Y-27280000D01*
G75*
G02*
X18400000Y-27140000I140000J0D01*
G01*
X18680000Y-27140000D01*
G75*
G02*
X18820000Y-27280000I0J-140000D01*
G01*
G37*
G04 #@! TD.AperFunction*
G04 #@! TO.P,C97,1*
G04 #@! TO.N,VDDA*
G04 #@! TA.AperFunction,SMDPad,CuDef*
G36*
G01*
X19780000Y-27280000D02*
X19780000Y-27620000D01*
G75*
G02*
X19640000Y-27760000I-140000J0D01*
G01*
X19360000Y-27760000D01*
G75*
G02*
X19220000Y-27620000I0J140000D01*
G01*
X19220000Y-27280000D01*
G75*
G02*
X19360000Y-27140000I140000J0D01*
G01*
X19640000Y-27140000D01*
G75*
G02*
X19780000Y-27280000I0J-140000D01*
G01*
G37*
G04 #@! TD.AperFunction*
G04 #@! TD*
G04 #@! TO.P,C96,2*
G04 #@! TO.N,GND*
G04 #@! TA.AperFunction,SMDPad,CuDef*
G36*
G01*
X23000000Y-11330000D02*
X23000000Y-11670000D01*
G75*
G02*
X22860000Y-11810000I-140000J0D01*
G01*
X22580000Y-11810000D01*
G75*
G02*
X22440000Y-11670000I0J140000D01*
G01*
X22440000Y-11330000D01*
G75*
G02*
X22580000Y-11190000I140000J0D01*
G01*
X22860000Y-11190000D01*
G75*
G02*
X23000000Y-11330000I0J-140000D01*
G01*
G37*
G04 #@! TD.AperFunction*
G04 #@! TO.P,C96,1*
G04 #@! TO.N,VDDA*
G04 #@! TA.AperFunction,SMDPad,CuDef*
G36*
G01*
X23960000Y-11330000D02*
X23960000Y-11670000D01*
G75*
G02*
X23820000Y-11810000I-140000J0D01*
G01*
X23540000Y-11810000D01*
G75*
G02*
X23400000Y-11670000I0J140000D01*
G01*
X23400000Y-11330000D01*
G75*
G02*
X23540000Y-11190000I140000J0D01*
G01*
X23820000Y-11190000D01*
G75*
G02*
X23960000Y-11330000I0J-140000D01*
G01*
G37*
G04 #@! TD.AperFunction*
G04 #@! TD*
G04 #@! TO.P,C95,2*
G04 #@! TO.N,GND*
G04 #@! TA.AperFunction,SMDPad,CuDef*
G36*
G01*
X23000000Y-10330000D02*
X23000000Y-10670000D01*
G75*
G02*
X22860000Y-10810000I-140000J0D01*
G01*
X22580000Y-10810000D01*
G75*
G02*
X22440000Y-10670000I0J140000D01*
G01*
X22440000Y-10330000D01*
G75*
G02*
X22580000Y-10190000I140000J0D01*
G01*
X22860000Y-10190000D01*
G75*
G02*
X23000000Y-10330000I0J-140000D01*
G01*
G37*
G04 #@! TD.AperFunction*
G04 #@! TO.P,C95,1*
G04 #@! TO.N,VDDA*
G04 #@! TA.AperFunction,SMDPad,CuDef*
G36*
G01*
X23960000Y-10330000D02*
X23960000Y-10670000D01*
G75*
G02*
X23820000Y-10810000I-140000J0D01*
G01*
X23540000Y-10810000D01*
G75*
G02*
X23400000Y-10670000I0J140000D01*
G01*
X23400000Y-10330000D01*
G75*
G02*
X23540000Y-10190000I140000J0D01*
G01*
X23820000Y-10190000D01*
G75*
G02*
X23960000Y-10330000I0J-140000D01*
G01*
G37*
G04 #@! TD.AperFunction*
G04 #@! TD*
G04 #@! TO.P,C92,2*
G04 #@! TO.N,GND*
G04 #@! TA.AperFunction,SMDPad,CuDef*
G36*
G01*
X14680000Y-10720000D02*
X14680000Y-10380000D01*
G75*
G02*
X14820000Y-10240000I140000J0D01*
G01*
X15100000Y-10240000D01*
G75*
G02*
X15240000Y-10380000I0J-140000D01*
G01*
X15240000Y-10720000D01*
G75*
G02*
X15100000Y-10860000I-140000J0D01*
G01*
X14820000Y-10860000D01*
G75*
G02*
X14680000Y-10720000I0J140000D01*
G01*
G37*
G04 #@! TD.AperFunction*
G04 #@! TO.P,C92,1*
G04 #@! TO.N,VDDA*
G04 #@! TA.AperFunction,SMDPad,CuDef*
G36*
G01*
X13720000Y-10720000D02*
X13720000Y-10380000D01*
G75*
G02*
X13860000Y-10240000I140000J0D01*
G01*
X14140000Y-10240000D01*
G75*
G02*
X14280000Y-10380000I0J-140000D01*
G01*
X14280000Y-10720000D01*
G75*
G02*
X14140000Y-10860000I-140000J0D01*
G01*
X13860000Y-10860000D01*
G75*
G02*
X13720000Y-10720000I0J140000D01*
G01*
G37*
G04 #@! TD.AperFunction*
G04 #@! TD*
G04 #@! TO.P,C91,2*
G04 #@! TO.N,GND*
G04 #@! TA.AperFunction,SMDPad,CuDef*
G36*
G01*
X14680000Y-11720000D02*
X14680000Y-11380000D01*
G75*
G02*
X14820000Y-11240000I140000J0D01*
G01*
X15100000Y-11240000D01*
G75*
G02*
X15240000Y-11380000I0J-140000D01*
G01*
X15240000Y-11720000D01*
G75*
G02*
X15100000Y-11860000I-140000J0D01*
G01*
X14820000Y-11860000D01*
G75*
G02*
X14680000Y-11720000I0J140000D01*
G01*
G37*
G04 #@! TD.AperFunction*
G04 #@! TO.P,C91,1*
G04 #@! TO.N,VDDA*
G04 #@! TA.AperFunction,SMDPad,CuDef*
G36*
G01*
X13720000Y-11720000D02*
X13720000Y-11380000D01*
G75*
G02*
X13860000Y-11240000I140000J0D01*
G01*
X14140000Y-11240000D01*
G75*
G02*
X14280000Y-11380000I0J-140000D01*
G01*
X14280000Y-11720000D01*
G75*
G02*
X14140000Y-11860000I-140000J0D01*
G01*
X13860000Y-11860000D01*
G75*
G02*
X13720000Y-11720000I0J140000D01*
G01*
G37*
G04 #@! TD.AperFunction*
G04 #@! TD*
G04 #@! TO.P,C90,2*
G04 #@! TO.N,GND*
G04 #@! TA.AperFunction,SMDPad,CuDef*
G36*
G01*
X9530000Y-17050000D02*
X9870000Y-17050000D01*
G75*
G02*
X10010000Y-17190000I0J-140000D01*
G01*
X10010000Y-17470000D01*
G75*
G02*
X9870000Y-17610000I-140000J0D01*
G01*
X9530000Y-17610000D01*
G75*
G02*
X9390000Y-17470000I0J140000D01*
G01*
X9390000Y-17190000D01*
G75*
G02*
X9530000Y-17050000I140000J0D01*
G01*
G37*
G04 #@! TD.AperFunction*
G04 #@! TO.P,C90,1*
G04 #@! TO.N,VDDA*
G04 #@! TA.AperFunction,SMDPad,CuDef*
G36*
G01*
X9530000Y-16090000D02*
X9870000Y-16090000D01*
G75*
G02*
X10010000Y-16230000I0J-140000D01*
G01*
X10010000Y-16510000D01*
G75*
G02*
X9870000Y-16650000I-140000J0D01*
G01*
X9530000Y-16650000D01*
G75*
G02*
X9390000Y-16510000I0J140000D01*
G01*
X9390000Y-16230000D01*
G75*
G02*
X9530000Y-16090000I140000J0D01*
G01*
G37*
G04 #@! TD.AperFunction*
G04 #@! TD*
G04 #@! TO.P,C89,2*
G04 #@! TO.N,GND*
G04 #@! TA.AperFunction,SMDPad,CuDef*
G36*
G01*
X8530000Y-17050000D02*
X8870000Y-17050000D01*
G75*
G02*
X9010000Y-17190000I0J-140000D01*
G01*
X9010000Y-17470000D01*
G75*
G02*
X8870000Y-17610000I-140000J0D01*
G01*
X8530000Y-17610000D01*
G75*
G02*
X8390000Y-17470000I0J140000D01*
G01*
X8390000Y-17190000D01*
G75*
G02*
X8530000Y-17050000I140000J0D01*
G01*
G37*
G04 #@! TD.AperFunction*
G04 #@! TO.P,C89,1*
G04 #@! TO.N,VDDA*
G04 #@! TA.AperFunction,SMDPad,CuDef*
G36*
G01*
X8530000Y-16090000D02*
X8870000Y-16090000D01*
G75*
G02*
X9010000Y-16230000I0J-140000D01*
G01*
X9010000Y-16510000D01*
G75*
G02*
X8870000Y-16650000I-140000J0D01*
G01*
X8530000Y-16650000D01*
G75*
G02*
X8390000Y-16510000I0J140000D01*
G01*
X8390000Y-16230000D01*
G75*
G02*
X8530000Y-16090000I140000J0D01*
G01*
G37*
G04 #@! TD.AperFunction*
G04 #@! TD*
G04 #@! TO.P,C88,2*
G04 #@! TO.N,GND*
G04 #@! TA.AperFunction,SMDPad,CuDef*
G36*
G01*
X9530000Y-14930000D02*
X9870000Y-14930000D01*
G75*
G02*
X10010000Y-15070000I0J-140000D01*
G01*
X10010000Y-15350000D01*
G75*
G02*
X9870000Y-15490000I-140000J0D01*
G01*
X9530000Y-15490000D01*
G75*
G02*
X9390000Y-15350000I0J140000D01*
G01*
X9390000Y-15070000D01*
G75*
G02*
X9530000Y-14930000I140000J0D01*
G01*
G37*
G04 #@! TD.AperFunction*
G04 #@! TO.P,C88,1*
G04 #@! TO.N,VDDA*
G04 #@! TA.AperFunction,SMDPad,CuDef*
G36*
G01*
X9530000Y-13970000D02*
X9870000Y-13970000D01*
G75*
G02*
X10010000Y-14110000I0J-140000D01*
G01*
X10010000Y-14390000D01*
G75*
G02*
X9870000Y-14530000I-140000J0D01*
G01*
X9530000Y-14530000D01*
G75*
G02*
X9390000Y-14390000I0J140000D01*
G01*
X9390000Y-14110000D01*
G75*
G02*
X9530000Y-13970000I140000J0D01*
G01*
G37*
G04 #@! TD.AperFunction*
G04 #@! TD*
G04 #@! TO.P,C87,2*
G04 #@! TO.N,GND*
G04 #@! TA.AperFunction,SMDPad,CuDef*
G36*
G01*
X8570000Y-14930000D02*
X8910000Y-14930000D01*
G75*
G02*
X9050000Y-15070000I0J-140000D01*
G01*
X9050000Y-15350000D01*
G75*
G02*
X8910000Y-15490000I-140000J0D01*
G01*
X8570000Y-15490000D01*
G75*
G02*
X8430000Y-15350000I0J140000D01*
G01*
X8430000Y-15070000D01*
G75*
G02*
X8570000Y-14930000I140000J0D01*
G01*
G37*
G04 #@! TD.AperFunction*
G04 #@! TO.P,C87,1*
G04 #@! TO.N,VDDA*
G04 #@! TA.AperFunction,SMDPad,CuDef*
G36*
G01*
X8570000Y-13970000D02*
X8910000Y-13970000D01*
G75*
G02*
X9050000Y-14110000I0J-140000D01*
G01*
X9050000Y-14390000D01*
G75*
G02*
X8910000Y-14530000I-140000J0D01*
G01*
X8570000Y-14530000D01*
G75*
G02*
X8430000Y-14390000I0J140000D01*
G01*
X8430000Y-14110000D01*
G75*
G02*
X8570000Y-13970000I140000J0D01*
G01*
G37*
G04 #@! TD.AperFunction*
G04 #@! TD*
G04 #@! TO.P,C66,2*
G04 #@! TO.N,GND*
G04 #@! TA.AperFunction,SMDPad,CuDef*
G36*
G01*
X9530000Y-24880000D02*
X9870000Y-24880000D01*
G75*
G02*
X10010000Y-25020000I0J-140000D01*
G01*
X10010000Y-25300000D01*
G75*
G02*
X9870000Y-25440000I-140000J0D01*
G01*
X9530000Y-25440000D01*
G75*
G02*
X9390000Y-25300000I0J140000D01*
G01*
X9390000Y-25020000D01*
G75*
G02*
X9530000Y-24880000I140000J0D01*
G01*
G37*
G04 #@! TD.AperFunction*
G04 #@! TO.P,C66,1*
G04 #@! TO.N,VCPNO*
G04 #@! TA.AperFunction,SMDPad,CuDef*
G36*
G01*
X9530000Y-23920000D02*
X9870000Y-23920000D01*
G75*
G02*
X10010000Y-24060000I0J-140000D01*
G01*
X10010000Y-24340000D01*
G75*
G02*
X9870000Y-24480000I-140000J0D01*
G01*
X9530000Y-24480000D01*
G75*
G02*
X9390000Y-24340000I0J140000D01*
G01*
X9390000Y-24060000D01*
G75*
G02*
X9530000Y-23920000I140000J0D01*
G01*
G37*
G04 #@! TD.AperFunction*
G04 #@! TD*
G04 #@! TO.P,C58,2*
G04 #@! TO.N,GND*
G04 #@! TA.AperFunction,SMDPad,CuDef*
G36*
G01*
X9870000Y-22600000D02*
X9530000Y-22600000D01*
G75*
G02*
X9390000Y-22460000I0J140000D01*
G01*
X9390000Y-22180000D01*
G75*
G02*
X9530000Y-22040000I140000J0D01*
G01*
X9870000Y-22040000D01*
G75*
G02*
X10010000Y-22180000I0J-140000D01*
G01*
X10010000Y-22460000D01*
G75*
G02*
X9870000Y-22600000I-140000J0D01*
G01*
G37*
G04 #@! TD.AperFunction*
G04 #@! TO.P,C58,1*
G04 #@! TO.N,VCPNO*
G04 #@! TA.AperFunction,SMDPad,CuDef*
G36*
G01*
X9870000Y-23560000D02*
X9530000Y-23560000D01*
G75*
G02*
X9390000Y-23420000I0J140000D01*
G01*
X9390000Y-23140000D01*
G75*
G02*
X9530000Y-23000000I140000J0D01*
G01*
X9870000Y-23000000D01*
G75*
G02*
X10010000Y-23140000I0J-140000D01*
G01*
X10010000Y-23420000D01*
G75*
G02*
X9870000Y-23560000I-140000J0D01*
G01*
G37*
G04 #@! TD.AperFunction*
G04 #@! TD*
G04 #@! TO.P,C34,1*
G04 #@! TO.N,VTX1H*
G04 #@! TA.AperFunction,SMDPad,CuDef*
G36*
G01*
X9530000Y-18170000D02*
X9870000Y-18170000D01*
G75*
G02*
X10010000Y-18310000I0J-140000D01*
G01*
X10010000Y-18590000D01*
G75*
G02*
X9870000Y-18730000I-140000J0D01*
G01*
X9530000Y-18730000D01*
G75*
G02*
X9390000Y-18590000I0J140000D01*
G01*
X9390000Y-18310000D01*
G75*
G02*
X9530000Y-18170000I140000J0D01*
G01*
G37*
G04 #@! TD.AperFunction*
G04 #@! TO.P,C34,2*
G04 #@! TO.N,GND*
G04 #@! TA.AperFunction,SMDPad,CuDef*
G36*
G01*
X9530000Y-19130000D02*
X9870000Y-19130000D01*
G75*
G02*
X10010000Y-19270000I0J-140000D01*
G01*
X10010000Y-19550000D01*
G75*
G02*
X9870000Y-19690000I-140000J0D01*
G01*
X9530000Y-19690000D01*
G75*
G02*
X9390000Y-19550000I0J140000D01*
G01*
X9390000Y-19270000D01*
G75*
G02*
X9530000Y-19130000I140000J0D01*
G01*
G37*
G04 #@! TD.AperFunction*
G04 #@! TD*
D10*
G04 #@! TO.P,U1,74,VRS*
G04 #@! TO.N,Net-(U1-VRS)*
X12500000Y-25750000D03*
G04 #@! TO.P,U1,73,GNDA*
G04 #@! TO.N,GND*
X13200000Y-25750000D03*
G04 #@! TO.P,U1,72,GNDRES*
G04 #@! TO.N,Net-(U1-GNDRES)*
X13900000Y-25750000D03*
G04 #@! TO.P,U1,71,RES_EXT_NODE_P*
G04 #@! TO.N,Net-(U1-RES_EXT_NODE_P)*
X14600000Y-25750000D03*
G04 #@! TO.P,U1,70,VDDA*
G04 #@! TO.N,VDDA*
X15300000Y-25750000D03*
G04 #@! TO.P,U1,69,VREF*
G04 #@! TO.N,Net-(U1-VREF)*
X16000000Y-25750000D03*
G04 #@! TO.P,U1,68,NC*
G04 #@! TO.N,unconnected-(U1-NC-Pad68)*
X16700000Y-25750000D03*
G04 #@! TO.P,U1,67,GND*
G04 #@! TO.N,GND*
X17400000Y-25750000D03*
G04 #@! TO.P,U1,66,VDD*
G04 #@! TO.N,VDD*
X18100000Y-25750000D03*
G04 #@! TO.P,U1,65,GNDA*
G04 #@! TO.N,GND*
X18800000Y-25750000D03*
G04 #@! TO.P,U1,64,VDDA*
G04 #@! TO.N,VDDA*
X19500000Y-25750000D03*
G04 #@! TO.P,U1,63,GND*
G04 #@! TO.N,GND*
X20200000Y-25750000D03*
G04 #@! TO.P,U1,62,VDD*
G04 #@! TO.N,VDD*
X20900000Y-25750000D03*
G04 #@! TO.P,U1,61,GNDA*
G04 #@! TO.N,GND*
X21600000Y-25750000D03*
G04 #@! TO.P,U1,60,GND*
X22300000Y-25750000D03*
G04 #@! TO.P,U1,59,VDD*
G04 #@! TO.N,VDD*
X23000000Y-25750000D03*
G04 #@! TO.P,U1,58,GND*
G04 #@! TO.N,GND*
X23700000Y-25750000D03*
G04 #@! TO.P,U1,57,VDD*
G04 #@! TO.N,VDD*
X24400000Y-25750000D03*
G04 #@! TO.P,U1,56,OUTP_6*
G04 #@! TO.N,unconnected-(U1-OUTP_6-Pad56)*
X25100000Y-25750000D03*
G04 #@! TO.P,U1,55,OUTN_6*
G04 #@! TO.N,unconnected-(U1-OUTN_6-Pad55)*
X25800000Y-25750000D03*
G04 #@! TO.P,U1,54,VDD*
G04 #@! TO.N,VDD*
X26500000Y-25750000D03*
D11*
G04 #@! TO.P,U1,53,OUTP_4*
G04 #@! TO.N,unconnected-(U1-OUTP_4-Pad53)*
X27600000Y-24750000D03*
G04 #@! TO.P,U1,52,OUTN_4*
G04 #@! TO.N,unconnected-(U1-OUTN_4-Pad52)*
X27600000Y-24050000D03*
G04 #@! TO.P,U1,51,OUTP_2*
G04 #@! TO.N,CAM_D2_P*
X27600000Y-23350000D03*
G04 #@! TO.P,U1,50,OUTN_2*
G04 #@! TO.N,CAM_D2_N*
X27600000Y-22650000D03*
G04 #@! TO.P,U1,49,OUTP_0*
G04 #@! TO.N,CAM_D0_P*
X27600000Y-21950000D03*
G04 #@! TO.P,U1,48,OUTN_0*
G04 #@! TO.N,CAM_D0_N*
X27600000Y-21250000D03*
G04 #@! TO.P,U1,47,CLKP_OUT*
G04 #@! TO.N,CAM_CLK_P*
X27600000Y-20550000D03*
G04 #@! TO.P,U1,46,CLKN_OUT*
G04 #@! TO.N,CAM_CLK_N*
X27600000Y-19850000D03*
G04 #@! TO.P,U1,45,GND*
G04 #@! TO.N,GND*
X27600000Y-19150000D03*
G04 #@! TO.P,U1,44,VDD*
G04 #@! TO.N,VDD*
X27600000Y-18450000D03*
G04 #@! TO.P,U1,43,OUTP_1*
G04 #@! TO.N,CAM_D1_P*
X27600000Y-17750000D03*
G04 #@! TO.P,U1,42,OUTN_1*
G04 #@! TO.N,CAM_D1_N*
X27600000Y-17050000D03*
G04 #@! TO.P,U1,41,OUTP_3*
G04 #@! TO.N,CAM_D3_P*
X27600000Y-16350000D03*
G04 #@! TO.P,U1,40,OUTN_3*
G04 #@! TO.N,CAM_D3_N*
X27600000Y-15650000D03*
G04 #@! TO.P,U1,39,OUTP_5*
G04 #@! TO.N,unconnected-(U1-OUTP_5-Pad39)*
X27600000Y-14950000D03*
G04 #@! TO.P,U1,38,OUTN_5*
G04 #@! TO.N,unconnected-(U1-OUTN_5-Pad38)*
X27600000Y-14250000D03*
D10*
G04 #@! TO.P,U1,37,OUTP_7*
G04 #@! TO.N,unconnected-(U1-OUTP_7-Pad37)*
X26500000Y-13250000D03*
G04 #@! TO.P,U1,36,OUTN_7*
G04 #@! TO.N,unconnected-(U1-OUTN_7-Pad36)*
X25800000Y-13250000D03*
G04 #@! TO.P,U1,35,GND*
G04 #@! TO.N,GND*
X25100000Y-13250000D03*
G04 #@! TO.P,U1,34,VDD*
G04 #@! TO.N,VDD*
X24400000Y-13250000D03*
G04 #@! TO.P,U1,33,VDDA*
G04 #@! TO.N,VDDA*
X23700000Y-13250000D03*
G04 #@! TO.P,U1,32,GNDA*
G04 #@! TO.N,GND*
X23000000Y-13250000D03*
G04 #@! TO.P,U1,31,VDDA*
G04 #@! TO.N,VDDA*
X22300000Y-13250000D03*
G04 #@! TO.P,U1,30,SYS_RST_N*
G04 #@! TO.N,Net-(U1-SYS_RST_N)*
X21600000Y-13250000D03*
G04 #@! TO.P,U1,29,CLK_REF*
G04 #@! TO.N,CLOCK*
X20900000Y-13250000D03*
G04 #@! TO.P,U1,28,VDDIO*
G04 #@! TO.N,VDDIO*
X20200000Y-13250000D03*
G04 #@! TO.P,U1,27,GNDA*
G04 #@! TO.N,GND*
X19500000Y-13250000D03*
G04 #@! TO.P,U1,26,SLAMODE*
X18800000Y-13250000D03*
G04 #@! TO.P,U1,25,SCL*
G04 #@! TO.N,SCL_1V8*
X18100000Y-13250000D03*
G04 #@! TO.P,U1,24,SDA*
G04 #@! TO.N,SDA_1V8*
X17400000Y-13250000D03*
G04 #@! TO.P,U1,23,TDIG*
G04 #@! TO.N,Net-(U1-TDIG)*
X16700000Y-13250000D03*
G04 #@! TO.P,U1,22,TEXP*
G04 #@! TO.N,Net-(U1-TEXP)*
X16000000Y-13250000D03*
G04 #@! TO.P,U1,21,VDDIO*
G04 #@! TO.N,VDDIO*
X15300000Y-13250000D03*
G04 #@! TO.P,U1,20,GND*
G04 #@! TO.N,GND*
X14600000Y-13250000D03*
G04 #@! TO.P,U1,19,VDDA*
G04 #@! TO.N,VDDA*
X13900000Y-13250000D03*
G04 #@! TO.P,U1,18,VDD*
G04 #@! TO.N,VDD*
X13200000Y-13250000D03*
G04 #@! TO.P,U1,17,GND*
G04 #@! TO.N,GND*
X12500000Y-13250000D03*
D11*
G04 #@! TO.P,U1,16,VDDA*
G04 #@! TO.N,VDDA*
X11400000Y-14250000D03*
G04 #@! TO.P,U1,15,GNDA*
G04 #@! TO.N,GND*
X11400000Y-14950000D03*
G04 #@! TO.P,U1,14,VCPPO*
G04 #@! TO.N,VCPPO*
X11400000Y-15650000D03*
G04 #@! TO.P,U1,13,VDDA*
G04 #@! TO.N,VDDA*
X11400000Y-16350000D03*
G04 #@! TO.P,U1,12,VCPPI*
G04 #@! TO.N,VCPPI*
X11400000Y-17050000D03*
G04 #@! TO.P,U1,11,VGRSTH*
G04 #@! TO.N,VGRSTH*
X11400000Y-17750000D03*
G04 #@! TO.P,U1,10,VTX1H*
G04 #@! TO.N,VTX1H*
X11400000Y-18450000D03*
G04 #@! TO.P,U1,9,VTX2H*
G04 #@! TO.N,VTX2H*
X11400000Y-19150000D03*
G04 #@! TO.P,U1,8,GNDA*
G04 #@! TO.N,GND*
X11400000Y-19850000D03*
G04 #@! TO.P,U1,7,VTX1L*
G04 #@! TO.N,VTX1L*
X11400000Y-20550000D03*
G04 #@! TO.P,U1,6,VTX2L*
G04 #@! TO.N,VTX2L*
X11400000Y-21250000D03*
G04 #@! TO.P,U1,5,VGRSTL*
G04 #@! TO.N,VGRSTL*
X11400000Y-21950000D03*
G04 #@! TO.P,U1,4,VCPNI*
G04 #@! TO.N,VCPNI*
X11400000Y-22650000D03*
G04 #@! TO.P,U1,3,VCPNO*
G04 #@! TO.N,VCPNO*
X11400000Y-23350000D03*
G04 #@! TO.P,U1,2,VDD*
G04 #@! TO.N,VDD*
X11400000Y-24050000D03*
G04 #@! TO.P,U1,1,GND*
G04 #@! TO.N,GND*
X11400000Y-24750000D03*
G04 #@! TD*
G04 #@! TO.P,R1,2*
G04 #@! TO.N,Net-(U1-GNDRES)*
G04 #@! TA.AperFunction,SMDPad,CuDef*
G36*
G01*
X14010000Y-27265000D02*
X14010000Y-27635000D01*
G75*
G02*
X13875000Y-27770000I-135000J0D01*
G01*
X13605000Y-27770000D01*
G75*
G02*
X13470000Y-27635000I0J135000D01*
G01*
X13470000Y-27265000D01*
G75*
G02*
X13605000Y-27130000I135000J0D01*
G01*
X13875000Y-27130000D01*
G75*
G02*
X14010000Y-27265000I0J-135000D01*
G01*
G37*
G04 #@! TD.AperFunction*
G04 #@! TO.P,R1,1*
G04 #@! TO.N,Net-(U1-RES_EXT_NODE_P)*
G04 #@! TA.AperFunction,SMDPad,CuDef*
G36*
G01*
X15030000Y-27265000D02*
X15030000Y-27635000D01*
G75*
G02*
X14895000Y-27770000I-135000J0D01*
G01*
X14625000Y-27770000D01*
G75*
G02*
X14490000Y-27635000I0J135000D01*
G01*
X14490000Y-27265000D01*
G75*
G02*
X14625000Y-27130000I135000J0D01*
G01*
X14895000Y-27130000D01*
G75*
G02*
X15030000Y-27265000I0J-135000D01*
G01*
G37*
G04 #@! TD.AperFunction*
G04 #@! TD*
G04 #@! TO.P,C68,2*
G04 #@! TO.N,GND*
G04 #@! TA.AperFunction,SMDPad,CuDef*
G36*
G01*
X12540000Y-27620000D02*
X12540000Y-27280000D01*
G75*
G02*
X12680000Y-27140000I140000J0D01*
G01*
X12960000Y-27140000D01*
G75*
G02*
X13100000Y-27280000I0J-140000D01*
G01*
X13100000Y-27620000D01*
G75*
G02*
X12960000Y-27760000I-140000J0D01*
G01*
X12680000Y-27760000D01*
G75*
G02*
X12540000Y-27620000I0J140000D01*
G01*
G37*
G04 #@! TD.AperFunction*
G04 #@! TO.P,C68,1*
G04 #@! TO.N,Net-(U1-VRS)*
G04 #@! TA.AperFunction,SMDPad,CuDef*
G36*
G01*
X11580000Y-27620000D02*
X11580000Y-27280000D01*
G75*
G02*
X11720000Y-27140000I140000J0D01*
G01*
X12000000Y-27140000D01*
G75*
G02*
X12140000Y-27280000I0J-140000D01*
G01*
X12140000Y-27620000D01*
G75*
G02*
X12000000Y-27760000I-140000J0D01*
G01*
X11720000Y-27760000D01*
G75*
G02*
X11580000Y-27620000I0J140000D01*
G01*
G37*
G04 #@! TD.AperFunction*
G04 #@! TD*
G04 #@! TO.P,C67,2*
G04 #@! TO.N,GND*
G04 #@! TA.AperFunction,SMDPad,CuDef*
G36*
G01*
X15830000Y-28100000D02*
X16170000Y-28100000D01*
G75*
G02*
X16310000Y-28240000I0J-140000D01*
G01*
X16310000Y-28520000D01*
G75*
G02*
X16170000Y-28660000I-140000J0D01*
G01*
X15830000Y-28660000D01*
G75*
G02*
X15690000Y-28520000I0J140000D01*
G01*
X15690000Y-28240000D01*
G75*
G02*
X15830000Y-28100000I140000J0D01*
G01*
G37*
G04 #@! TD.AperFunction*
G04 #@! TO.P,C67,1*
G04 #@! TO.N,Net-(U1-VREF)*
G04 #@! TA.AperFunction,SMDPad,CuDef*
G36*
G01*
X15830000Y-27140000D02*
X16170000Y-27140000D01*
G75*
G02*
X16310000Y-27280000I0J-140000D01*
G01*
X16310000Y-27560000D01*
G75*
G02*
X16170000Y-27700000I-140000J0D01*
G01*
X15830000Y-27700000D01*
G75*
G02*
X15690000Y-27560000I0J140000D01*
G01*
X15690000Y-27280000D01*
G75*
G02*
X15830000Y-27140000I140000J0D01*
G01*
G37*
G04 #@! TD.AperFunction*
G04 #@! TD*
G04 #@! TO.P,C62,2*
G04 #@! TO.N,GND*
G04 #@! TA.AperFunction,SMDPad,CuDef*
G36*
G01*
X8530000Y-24880000D02*
X8870000Y-24880000D01*
G75*
G02*
X9010000Y-25020000I0J-140000D01*
G01*
X9010000Y-25300000D01*
G75*
G02*
X8870000Y-25440000I-140000J0D01*
G01*
X8530000Y-25440000D01*
G75*
G02*
X8390000Y-25300000I0J140000D01*
G01*
X8390000Y-25020000D01*
G75*
G02*
X8530000Y-24880000I140000J0D01*
G01*
G37*
G04 #@! TD.AperFunction*
G04 #@! TO.P,C62,1*
G04 #@! TO.N,VCPNO*
G04 #@! TA.AperFunction,SMDPad,CuDef*
G36*
G01*
X8530000Y-23920000D02*
X8870000Y-23920000D01*
G75*
G02*
X9010000Y-24060000I0J-140000D01*
G01*
X9010000Y-24340000D01*
G75*
G02*
X8870000Y-24480000I-140000J0D01*
G01*
X8530000Y-24480000D01*
G75*
G02*
X8390000Y-24340000I0J140000D01*
G01*
X8390000Y-24060000D01*
G75*
G02*
X8530000Y-23920000I140000J0D01*
G01*
G37*
G04 #@! TD.AperFunction*
G04 #@! TD*
G04 #@! TO.P,C54,2*
G04 #@! TO.N,GND*
G04 #@! TA.AperFunction,SMDPad,CuDef*
G36*
G01*
X8870000Y-22600000D02*
X8530000Y-22600000D01*
G75*
G02*
X8390000Y-22460000I0J140000D01*
G01*
X8390000Y-22180000D01*
G75*
G02*
X8530000Y-22040000I140000J0D01*
G01*
X8870000Y-22040000D01*
G75*
G02*
X9010000Y-22180000I0J-140000D01*
G01*
X9010000Y-22460000D01*
G75*
G02*
X8870000Y-22600000I-140000J0D01*
G01*
G37*
G04 #@! TD.AperFunction*
G04 #@! TO.P,C54,1*
G04 #@! TO.N,VCPNO*
G04 #@! TA.AperFunction,SMDPad,CuDef*
G36*
G01*
X8870000Y-23560000D02*
X8530000Y-23560000D01*
G75*
G02*
X8390000Y-23420000I0J140000D01*
G01*
X8390000Y-23140000D01*
G75*
G02*
X8530000Y-23000000I140000J0D01*
G01*
X8870000Y-23000000D01*
G75*
G02*
X9010000Y-23140000I0J-140000D01*
G01*
X9010000Y-23420000D01*
G75*
G02*
X8870000Y-23560000I-140000J0D01*
G01*
G37*
G04 #@! TD.AperFunction*
G04 #@! TD*
G04 #@! TO.P,C33,1*
G04 #@! TO.N,VTX1H*
G04 #@! TA.AperFunction,SMDPad,CuDef*
G36*
G01*
X8530000Y-18170000D02*
X8870000Y-18170000D01*
G75*
G02*
X9010000Y-18310000I0J-140000D01*
G01*
X9010000Y-18590000D01*
G75*
G02*
X8870000Y-18730000I-140000J0D01*
G01*
X8530000Y-18730000D01*
G75*
G02*
X8390000Y-18590000I0J140000D01*
G01*
X8390000Y-18310000D01*
G75*
G02*
X8530000Y-18170000I140000J0D01*
G01*
G37*
G04 #@! TD.AperFunction*
G04 #@! TO.P,C33,2*
G04 #@! TO.N,GND*
G04 #@! TA.AperFunction,SMDPad,CuDef*
G36*
G01*
X8530000Y-19130000D02*
X8870000Y-19130000D01*
G75*
G02*
X9010000Y-19270000I0J-140000D01*
G01*
X9010000Y-19550000D01*
G75*
G02*
X8870000Y-19690000I-140000J0D01*
G01*
X8530000Y-19690000D01*
G75*
G02*
X8390000Y-19550000I0J140000D01*
G01*
X8390000Y-19270000D01*
G75*
G02*
X8530000Y-19130000I140000J0D01*
G01*
G37*
G04 #@! TD.AperFunction*
G04 #@! TD*
G04 #@! TO.P,C4,2*
G04 #@! TO.N,GND*
G04 #@! TA.AperFunction,SMDPad,CuDef*
G36*
G01*
X12400000Y-10380000D02*
X12400000Y-10720000D01*
G75*
G02*
X12260000Y-10860000I-140000J0D01*
G01*
X11980000Y-10860000D01*
G75*
G02*
X11840000Y-10720000I0J140000D01*
G01*
X11840000Y-10380000D01*
G75*
G02*
X11980000Y-10240000I140000J0D01*
G01*
X12260000Y-10240000D01*
G75*
G02*
X12400000Y-10380000I0J-140000D01*
G01*
G37*
G04 #@! TD.AperFunction*
G04 #@! TO.P,C4,1*
G04 #@! TO.N,VDD*
G04 #@! TA.AperFunction,SMDPad,CuDef*
G36*
G01*
X13360000Y-10380000D02*
X13360000Y-10720000D01*
G75*
G02*
X13220000Y-10860000I-140000J0D01*
G01*
X12940000Y-10860000D01*
G75*
G02*
X12800000Y-10720000I0J140000D01*
G01*
X12800000Y-10380000D01*
G75*
G02*
X12940000Y-10240000I140000J0D01*
G01*
X13220000Y-10240000D01*
G75*
G02*
X13360000Y-10380000I0J-140000D01*
G01*
G37*
G04 #@! TD.AperFunction*
G04 #@! TD*
G04 #@! TO.P,C3,2*
G04 #@! TO.N,GND*
G04 #@! TA.AperFunction,SMDPad,CuDef*
G36*
G01*
X12400000Y-11380000D02*
X12400000Y-11720000D01*
G75*
G02*
X12260000Y-11860000I-140000J0D01*
G01*
X11980000Y-11860000D01*
G75*
G02*
X11840000Y-11720000I0J140000D01*
G01*
X11840000Y-11380000D01*
G75*
G02*
X11980000Y-11240000I140000J0D01*
G01*
X12260000Y-11240000D01*
G75*
G02*
X12400000Y-11380000I0J-140000D01*
G01*
G37*
G04 #@! TD.AperFunction*
G04 #@! TO.P,C3,1*
G04 #@! TO.N,VDD*
G04 #@! TA.AperFunction,SMDPad,CuDef*
G36*
G01*
X13360000Y-11380000D02*
X13360000Y-11720000D01*
G75*
G02*
X13220000Y-11860000I-140000J0D01*
G01*
X12940000Y-11860000D01*
G75*
G02*
X12800000Y-11720000I0J140000D01*
G01*
X12800000Y-11380000D01*
G75*
G02*
X12940000Y-11240000I140000J0D01*
G01*
X13220000Y-11240000D01*
G75*
G02*
X13360000Y-11380000I0J-140000D01*
G01*
G37*
G04 #@! TD.AperFunction*
G04 #@! TD*
D12*
G04 #@! TO.N,GND*
X16000000Y-28400000D03*
X17900000Y-17850000D03*
X18500000Y-17850000D03*
X17900000Y-16850000D03*
X18500000Y-16850000D03*
X17900000Y-15800000D03*
X18500000Y-15800000D03*
X18500000Y-14800000D03*
X17900000Y-14800000D03*
X27450000Y-5900000D03*
X27450000Y-7350000D03*
X21050000Y-10250000D03*
X18500000Y-11000000D03*
G04 #@! TO.N,VDDIO*
X18500000Y-9350000D03*
X20750000Y-9325000D03*
G04 #@! TO.N,GND*
X32750000Y-37650000D03*
X11600000Y-2350000D03*
X29800000Y-17800000D03*
X30400000Y-19350000D03*
X30650000Y-17300000D03*
X30750000Y-15650000D03*
X33750000Y-18700000D03*
X33750000Y-20250000D03*
G04 #@! TO.N,CAM_D1_P*
X31100000Y-16775000D03*
G04 #@! TO.N,CAM_D1_N*
X31100000Y-16225000D03*
G04 #@! TO.N,CAM_D0_P*
X33350000Y-15275000D03*
G04 #@! TO.N,CAM_D0_N*
X33350000Y-14725000D03*
G04 #@! TO.N,CAM_CLK_N*
X30055545Y-18355545D03*
G04 #@! TO.N,CAM_CLK_P*
X30444455Y-18744455D03*
G04 #@! TO.N,CAM_D2_N*
X33350000Y-19225000D03*
G04 #@! TO.N,CAM_D2_P*
X33350000Y-19775000D03*
G04 #@! TO.N,+5V*
X13950000Y-37700000D03*
G04 #@! TO.N,GND*
X9850000Y-14950000D03*
X8900000Y-14950000D03*
X8900000Y-17100000D03*
X9800000Y-17100000D03*
X9700000Y-19600000D03*
X8700000Y-19610000D03*
X11700000Y-25400000D03*
X8800000Y-33200000D03*
G04 #@! TO.N,VDD*
X19150000Y-21550000D03*
G04 #@! TO.N,VDDA*
X8800000Y-31150000D03*
G04 #@! TO.N,+5V*
X27400000Y-37700000D03*
G04 #@! TO.N,GND*
X36350000Y-23250000D03*
X38450000Y-23250000D03*
X35350000Y-14200000D03*
X35350000Y-15750000D03*
X35350000Y-17250000D03*
X35350000Y-18750000D03*
X35350000Y-20200000D03*
X35350000Y-21800000D03*
X38450000Y-21750000D03*
X38400000Y-20250000D03*
X38400000Y-18750000D03*
X38400000Y-17250000D03*
X38400000Y-15750000D03*
X38400000Y-14250000D03*
X41000000Y-36700000D03*
X41000000Y-35500000D03*
X42000000Y-36700000D03*
X42000000Y-35500000D03*
X42000000Y-30200000D03*
X41000000Y-30200000D03*
X42000000Y-29000000D03*
X41000000Y-29000000D03*
X39100000Y-31500000D03*
X38100000Y-31500000D03*
X39100000Y-32300000D03*
X38100000Y-32300000D03*
X39800000Y-26000000D03*
X41500000Y-26000000D03*
X39800000Y-27300000D03*
X41500000Y-27300000D03*
X39800000Y-11700000D03*
X39800000Y-13000000D03*
X41500000Y-13000000D03*
X41500000Y-11700000D03*
D13*
G04 #@! TO.N,+3V3*
X27450000Y-10200000D03*
X39300000Y-7400000D03*
X38400000Y-7400000D03*
X37100000Y-25500000D03*
X37800000Y-25500000D03*
X37100000Y-24850000D03*
X37800000Y-24850000D03*
D12*
G04 #@! TO.N,GND*
X39300000Y-8400000D03*
X38400000Y-8400000D03*
X42200000Y-3800000D03*
X42200000Y-4400000D03*
X43300000Y-3800000D03*
X43300000Y-4400000D03*
X43300000Y-9400000D03*
X43300000Y-10000000D03*
X42200000Y-10000000D03*
X42200000Y-9400000D03*
G04 #@! TO.N,SCL_3V3*
X38850000Y-5400000D03*
X36300000Y-8400000D03*
G04 #@! TO.N,VDD*
X22500000Y-28900000D03*
X21800000Y-28900000D03*
X23200000Y-28900000D03*
X21100000Y-28900000D03*
X23200000Y-28200000D03*
X22500000Y-28200000D03*
X21800000Y-28200000D03*
X21100000Y-28200000D03*
G04 #@! TO.N,VDDA*
X14700000Y-29500000D03*
X14700000Y-28950000D03*
X14700000Y-28400000D03*
X14100000Y-29500000D03*
X14100000Y-28950000D03*
X14100000Y-28400000D03*
G04 #@! TO.N,GND*
X28410000Y-10750000D03*
X27680000Y-5260200D03*
X16000000Y-2400000D03*
X16400000Y-2800000D03*
X16850000Y-3900000D03*
X16850000Y-4700000D03*
G04 #@! TO.N,CAM_EN*
X15900000Y-4300000D03*
G04 #@! TO.N,Net-(U1-TEXP)*
X11600000Y-7950000D03*
G04 #@! TO.N,Net-(U1-TDIG)*
X11600000Y-5900000D03*
G04 #@! TO.N,VDDIO*
X18100000Y-6400000D03*
X18100000Y-7050000D03*
X18800000Y-6400000D03*
X18800000Y-7050000D03*
X19550000Y-7050000D03*
X19550000Y-6400000D03*
G04 #@! TO.N,GND*
X7100000Y-27000000D03*
X8050000Y-26500000D03*
X9100000Y-27000000D03*
X10050000Y-26500000D03*
X10050000Y-27000000D03*
X9100000Y-26500000D03*
X8050000Y-27000000D03*
X7100000Y-26500000D03*
X10550000Y-28400000D03*
X24050000Y-32250000D03*
X24050000Y-31350000D03*
X24750000Y-30200000D03*
X24300000Y-29700000D03*
X30000000Y-32750000D03*
X30000000Y-31600000D03*
X30000000Y-32187500D03*
X28600000Y-32850000D03*
X28600000Y-32200000D03*
X28600000Y-31550000D03*
X27272500Y-31800000D03*
X27300000Y-33100000D03*
X24900000Y-36350000D03*
X24450000Y-35850000D03*
X11300000Y-34750000D03*
X14950000Y-34450000D03*
X15400000Y-34950000D03*
X15400000Y-32550000D03*
X14900000Y-32100000D03*
X13600000Y-32000000D03*
X12000000Y-32000000D03*
X12800000Y-32000000D03*
G04 #@! TO.N,Net-(U5-SS_CTRL)*
X11200000Y-33200000D03*
X13550000Y-33900000D03*
G04 #@! TO.N,CAM_EN*
X12300000Y-33950000D03*
G04 #@! TO.N,+5V*
X13300000Y-37700000D03*
G04 #@! TO.N,VDD*
X27242500Y-34550000D03*
G04 #@! TO.N,GND*
X30800000Y-34637500D03*
X32000000Y-34637500D03*
X31400000Y-34637500D03*
X13050000Y-36800000D03*
X14250000Y-36800000D03*
X13650000Y-36800000D03*
G04 #@! TO.N,CAM_EN*
X25012500Y-31812500D03*
G04 #@! TO.N,+5V*
X21550000Y-37700000D03*
X31400000Y-35550000D03*
X16200000Y-1100000D03*
G04 #@! TO.N,SDA_1V8*
X17250000Y-11950000D03*
G04 #@! TO.N,SCL_1V8*
X17525000Y-11275000D03*
G04 #@! TO.N,VDDA*
X13600000Y-8800000D03*
X14200000Y-8800000D03*
X13600000Y-9600000D03*
X14200000Y-9600000D03*
X10600000Y-12800000D03*
X11200000Y-12800000D03*
X10600000Y-13600000D03*
X11200000Y-13600000D03*
X10600000Y-11500000D03*
X11200000Y-11500000D03*
X11200000Y-10700000D03*
X10600000Y-10700000D03*
G04 #@! TO.N,GND*
X26500000Y-15650000D03*
X26500000Y-16350000D03*
X33800000Y-15750000D03*
X33800000Y-14250000D03*
X33000000Y-20250000D03*
X33000000Y-18700000D03*
G04 #@! TO.N,Net-(U1-SYS_RST_N)*
X21610000Y-6600000D03*
G04 #@! TO.N,GND*
X20900000Y-14250000D03*
G04 #@! TO.N,CAM_D3_P*
X27600000Y-16350000D03*
G04 #@! TO.N,CAM_D3_N*
X27600000Y-15650000D03*
G04 #@! TO.N,GND*
X28200000Y-19150000D03*
X27600000Y-19150000D03*
X27000000Y-19150000D03*
X18550000Y-27450000D03*
X18550000Y-28450000D03*
X15550000Y-8650000D03*
X15550000Y-9650000D03*
X15600000Y-10700000D03*
X15600000Y-11700000D03*
X9000000Y-12450000D03*
X9000000Y-13450000D03*
X9000000Y-10600000D03*
X9000000Y-11600000D03*
X8100000Y-14690000D03*
X7100000Y-14690000D03*
X8100000Y-16800000D03*
X7100000Y-16800000D03*
X8000000Y-23700000D03*
X7000000Y-23700000D03*
X10100000Y-21500000D03*
X9100000Y-21500000D03*
X7100000Y-21490000D03*
X8100000Y-21500000D03*
X14950000Y-10450000D03*
X14950000Y-11650000D03*
X14950000Y-11050000D03*
X12100000Y-10450000D03*
X12100000Y-11650000D03*
X12100000Y-11050000D03*
G04 #@! TO.N,VDDIO*
X15300000Y-13250000D03*
X15300000Y-12650000D03*
X15301274Y-13850691D03*
X20201274Y-13850691D03*
X20200000Y-12650000D03*
X20200000Y-13250000D03*
G04 #@! TO.N,VTX2L*
X12000000Y-21250000D03*
X10800000Y-21250000D03*
X11400000Y-21250000D03*
G04 #@! TO.N,VDDA*
X23700000Y-11550000D03*
X23700000Y-11000000D03*
X23700000Y-10450000D03*
G04 #@! TO.N,VTX1H*
X9200000Y-18650000D03*
X8600000Y-18650000D03*
X9800000Y-18650000D03*
G04 #@! TO.N,GND*
X19350000Y-12650000D03*
X19350000Y-13850000D03*
X19350000Y-13250000D03*
X18800000Y-12650000D03*
X18800000Y-13850000D03*
X18800000Y-13250000D03*
X25100000Y-12650000D03*
X25100000Y-13850000D03*
X25100000Y-13250000D03*
G04 #@! TO.N,VDDA*
X19500000Y-28500000D03*
X19500000Y-27950000D03*
X19500000Y-27400000D03*
G04 #@! TO.N,VDD*
X11950000Y-24050000D03*
X11400000Y-24050000D03*
X10850000Y-24050000D03*
G04 #@! TO.N,GND*
X22150000Y-25150000D03*
X22150000Y-26350000D03*
X22150000Y-25750000D03*
X23700000Y-25150000D03*
X23700000Y-26350000D03*
X23700000Y-25750000D03*
X20200000Y-25150000D03*
X20200000Y-26350000D03*
X20200000Y-25750000D03*
X21600000Y-25150000D03*
X21600000Y-26350000D03*
X21600000Y-25750000D03*
X18800000Y-25150000D03*
X18800000Y-26350000D03*
X18800000Y-25750000D03*
X17400000Y-25150000D03*
X17400000Y-26350000D03*
X17400000Y-25750000D03*
X13200000Y-25150000D03*
X13200000Y-26350000D03*
X13200000Y-25750000D03*
X11100000Y-25400000D03*
X11700000Y-24750000D03*
X11100000Y-24750000D03*
X10800000Y-19850000D03*
X12000000Y-19850000D03*
X11400000Y-19850000D03*
X10800000Y-14950000D03*
X12000000Y-14950000D03*
X11400000Y-14950000D03*
X12500000Y-12650000D03*
X12500000Y-13850000D03*
X12500000Y-13250000D03*
X14600000Y-12650000D03*
X14600000Y-13850000D03*
X14600000Y-13250000D03*
X23000000Y-13850000D03*
X23000000Y-12650000D03*
X23000000Y-13250000D03*
G04 #@! TO.N,CLOCK*
X20900000Y-13250000D03*
G04 #@! TO.N,VDD*
X13200000Y-13250000D03*
X13200000Y-12650000D03*
X13200000Y-13850000D03*
G04 #@! TO.N,VDDA*
X22300000Y-13750000D03*
X22300000Y-13200000D03*
X22300000Y-12650000D03*
G04 #@! TO.N,VDD*
X24400000Y-13250000D03*
X24400000Y-12700000D03*
X24400000Y-13800000D03*
X27600000Y-18450000D03*
X27050000Y-18450000D03*
X28150000Y-18450000D03*
X18100000Y-26300000D03*
X20900000Y-26300000D03*
X24400000Y-26300000D03*
X26500000Y-26300000D03*
X23000000Y-26300000D03*
X18100000Y-25200000D03*
X20900000Y-25200000D03*
X24400000Y-25200000D03*
X26500000Y-25200000D03*
X23000000Y-25200000D03*
G04 #@! TO.N,VDDA*
X15300000Y-25200000D03*
X15300000Y-25750000D03*
X15300000Y-26300000D03*
X13900000Y-13850000D03*
X13900000Y-13250000D03*
X13900000Y-12650000D03*
X12000000Y-14250000D03*
X11400000Y-14250000D03*
X10850000Y-14250000D03*
X12000000Y-16350000D03*
G04 #@! TO.N,VDD*
X18100000Y-25750000D03*
X20900000Y-25750000D03*
X23000000Y-25750000D03*
X26500000Y-25750000D03*
X24400000Y-25750000D03*
G04 #@! TO.N,VTX1L*
X10800000Y-20550000D03*
G04 #@! TO.N,VCPPI*
X10800000Y-17050000D03*
G04 #@! TO.N,VCPPO*
X10800000Y-15650000D03*
G04 #@! TO.N,VGRSTH*
X10800000Y-17750000D03*
G04 #@! TO.N,VTX2H*
X10800000Y-19150000D03*
G04 #@! TO.N,VTX1L*
X12000000Y-20550000D03*
G04 #@! TO.N,VCPPI*
X12000000Y-17050000D03*
G04 #@! TO.N,VCPPO*
X12000000Y-15650000D03*
G04 #@! TO.N,VGRSTH*
X12000000Y-17750000D03*
G04 #@! TO.N,VTX2H*
X12000000Y-19150000D03*
G04 #@! TO.N,VCPPO*
X11400000Y-15650000D03*
G04 #@! TO.N,VDDA*
X11400000Y-16350000D03*
G04 #@! TO.N,VCPPI*
X11400000Y-17050000D03*
G04 #@! TO.N,VGRSTH*
X11400000Y-17750000D03*
G04 #@! TO.N,VTX2H*
X11400000Y-19150000D03*
G04 #@! TO.N,VTX1L*
X11400000Y-20550000D03*
G04 #@! TO.N,VGRSTL*
X10800000Y-21950000D03*
X12000000Y-21950000D03*
X11400000Y-21950000D03*
G04 #@! TO.N,VCPNI*
X10800000Y-22650000D03*
X11400000Y-22650000D03*
X12000000Y-22650000D03*
G04 #@! TO.N,VDDA*
X10800000Y-16350000D03*
G04 #@! TD*
D14*
G04 #@! TO.N,SCL_1V8*
X17525000Y-11275000D02*
X18100000Y-11850000D01*
X18100000Y-11850000D02*
X18100000Y-13250000D01*
G04 #@! TO.N,SDA_1V8*
X17400000Y-12100000D02*
X17250000Y-11950000D01*
X17400000Y-13250000D02*
X17400000Y-12100000D01*
D15*
G04 #@! TO.N,CAM_D0_N*
X33225001Y-14849999D02*
X33350000Y-14725000D01*
X32300000Y-15437866D02*
X32887867Y-14849999D01*
X32887867Y-14849999D02*
X33225001Y-14849999D01*
X32300000Y-18287866D02*
X32300000Y-15437866D01*
X28200000Y-21450000D02*
X29137866Y-21450000D01*
X28000000Y-21250000D02*
X28200000Y-21450000D01*
X27600000Y-21250000D02*
X28000000Y-21250000D01*
X29137866Y-21450000D02*
X32300000Y-18287866D01*
G04 #@! TO.N,CAM_D0_P*
X33225001Y-15150001D02*
X33350000Y-15275000D01*
X32600000Y-18412134D02*
X32600000Y-15562134D01*
X32600000Y-15562134D02*
X33012133Y-15150001D01*
X29262134Y-21750000D02*
X32600000Y-18412134D01*
X28000000Y-21950000D02*
X28200000Y-21750000D01*
X28200000Y-21750000D02*
X29262134Y-21750000D01*
X27600000Y-21950000D02*
X28000000Y-21950000D01*
X33012133Y-15150001D02*
X33225001Y-15150001D01*
G04 #@! TO.N,CAM_CLK_N*
X30055545Y-18532322D02*
X30055545Y-18355545D01*
X28993934Y-19593933D02*
X30055545Y-18532322D01*
G04 #@! TO.N,CAM_CLK_P*
X30267678Y-18744455D02*
X30444455Y-18744455D01*
X29206067Y-19806067D02*
X29206067Y-19806066D01*
X29206067Y-19806066D02*
X30267678Y-18744455D01*
G04 #@! TO.N,CAM_CLK_N*
X28993933Y-19593933D02*
X28993934Y-19593933D01*
X28200000Y-20050000D02*
X28537866Y-20050000D01*
G04 #@! TO.N,CAM_CLK_P*
X28000000Y-20550000D02*
X28200000Y-20350000D01*
X28200000Y-20350000D02*
X28662134Y-20350000D01*
X28662134Y-20350000D02*
X29206067Y-19806067D01*
G04 #@! TO.N,CAM_CLK_N*
X28000000Y-19850000D02*
X28200000Y-20050000D01*
X28537866Y-20050000D02*
X28993933Y-19593933D01*
G04 #@! TO.N,CAM_D2_N*
X33225001Y-19349999D02*
X33350000Y-19225000D01*
X32787867Y-19349999D02*
X33225001Y-19349999D01*
X29287866Y-22850000D02*
X32787867Y-19349999D01*
X28700001Y-22850000D02*
X29287866Y-22850000D01*
X27600000Y-22650000D02*
X28500001Y-22650000D01*
G04 #@! TO.N,CAM_D2_P*
X33225001Y-19650001D02*
X33350000Y-19775000D01*
X32912133Y-19650001D02*
X33225001Y-19650001D01*
X29412134Y-23150000D02*
X32912133Y-19650001D01*
X28700001Y-23150000D02*
X29412134Y-23150000D01*
X28500001Y-23350000D02*
X28700001Y-23150000D01*
X27600000Y-23350000D02*
X28500001Y-23350000D01*
G04 #@! TO.N,CAM_D2_N*
X28500001Y-22650000D02*
X28700001Y-22850000D01*
D14*
G04 #@! TO.N,SCL_3V3*
X36300000Y-8400000D02*
X36300000Y-6600000D01*
X36300000Y-6600000D02*
X37500000Y-5400000D01*
X37500000Y-5400000D02*
X38850000Y-5400000D01*
G04 #@! TO.N,VDD*
X25600000Y-28900000D02*
X23200000Y-28900000D01*
X26100000Y-33407500D02*
X26100000Y-29400000D01*
X27242500Y-34550000D02*
X26100000Y-33407500D01*
X26100000Y-29400000D02*
X25600000Y-28900000D01*
G04 #@! TO.N,CAM_EN*
X21800000Y-35800000D02*
X14150000Y-35800000D01*
X14150000Y-35800000D02*
X12300000Y-33950000D01*
X25012500Y-31812500D02*
X25012500Y-32587500D01*
X25012500Y-32587500D02*
X21800000Y-35800000D01*
X8050000Y-33950000D02*
X12300000Y-33950000D01*
X4150000Y-30050000D02*
X8050000Y-33950000D01*
X7750000Y-4300000D02*
X4150000Y-7900000D01*
X15900000Y-4300000D02*
X7750000Y-4300000D01*
X4150000Y-7900000D02*
X4150000Y-30050000D01*
G04 #@! TO.N,Net-(U1-TDIG)*
X16700000Y-7950000D02*
X16700000Y-13250000D01*
X15500000Y-6750000D02*
X16700000Y-7950000D01*
X11600000Y-5900000D02*
X12450000Y-6750000D01*
X12450000Y-6750000D02*
X15500000Y-6750000D01*
G04 #@! TO.N,Net-(U1-TEXP)*
X16100000Y-13150000D02*
X16000000Y-13250000D01*
X12350000Y-7200000D02*
X15050000Y-7200000D01*
X11600000Y-7950000D02*
X12350000Y-7200000D01*
X16100000Y-8250000D02*
X16100000Y-13150000D01*
X15050000Y-7200000D02*
X16100000Y-8250000D01*
G04 #@! TO.N,Net-(U5-SS_CTRL)*
X12850000Y-33200000D02*
X13550000Y-33900000D01*
X11200000Y-33200000D02*
X12850000Y-33200000D01*
G04 #@! TO.N,Net-(U1-SYS_RST_N)*
X21600000Y-6610000D02*
X21600000Y-13250000D01*
X21610000Y-6600000D02*
X21600000Y-6610000D01*
D16*
G04 #@! TO.N,CAM_CLK_N*
X28000000Y-19850000D02*
X27600000Y-19850000D01*
G04 #@! TO.N,CAM_CLK_P*
X28000000Y-20550000D02*
X27600000Y-20550000D01*
D17*
G04 #@! TO.N,VDDA*
X19500000Y-25750000D02*
X19500000Y-28450000D01*
G04 #@! TO.N,GND*
X12820000Y-27030000D02*
X12820000Y-27450000D01*
X13200000Y-26650000D02*
X12820000Y-27030000D01*
X13200000Y-26350000D02*
X13200000Y-26650000D01*
G04 #@! TO.N,Net-(U1-VRS)*
X11860000Y-26990000D02*
X11860000Y-27450000D01*
X12500000Y-26350000D02*
X11860000Y-26990000D01*
X12500000Y-25750000D02*
X12500000Y-26350000D01*
D18*
G04 #@! TO.N,VCPNO*
X8700000Y-23280000D02*
X9700000Y-23280000D01*
X9620000Y-23280000D02*
X8700000Y-24200000D01*
X9700000Y-23280000D02*
X9620000Y-23280000D01*
X8780000Y-23280000D02*
X9700000Y-24200000D01*
X8700000Y-23280000D02*
X8780000Y-23280000D01*
X8700000Y-24200000D02*
X9700000Y-24200000D01*
X8700000Y-23280000D02*
X8700000Y-24200000D01*
X9700000Y-24200000D02*
X9700000Y-23280000D01*
G04 #@! TO.N,VTX1H*
X8700000Y-18450000D02*
X9700000Y-18450000D01*
D17*
G04 #@! TO.N,VDDA*
X23700000Y-10520000D02*
X23680000Y-10500000D01*
X23700000Y-13250000D02*
X23700000Y-10520000D01*
G04 #@! TO.N,VTX1H*
X10800000Y-18450000D02*
X9700000Y-18450000D01*
G04 #@! TO.N,VDDA*
X9700000Y-14250000D02*
X10850000Y-14250000D01*
X9780000Y-14170000D02*
X9700000Y-14250000D01*
X8720000Y-16350000D02*
X8700000Y-16370000D01*
X10800000Y-16350000D02*
X8720000Y-16350000D01*
X8740000Y-14250000D02*
X10270000Y-14250000D01*
G04 #@! TO.N,VDD*
X13200000Y-10670000D02*
X13080000Y-10550000D01*
X13200000Y-13850000D02*
X13200000Y-10670000D01*
G04 #@! TO.N,VDDA*
X13900000Y-10660000D02*
X14000000Y-10560000D01*
X13900000Y-13850000D02*
X13900000Y-10660000D01*
G04 #@! TO.N,Net-(U1-VREF)*
X16000000Y-25750000D02*
X16000000Y-27420000D01*
G04 #@! TO.N,Net-(U1-RES_EXT_NODE_P)*
X14600000Y-27290000D02*
X14760000Y-27450000D01*
X14600000Y-25750000D02*
X14600000Y-27290000D01*
G04 #@! TO.N,Net-(U1-GNDRES)*
X13900000Y-27290000D02*
X13740000Y-27450000D01*
X13900000Y-25750000D02*
X13900000Y-27290000D01*
G04 #@! TO.N,VCPNI*
X11400000Y-22650000D02*
X12000000Y-22650000D01*
X11400000Y-22650000D02*
X10800000Y-22650000D01*
G04 #@! TO.N,VCPNO*
X9770000Y-23350000D02*
X9700000Y-23280000D01*
X11400000Y-23350000D02*
X9770000Y-23350000D01*
D15*
G04 #@! TO.N,CAM_D1_P*
X30975001Y-16650001D02*
X31100000Y-16775000D01*
X29148958Y-17550000D02*
X30048957Y-16650001D01*
X28000000Y-17750000D02*
X28200000Y-17550000D01*
X30048957Y-16650001D02*
X30975001Y-16650001D01*
X28200000Y-17550000D02*
X29148958Y-17550000D01*
X27600000Y-17750000D02*
X28000000Y-17750000D01*
G04 #@! TO.N,CAM_D1_N*
X30975001Y-16349999D02*
X31100000Y-16225000D01*
X29024690Y-17250000D02*
X29924691Y-16349999D01*
X29924691Y-16349999D02*
X30975001Y-16349999D01*
X28000000Y-17050000D02*
X28200000Y-17250000D01*
X27600000Y-17050000D02*
X28000000Y-17050000D01*
X28200000Y-17250000D02*
X29024690Y-17250000D01*
G04 #@! TD*
G04 #@! TA.AperFunction,Conductor*
G04 #@! TO.N,GND*
G36*
X35552682Y-18907D02*
G01*
X35588646Y-68407D01*
X35588646Y-129593D01*
X35552682Y-179093D01*
X35537445Y-188196D01*
X35288569Y-308047D01*
X35288557Y-308054D01*
X35050751Y-457477D01*
X34831176Y-632583D01*
X34632583Y-831176D01*
X34457477Y-1050751D01*
X34308054Y-1288557D01*
X34308047Y-1288569D01*
X34186199Y-1541590D01*
X34186198Y-1541593D01*
X34093440Y-1806680D01*
X34030944Y-2080492D01*
X33999500Y-2359573D01*
X33999500Y-2640426D01*
X34030944Y-2919507D01*
X34093440Y-3193319D01*
X34186198Y-3458406D01*
X34186199Y-3458409D01*
X34308047Y-3711430D01*
X34308051Y-3711437D01*
X34308055Y-3711445D01*
X34457477Y-3949248D01*
X34632584Y-4168825D01*
X34831175Y-4367416D01*
X35050752Y-4542523D01*
X35288555Y-4691945D01*
X35288566Y-4691950D01*
X35288569Y-4691952D01*
X35509962Y-4798569D01*
X35541592Y-4813801D01*
X35806682Y-4906560D01*
X36080491Y-4969055D01*
X36359575Y-5000500D01*
X36359576Y-5000500D01*
X36640424Y-5000500D01*
X36640425Y-5000500D01*
X36919509Y-4969055D01*
X37193318Y-4906560D01*
X37458408Y-4813801D01*
X37711445Y-4691945D01*
X37949248Y-4542523D01*
X38168825Y-4367416D01*
X38367416Y-4168825D01*
X38542523Y-3949248D01*
X38691945Y-3711445D01*
X38813801Y-3458408D01*
X38906560Y-3193318D01*
X38969055Y-2919509D01*
X39000500Y-2640425D01*
X39000500Y-2359575D01*
X38969055Y-2080491D01*
X38906560Y-1806682D01*
X38813801Y-1541592D01*
X38798569Y-1509962D01*
X38691952Y-1288569D01*
X38691950Y-1288566D01*
X38691945Y-1288555D01*
X38542523Y-1050752D01*
X38367416Y-831175D01*
X38168825Y-632584D01*
X37949248Y-457477D01*
X37711445Y-308055D01*
X37711437Y-308051D01*
X37711430Y-308047D01*
X37462555Y-188196D01*
X37418330Y-145913D01*
X37407405Y-85711D01*
X37433952Y-30585D01*
X37487832Y-1591D01*
X37505509Y0D01*
X41799177Y0D01*
X41800795Y-13D01*
X41958013Y-2583D01*
X41969309Y-3416D01*
X42281820Y-44559D01*
X42294506Y-47082D01*
X42598204Y-128458D01*
X42610448Y-132615D01*
X42900916Y-252931D01*
X42912519Y-258652D01*
X43184806Y-415857D01*
X43195561Y-423044D01*
X43444979Y-614429D01*
X43454716Y-622967D01*
X43677032Y-845283D01*
X43685570Y-855020D01*
X43876951Y-1104432D01*
X43884146Y-1115199D01*
X44041344Y-1387475D01*
X44047071Y-1399089D01*
X44167381Y-1689542D01*
X44171544Y-1701805D01*
X44252915Y-2005486D01*
X44255441Y-2018187D01*
X44296582Y-2330686D01*
X44297416Y-2341989D01*
X44299987Y-2499203D01*
X44300000Y-2500822D01*
X44300000Y-36499177D01*
X44299987Y-36500796D01*
X44297416Y-36658010D01*
X44296582Y-36669313D01*
X44255441Y-36981812D01*
X44252915Y-36994513D01*
X44171544Y-37298194D01*
X44167381Y-37310457D01*
X44047071Y-37600910D01*
X44041344Y-37612524D01*
X43884146Y-37884800D01*
X43876951Y-37895567D01*
X43685570Y-38144979D01*
X43677032Y-38154716D01*
X43454716Y-38377032D01*
X43444979Y-38385570D01*
X43195567Y-38576951D01*
X43184800Y-38584146D01*
X42912524Y-38741344D01*
X42900910Y-38747071D01*
X42610457Y-38867381D01*
X42598194Y-38871544D01*
X42294513Y-38952915D01*
X42281812Y-38955441D01*
X41969313Y-38996582D01*
X41958010Y-38997416D01*
X41803599Y-38999941D01*
X41800794Y-38999987D01*
X41799177Y-39000000D01*
X37505509Y-39000000D01*
X37447318Y-38981093D01*
X37411354Y-38931593D01*
X37411354Y-38870407D01*
X37447318Y-38820907D01*
X37462555Y-38811804D01*
X37711430Y-38691952D01*
X37711445Y-38691945D01*
X37949248Y-38542523D01*
X38168825Y-38367416D01*
X38367416Y-38168825D01*
X38542523Y-37949248D01*
X38691945Y-37711445D01*
X38813801Y-37458408D01*
X38906560Y-37193318D01*
X38969055Y-36919509D01*
X39000500Y-36640425D01*
X39000500Y-36359575D01*
X38969055Y-36080491D01*
X38906560Y-35806682D01*
X38813801Y-35541592D01*
X38691945Y-35288555D01*
X38542523Y-35050752D01*
X38367416Y-34831175D01*
X38168825Y-34632584D01*
X37949248Y-34457477D01*
X37711445Y-34308055D01*
X37711437Y-34308051D01*
X37711430Y-34308047D01*
X37458409Y-34186199D01*
X37458406Y-34186198D01*
X37193319Y-34093440D01*
X36919507Y-34030944D01*
X36640426Y-33999500D01*
X36640425Y-33999500D01*
X36359575Y-33999500D01*
X36359573Y-33999500D01*
X36080492Y-34030944D01*
X35806680Y-34093440D01*
X35541593Y-34186198D01*
X35541590Y-34186199D01*
X35288569Y-34308047D01*
X35288556Y-34308054D01*
X35288555Y-34308055D01*
X35235466Y-34341413D01*
X35050751Y-34457477D01*
X34831176Y-34632583D01*
X34632583Y-34831176D01*
X34457477Y-35050751D01*
X34308054Y-35288557D01*
X34308047Y-35288569D01*
X34186199Y-35541590D01*
X34186198Y-35541593D01*
X34093440Y-35806680D01*
X34030944Y-36080492D01*
X33999500Y-36359573D01*
X33999500Y-36640426D01*
X34030944Y-36919507D01*
X34093440Y-37193319D01*
X34186198Y-37458406D01*
X34186199Y-37458409D01*
X34308047Y-37711430D01*
X34308051Y-37711437D01*
X34308055Y-37711445D01*
X34457477Y-37949248D01*
X34632584Y-38168825D01*
X34831175Y-38367416D01*
X35050752Y-38542523D01*
X35288555Y-38691945D01*
X35288566Y-38691950D01*
X35288569Y-38691952D01*
X35537445Y-38811804D01*
X35581670Y-38854087D01*
X35592595Y-38914289D01*
X35566048Y-38969415D01*
X35512168Y-38998409D01*
X35494491Y-39000000D01*
X3505509Y-39000000D01*
X3447318Y-38981093D01*
X3411354Y-38931593D01*
X3411354Y-38870407D01*
X3447318Y-38820907D01*
X3462555Y-38811804D01*
X3711430Y-38691952D01*
X3711445Y-38691945D01*
X3949248Y-38542523D01*
X4168825Y-38367416D01*
X4367416Y-38168825D01*
X4542523Y-37949248D01*
X4691945Y-37711445D01*
X4697457Y-37700000D01*
X12945131Y-37700000D01*
X12962500Y-37809661D01*
X13012905Y-37908587D01*
X13091413Y-37987095D01*
X13190339Y-38037500D01*
X13300000Y-38054869D01*
X13409661Y-38037500D01*
X13508587Y-37987095D01*
X13554998Y-37940683D01*
X13609513Y-37912908D01*
X13669945Y-37922479D01*
X13695000Y-37940682D01*
X13741413Y-37987095D01*
X13840339Y-38037500D01*
X13950000Y-38054869D01*
X14059661Y-38037500D01*
X14158587Y-37987095D01*
X14237095Y-37908587D01*
X14287500Y-37809661D01*
X14304869Y-37700000D01*
X21195131Y-37700000D01*
X21212500Y-37809661D01*
X21262905Y-37908587D01*
X21341413Y-37987095D01*
X21440339Y-38037500D01*
X21550000Y-38054869D01*
X21659661Y-38037500D01*
X21758587Y-37987095D01*
X21837095Y-37908587D01*
X21887500Y-37809661D01*
X21904869Y-37700000D01*
X27045131Y-37700000D01*
X27062500Y-37809661D01*
X27112905Y-37908587D01*
X27191413Y-37987095D01*
X27290339Y-38037500D01*
X27400000Y-38054869D01*
X27509661Y-38037500D01*
X27608587Y-37987095D01*
X27687095Y-37908587D01*
X27737500Y-37809661D01*
X27754869Y-37700000D01*
X27737500Y-37590339D01*
X27687095Y-37491413D01*
X27608587Y-37412905D01*
X27509661Y-37362500D01*
X27400000Y-37345131D01*
X27290338Y-37362500D01*
X27191413Y-37412905D01*
X27112905Y-37491413D01*
X27062500Y-37590338D01*
X27062500Y-37590339D01*
X27045131Y-37700000D01*
X21904869Y-37700000D01*
X21887500Y-37590339D01*
X21837095Y-37491413D01*
X21758587Y-37412905D01*
X21659661Y-37362500D01*
X21550000Y-37345131D01*
X21440338Y-37362500D01*
X21341413Y-37412905D01*
X21262905Y-37491413D01*
X21212500Y-37590338D01*
X21212500Y-37590339D01*
X21195131Y-37700000D01*
X14304869Y-37700000D01*
X14287500Y-37590339D01*
X14237095Y-37491413D01*
X14158587Y-37412905D01*
X14059661Y-37362500D01*
X13950000Y-37345131D01*
X13840338Y-37362500D01*
X13741413Y-37412905D01*
X13695001Y-37459316D01*
X13640487Y-37487092D01*
X13580055Y-37477521D01*
X13554999Y-37459317D01*
X13508587Y-37412905D01*
X13409661Y-37362500D01*
X13300000Y-37345131D01*
X13190338Y-37362500D01*
X13091413Y-37412905D01*
X13012905Y-37491413D01*
X12962500Y-37590338D01*
X12962500Y-37590339D01*
X12945131Y-37700000D01*
X4697457Y-37700000D01*
X4813801Y-37458408D01*
X4906560Y-37193318D01*
X4969055Y-36919509D01*
X5000500Y-36640425D01*
X5000500Y-36359575D01*
X4969055Y-36080491D01*
X4906560Y-35806682D01*
X4813801Y-35541592D01*
X4691945Y-35288555D01*
X4542523Y-35050752D01*
X4367416Y-34831175D01*
X4168825Y-34632584D01*
X3949248Y-34457477D01*
X3711445Y-34308055D01*
X3711437Y-34308051D01*
X3711430Y-34308047D01*
X3458409Y-34186199D01*
X3458406Y-34186198D01*
X3193319Y-34093440D01*
X2919507Y-34030944D01*
X2640426Y-33999500D01*
X2640425Y-33999500D01*
X2359575Y-33999500D01*
X2359573Y-33999500D01*
X2080492Y-34030944D01*
X1806680Y-34093440D01*
X1541593Y-34186198D01*
X1541590Y-34186199D01*
X1288569Y-34308047D01*
X1288556Y-34308054D01*
X1288555Y-34308055D01*
X1235466Y-34341413D01*
X1050751Y-34457477D01*
X831176Y-34632583D01*
X632583Y-34831176D01*
X457477Y-35050751D01*
X308054Y-35288557D01*
X308047Y-35288569D01*
X188196Y-35537444D01*
X145913Y-35581669D01*
X85711Y-35592594D01*
X30585Y-35566047D01*
X1591Y-35512167D01*
X0Y-35494490D01*
X0Y-7850171D01*
X3899500Y-7850171D01*
X3899500Y-30099828D01*
X3937634Y-30191894D01*
X3937635Y-30191895D01*
X3937636Y-30191897D01*
X7837635Y-34091895D01*
X7837636Y-34091897D01*
X7908103Y-34162364D01*
X7908104Y-34162364D01*
X7908105Y-34162365D01*
X8000171Y-34200500D01*
X8000172Y-34200500D01*
X8099828Y-34200500D01*
X12013811Y-34200500D01*
X12072002Y-34219407D01*
X12083808Y-34229490D01*
X12091413Y-34237095D01*
X12190339Y-34287500D01*
X12268950Y-34299951D01*
X12323465Y-34327727D01*
X12323466Y-34327727D01*
X14008103Y-36012364D01*
X14008104Y-36012364D01*
X14008105Y-36012365D01*
X14100171Y-36050500D01*
X14100172Y-36050500D01*
X21849829Y-36050500D01*
X21907885Y-36026451D01*
X21941897Y-36012364D01*
X22404261Y-35550000D01*
X31045131Y-35550000D01*
X31062500Y-35659661D01*
X31112905Y-35758587D01*
X31191413Y-35837095D01*
X31290339Y-35887500D01*
X31400000Y-35904869D01*
X31509661Y-35887500D01*
X31608587Y-35837095D01*
X31687095Y-35758587D01*
X31737500Y-35659661D01*
X31754869Y-35550000D01*
X31753537Y-35541593D01*
X31746077Y-35494490D01*
X31737500Y-35440339D01*
X31687095Y-35341413D01*
X31608587Y-35262905D01*
X31509661Y-35212500D01*
X31400000Y-35195131D01*
X31290338Y-35212500D01*
X31191413Y-35262905D01*
X31112905Y-35341413D01*
X31062500Y-35440338D01*
X31046463Y-35541593D01*
X31045131Y-35550000D01*
X22404261Y-35550000D01*
X25224864Y-32729397D01*
X25263000Y-32637328D01*
X25263000Y-32537672D01*
X25263000Y-32098689D01*
X25281907Y-32040498D01*
X25291990Y-32028691D01*
X25299595Y-32021087D01*
X25350000Y-31922161D01*
X25367369Y-31812500D01*
X25350000Y-31702839D01*
X25299595Y-31603913D01*
X25221087Y-31525405D01*
X25122161Y-31475000D01*
X25012500Y-31457631D01*
X24902838Y-31475000D01*
X24803913Y-31525405D01*
X24725405Y-31603913D01*
X24675000Y-31702838D01*
X24675000Y-31702839D01*
X24657631Y-31812500D01*
X24675000Y-31922161D01*
X24725405Y-32021087D01*
X24733005Y-32028687D01*
X24760781Y-32083202D01*
X24762000Y-32098689D01*
X24762000Y-32442731D01*
X24743093Y-32500922D01*
X24733004Y-32512735D01*
X21725235Y-35520504D01*
X21670718Y-35548281D01*
X21655231Y-35549500D01*
X14294769Y-35549500D01*
X14236578Y-35530593D01*
X14224765Y-35520504D01*
X12677727Y-33973466D01*
X12649951Y-33918951D01*
X12637500Y-33840339D01*
X12587095Y-33741413D01*
X12508587Y-33662905D01*
X12508584Y-33662903D01*
X12459138Y-33637709D01*
X12415873Y-33594445D01*
X12406302Y-33534013D01*
X12434080Y-33479496D01*
X12488596Y-33451719D01*
X12504083Y-33450500D01*
X12705231Y-33450500D01*
X12763422Y-33469407D01*
X12775235Y-33479496D01*
X13172271Y-33876532D01*
X13200048Y-33931048D01*
X13203050Y-33950000D01*
X13212500Y-34009661D01*
X13262905Y-34108587D01*
X13341413Y-34187095D01*
X13440339Y-34237500D01*
X13550000Y-34254869D01*
X13659661Y-34237500D01*
X13758587Y-34187095D01*
X13837095Y-34108587D01*
X13887500Y-34009661D01*
X13904869Y-33900000D01*
X13887500Y-33790339D01*
X13837095Y-33691413D01*
X13758587Y-33612905D01*
X13659661Y-33562500D01*
X13643955Y-33560012D01*
X13581048Y-33550048D01*
X13526532Y-33522271D01*
X13266992Y-33262731D01*
X12991897Y-32987636D01*
X12991895Y-32987635D01*
X12991894Y-32987634D01*
X12899829Y-32949500D01*
X12899828Y-32949500D01*
X11486189Y-32949500D01*
X11427998Y-32930593D01*
X11416191Y-32920509D01*
X11408587Y-32912905D01*
X11309661Y-32862500D01*
X11200000Y-32845131D01*
X11090338Y-32862500D01*
X10991413Y-32912905D01*
X10912905Y-32991413D01*
X10862500Y-33090338D01*
X10862500Y-33090339D01*
X10845131Y-33200000D01*
X10862500Y-33309661D01*
X10912905Y-33408587D01*
X10991413Y-33487095D01*
X10991415Y-33487096D01*
X11040862Y-33512291D01*
X11084127Y-33555555D01*
X11093698Y-33615987D01*
X11065920Y-33670504D01*
X11011404Y-33698281D01*
X10995917Y-33699500D01*
X8194768Y-33699500D01*
X8136577Y-33680593D01*
X8124764Y-33670504D01*
X5604261Y-31150000D01*
X8445131Y-31150000D01*
X8462500Y-31259661D01*
X8512905Y-31358587D01*
X8591413Y-31437095D01*
X8690339Y-31487500D01*
X8800000Y-31504869D01*
X8909661Y-31487500D01*
X9008587Y-31437095D01*
X9087095Y-31358587D01*
X9137500Y-31259661D01*
X9154869Y-31150000D01*
X9137500Y-31040339D01*
X9087095Y-30941413D01*
X9008587Y-30862905D01*
X8909661Y-30812500D01*
X8800000Y-30795131D01*
X8690338Y-30812500D01*
X8591413Y-30862905D01*
X8512905Y-30941413D01*
X8462500Y-31040338D01*
X8462500Y-31040339D01*
X8445131Y-31150000D01*
X5604261Y-31150000D01*
X4429496Y-29975235D01*
X4401719Y-29920718D01*
X4400500Y-29905231D01*
X4400500Y-27236622D01*
X11429500Y-27236622D01*
X11429500Y-27663369D01*
X11429501Y-27663372D01*
X11432317Y-27687661D01*
X11438427Y-27701498D01*
X11476187Y-27787016D01*
X11552984Y-27863813D01*
X11652338Y-27907682D01*
X11676627Y-27910500D01*
X12043372Y-27910499D01*
X12067662Y-27907682D01*
X12167016Y-27863813D01*
X12243813Y-27787016D01*
X12287682Y-27687662D01*
X12290500Y-27663373D01*
X12290499Y-27236628D01*
X12288846Y-27222372D01*
X13319500Y-27222372D01*
X13319500Y-27677619D01*
X13319501Y-27677622D01*
X13322270Y-27701500D01*
X13333537Y-27727016D01*
X13365384Y-27799141D01*
X13440859Y-27874616D01*
X13489680Y-27896173D01*
X13538501Y-27917730D01*
X13542749Y-27918222D01*
X13562377Y-27920500D01*
X13856666Y-27920499D01*
X13914856Y-27939406D01*
X13950820Y-27988906D01*
X13950821Y-28050091D01*
X13914857Y-28099591D01*
X13901614Y-28107707D01*
X13891414Y-28112904D01*
X13812905Y-28191413D01*
X13762500Y-28290338D01*
X13745131Y-28399999D01*
X13745131Y-28400000D01*
X13762500Y-28509661D01*
X13812906Y-28608589D01*
X13817486Y-28614892D01*
X13815205Y-28616549D01*
X13837095Y-28659538D01*
X13827508Y-28719968D01*
X13816845Y-28734642D01*
X13817486Y-28735108D01*
X13812906Y-28741410D01*
X13762500Y-28840338D01*
X13745131Y-28949999D01*
X13745131Y-28950000D01*
X13762500Y-29059661D01*
X13812906Y-29158589D01*
X13817486Y-29164892D01*
X13815205Y-29166549D01*
X13837095Y-29209538D01*
X13827508Y-29269968D01*
X13816845Y-29284642D01*
X13817486Y-29285108D01*
X13812906Y-29291410D01*
X13762500Y-29390338D01*
X13753078Y-29449828D01*
X13745131Y-29500000D01*
X13762500Y-29609661D01*
X13812905Y-29708587D01*
X13891413Y-29787095D01*
X13990339Y-29837500D01*
X14100000Y-29854869D01*
X14209661Y-29837500D01*
X14308587Y-29787095D01*
X14329998Y-29765683D01*
X14384513Y-29737908D01*
X14444945Y-29747479D01*
X14470000Y-29765682D01*
X14491413Y-29787095D01*
X14590339Y-29837500D01*
X14700000Y-29854869D01*
X14809661Y-29837500D01*
X14908587Y-29787095D01*
X14987095Y-29708587D01*
X15037500Y-29609661D01*
X15054869Y-29500000D01*
X15037500Y-29390339D01*
X14987095Y-29291413D01*
X14987094Y-29291412D01*
X14987093Y-29291410D01*
X14982514Y-29285108D01*
X14984797Y-29283448D01*
X14962908Y-29240487D01*
X14972479Y-29180055D01*
X14983156Y-29165358D01*
X14982514Y-29164892D01*
X14987093Y-29158589D01*
X14987095Y-29158587D01*
X15037500Y-29059661D01*
X15054869Y-28950000D01*
X15037500Y-28840339D01*
X14987095Y-28741413D01*
X14987094Y-28741412D01*
X14987093Y-28741410D01*
X14982514Y-28735108D01*
X14984797Y-28733448D01*
X14962908Y-28690487D01*
X14972479Y-28630055D01*
X14983156Y-28615358D01*
X14982514Y-28614892D01*
X14987093Y-28608589D01*
X14987095Y-28608587D01*
X15037500Y-28509661D01*
X15054869Y-28400000D01*
X15037500Y-28290339D01*
X14987095Y-28191413D01*
X14908587Y-28112905D01*
X14898093Y-28107558D01*
X14854830Y-28064291D01*
X14845262Y-28003859D01*
X14873041Y-27949343D01*
X14927559Y-27921568D01*
X14937356Y-27920513D01*
X14937591Y-27920499D01*
X14937622Y-27920499D01*
X14961498Y-27917730D01*
X15059141Y-27874616D01*
X15134616Y-27799141D01*
X15177730Y-27701498D01*
X15180500Y-27677623D01*
X15180499Y-27222378D01*
X15177730Y-27198502D01*
X15134616Y-27100859D01*
X15059141Y-27025384D01*
X15056344Y-27024149D01*
X15009510Y-27003469D01*
X14963915Y-26962667D01*
X14950500Y-26912905D01*
X14950500Y-26676849D01*
X14969407Y-26618658D01*
X15018907Y-26582694D01*
X15080093Y-26582694D01*
X15094445Y-26588640D01*
X15190335Y-26637498D01*
X15190336Y-26637499D01*
X15190337Y-26637499D01*
X15190339Y-26637500D01*
X15300000Y-26654869D01*
X15409661Y-26637500D01*
X15505555Y-26588640D01*
X15565987Y-26579068D01*
X15620503Y-26606845D01*
X15648281Y-26661362D01*
X15649500Y-26676849D01*
X15649500Y-27008663D01*
X15630593Y-27066854D01*
X15620504Y-27078666D01*
X15586188Y-27112982D01*
X15542317Y-27212340D01*
X15539500Y-27236622D01*
X15539500Y-27603369D01*
X15539501Y-27603372D01*
X15542317Y-27627661D01*
X15558296Y-27663849D01*
X15586187Y-27727016D01*
X15662984Y-27803813D01*
X15762338Y-27847682D01*
X15786627Y-27850500D01*
X16213372Y-27850499D01*
X16237662Y-27847682D01*
X16337016Y-27803813D01*
X16413813Y-27727016D01*
X16457682Y-27627662D01*
X16460500Y-27603373D01*
X16460499Y-27236628D01*
X16460498Y-27236622D01*
X19069500Y-27236622D01*
X19069500Y-27663369D01*
X19069501Y-27663372D01*
X19072317Y-27687661D01*
X19078427Y-27701498D01*
X19116187Y-27787016D01*
X19120505Y-27791334D01*
X19148281Y-27845849D01*
X19149500Y-27861336D01*
X19149500Y-27914624D01*
X19148281Y-27930111D01*
X19145131Y-27949999D01*
X19148281Y-27969887D01*
X19149500Y-27985375D01*
X19149500Y-28038663D01*
X19130593Y-28096854D01*
X19120507Y-28108663D01*
X19116188Y-28112981D01*
X19116188Y-28112982D01*
X19116187Y-28112983D01*
X19116187Y-28112984D01*
X19098730Y-28152521D01*
X19072317Y-28212340D01*
X19069500Y-28236622D01*
X19069500Y-28663369D01*
X19069501Y-28663372D01*
X19072317Y-28687661D01*
X19073565Y-28690487D01*
X19116187Y-28787016D01*
X19192984Y-28863813D01*
X19292338Y-28907682D01*
X19316627Y-28910500D01*
X19683372Y-28910499D01*
X19707662Y-28907682D01*
X19807016Y-28863813D01*
X19883813Y-28787016D01*
X19927682Y-28687662D01*
X19930500Y-28663373D01*
X19930499Y-28236628D01*
X19927682Y-28212338D01*
X19922234Y-28200000D01*
X20745131Y-28200000D01*
X20762500Y-28309661D01*
X20812905Y-28408587D01*
X20884316Y-28479998D01*
X20912092Y-28534513D01*
X20902521Y-28594945D01*
X20884317Y-28620000D01*
X20844780Y-28659538D01*
X20812905Y-28691413D01*
X20762500Y-28790338D01*
X20750863Y-28863813D01*
X20745131Y-28900000D01*
X20762500Y-29009661D01*
X20812905Y-29108587D01*
X20891413Y-29187095D01*
X20990339Y-29237500D01*
X21100000Y-29254869D01*
X21209661Y-29237500D01*
X21308587Y-29187095D01*
X21379998Y-29115683D01*
X21434513Y-29087908D01*
X21494945Y-29097479D01*
X21520000Y-29115682D01*
X21591413Y-29187095D01*
X21690339Y-29237500D01*
X21800000Y-29254869D01*
X21909661Y-29237500D01*
X22008587Y-29187095D01*
X22079998Y-29115683D01*
X22134513Y-29087908D01*
X22194945Y-29097479D01*
X22220000Y-29115682D01*
X22291413Y-29187095D01*
X22390339Y-29237500D01*
X22500000Y-29254869D01*
X22609661Y-29237500D01*
X22708587Y-29187095D01*
X22779998Y-29115683D01*
X22834513Y-29087908D01*
X22894945Y-29097479D01*
X22920000Y-29115682D01*
X22991413Y-29187095D01*
X23090339Y-29237500D01*
X23200000Y-29254869D01*
X23309661Y-29237500D01*
X23408587Y-29187095D01*
X23416187Y-29179494D01*
X23470702Y-29151719D01*
X23486189Y-29150500D01*
X25455232Y-29150500D01*
X25513423Y-29169407D01*
X25525235Y-29179496D01*
X25820503Y-29474763D01*
X25848281Y-29529280D01*
X25849500Y-29544767D01*
X25849500Y-33457328D01*
X25887634Y-33549394D01*
X25887635Y-33549395D01*
X25887636Y-33549397D01*
X26430134Y-34091895D01*
X26864771Y-34526532D01*
X26892548Y-34581048D01*
X26900711Y-34632583D01*
X26905000Y-34659661D01*
X26955405Y-34758587D01*
X27033913Y-34837095D01*
X27132839Y-34887500D01*
X27242500Y-34904869D01*
X27352161Y-34887500D01*
X27451087Y-34837095D01*
X27529595Y-34758587D01*
X27580000Y-34659661D01*
X27597369Y-34550000D01*
X27580000Y-34440339D01*
X27529595Y-34341413D01*
X27451087Y-34262905D01*
X27352161Y-34212500D01*
X27336455Y-34210012D01*
X27273548Y-34200048D01*
X27219032Y-34172271D01*
X26379496Y-33332735D01*
X26351719Y-33278218D01*
X26350500Y-33262731D01*
X26350500Y-29461359D01*
X26350501Y-29461350D01*
X26350501Y-29350172D01*
X26312364Y-29258104D01*
X26312364Y-29258103D01*
X26241897Y-29187636D01*
X26241895Y-29187635D01*
X25741897Y-28687636D01*
X25741895Y-28687635D01*
X25741894Y-28687634D01*
X25649829Y-28649500D01*
X25649828Y-28649500D01*
X23486189Y-28649500D01*
X23427998Y-28630593D01*
X23416116Y-28620434D01*
X23415616Y-28619933D01*
X23387892Y-28565388D01*
X23397524Y-28504966D01*
X23415683Y-28479998D01*
X23487095Y-28408587D01*
X23537500Y-28309661D01*
X23554869Y-28200000D01*
X23537500Y-28090339D01*
X23487095Y-27991413D01*
X23408587Y-27912905D01*
X23309661Y-27862500D01*
X23200000Y-27845131D01*
X23090338Y-27862500D01*
X23063594Y-27876127D01*
X22991413Y-27912905D01*
X22920001Y-27984316D01*
X22865487Y-28012092D01*
X22805055Y-28002521D01*
X22779999Y-27984317D01*
X22708587Y-27912905D01*
X22609661Y-27862500D01*
X22500000Y-27845131D01*
X22390338Y-27862500D01*
X22363594Y-27876127D01*
X22291413Y-27912905D01*
X22220001Y-27984316D01*
X22165487Y-28012092D01*
X22105055Y-28002521D01*
X22079999Y-27984317D01*
X22008587Y-27912905D01*
X21909661Y-27862500D01*
X21800000Y-27845131D01*
X21690338Y-27862500D01*
X21663594Y-27876127D01*
X21591413Y-27912905D01*
X21520001Y-27984316D01*
X21465487Y-28012092D01*
X21405055Y-28002521D01*
X21379999Y-27984317D01*
X21308587Y-27912905D01*
X21209661Y-27862500D01*
X21100000Y-27845131D01*
X20990338Y-27862500D01*
X20891413Y-27912905D01*
X20812905Y-27991413D01*
X20762500Y-28090338D01*
X20758914Y-28112982D01*
X20745131Y-28200000D01*
X19922234Y-28200000D01*
X19883813Y-28112984D01*
X19883811Y-28112982D01*
X19883811Y-28112981D01*
X19879493Y-28108663D01*
X19851718Y-28054145D01*
X19850500Y-28038663D01*
X19850500Y-27985375D01*
X19851719Y-27969887D01*
X19854869Y-27949999D01*
X19851719Y-27930111D01*
X19850500Y-27914624D01*
X19850500Y-27861336D01*
X19869407Y-27803145D01*
X19879490Y-27791338D01*
X19883813Y-27787016D01*
X19927682Y-27687662D01*
X19930500Y-27663373D01*
X19930499Y-27236628D01*
X19927682Y-27212338D01*
X19883813Y-27112984D01*
X19883811Y-27112982D01*
X19883811Y-27112981D01*
X19879493Y-27108663D01*
X19851718Y-27054145D01*
X19850500Y-27038663D01*
X19850500Y-25199999D01*
X20545131Y-25199999D01*
X20548281Y-25219887D01*
X20549500Y-25235375D01*
X20549500Y-25714624D01*
X20548281Y-25730111D01*
X20545131Y-25749999D01*
X20548281Y-25769887D01*
X20549500Y-25785375D01*
X20549500Y-26264624D01*
X20548281Y-26280111D01*
X20545131Y-26299999D01*
X20548281Y-26319887D01*
X20549500Y-26335375D01*
X20549500Y-26364827D01*
X20558232Y-26408719D01*
X20558233Y-26408722D01*
X20570946Y-26427749D01*
X20576835Y-26437797D01*
X20601070Y-26485360D01*
X20612905Y-26508587D01*
X20691413Y-26587095D01*
X20790339Y-26637500D01*
X20900000Y-26654869D01*
X21009661Y-26637500D01*
X21108587Y-26587095D01*
X21187095Y-26508587D01*
X21223167Y-26437790D01*
X21229053Y-26427749D01*
X21229058Y-26427742D01*
X21241767Y-26408722D01*
X21250500Y-26364820D01*
X21250500Y-26335375D01*
X21251719Y-26319887D01*
X21254869Y-26299999D01*
X21251719Y-26280111D01*
X21250500Y-26264624D01*
X21250500Y-25785375D01*
X21251719Y-25769887D01*
X21254869Y-25749999D01*
X21251719Y-25730111D01*
X21250500Y-25714624D01*
X21250500Y-25235375D01*
X21251719Y-25219887D01*
X21254869Y-25199999D01*
X22645131Y-25199999D01*
X22648281Y-25219887D01*
X22649500Y-25235375D01*
X22649500Y-25714624D01*
X22648281Y-25730111D01*
X22645131Y-25749999D01*
X22648281Y-25769887D01*
X22649500Y-25785375D01*
X22649500Y-26264624D01*
X22648281Y-26280111D01*
X22645131Y-26299999D01*
X22648281Y-26319887D01*
X22649500Y-26335375D01*
X22649500Y-26364827D01*
X22658232Y-26408719D01*
X22658233Y-26408722D01*
X22670946Y-26427749D01*
X22676835Y-26437797D01*
X22701070Y-26485360D01*
X22712905Y-26508587D01*
X22791413Y-26587095D01*
X22890339Y-26637500D01*
X23000000Y-26654869D01*
X23109661Y-26637500D01*
X23208587Y-26587095D01*
X23287095Y-26508587D01*
X23323167Y-26437790D01*
X23329053Y-26427749D01*
X23329058Y-26427742D01*
X23341767Y-26408722D01*
X23350500Y-26364820D01*
X23350500Y-26335375D01*
X23351719Y-26319887D01*
X23354869Y-26299999D01*
X23351719Y-26280111D01*
X23350500Y-26264624D01*
X23350500Y-25785375D01*
X23351719Y-25769887D01*
X23354869Y-25749999D01*
X23351719Y-25730111D01*
X23350500Y-25714624D01*
X23350500Y-25235375D01*
X23351719Y-25219887D01*
X23354869Y-25199999D01*
X24045131Y-25199999D01*
X24048281Y-25219887D01*
X24049500Y-25235375D01*
X24049500Y-25714624D01*
X24048281Y-25730111D01*
X24045131Y-25749999D01*
X24048281Y-25769887D01*
X24049500Y-25785375D01*
X24049500Y-26264624D01*
X24048281Y-26280111D01*
X24045131Y-26299999D01*
X24048281Y-26319887D01*
X24049500Y-26335375D01*
X24049500Y-26364827D01*
X24058232Y-26408719D01*
X24058233Y-26408722D01*
X24070946Y-26427749D01*
X24076835Y-26437797D01*
X24101070Y-26485360D01*
X24112905Y-26508587D01*
X24191413Y-26587095D01*
X24290339Y-26637500D01*
X24400000Y-26654869D01*
X24509661Y-26637500D01*
X24608587Y-26587095D01*
X24687095Y-26508587D01*
X24687097Y-26508582D01*
X24689760Y-26504919D01*
X24739260Y-26468955D01*
X24800445Y-26468954D01*
X24824854Y-26480793D01*
X24841276Y-26491766D01*
X24841277Y-26491766D01*
X24841278Y-26491767D01*
X24852327Y-26493964D01*
X24885172Y-26500499D01*
X24885178Y-26500499D01*
X24885180Y-26500500D01*
X24885181Y-26500500D01*
X25314819Y-26500500D01*
X25314820Y-26500500D01*
X25314821Y-26500499D01*
X25314827Y-26500499D01*
X25336623Y-26496162D01*
X25358722Y-26491767D01*
X25394998Y-26467527D01*
X25453886Y-26450919D01*
X25505000Y-26467527D01*
X25523440Y-26479848D01*
X25541276Y-26491766D01*
X25541277Y-26491766D01*
X25541278Y-26491767D01*
X25552327Y-26493964D01*
X25585172Y-26500499D01*
X25585178Y-26500499D01*
X25585180Y-26500500D01*
X25585181Y-26500500D01*
X26014819Y-26500500D01*
X26014820Y-26500500D01*
X26014821Y-26500499D01*
X26014827Y-26500499D01*
X26036623Y-26496162D01*
X26058722Y-26491767D01*
X26075145Y-26480793D01*
X26134031Y-26464184D01*
X26191435Y-26485360D01*
X26210243Y-26504922D01*
X26212903Y-26508583D01*
X26212905Y-26508587D01*
X26291413Y-26587095D01*
X26390339Y-26637500D01*
X26500000Y-26654869D01*
X26609661Y-26637500D01*
X26708587Y-26587095D01*
X26787095Y-26508587D01*
X26823167Y-26437790D01*
X26829053Y-26427749D01*
X26829058Y-26427742D01*
X26841767Y-26408722D01*
X26850500Y-26364820D01*
X26850500Y-26335375D01*
X26851719Y-26319887D01*
X26854869Y-26299999D01*
X26851719Y-26280111D01*
X26850500Y-26264624D01*
X26850500Y-25785375D01*
X26851719Y-25769887D01*
X26854869Y-25749999D01*
X26851719Y-25730111D01*
X26850500Y-25714624D01*
X26850500Y-25235375D01*
X26851719Y-25219887D01*
X26854869Y-25199999D01*
X26854869Y-25195211D01*
X26873776Y-25137020D01*
X26923276Y-25101056D01*
X26973185Y-25098114D01*
X26985180Y-25100500D01*
X26985181Y-25100500D01*
X28214819Y-25100500D01*
X28214820Y-25100500D01*
X28214821Y-25100499D01*
X28214827Y-25100499D01*
X28236623Y-25096162D01*
X28258722Y-25091767D01*
X28308504Y-25058504D01*
X28341767Y-25008722D01*
X28350500Y-24964820D01*
X28350500Y-24673999D01*
X36444500Y-24673999D01*
X36444500Y-25801000D01*
X36460143Y-25879642D01*
X36481815Y-25931964D01*
X36481817Y-25931967D01*
X36518445Y-25990261D01*
X36593033Y-26043183D01*
X36645359Y-26064857D01*
X36724000Y-26080500D01*
X36724001Y-26080500D01*
X38125999Y-26080500D01*
X38126000Y-26080500D01*
X38204641Y-26064857D01*
X38256967Y-26043183D01*
X38315261Y-26006555D01*
X38368183Y-25931967D01*
X38389857Y-25879641D01*
X38405500Y-25801000D01*
X38405500Y-24674000D01*
X38389857Y-24595359D01*
X38368183Y-24543033D01*
X38331555Y-24484739D01*
X38289644Y-24455002D01*
X38256966Y-24431816D01*
X38235291Y-24422838D01*
X38204641Y-24410143D01*
X38126000Y-24394500D01*
X36724000Y-24394500D01*
X36723999Y-24394500D01*
X36645357Y-24410143D01*
X36593035Y-24431815D01*
X36534739Y-24468444D01*
X36481816Y-24543033D01*
X36466490Y-24580033D01*
X36464926Y-24583813D01*
X36460143Y-24595360D01*
X36444500Y-24673999D01*
X28350500Y-24673999D01*
X28350500Y-24535180D01*
X28350499Y-24535178D01*
X28350499Y-24535172D01*
X28341767Y-24491279D01*
X28341766Y-24491276D01*
X28317528Y-24455002D01*
X28300919Y-24396114D01*
X28317528Y-24344998D01*
X28322808Y-24337097D01*
X28341767Y-24308722D01*
X28350500Y-24264820D01*
X28350500Y-23835180D01*
X28350499Y-23835178D01*
X28350499Y-23835172D01*
X28343964Y-23802327D01*
X28341767Y-23791278D01*
X28317526Y-23754999D01*
X28300919Y-23696112D01*
X28317527Y-23644999D01*
X28334567Y-23619496D01*
X28382616Y-23581619D01*
X28416881Y-23575500D01*
X28443615Y-23575500D01*
X28443623Y-23575501D01*
X28455146Y-23575501D01*
X28544855Y-23575501D01*
X28544856Y-23575501D01*
X28620098Y-23544334D01*
X28627737Y-23541170D01*
X28691171Y-23477736D01*
X28691171Y-23477734D01*
X28705095Y-23463811D01*
X28705096Y-23463808D01*
X28764411Y-23404495D01*
X28818928Y-23376719D01*
X28834413Y-23375500D01*
X29355748Y-23375500D01*
X29355756Y-23375501D01*
X29367279Y-23375501D01*
X29456988Y-23375501D01*
X29456989Y-23375501D01*
X29515594Y-23351225D01*
X29539870Y-23341170D01*
X29603304Y-23277736D01*
X29603304Y-23277735D01*
X29617210Y-23263829D01*
X29617218Y-23263819D01*
X32911318Y-19969719D01*
X32965834Y-19941944D01*
X33026266Y-19951515D01*
X33057382Y-19978090D01*
X33057396Y-19978077D01*
X33057569Y-19978250D01*
X33061414Y-19981534D01*
X33062903Y-19983584D01*
X33062905Y-19983587D01*
X33141413Y-20062095D01*
X33240339Y-20112500D01*
X33350000Y-20129869D01*
X33459661Y-20112500D01*
X33558587Y-20062095D01*
X33637095Y-19983587D01*
X33687500Y-19884661D01*
X33704869Y-19775000D01*
X33687500Y-19665339D01*
X33637095Y-19566413D01*
X33637094Y-19566412D01*
X33637093Y-19566410D01*
X33632514Y-19560108D01*
X33634797Y-19558448D01*
X33612908Y-19515487D01*
X33622479Y-19455055D01*
X33633156Y-19440358D01*
X33632514Y-19439892D01*
X33637093Y-19433589D01*
X33637095Y-19433587D01*
X33687500Y-19334661D01*
X33704869Y-19225000D01*
X33704435Y-19222263D01*
X33694388Y-19158829D01*
X33687500Y-19115339D01*
X33637095Y-19016413D01*
X33558587Y-18937905D01*
X33459661Y-18887500D01*
X33350000Y-18870131D01*
X33240338Y-18887500D01*
X33141413Y-18937905D01*
X33062904Y-19016414D01*
X33035374Y-19070445D01*
X32992109Y-19113709D01*
X32947165Y-19124499D01*
X32844253Y-19124499D01*
X32844245Y-19124498D01*
X32832722Y-19124498D01*
X32743012Y-19124498D01*
X32743010Y-19124498D01*
X32684409Y-19148770D01*
X32684410Y-19148771D01*
X32660131Y-19158829D01*
X32660129Y-19158830D01*
X32596696Y-19222262D01*
X32596697Y-19222263D01*
X32596696Y-19222264D01*
X30903474Y-20915487D01*
X29223457Y-22595504D01*
X29168940Y-22623281D01*
X29153453Y-22624500D01*
X28834414Y-22624500D01*
X28776223Y-22605593D01*
X28764410Y-22595504D01*
X28691171Y-22522265D01*
X28691171Y-22522264D01*
X28627737Y-22458830D01*
X28603461Y-22448774D01*
X28603459Y-22448773D01*
X28603459Y-22448772D01*
X28569129Y-22434553D01*
X28544856Y-22424499D01*
X28455146Y-22424499D01*
X28443623Y-22424499D01*
X28443615Y-22424500D01*
X28416881Y-22424500D01*
X28358690Y-22405593D01*
X28334565Y-22380500D01*
X28317527Y-22355000D01*
X28300919Y-22296112D01*
X28317528Y-22244998D01*
X28341766Y-22208723D01*
X28341765Y-22208723D01*
X28341767Y-22208722D01*
X28350500Y-22164820D01*
X28350500Y-22074500D01*
X28369407Y-22016309D01*
X28418907Y-21980345D01*
X28449500Y-21975500D01*
X29205748Y-21975500D01*
X29205756Y-21975501D01*
X29217279Y-21975501D01*
X29306988Y-21975501D01*
X29306989Y-21975501D01*
X29368552Y-21950000D01*
X29389870Y-21941170D01*
X29453304Y-21877736D01*
X29453304Y-21877734D01*
X32791170Y-18539870D01*
X32803851Y-18509253D01*
X32825500Y-18456990D01*
X32825500Y-15696545D01*
X32844407Y-15638354D01*
X32854485Y-15626553D01*
X32960176Y-15520861D01*
X33014691Y-15493086D01*
X33075123Y-15502657D01*
X33100178Y-15520860D01*
X33141413Y-15562095D01*
X33240339Y-15612500D01*
X33350000Y-15629869D01*
X33459661Y-15612500D01*
X33558587Y-15562095D01*
X33637095Y-15483587D01*
X33687500Y-15384661D01*
X33704869Y-15275000D01*
X33687500Y-15165339D01*
X33637095Y-15066413D01*
X33637094Y-15066412D01*
X33637093Y-15066410D01*
X33632514Y-15060108D01*
X33634797Y-15058448D01*
X33612908Y-15015487D01*
X33622479Y-14955055D01*
X33633156Y-14940358D01*
X33632514Y-14939892D01*
X33637093Y-14933589D01*
X33637095Y-14933587D01*
X33687500Y-14834661D01*
X33704869Y-14725000D01*
X33687500Y-14615339D01*
X33637095Y-14516413D01*
X33558587Y-14437905D01*
X33459661Y-14387500D01*
X33350000Y-14370131D01*
X33240338Y-14387500D01*
X33141413Y-14437905D01*
X33062904Y-14516414D01*
X33035374Y-14570445D01*
X32992109Y-14613709D01*
X32947165Y-14624499D01*
X32843010Y-14624499D01*
X32760133Y-14658827D01*
X32760131Y-14658829D01*
X32172265Y-15246695D01*
X32172264Y-15246696D01*
X32172263Y-15246695D01*
X32108830Y-15310129D01*
X32108828Y-15310131D01*
X32104800Y-15319857D01*
X32074499Y-15393010D01*
X32074499Y-15494243D01*
X32074500Y-15494252D01*
X32074500Y-18153453D01*
X32055593Y-18211644D01*
X32045504Y-18223457D01*
X29073457Y-21195504D01*
X29018940Y-21223281D01*
X29003453Y-21224500D01*
X28449500Y-21224500D01*
X28391309Y-21205593D01*
X28355345Y-21156093D01*
X28350500Y-21125500D01*
X28350500Y-21035181D01*
X28350499Y-21035172D01*
X28341767Y-20991279D01*
X28341766Y-20991276D01*
X28317528Y-20955002D01*
X28300919Y-20896114D01*
X28317528Y-20844998D01*
X28341766Y-20808723D01*
X28341765Y-20808723D01*
X28341767Y-20808722D01*
X28350500Y-20764820D01*
X28350500Y-20674500D01*
X28369407Y-20616309D01*
X28418907Y-20580345D01*
X28449500Y-20575500D01*
X28605748Y-20575500D01*
X28605756Y-20575501D01*
X28617279Y-20575501D01*
X28706988Y-20575501D01*
X28706989Y-20575501D01*
X28768552Y-20550000D01*
X28789870Y-20541170D01*
X28853304Y-20477736D01*
X28853304Y-20477734D01*
X28867228Y-20463811D01*
X28867228Y-20463809D01*
X29397237Y-19933803D01*
X29397237Y-19933801D01*
X29406746Y-19924293D01*
X29406751Y-19924285D01*
X30227205Y-19103831D01*
X30281720Y-19076056D01*
X30327799Y-19079682D01*
X30334788Y-19081952D01*
X30334794Y-19081955D01*
X30444455Y-19099324D01*
X30554116Y-19081955D01*
X30653042Y-19031550D01*
X30731550Y-18953042D01*
X30781955Y-18854116D01*
X30799324Y-18744455D01*
X30781955Y-18634794D01*
X30731550Y-18535868D01*
X30653042Y-18457360D01*
X30554116Y-18406955D01*
X30537727Y-18404359D01*
X30486109Y-18396183D01*
X30431593Y-18368405D01*
X30403816Y-18313889D01*
X30396330Y-18266627D01*
X30393045Y-18245884D01*
X30342640Y-18146958D01*
X30264132Y-18068450D01*
X30165206Y-18018045D01*
X30055545Y-18000676D01*
X29945883Y-18018045D01*
X29846958Y-18068450D01*
X29768450Y-18146958D01*
X29718045Y-18245883D01*
X29703085Y-18340338D01*
X29700676Y-18355545D01*
X29715636Y-18449999D01*
X29718045Y-18465205D01*
X29720317Y-18472198D01*
X29720316Y-18533384D01*
X29696166Y-18572794D01*
X28869655Y-19399306D01*
X28869654Y-19399306D01*
X28802762Y-19466196D01*
X28802763Y-19466197D01*
X28802762Y-19466198D01*
X28802761Y-19466197D01*
X28519504Y-19749456D01*
X28464987Y-19777234D01*
X28404555Y-19767663D01*
X28361290Y-19724398D01*
X28350500Y-19679453D01*
X28350500Y-19635181D01*
X28350499Y-19635172D01*
X28341767Y-19591279D01*
X28341765Y-19591275D01*
X28308505Y-19541498D01*
X28308504Y-19541496D01*
X28307840Y-19541052D01*
X28258724Y-19508234D01*
X28258720Y-19508232D01*
X28214827Y-19499500D01*
X28214820Y-19499500D01*
X26985180Y-19499500D01*
X26985172Y-19499500D01*
X26941279Y-19508232D01*
X26941275Y-19508234D01*
X26891498Y-19541494D01*
X26891494Y-19541498D01*
X26858234Y-19591275D01*
X26858232Y-19591279D01*
X26849500Y-19635172D01*
X26849500Y-20064827D01*
X26858232Y-20108720D01*
X26858233Y-20108723D01*
X26882472Y-20144999D01*
X26899080Y-20203887D01*
X26882472Y-20255001D01*
X26858233Y-20291276D01*
X26858232Y-20291279D01*
X26849500Y-20335172D01*
X26849500Y-20764827D01*
X26858232Y-20808720D01*
X26858233Y-20808723D01*
X26882472Y-20844999D01*
X26899080Y-20903887D01*
X26882472Y-20955001D01*
X26858233Y-20991276D01*
X26858232Y-20991279D01*
X26849500Y-21035172D01*
X26849500Y-21464827D01*
X26858232Y-21508720D01*
X26858233Y-21508723D01*
X26882472Y-21544999D01*
X26899080Y-21603887D01*
X26882472Y-21655001D01*
X26858233Y-21691276D01*
X26858232Y-21691279D01*
X26849500Y-21735172D01*
X26849500Y-22164827D01*
X26858232Y-22208720D01*
X26858233Y-22208723D01*
X26882472Y-22244999D01*
X26899080Y-22303887D01*
X26882472Y-22355001D01*
X26858233Y-22391276D01*
X26858232Y-22391279D01*
X26849500Y-22435172D01*
X26849500Y-22864827D01*
X26858232Y-22908720D01*
X26858233Y-22908723D01*
X26882472Y-22944999D01*
X26899080Y-23003887D01*
X26882472Y-23055001D01*
X26858233Y-23091276D01*
X26858232Y-23091279D01*
X26849500Y-23135172D01*
X26849500Y-23564827D01*
X26858232Y-23608720D01*
X26858233Y-23608723D01*
X26882472Y-23644999D01*
X26899080Y-23703887D01*
X26882472Y-23755001D01*
X26858233Y-23791276D01*
X26858232Y-23791279D01*
X26849500Y-23835172D01*
X26849500Y-24264827D01*
X26858232Y-24308720D01*
X26858233Y-24308723D01*
X26882472Y-24344999D01*
X26899080Y-24403887D01*
X26882472Y-24455001D01*
X26858233Y-24491276D01*
X26858232Y-24491279D01*
X26849500Y-24535172D01*
X26849500Y-24823150D01*
X26830593Y-24881341D01*
X26781093Y-24917305D01*
X26719907Y-24917305D01*
X26705555Y-24911360D01*
X26609661Y-24862500D01*
X26500000Y-24845131D01*
X26390338Y-24862500D01*
X26291413Y-24912905D01*
X26212901Y-24991417D01*
X26210235Y-24995087D01*
X26160733Y-25031047D01*
X26099548Y-25031044D01*
X26075148Y-25019208D01*
X26058722Y-25008233D01*
X26058721Y-25008232D01*
X26058720Y-25008232D01*
X26014827Y-24999500D01*
X26014820Y-24999500D01*
X25585180Y-24999500D01*
X25585172Y-24999500D01*
X25541279Y-25008232D01*
X25541276Y-25008233D01*
X25505001Y-25032472D01*
X25446113Y-25049080D01*
X25394999Y-25032472D01*
X25358723Y-25008233D01*
X25358720Y-25008232D01*
X25314827Y-24999500D01*
X25314820Y-24999500D01*
X24885180Y-24999500D01*
X24885172Y-24999500D01*
X24841279Y-25008232D01*
X24841274Y-25008234D01*
X24824852Y-25019207D01*
X24765963Y-25035814D01*
X24708560Y-25014634D01*
X24689763Y-24995084D01*
X24687099Y-24991418D01*
X24687096Y-24991415D01*
X24687095Y-24991413D01*
X24608587Y-24912905D01*
X24509661Y-24862500D01*
X24400000Y-24845131D01*
X24290338Y-24862500D01*
X24191413Y-24912905D01*
X24112904Y-24991414D01*
X24076837Y-25062198D01*
X24070946Y-25072248D01*
X24058234Y-25091273D01*
X24058232Y-25091278D01*
X24049500Y-25135172D01*
X24049500Y-25164624D01*
X24048281Y-25180111D01*
X24045131Y-25199999D01*
X23354869Y-25199999D01*
X23351719Y-25180111D01*
X23350500Y-25164624D01*
X23350500Y-25135181D01*
X23350499Y-25135172D01*
X23341767Y-25091279D01*
X23341766Y-25091276D01*
X23329055Y-25072253D01*
X23323160Y-25062195D01*
X23287097Y-24991416D01*
X23287096Y-24991415D01*
X23287095Y-24991413D01*
X23208587Y-24912905D01*
X23109661Y-24862500D01*
X23000000Y-24845131D01*
X22890338Y-24862500D01*
X22791413Y-24912905D01*
X22712904Y-24991414D01*
X22676837Y-25062198D01*
X22670946Y-25072248D01*
X22658234Y-25091273D01*
X22658232Y-25091278D01*
X22649500Y-25135172D01*
X22649500Y-25164624D01*
X22648281Y-25180111D01*
X22645131Y-25199999D01*
X21254869Y-25199999D01*
X21251719Y-25180111D01*
X21250500Y-25164624D01*
X21250500Y-25135181D01*
X21250499Y-25135172D01*
X21241767Y-25091279D01*
X21241766Y-25091276D01*
X21229055Y-25072253D01*
X21223160Y-25062195D01*
X21187097Y-24991416D01*
X21187096Y-24991415D01*
X21187095Y-24991413D01*
X21108587Y-24912905D01*
X21009661Y-24862500D01*
X20900000Y-24845131D01*
X20790338Y-24862500D01*
X20691413Y-24912905D01*
X20612904Y-24991414D01*
X20576837Y-25062198D01*
X20570946Y-25072248D01*
X20558234Y-25091273D01*
X20558232Y-25091278D01*
X20549500Y-25135172D01*
X20549500Y-25164624D01*
X20548281Y-25180111D01*
X20545131Y-25199999D01*
X19850500Y-25199999D01*
X19850500Y-25135181D01*
X19850499Y-25135172D01*
X19841767Y-25091279D01*
X19841765Y-25091276D01*
X19808504Y-25041496D01*
X19792866Y-25031047D01*
X19758724Y-25008234D01*
X19758720Y-25008232D01*
X19714827Y-24999500D01*
X19714820Y-24999500D01*
X19285180Y-24999500D01*
X19285172Y-24999500D01*
X19241279Y-25008232D01*
X19241275Y-25008234D01*
X19191498Y-25041494D01*
X19191494Y-25041498D01*
X19158234Y-25091275D01*
X19158232Y-25091279D01*
X19149500Y-25135172D01*
X19149500Y-27038663D01*
X19130593Y-27096854D01*
X19120507Y-27108663D01*
X19116188Y-27112981D01*
X19116188Y-27112982D01*
X19072317Y-27212340D01*
X19069500Y-27236622D01*
X16460498Y-27236622D01*
X16457682Y-27212338D01*
X16413813Y-27112984D01*
X16413811Y-27112982D01*
X16413812Y-27112982D01*
X16379496Y-27078666D01*
X16351719Y-27024149D01*
X16350500Y-27008663D01*
X16350500Y-26594342D01*
X16369407Y-26536151D01*
X16418907Y-26500187D01*
X16468817Y-26497245D01*
X16485174Y-26500499D01*
X16485177Y-26500499D01*
X16485180Y-26500500D01*
X16485181Y-26500500D01*
X16914819Y-26500500D01*
X16914820Y-26500500D01*
X16914821Y-26500499D01*
X16914827Y-26500499D01*
X16936623Y-26496162D01*
X16958722Y-26491767D01*
X17008504Y-26458504D01*
X17041767Y-26408722D01*
X17050500Y-26364820D01*
X17050500Y-25199999D01*
X17745131Y-25199999D01*
X17748281Y-25219887D01*
X17749500Y-25235375D01*
X17749500Y-25714624D01*
X17748281Y-25730111D01*
X17745131Y-25749999D01*
X17748281Y-25769887D01*
X17749500Y-25785375D01*
X17749500Y-26264624D01*
X17748281Y-26280111D01*
X17745131Y-26299999D01*
X17748281Y-26319887D01*
X17749500Y-26335375D01*
X17749500Y-26364827D01*
X17758232Y-26408719D01*
X17758233Y-26408722D01*
X17770946Y-26427749D01*
X17776835Y-26437797D01*
X17801070Y-26485360D01*
X17812905Y-26508587D01*
X17891413Y-26587095D01*
X17990339Y-26637500D01*
X18100000Y-26654869D01*
X18209661Y-26637500D01*
X18308587Y-26587095D01*
X18387095Y-26508587D01*
X18423167Y-26437790D01*
X18429053Y-26427749D01*
X18429058Y-26427742D01*
X18441767Y-26408722D01*
X18450500Y-26364820D01*
X18450500Y-26335375D01*
X18451719Y-26319887D01*
X18454869Y-26299999D01*
X18451719Y-26280111D01*
X18450500Y-26264624D01*
X18450500Y-25785375D01*
X18451719Y-25769887D01*
X18454869Y-25749999D01*
X18451719Y-25730111D01*
X18450500Y-25714624D01*
X18450500Y-25235375D01*
X18451719Y-25219887D01*
X18454869Y-25199999D01*
X18451719Y-25180111D01*
X18450500Y-25164624D01*
X18450500Y-25135181D01*
X18450499Y-25135172D01*
X18441767Y-25091279D01*
X18441766Y-25091276D01*
X18429055Y-25072253D01*
X18423160Y-25062195D01*
X18387097Y-24991416D01*
X18387096Y-24991415D01*
X18387095Y-24991413D01*
X18308587Y-24912905D01*
X18209661Y-24862500D01*
X18100000Y-24845131D01*
X17990338Y-24862500D01*
X17891413Y-24912905D01*
X17812904Y-24991414D01*
X17776837Y-25062198D01*
X17770946Y-25072248D01*
X17758234Y-25091273D01*
X17758232Y-25091278D01*
X17749500Y-25135172D01*
X17749500Y-25164624D01*
X17748281Y-25180111D01*
X17745131Y-25199999D01*
X17050500Y-25199999D01*
X17050500Y-25135180D01*
X17050499Y-25135178D01*
X17050499Y-25135172D01*
X17041767Y-25091279D01*
X17041765Y-25091276D01*
X17008504Y-25041496D01*
X16992866Y-25031047D01*
X16958724Y-25008234D01*
X16958720Y-25008232D01*
X16914827Y-24999500D01*
X16914820Y-24999500D01*
X16485180Y-24999500D01*
X16485172Y-24999500D01*
X16441279Y-25008232D01*
X16441276Y-25008233D01*
X16405001Y-25032472D01*
X16346113Y-25049080D01*
X16294999Y-25032472D01*
X16258723Y-25008233D01*
X16258720Y-25008232D01*
X16214827Y-24999500D01*
X16214820Y-24999500D01*
X15785180Y-24999500D01*
X15785172Y-24999500D01*
X15741279Y-25008232D01*
X15741274Y-25008234D01*
X15724852Y-25019207D01*
X15665963Y-25035814D01*
X15608560Y-25014634D01*
X15589763Y-24995084D01*
X15587099Y-24991418D01*
X15587096Y-24991415D01*
X15587095Y-24991413D01*
X15508587Y-24912905D01*
X15409661Y-24862500D01*
X15300000Y-24845131D01*
X15190338Y-24862500D01*
X15091413Y-24912905D01*
X15012901Y-24991417D01*
X15010235Y-24995087D01*
X14960733Y-25031047D01*
X14899548Y-25031044D01*
X14875148Y-25019208D01*
X14858722Y-25008233D01*
X14858721Y-25008232D01*
X14858720Y-25008232D01*
X14814827Y-24999500D01*
X14814820Y-24999500D01*
X14385180Y-24999500D01*
X14385172Y-24999500D01*
X14341279Y-25008232D01*
X14341276Y-25008233D01*
X14305001Y-25032472D01*
X14246113Y-25049080D01*
X14194999Y-25032472D01*
X14158723Y-25008233D01*
X14158720Y-25008232D01*
X14114827Y-24999500D01*
X14114820Y-24999500D01*
X13685180Y-24999500D01*
X13685172Y-24999500D01*
X13641279Y-25008232D01*
X13641275Y-25008234D01*
X13591498Y-25041494D01*
X13591494Y-25041498D01*
X13558234Y-25091275D01*
X13558232Y-25091279D01*
X13549500Y-25135172D01*
X13549500Y-26912905D01*
X13530593Y-26971096D01*
X13490490Y-27003469D01*
X13440860Y-27025383D01*
X13365383Y-27100860D01*
X13322269Y-27198501D01*
X13322269Y-27198502D01*
X13319500Y-27222372D01*
X12288846Y-27222372D01*
X12287682Y-27212338D01*
X12267800Y-27167311D01*
X12261592Y-27106442D01*
X12288359Y-27057321D01*
X12780470Y-26565212D01*
X12826614Y-26485288D01*
X12850500Y-26396143D01*
X12850500Y-26303856D01*
X12850500Y-25703856D01*
X12850500Y-25135180D01*
X12850499Y-25135178D01*
X12850499Y-25135172D01*
X12841767Y-25091279D01*
X12841765Y-25091276D01*
X12808504Y-25041496D01*
X12792866Y-25031047D01*
X12758724Y-25008234D01*
X12758720Y-25008232D01*
X12714827Y-24999500D01*
X12714820Y-24999500D01*
X12285180Y-24999500D01*
X12285172Y-24999500D01*
X12241279Y-25008232D01*
X12241275Y-25008234D01*
X12191498Y-25041494D01*
X12191494Y-25041498D01*
X12158234Y-25091275D01*
X12158232Y-25091279D01*
X12149500Y-25135172D01*
X12149500Y-26163810D01*
X12130593Y-26222001D01*
X12120504Y-26233814D01*
X11579530Y-26774788D01*
X11533386Y-26854712D01*
X11509500Y-26943857D01*
X11509500Y-27038663D01*
X11490593Y-27096854D01*
X11480507Y-27108663D01*
X11476188Y-27112981D01*
X11476188Y-27112982D01*
X11432317Y-27212340D01*
X11429500Y-27236622D01*
X4400500Y-27236622D01*
X4400500Y-23096622D01*
X8239500Y-23096622D01*
X8239500Y-23463369D01*
X8239501Y-23463372D01*
X8242317Y-23487661D01*
X8242319Y-23487666D01*
X8261064Y-23530119D01*
X8269500Y-23570107D01*
X8269500Y-23909892D01*
X8261065Y-23949879D01*
X8242318Y-23992337D01*
X8242317Y-23992340D01*
X8239500Y-24016622D01*
X8239500Y-24383369D01*
X8239501Y-24383372D01*
X8242317Y-24407661D01*
X8252983Y-24431816D01*
X8286187Y-24507016D01*
X8362984Y-24583813D01*
X8462338Y-24627682D01*
X8486627Y-24630500D01*
X8631791Y-24630499D01*
X8631799Y-24630500D01*
X8643323Y-24630500D01*
X9768199Y-24630500D01*
X9768207Y-24630499D01*
X9913370Y-24630499D01*
X9913372Y-24630499D01*
X9937662Y-24627682D01*
X10037016Y-24583813D01*
X10113813Y-24507016D01*
X10157682Y-24407662D01*
X10160500Y-24383373D01*
X10160499Y-24016628D01*
X10157682Y-23992338D01*
X10138935Y-23949879D01*
X10138935Y-23949878D01*
X10130500Y-23909891D01*
X10130500Y-23799500D01*
X10149407Y-23741309D01*
X10198907Y-23705345D01*
X10229500Y-23700500D01*
X10473151Y-23700500D01*
X10531342Y-23719407D01*
X10567306Y-23768907D01*
X10567306Y-23830093D01*
X10561360Y-23844445D01*
X10512501Y-23940335D01*
X10512500Y-23940336D01*
X10500416Y-24016630D01*
X10495131Y-24050000D01*
X10512500Y-24159661D01*
X10562905Y-24258587D01*
X10641413Y-24337095D01*
X10641415Y-24337096D01*
X10641416Y-24337097D01*
X10712195Y-24373160D01*
X10722253Y-24379055D01*
X10741276Y-24391766D01*
X10741277Y-24391766D01*
X10741278Y-24391767D01*
X10752327Y-24393964D01*
X10785172Y-24400499D01*
X10785178Y-24400499D01*
X10785180Y-24400500D01*
X10814625Y-24400500D01*
X10830111Y-24401718D01*
X10850000Y-24404869D01*
X10869888Y-24401718D01*
X10885375Y-24400500D01*
X11364625Y-24400500D01*
X11380111Y-24401718D01*
X11400000Y-24404869D01*
X11419888Y-24401718D01*
X11435375Y-24400500D01*
X11914625Y-24400500D01*
X11930111Y-24401718D01*
X11950000Y-24404869D01*
X11969888Y-24401718D01*
X11985375Y-24400500D01*
X12014819Y-24400500D01*
X12014820Y-24400500D01*
X12014821Y-24400499D01*
X12014827Y-24400499D01*
X12036869Y-24396114D01*
X12058722Y-24391767D01*
X12077750Y-24379052D01*
X12087790Y-24373167D01*
X12158587Y-24337095D01*
X12237095Y-24258587D01*
X12287500Y-24159661D01*
X12304869Y-24050000D01*
X12287500Y-23940339D01*
X12237095Y-23841413D01*
X12158587Y-23762905D01*
X12158584Y-23762903D01*
X12154922Y-23760243D01*
X12118955Y-23710745D01*
X12118952Y-23649559D01*
X12130791Y-23625148D01*
X12141767Y-23608722D01*
X12147158Y-23581619D01*
X12150499Y-23564827D01*
X12150500Y-23564818D01*
X12150500Y-23135181D01*
X12150499Y-23135172D01*
X12141767Y-23091279D01*
X12138035Y-23082268D01*
X12140141Y-23081395D01*
X12127168Y-23035401D01*
X12148343Y-22977997D01*
X12181145Y-22951076D01*
X12208587Y-22937095D01*
X12287095Y-22858587D01*
X12306970Y-22819576D01*
X12309411Y-22815082D01*
X12326614Y-22785288D01*
X12326615Y-22785283D01*
X12328304Y-22781206D01*
X12333746Y-22767026D01*
X12337500Y-22759661D01*
X12342502Y-22728076D01*
X12344647Y-22717983D01*
X12350500Y-22696144D01*
X12350500Y-22685375D01*
X12351719Y-22669887D01*
X12354869Y-22649999D01*
X12351719Y-22630111D01*
X12350500Y-22614624D01*
X12350500Y-22603856D01*
X12348262Y-22595504D01*
X12344650Y-22582027D01*
X12342498Y-22571898D01*
X12337500Y-22540341D01*
X12337500Y-22540339D01*
X12333744Y-22532968D01*
X12328308Y-22518801D01*
X12326615Y-22514715D01*
X12326614Y-22514712D01*
X12318812Y-22501199D01*
X12309431Y-22484950D01*
X12306957Y-22480394D01*
X12287097Y-22441416D01*
X12287096Y-22441415D01*
X12287095Y-22441413D01*
X12215683Y-22370001D01*
X12187908Y-22315487D01*
X12197479Y-22255055D01*
X12215682Y-22229999D01*
X12287095Y-22158587D01*
X12337500Y-22059661D01*
X12354869Y-21950000D01*
X12353470Y-21941170D01*
X12347721Y-21904869D01*
X12337500Y-21840339D01*
X12287095Y-21741413D01*
X12215683Y-21670001D01*
X12187908Y-21615487D01*
X12197479Y-21555055D01*
X12201151Y-21550000D01*
X18795131Y-21550000D01*
X18812500Y-21659661D01*
X18862905Y-21758587D01*
X18941413Y-21837095D01*
X19040339Y-21887500D01*
X19150000Y-21904869D01*
X19259661Y-21887500D01*
X19358587Y-21837095D01*
X19437095Y-21758587D01*
X19487500Y-21659661D01*
X19504869Y-21550000D01*
X19487500Y-21440339D01*
X19437095Y-21341413D01*
X19358587Y-21262905D01*
X19259661Y-21212500D01*
X19150000Y-21195131D01*
X19040338Y-21212500D01*
X18941413Y-21262905D01*
X18862905Y-21341413D01*
X18812500Y-21440338D01*
X18808623Y-21464820D01*
X18795131Y-21550000D01*
X12201151Y-21550000D01*
X12215682Y-21529999D01*
X12287095Y-21458587D01*
X12337500Y-21359661D01*
X12354869Y-21250000D01*
X12337500Y-21140339D01*
X12287095Y-21041413D01*
X12215683Y-20970001D01*
X12187908Y-20915487D01*
X12197479Y-20855055D01*
X12215682Y-20829999D01*
X12287095Y-20758587D01*
X12337500Y-20659661D01*
X12354869Y-20550000D01*
X12353470Y-20541170D01*
X12343423Y-20477734D01*
X12337500Y-20440339D01*
X12287095Y-20341413D01*
X12208587Y-20262905D01*
X12109661Y-20212500D01*
X12000000Y-20195131D01*
X11980111Y-20198281D01*
X11964625Y-20199500D01*
X11435375Y-20199500D01*
X11419888Y-20198281D01*
X11400000Y-20195131D01*
X11380111Y-20198281D01*
X11364625Y-20199500D01*
X10835375Y-20199500D01*
X10819888Y-20198281D01*
X10800000Y-20195131D01*
X10690338Y-20212500D01*
X10591413Y-20262905D01*
X10512905Y-20341413D01*
X10462500Y-20440338D01*
X10446530Y-20541170D01*
X10445131Y-20550000D01*
X10462500Y-20659661D01*
X10512905Y-20758587D01*
X10584316Y-20829998D01*
X10612092Y-20884513D01*
X10602521Y-20944945D01*
X10584317Y-20970000D01*
X10519146Y-21035172D01*
X10512905Y-21041413D01*
X10462500Y-21140338D01*
X10451071Y-21212500D01*
X10445131Y-21250000D01*
X10462500Y-21359661D01*
X10512905Y-21458587D01*
X10584316Y-21529998D01*
X10612092Y-21584513D01*
X10602521Y-21644945D01*
X10584317Y-21670000D01*
X10519146Y-21735172D01*
X10512905Y-21741413D01*
X10462500Y-21840338D01*
X10446530Y-21941170D01*
X10445131Y-21950000D01*
X10462500Y-22059661D01*
X10512905Y-22158587D01*
X10584316Y-22229998D01*
X10612092Y-22284513D01*
X10602521Y-22344945D01*
X10584317Y-22370000D01*
X10529819Y-22424499D01*
X10512904Y-22441414D01*
X10493044Y-22480391D01*
X10490572Y-22484943D01*
X10473388Y-22514705D01*
X10471715Y-22518747D01*
X10466257Y-22532964D01*
X10462501Y-22540335D01*
X10462498Y-22540346D01*
X10457498Y-22571907D01*
X10455346Y-22582034D01*
X10449500Y-22603854D01*
X10449500Y-22614624D01*
X10448281Y-22630111D01*
X10445131Y-22649999D01*
X10448281Y-22669887D01*
X10449500Y-22685375D01*
X10449500Y-22696148D01*
X10455346Y-22717966D01*
X10457500Y-22728097D01*
X10462499Y-22759659D01*
X10462501Y-22759664D01*
X10466253Y-22767027D01*
X10471706Y-22781234D01*
X10473384Y-22785284D01*
X10473385Y-22785286D01*
X10473386Y-22785288D01*
X10490590Y-22815086D01*
X10493030Y-22819581D01*
X10511361Y-22855557D01*
X10520932Y-22915987D01*
X10493155Y-22970503D01*
X10438638Y-22998281D01*
X10423151Y-22999500D01*
X10181336Y-22999500D01*
X10123145Y-22980593D01*
X10111338Y-22970509D01*
X10037016Y-22896187D01*
X9937662Y-22852318D01*
X9937661Y-22852317D01*
X9937659Y-22852317D01*
X9913377Y-22849500D01*
X9913373Y-22849500D01*
X9756677Y-22849500D01*
X9756676Y-22849500D01*
X8836676Y-22849500D01*
X8756676Y-22849500D01*
X8643324Y-22849500D01*
X8643321Y-22849500D01*
X8486630Y-22849500D01*
X8486627Y-22849501D01*
X8462338Y-22852317D01*
X8362984Y-22896187D01*
X8286187Y-22972984D01*
X8242317Y-23072340D01*
X8239500Y-23096622D01*
X4400500Y-23096622D01*
X4400500Y-16186622D01*
X8239500Y-16186622D01*
X8239500Y-16553369D01*
X8239501Y-16553372D01*
X8242317Y-16577661D01*
X8256031Y-16608720D01*
X8286187Y-16677016D01*
X8362984Y-16753813D01*
X8462338Y-16797682D01*
X8486627Y-16800500D01*
X8913372Y-16800499D01*
X8937662Y-16797682D01*
X9037016Y-16753813D01*
X9049333Y-16741496D01*
X9061335Y-16729495D01*
X9115852Y-16701719D01*
X9131337Y-16700500D01*
X9268663Y-16700500D01*
X9326854Y-16719407D01*
X9338665Y-16729495D01*
X9362982Y-16753811D01*
X9362984Y-16753813D01*
X9462338Y-16797682D01*
X9486627Y-16800500D01*
X9913372Y-16800499D01*
X9937662Y-16797682D01*
X10037016Y-16753813D01*
X10049333Y-16741496D01*
X10061335Y-16729495D01*
X10115852Y-16701719D01*
X10131337Y-16700500D01*
X10423151Y-16700500D01*
X10481342Y-16719407D01*
X10517306Y-16768907D01*
X10517306Y-16830093D01*
X10511360Y-16844445D01*
X10462501Y-16940335D01*
X10462500Y-16940336D01*
X10449363Y-17023281D01*
X10445131Y-17050000D01*
X10462500Y-17159661D01*
X10512905Y-17258587D01*
X10584316Y-17329998D01*
X10612092Y-17384513D01*
X10602521Y-17444945D01*
X10584317Y-17470000D01*
X10519146Y-17535172D01*
X10512905Y-17541413D01*
X10462500Y-17640338D01*
X10445131Y-17749997D01*
X10445131Y-17750000D01*
X10462500Y-17859663D01*
X10462501Y-17859664D01*
X10511360Y-17955555D01*
X10520932Y-18015987D01*
X10493155Y-18070503D01*
X10438638Y-18098281D01*
X10423151Y-18099500D01*
X10111336Y-18099500D01*
X10053145Y-18080593D01*
X10041338Y-18070509D01*
X10037016Y-18066187D01*
X9937662Y-18022318D01*
X9937661Y-18022317D01*
X9937659Y-18022317D01*
X9913377Y-18019500D01*
X9913373Y-18019500D01*
X9756677Y-18019500D01*
X9756676Y-18019500D01*
X8643324Y-18019500D01*
X8643321Y-18019500D01*
X8486630Y-18019500D01*
X8486627Y-18019501D01*
X8462338Y-18022317D01*
X8362984Y-18066187D01*
X8286187Y-18142984D01*
X8242317Y-18242340D01*
X8239500Y-18266622D01*
X8239500Y-18633369D01*
X8239501Y-18633370D01*
X8242318Y-18657661D01*
X8242318Y-18657663D01*
X8243394Y-18660099D01*
X8250610Y-18684597D01*
X8262500Y-18759661D01*
X8312905Y-18858587D01*
X8391413Y-18937095D01*
X8490339Y-18987500D01*
X8600000Y-19004869D01*
X8709661Y-18987500D01*
X8808587Y-18937095D01*
X8829998Y-18915683D01*
X8884513Y-18887908D01*
X8944945Y-18897479D01*
X8970000Y-18915682D01*
X8991413Y-18937095D01*
X9090339Y-18987500D01*
X9200000Y-19004869D01*
X9309661Y-18987500D01*
X9408587Y-18937095D01*
X9429998Y-18915683D01*
X9484513Y-18887908D01*
X9544945Y-18897479D01*
X9570000Y-18915682D01*
X9591413Y-18937095D01*
X9690339Y-18987500D01*
X9800000Y-19004869D01*
X9909661Y-18987500D01*
X10008587Y-18937095D01*
X10087095Y-18858587D01*
X10089151Y-18854552D01*
X10132417Y-18811289D01*
X10177359Y-18800500D01*
X10423151Y-18800500D01*
X10481342Y-18819407D01*
X10517306Y-18868907D01*
X10517306Y-18930093D01*
X10511360Y-18944445D01*
X10462501Y-19040335D01*
X10462500Y-19040336D01*
X10445325Y-19148773D01*
X10445131Y-19150000D01*
X10462500Y-19259661D01*
X10512905Y-19358587D01*
X10591413Y-19437095D01*
X10690339Y-19487500D01*
X10772416Y-19500500D01*
X10799999Y-19504869D01*
X10799999Y-19504868D01*
X10800000Y-19504869D01*
X10819888Y-19501718D01*
X10835375Y-19500500D01*
X11364625Y-19500500D01*
X11380111Y-19501718D01*
X11400000Y-19504869D01*
X11419888Y-19501718D01*
X11435375Y-19500500D01*
X11964625Y-19500500D01*
X11980111Y-19501718D01*
X12000000Y-19504869D01*
X12109661Y-19487500D01*
X12208587Y-19437095D01*
X12287095Y-19358587D01*
X12337500Y-19259661D01*
X12354869Y-19150000D01*
X12337500Y-19040339D01*
X12287095Y-18941413D01*
X12208587Y-18862905D01*
X12181146Y-18848923D01*
X12137882Y-18805657D01*
X12128312Y-18745225D01*
X12138929Y-18718102D01*
X12138035Y-18717732D01*
X12141764Y-18708725D01*
X12141767Y-18708722D01*
X12150500Y-18664820D01*
X12150500Y-18235180D01*
X12150499Y-18235178D01*
X12150499Y-18235172D01*
X12141767Y-18191279D01*
X12138035Y-18182268D01*
X12140141Y-18181395D01*
X12127169Y-18135398D01*
X12148347Y-18077994D01*
X12181145Y-18051077D01*
X12208587Y-18037095D01*
X12287095Y-17958587D01*
X12337500Y-17859661D01*
X12354869Y-17750000D01*
X12353470Y-17741170D01*
X12341217Y-17663809D01*
X12337500Y-17640339D01*
X12287095Y-17541413D01*
X12215683Y-17470001D01*
X12187908Y-17415487D01*
X12197479Y-17355055D01*
X12215682Y-17329999D01*
X12287095Y-17258587D01*
X12337500Y-17159661D01*
X12354869Y-17050000D01*
X12337500Y-16940339D01*
X12287095Y-16841413D01*
X12215683Y-16770001D01*
X12187908Y-16715487D01*
X12197479Y-16655055D01*
X12215682Y-16629999D01*
X12287095Y-16558587D01*
X12337500Y-16459661D01*
X12354869Y-16350000D01*
X12352439Y-16334661D01*
X12352117Y-16332630D01*
X12337500Y-16240339D01*
X12287095Y-16141413D01*
X12215683Y-16070001D01*
X12187908Y-16015487D01*
X12197479Y-15955055D01*
X12215682Y-15929999D01*
X12287095Y-15858587D01*
X12337500Y-15759661D01*
X12354869Y-15650000D01*
X12337500Y-15540339D01*
X12287095Y-15441413D01*
X12208587Y-15362905D01*
X12109661Y-15312500D01*
X12000000Y-15295131D01*
X11980111Y-15298281D01*
X11964625Y-15299500D01*
X11435375Y-15299500D01*
X11419888Y-15298281D01*
X11400000Y-15295131D01*
X11380111Y-15298281D01*
X11364625Y-15299500D01*
X10835375Y-15299500D01*
X10819888Y-15298281D01*
X10800000Y-15295131D01*
X10690338Y-15312500D01*
X10591413Y-15362905D01*
X10512905Y-15441413D01*
X10462500Y-15540338D01*
X10445131Y-15649999D01*
X10445131Y-15650000D01*
X10462500Y-15759663D01*
X10462501Y-15759664D01*
X10511360Y-15855555D01*
X10520932Y-15915987D01*
X10493155Y-15970503D01*
X10438638Y-15998281D01*
X10423151Y-15999500D01*
X10087107Y-15999500D01*
X10046691Y-15986985D01*
X10045408Y-15989893D01*
X10037016Y-15986187D01*
X9937662Y-15942318D01*
X9937661Y-15942317D01*
X9937659Y-15942317D01*
X9913376Y-15939500D01*
X9486630Y-15939500D01*
X9486627Y-15939501D01*
X9462338Y-15942317D01*
X9398505Y-15970503D01*
X9362984Y-15986187D01*
X9362983Y-15986187D01*
X9354592Y-15989893D01*
X9353308Y-15986985D01*
X9312893Y-15999500D01*
X9087107Y-15999500D01*
X9046691Y-15986985D01*
X9045408Y-15989893D01*
X9037016Y-15986187D01*
X8937662Y-15942318D01*
X8937661Y-15942317D01*
X8937659Y-15942317D01*
X8913376Y-15939500D01*
X8486630Y-15939500D01*
X8486627Y-15939501D01*
X8462338Y-15942317D01*
X8362984Y-15986187D01*
X8286187Y-16062984D01*
X8242317Y-16162340D01*
X8239500Y-16186622D01*
X4400500Y-16186622D01*
X4400500Y-14066622D01*
X8279500Y-14066622D01*
X8279500Y-14433369D01*
X8279501Y-14433372D01*
X8282317Y-14457661D01*
X8304862Y-14508720D01*
X8326187Y-14557016D01*
X8402984Y-14633813D01*
X8502338Y-14677682D01*
X8526627Y-14680500D01*
X8953372Y-14680499D01*
X8977662Y-14677682D01*
X9077016Y-14633813D01*
X9081334Y-14629494D01*
X9135849Y-14601719D01*
X9151336Y-14600500D01*
X9288664Y-14600500D01*
X9346855Y-14619407D01*
X9358661Y-14629490D01*
X9362984Y-14633813D01*
X9462338Y-14677682D01*
X9486627Y-14680500D01*
X9913372Y-14680499D01*
X9937662Y-14677682D01*
X10037016Y-14633813D01*
X10041334Y-14629494D01*
X10095849Y-14601719D01*
X10111336Y-14600500D01*
X10785180Y-14600500D01*
X10814625Y-14600500D01*
X10830111Y-14601718D01*
X10850000Y-14604869D01*
X10869888Y-14601718D01*
X10885375Y-14600500D01*
X11364625Y-14600500D01*
X11380111Y-14601718D01*
X11400000Y-14604869D01*
X11419888Y-14601718D01*
X11435375Y-14600500D01*
X11964625Y-14600500D01*
X11980111Y-14601718D01*
X12000000Y-14604869D01*
X12109661Y-14587500D01*
X12208587Y-14537095D01*
X12287095Y-14458587D01*
X12337500Y-14359661D01*
X12354869Y-14250000D01*
X12337500Y-14140339D01*
X12287095Y-14041413D01*
X12208587Y-13962905D01*
X12109661Y-13912500D01*
X12000000Y-13895131D01*
X11980111Y-13898281D01*
X11964625Y-13899500D01*
X11602326Y-13899500D01*
X11544135Y-13880593D01*
X11508171Y-13831093D01*
X11508171Y-13769907D01*
X11514116Y-13755555D01*
X11527080Y-13730111D01*
X11537500Y-13709661D01*
X11554869Y-13600000D01*
X11537500Y-13490339D01*
X11487095Y-13391413D01*
X11408587Y-13312905D01*
X11360117Y-13288208D01*
X11316854Y-13244945D01*
X11307283Y-13184513D01*
X11335061Y-13129996D01*
X11360116Y-13111791D01*
X11408587Y-13087095D01*
X11487095Y-13008587D01*
X11537500Y-12909661D01*
X11554869Y-12800000D01*
X11537500Y-12690339D01*
X11487095Y-12591413D01*
X11408587Y-12512905D01*
X11309661Y-12462500D01*
X11200000Y-12445131D01*
X11090338Y-12462500D01*
X11017722Y-12499500D01*
X10991413Y-12512905D01*
X10970001Y-12534316D01*
X10915487Y-12562092D01*
X10855055Y-12552521D01*
X10829999Y-12534317D01*
X10808587Y-12512905D01*
X10709661Y-12462500D01*
X10600000Y-12445131D01*
X10490338Y-12462500D01*
X10391413Y-12512905D01*
X10312905Y-12591413D01*
X10262500Y-12690338D01*
X10262500Y-12690339D01*
X10245131Y-12800000D01*
X10262500Y-12909661D01*
X10312905Y-13008587D01*
X10391413Y-13087095D01*
X10416505Y-13099880D01*
X10439881Y-13111791D01*
X10483145Y-13155056D01*
X10492716Y-13215488D01*
X10464938Y-13270004D01*
X10439881Y-13288209D01*
X10391414Y-13312904D01*
X10312905Y-13391413D01*
X10262500Y-13490338D01*
X10245131Y-13599999D01*
X10245131Y-13600000D01*
X10262500Y-13709661D01*
X10285884Y-13755555D01*
X10295455Y-13815987D01*
X10267677Y-13870504D01*
X10213161Y-13898281D01*
X10197674Y-13899500D01*
X10111336Y-13899500D01*
X10053145Y-13880593D01*
X10041338Y-13870509D01*
X10037016Y-13866187D01*
X9937662Y-13822318D01*
X9937661Y-13822317D01*
X9937659Y-13822317D01*
X9913376Y-13819500D01*
X9486630Y-13819500D01*
X9486627Y-13819501D01*
X9462338Y-13822317D01*
X9366084Y-13864818D01*
X9362984Y-13866187D01*
X9358665Y-13870505D01*
X9304151Y-13898281D01*
X9288664Y-13899500D01*
X9151336Y-13899500D01*
X9093145Y-13880593D01*
X9081338Y-13870509D01*
X9077016Y-13866187D01*
X8977662Y-13822318D01*
X8977661Y-13822317D01*
X8977659Y-13822317D01*
X8953376Y-13819500D01*
X8526630Y-13819500D01*
X8526627Y-13819501D01*
X8502338Y-13822317D01*
X8402984Y-13866187D01*
X8326187Y-13942984D01*
X8282317Y-14042340D01*
X8279500Y-14066622D01*
X4400500Y-14066622D01*
X4400500Y-10700000D01*
X10245131Y-10700000D01*
X10262500Y-10809661D01*
X10312905Y-10908587D01*
X10391413Y-10987095D01*
X10416505Y-10999880D01*
X10439881Y-11011791D01*
X10483145Y-11055056D01*
X10492716Y-11115488D01*
X10464938Y-11170004D01*
X10439881Y-11188209D01*
X10391414Y-11212904D01*
X10312905Y-11291413D01*
X10262500Y-11390338D01*
X10247731Y-11483587D01*
X10245131Y-11500000D01*
X10262500Y-11609661D01*
X10312905Y-11708587D01*
X10391413Y-11787095D01*
X10490339Y-11837500D01*
X10600000Y-11854869D01*
X10709661Y-11837500D01*
X10808587Y-11787095D01*
X10829998Y-11765683D01*
X10884513Y-11737908D01*
X10944945Y-11747479D01*
X10970000Y-11765682D01*
X10991413Y-11787095D01*
X11090339Y-11837500D01*
X11200000Y-11854869D01*
X11309661Y-11837500D01*
X11408587Y-11787095D01*
X11487095Y-11708587D01*
X11537500Y-11609661D01*
X11554869Y-11500000D01*
X11537500Y-11390339D01*
X11487095Y-11291413D01*
X11408587Y-11212905D01*
X11360117Y-11188208D01*
X11316854Y-11144945D01*
X11307283Y-11084513D01*
X11335061Y-11029996D01*
X11360116Y-11011791D01*
X11408587Y-10987095D01*
X11487095Y-10908587D01*
X11537500Y-10809661D01*
X11554869Y-10700000D01*
X11537500Y-10590339D01*
X11487095Y-10491413D01*
X11408587Y-10412905D01*
X11309661Y-10362500D01*
X11200000Y-10345131D01*
X11090338Y-10362500D01*
X10991413Y-10412905D01*
X10970001Y-10434316D01*
X10915487Y-10462092D01*
X10855055Y-10452521D01*
X10829999Y-10434317D01*
X10808587Y-10412905D01*
X10709661Y-10362500D01*
X10600000Y-10345131D01*
X10490338Y-10362500D01*
X10391413Y-10412905D01*
X10312905Y-10491413D01*
X10262500Y-10590338D01*
X10257783Y-10620123D01*
X10245131Y-10700000D01*
X4400500Y-10700000D01*
X4400500Y-10336622D01*
X12649500Y-10336622D01*
X12649500Y-10763369D01*
X12649501Y-10763372D01*
X12652317Y-10787661D01*
X12662031Y-10809661D01*
X12696187Y-10887016D01*
X12772984Y-10963813D01*
X12772986Y-10963814D01*
X12779569Y-10968323D01*
X12816892Y-11016807D01*
X12818589Y-11077968D01*
X12784012Y-11128447D01*
X12779577Y-11131669D01*
X12772990Y-11136181D01*
X12696187Y-11212984D01*
X12652317Y-11312340D01*
X12649500Y-11336622D01*
X12649500Y-11763369D01*
X12649501Y-11763372D01*
X12652317Y-11787661D01*
X12674109Y-11837015D01*
X12696187Y-11887016D01*
X12772984Y-11963813D01*
X12790489Y-11971542D01*
X12836083Y-12012342D01*
X12849500Y-12062106D01*
X12849500Y-12614624D01*
X12848281Y-12630111D01*
X12845131Y-12649999D01*
X12848281Y-12669887D01*
X12849500Y-12685375D01*
X12849500Y-13214624D01*
X12848281Y-13230111D01*
X12845131Y-13249999D01*
X12848281Y-13269887D01*
X12849500Y-13285375D01*
X12849500Y-13814624D01*
X12848281Y-13830111D01*
X12846898Y-13838846D01*
X12845131Y-13850000D01*
X12847695Y-13866187D01*
X12848281Y-13869887D01*
X12849500Y-13885375D01*
X12849500Y-13896148D01*
X12855346Y-13917966D01*
X12857500Y-13928097D01*
X12862499Y-13959659D01*
X12862501Y-13959664D01*
X12866253Y-13967027D01*
X12871706Y-13981234D01*
X12873384Y-13985284D01*
X12873385Y-13985286D01*
X12873386Y-13985288D01*
X12890590Y-14015086D01*
X12893038Y-14019597D01*
X12912905Y-14058587D01*
X12991413Y-14137095D01*
X12991415Y-14137096D01*
X12991416Y-14137097D01*
X13030394Y-14156957D01*
X13034950Y-14159431D01*
X13051199Y-14168812D01*
X13064712Y-14176614D01*
X13064715Y-14176615D01*
X13068801Y-14178308D01*
X13082968Y-14183744D01*
X13090339Y-14187500D01*
X13121901Y-14192498D01*
X13132027Y-14194650D01*
X13153856Y-14200500D01*
X13164625Y-14200500D01*
X13180111Y-14201718D01*
X13200000Y-14204869D01*
X13219888Y-14201718D01*
X13235375Y-14200500D01*
X13246143Y-14200500D01*
X13246144Y-14200500D01*
X13267983Y-14194647D01*
X13278076Y-14192502D01*
X13309661Y-14187500D01*
X13317026Y-14183746D01*
X13331206Y-14178304D01*
X13335284Y-14176615D01*
X13335283Y-14176615D01*
X13335288Y-14176614D01*
X13365082Y-14159411D01*
X13369576Y-14156970D01*
X13408587Y-14137095D01*
X13479998Y-14065683D01*
X13534513Y-14037908D01*
X13594945Y-14047479D01*
X13620000Y-14065682D01*
X13691413Y-14137095D01*
X13691415Y-14137096D01*
X13691416Y-14137097D01*
X13730394Y-14156957D01*
X13734950Y-14159431D01*
X13751199Y-14168812D01*
X13764712Y-14176614D01*
X13764715Y-14176615D01*
X13768801Y-14178308D01*
X13782968Y-14183744D01*
X13790339Y-14187500D01*
X13821901Y-14192498D01*
X13832027Y-14194650D01*
X13853856Y-14200500D01*
X13864625Y-14200500D01*
X13880111Y-14201718D01*
X13900000Y-14204869D01*
X13919888Y-14201718D01*
X13935375Y-14200500D01*
X13946143Y-14200500D01*
X13946144Y-14200500D01*
X13967983Y-14194647D01*
X13978076Y-14192502D01*
X14009661Y-14187500D01*
X14017026Y-14183746D01*
X14031206Y-14178304D01*
X14035284Y-14176615D01*
X14035283Y-14176615D01*
X14035288Y-14176614D01*
X14065082Y-14159411D01*
X14069576Y-14156970D01*
X14108587Y-14137095D01*
X14187095Y-14058587D01*
X14206970Y-14019576D01*
X14209411Y-14015082D01*
X14226614Y-13985288D01*
X14226615Y-13985283D01*
X14228304Y-13981206D01*
X14233746Y-13967026D01*
X14237500Y-13959661D01*
X14242502Y-13928076D01*
X14244647Y-13917983D01*
X14250500Y-13896144D01*
X14250500Y-13885375D01*
X14251719Y-13869887D01*
X14252305Y-13866187D01*
X14254869Y-13850000D01*
X14253102Y-13838846D01*
X14251719Y-13830111D01*
X14250500Y-13814624D01*
X14250500Y-13285375D01*
X14251719Y-13269887D01*
X14254869Y-13249999D01*
X14251719Y-13230111D01*
X14250500Y-13214624D01*
X14250500Y-12685375D01*
X14251719Y-12669887D01*
X14254869Y-12649999D01*
X14251719Y-12630111D01*
X14250500Y-12614624D01*
X14250500Y-12053275D01*
X14269407Y-11995084D01*
X14300258Y-11970180D01*
X14299448Y-11968997D01*
X14307011Y-11963814D01*
X14307016Y-11963813D01*
X14383813Y-11887016D01*
X14427682Y-11787662D01*
X14430500Y-11763373D01*
X14430499Y-11336628D01*
X14427682Y-11312338D01*
X14383813Y-11212984D01*
X14307016Y-11136187D01*
X14307014Y-11136186D01*
X14307010Y-11136182D01*
X14300425Y-11131671D01*
X14263105Y-11083185D01*
X14261412Y-11022024D01*
X14295992Y-10971547D01*
X14300433Y-10968321D01*
X14307009Y-10963816D01*
X14307016Y-10963813D01*
X14383813Y-10887016D01*
X14427682Y-10787662D01*
X14430500Y-10763373D01*
X14430499Y-10336628D01*
X14427682Y-10312338D01*
X14383813Y-10212984D01*
X14307016Y-10136187D01*
X14307014Y-10136186D01*
X14307013Y-10136185D01*
X14284007Y-10126027D01*
X14238411Y-10085227D01*
X14225506Y-10025418D01*
X14250220Y-9969446D01*
X14303114Y-9938690D01*
X14308490Y-9937685D01*
X14309661Y-9937500D01*
X14408587Y-9887095D01*
X14487095Y-9808587D01*
X14537500Y-9709661D01*
X14554869Y-9600000D01*
X14537500Y-9490339D01*
X14487095Y-9391413D01*
X14408587Y-9312905D01*
X14360117Y-9288208D01*
X14316854Y-9244945D01*
X14307283Y-9184513D01*
X14335061Y-9129996D01*
X14360116Y-9111791D01*
X14408587Y-9087095D01*
X14487095Y-9008587D01*
X14537500Y-8909661D01*
X14554869Y-8800000D01*
X14537500Y-8690339D01*
X14487095Y-8591413D01*
X14408587Y-8512905D01*
X14309661Y-8462500D01*
X14200000Y-8445131D01*
X14090338Y-8462500D01*
X13997780Y-8509661D01*
X13991413Y-8512905D01*
X13970001Y-8534316D01*
X13915487Y-8562092D01*
X13855055Y-8552521D01*
X13829999Y-8534317D01*
X13808587Y-8512905D01*
X13709661Y-8462500D01*
X13600000Y-8445131D01*
X13490338Y-8462500D01*
X13391413Y-8512905D01*
X13312905Y-8591413D01*
X13262500Y-8690338D01*
X13262500Y-8690339D01*
X13245131Y-8800000D01*
X13262500Y-8909661D01*
X13312905Y-9008587D01*
X13391413Y-9087095D01*
X13416505Y-9099880D01*
X13439881Y-9111791D01*
X13483145Y-9155056D01*
X13492716Y-9215488D01*
X13464938Y-9270004D01*
X13439881Y-9288209D01*
X13391414Y-9312904D01*
X13312905Y-9391413D01*
X13262500Y-9490338D01*
X13262500Y-9490339D01*
X13245131Y-9600000D01*
X13262500Y-9709661D01*
X13312905Y-9808587D01*
X13391413Y-9887095D01*
X13490339Y-9937500D01*
X13600000Y-9954869D01*
X13633672Y-9949535D01*
X13694100Y-9959105D01*
X13737366Y-10002368D01*
X13746940Y-10062800D01*
X13719164Y-10117317D01*
X13700117Y-10130368D01*
X13700552Y-10131003D01*
X13692986Y-10136185D01*
X13692984Y-10136186D01*
X13692984Y-10136187D01*
X13616187Y-10212984D01*
X13616186Y-10212985D01*
X13610004Y-10219168D01*
X13555487Y-10246945D01*
X13495055Y-10237374D01*
X13469996Y-10219168D01*
X13463813Y-10212985D01*
X13463813Y-10212984D01*
X13387016Y-10136187D01*
X13287662Y-10092318D01*
X13287661Y-10092317D01*
X13287659Y-10092317D01*
X13263376Y-10089500D01*
X12896630Y-10089500D01*
X12896627Y-10089501D01*
X12872338Y-10092317D01*
X12772984Y-10136187D01*
X12696187Y-10212984D01*
X12652317Y-10312340D01*
X12649500Y-10336622D01*
X4400500Y-10336622D01*
X4400500Y-8044768D01*
X4419407Y-7986577D01*
X4429496Y-7974764D01*
X6504260Y-5900000D01*
X11245131Y-5900000D01*
X11262500Y-6009661D01*
X11312905Y-6108587D01*
X11391413Y-6187095D01*
X11490339Y-6237500D01*
X11568951Y-6249951D01*
X11623468Y-6277728D01*
X12200735Y-6854995D01*
X12228512Y-6909512D01*
X12218941Y-6969944D01*
X12200735Y-6995003D01*
X11623465Y-7572272D01*
X11568949Y-7600049D01*
X11490338Y-7612500D01*
X11391413Y-7662905D01*
X11312905Y-7741413D01*
X11262500Y-7840338D01*
X11260943Y-7850172D01*
X11245131Y-7950000D01*
X11262500Y-8059661D01*
X11312905Y-8158587D01*
X11391413Y-8237095D01*
X11490339Y-8287500D01*
X11600000Y-8304869D01*
X11709661Y-8287500D01*
X11808587Y-8237095D01*
X11887095Y-8158587D01*
X11937500Y-8059661D01*
X11949951Y-7981046D01*
X11977726Y-7926533D01*
X11977729Y-7926531D01*
X12424766Y-7479496D01*
X12479282Y-7451719D01*
X12494769Y-7450500D01*
X14905231Y-7450500D01*
X14963422Y-7469407D01*
X14975235Y-7479496D01*
X15820504Y-8324765D01*
X15848281Y-8379282D01*
X15849500Y-8394769D01*
X15849500Y-12405458D01*
X15830593Y-12463649D01*
X15781093Y-12499613D01*
X15769817Y-12502555D01*
X15741279Y-12508232D01*
X15732268Y-12511965D01*
X15731395Y-12509859D01*
X15685384Y-12522829D01*
X15627984Y-12501644D01*
X15601076Y-12468852D01*
X15596880Y-12460618D01*
X15587095Y-12441413D01*
X15508587Y-12362905D01*
X15409661Y-12312500D01*
X15300000Y-12295131D01*
X15190338Y-12312500D01*
X15091413Y-12362905D01*
X15012905Y-12441413D01*
X14962500Y-12540338D01*
X14945131Y-12649999D01*
X14948281Y-12669887D01*
X14949500Y-12685375D01*
X14949500Y-13214624D01*
X14948281Y-13230111D01*
X14945131Y-13249999D01*
X14948281Y-13269887D01*
X14949500Y-13285375D01*
X14949500Y-13823359D01*
X14948281Y-13838846D01*
X14946515Y-13849999D01*
X14946405Y-13850691D01*
X14963774Y-13960352D01*
X15014179Y-14059278D01*
X15092687Y-14137786D01*
X15191613Y-14188191D01*
X15301274Y-14205560D01*
X15410935Y-14188191D01*
X15509861Y-14137786D01*
X15588369Y-14059278D01*
X15602289Y-14031957D01*
X15645552Y-13988694D01*
X15705984Y-13979122D01*
X15731777Y-13989218D01*
X15732268Y-13988035D01*
X15741276Y-13991765D01*
X15741278Y-13991767D01*
X15752327Y-13993964D01*
X15785172Y-14000499D01*
X15785178Y-14000499D01*
X15785180Y-14000500D01*
X15785181Y-14000500D01*
X16214819Y-14000500D01*
X16214820Y-14000500D01*
X16214821Y-14000499D01*
X16214827Y-14000499D01*
X16237306Y-13996027D01*
X16258722Y-13991767D01*
X16294998Y-13967527D01*
X16353886Y-13950919D01*
X16405000Y-13967527D01*
X16418127Y-13976298D01*
X16441276Y-13991766D01*
X16441277Y-13991766D01*
X16441278Y-13991767D01*
X16452327Y-13993964D01*
X16485172Y-14000499D01*
X16485178Y-14000499D01*
X16485180Y-14000500D01*
X16485181Y-14000500D01*
X16914819Y-14000500D01*
X16914820Y-14000500D01*
X16914821Y-14000499D01*
X16914827Y-14000499D01*
X16937306Y-13996027D01*
X16958722Y-13991767D01*
X16994998Y-13967527D01*
X17053886Y-13950919D01*
X17105000Y-13967527D01*
X17118127Y-13976298D01*
X17141276Y-13991766D01*
X17141277Y-13991766D01*
X17141278Y-13991767D01*
X17152327Y-13993964D01*
X17185172Y-14000499D01*
X17185178Y-14000499D01*
X17185180Y-14000500D01*
X17185181Y-14000500D01*
X17614819Y-14000500D01*
X17614820Y-14000500D01*
X17614821Y-14000499D01*
X17614827Y-14000499D01*
X17637306Y-13996027D01*
X17658722Y-13991767D01*
X17694998Y-13967527D01*
X17753886Y-13950919D01*
X17805000Y-13967527D01*
X17818127Y-13976298D01*
X17841276Y-13991766D01*
X17841277Y-13991766D01*
X17841278Y-13991767D01*
X17852327Y-13993964D01*
X17885172Y-14000499D01*
X17885178Y-14000499D01*
X17885180Y-14000500D01*
X17885181Y-14000500D01*
X18314819Y-14000500D01*
X18314820Y-14000500D01*
X18314821Y-14000499D01*
X18314827Y-14000499D01*
X18337306Y-13996027D01*
X18358722Y-13991767D01*
X18408504Y-13958504D01*
X18441767Y-13908722D01*
X18446411Y-13885375D01*
X18450499Y-13864827D01*
X18450500Y-13864818D01*
X18450500Y-12649999D01*
X19845131Y-12649999D01*
X19848281Y-12669887D01*
X19849500Y-12685375D01*
X19849500Y-13214624D01*
X19848281Y-13230111D01*
X19845131Y-13249999D01*
X19848281Y-13269887D01*
X19849500Y-13285375D01*
X19849500Y-13823359D01*
X19848281Y-13838846D01*
X19846515Y-13849999D01*
X19846405Y-13850691D01*
X19863774Y-13960352D01*
X19914179Y-14059278D01*
X19992687Y-14137786D01*
X20091613Y-14188191D01*
X20201274Y-14205560D01*
X20310935Y-14188191D01*
X20409861Y-14137786D01*
X20488369Y-14059278D01*
X20502289Y-14031957D01*
X20545552Y-13988694D01*
X20605984Y-13979122D01*
X20631777Y-13989218D01*
X20632268Y-13988035D01*
X20641276Y-13991765D01*
X20641278Y-13991767D01*
X20652327Y-13993964D01*
X20685172Y-14000499D01*
X20685178Y-14000499D01*
X20685180Y-14000500D01*
X20685181Y-14000500D01*
X21114819Y-14000500D01*
X21114820Y-14000500D01*
X21114821Y-14000499D01*
X21114827Y-14000499D01*
X21137306Y-13996027D01*
X21158722Y-13991767D01*
X21194998Y-13967527D01*
X21253886Y-13950919D01*
X21305000Y-13967527D01*
X21318127Y-13976298D01*
X21341276Y-13991766D01*
X21341277Y-13991766D01*
X21341278Y-13991767D01*
X21352327Y-13993964D01*
X21385172Y-14000499D01*
X21385178Y-14000499D01*
X21385180Y-14000500D01*
X21385181Y-14000500D01*
X21814819Y-14000500D01*
X21814820Y-14000500D01*
X21814821Y-14000499D01*
X21814827Y-14000499D01*
X21837306Y-13996027D01*
X21858722Y-13991767D01*
X21894998Y-13967527D01*
X21953886Y-13950919D01*
X22004999Y-13967526D01*
X22041278Y-13991767D01*
X22041279Y-13991767D01*
X22047655Y-13996027D01*
X22062652Y-14008334D01*
X22091413Y-14037095D01*
X22190339Y-14087500D01*
X22300000Y-14104869D01*
X22409661Y-14087500D01*
X22508587Y-14037095D01*
X22537348Y-14008333D01*
X22552341Y-13996030D01*
X22558720Y-13991767D01*
X22558722Y-13991767D01*
X22608504Y-13958504D01*
X22641767Y-13908722D01*
X22646411Y-13885375D01*
X22650499Y-13864827D01*
X22650500Y-13864818D01*
X22650500Y-13785375D01*
X22651719Y-13769887D01*
X22654869Y-13749999D01*
X22651719Y-13730111D01*
X22650500Y-13714624D01*
X22650500Y-13235375D01*
X22651719Y-13219887D01*
X22654869Y-13199999D01*
X22651719Y-13180111D01*
X22650500Y-13164624D01*
X22650500Y-12685375D01*
X22651719Y-12669887D01*
X22654869Y-12649999D01*
X22649266Y-12614624D01*
X22637500Y-12540339D01*
X22587095Y-12441413D01*
X22508587Y-12362905D01*
X22409661Y-12312500D01*
X22300000Y-12295131D01*
X22190338Y-12312500D01*
X22092208Y-12362500D01*
X22091413Y-12362905D01*
X22019501Y-12434816D01*
X21964987Y-12462592D01*
X21904555Y-12453021D01*
X21861290Y-12409756D01*
X21850500Y-12364811D01*
X21850500Y-10286622D01*
X23249500Y-10286622D01*
X23249500Y-10713369D01*
X23249501Y-10713372D01*
X23252317Y-10737661D01*
X23263670Y-10763372D01*
X23296187Y-10837016D01*
X23320505Y-10861334D01*
X23348281Y-10915849D01*
X23349500Y-10931336D01*
X23349500Y-10964624D01*
X23348281Y-10980111D01*
X23345131Y-11000000D01*
X23346999Y-11011791D01*
X23348281Y-11019887D01*
X23349500Y-11035375D01*
X23349500Y-11068663D01*
X23330593Y-11126854D01*
X23320505Y-11138665D01*
X23296188Y-11162982D01*
X23252317Y-11262340D01*
X23249500Y-11286622D01*
X23249500Y-11713369D01*
X23249501Y-11713372D01*
X23252317Y-11737661D01*
X23263670Y-11763372D01*
X23296187Y-11837016D01*
X23320505Y-11861334D01*
X23348281Y-11915849D01*
X23349500Y-11931336D01*
X23349500Y-13864827D01*
X23358232Y-13908720D01*
X23358234Y-13908724D01*
X23367756Y-13922975D01*
X23391496Y-13958504D01*
X23441278Y-13991767D01*
X23452327Y-13993964D01*
X23485172Y-14000499D01*
X23485178Y-14000499D01*
X23485180Y-14000500D01*
X23485181Y-14000500D01*
X23914819Y-14000500D01*
X23914820Y-14000500D01*
X23914821Y-14000499D01*
X23914827Y-14000499D01*
X23937306Y-13996027D01*
X23958722Y-13991767D01*
X23975145Y-13980793D01*
X24034031Y-13964184D01*
X24091435Y-13985360D01*
X24110243Y-14004922D01*
X24112903Y-14008584D01*
X24112905Y-14008587D01*
X24191413Y-14087095D01*
X24290339Y-14137500D01*
X24400000Y-14154869D01*
X24509661Y-14137500D01*
X24608587Y-14087095D01*
X24687095Y-14008587D01*
X24723167Y-13937790D01*
X24729053Y-13927749D01*
X24735595Y-13917958D01*
X24741767Y-13908722D01*
X24748048Y-13877148D01*
X24750499Y-13864827D01*
X24750500Y-13864818D01*
X24750500Y-13835375D01*
X24751719Y-13819887D01*
X24754869Y-13799999D01*
X24751719Y-13780111D01*
X24750500Y-13764624D01*
X24750500Y-13285375D01*
X24751719Y-13269887D01*
X24754869Y-13249999D01*
X24751719Y-13230111D01*
X24750500Y-13214624D01*
X24750500Y-12735375D01*
X24751719Y-12719887D01*
X24754869Y-12699999D01*
X24751719Y-12680111D01*
X24750500Y-12664624D01*
X24750500Y-12635181D01*
X24750499Y-12635172D01*
X25449500Y-12635172D01*
X25449500Y-13864827D01*
X25458232Y-13908720D01*
X25458234Y-13908724D01*
X25467756Y-13922975D01*
X25491496Y-13958504D01*
X25541278Y-13991767D01*
X25552327Y-13993964D01*
X25585172Y-14000499D01*
X25585178Y-14000499D01*
X25585180Y-14000500D01*
X25585181Y-14000500D01*
X26014819Y-14000500D01*
X26014820Y-14000500D01*
X26014821Y-14000499D01*
X26014827Y-14000499D01*
X26037306Y-13996027D01*
X26058722Y-13991767D01*
X26094998Y-13967527D01*
X26153886Y-13950919D01*
X26205000Y-13967527D01*
X26218127Y-13976298D01*
X26241276Y-13991766D01*
X26241277Y-13991766D01*
X26241278Y-13991767D01*
X26252327Y-13993964D01*
X26285172Y-14000499D01*
X26285178Y-14000499D01*
X26285180Y-14000500D01*
X26285181Y-14000500D01*
X26714819Y-14000500D01*
X26714820Y-14000500D01*
X26731183Y-13997245D01*
X26791944Y-14004434D01*
X26836875Y-14045965D01*
X26849500Y-14094342D01*
X26849500Y-14464827D01*
X26858232Y-14508720D01*
X26858233Y-14508723D01*
X26882472Y-14544999D01*
X26899080Y-14603887D01*
X26882472Y-14655001D01*
X26858233Y-14691276D01*
X26858232Y-14691279D01*
X26849500Y-14735172D01*
X26849500Y-15164827D01*
X26858232Y-15208720D01*
X26858233Y-15208723D01*
X26882472Y-15244999D01*
X26899080Y-15303887D01*
X26882472Y-15355001D01*
X26858233Y-15391276D01*
X26858232Y-15391279D01*
X26849500Y-15435172D01*
X26849500Y-15864827D01*
X26858232Y-15908720D01*
X26858233Y-15908723D01*
X26882472Y-15944999D01*
X26899080Y-16003887D01*
X26882472Y-16055001D01*
X26858233Y-16091276D01*
X26858232Y-16091279D01*
X26849500Y-16135172D01*
X26849500Y-16564827D01*
X26858232Y-16608720D01*
X26858233Y-16608723D01*
X26882472Y-16644999D01*
X26899080Y-16703887D01*
X26882472Y-16755001D01*
X26858233Y-16791276D01*
X26858232Y-16791279D01*
X26849500Y-16835172D01*
X26849500Y-17264827D01*
X26858232Y-17308720D01*
X26858233Y-17308723D01*
X26882472Y-17344999D01*
X26899080Y-17403887D01*
X26882472Y-17455001D01*
X26858233Y-17491276D01*
X26858232Y-17491279D01*
X26849500Y-17535172D01*
X26849500Y-17964827D01*
X26858232Y-18008720D01*
X26858232Y-18008721D01*
X26858233Y-18008722D01*
X26869206Y-18025145D01*
X26885815Y-18084031D01*
X26864638Y-18141435D01*
X26845087Y-18160235D01*
X26841417Y-18162901D01*
X26762905Y-18241413D01*
X26712500Y-18340338D01*
X26710092Y-18355545D01*
X26695131Y-18450000D01*
X26712500Y-18559661D01*
X26762905Y-18658587D01*
X26841413Y-18737095D01*
X26841415Y-18737096D01*
X26841416Y-18737097D01*
X26912195Y-18773160D01*
X26922253Y-18779055D01*
X26941276Y-18791766D01*
X26941277Y-18791766D01*
X26941278Y-18791767D01*
X26952327Y-18793964D01*
X26985172Y-18800499D01*
X26985178Y-18800499D01*
X26985180Y-18800500D01*
X27014625Y-18800500D01*
X27030111Y-18801718D01*
X27050000Y-18804869D01*
X27069888Y-18801718D01*
X27085375Y-18800500D01*
X27564625Y-18800500D01*
X27580111Y-18801718D01*
X27600000Y-18804869D01*
X27619888Y-18801718D01*
X27635375Y-18800500D01*
X28114625Y-18800500D01*
X28130111Y-18801718D01*
X28150000Y-18804869D01*
X28169888Y-18801718D01*
X28185375Y-18800500D01*
X28214819Y-18800500D01*
X28214820Y-18800500D01*
X28214821Y-18800499D01*
X28214827Y-18800499D01*
X28232240Y-18797034D01*
X28258722Y-18791767D01*
X28277750Y-18779052D01*
X28287790Y-18773167D01*
X28358587Y-18737095D01*
X28437095Y-18658587D01*
X28487500Y-18559661D01*
X28504869Y-18450000D01*
X28487500Y-18340339D01*
X28437095Y-18241413D01*
X28358587Y-18162905D01*
X28358584Y-18162903D01*
X28354922Y-18160243D01*
X28318955Y-18110745D01*
X28318952Y-18049559D01*
X28330791Y-18025148D01*
X28341767Y-18008722D01*
X28350500Y-17964820D01*
X28350500Y-17874500D01*
X28369407Y-17816309D01*
X28418907Y-17780345D01*
X28449500Y-17775500D01*
X29092572Y-17775500D01*
X29092580Y-17775501D01*
X29104103Y-17775501D01*
X29193812Y-17775501D01*
X29193813Y-17775501D01*
X29255376Y-17750000D01*
X29276694Y-17741170D01*
X29340128Y-17677736D01*
X29340128Y-17677734D01*
X29526586Y-17491276D01*
X30113367Y-16904497D01*
X30167883Y-16876720D01*
X30183370Y-16875501D01*
X30697165Y-16875501D01*
X30755356Y-16894408D01*
X30785374Y-16929555D01*
X30790869Y-16940339D01*
X30812905Y-16983587D01*
X30891413Y-17062095D01*
X30990339Y-17112500D01*
X31100000Y-17129869D01*
X31209661Y-17112500D01*
X31308587Y-17062095D01*
X31387095Y-16983587D01*
X31437500Y-16884661D01*
X31454869Y-16775000D01*
X31437500Y-16665339D01*
X31387095Y-16566413D01*
X31387094Y-16566412D01*
X31387093Y-16566410D01*
X31382514Y-16560108D01*
X31384797Y-16558448D01*
X31362908Y-16515487D01*
X31372479Y-16455055D01*
X31383156Y-16440358D01*
X31382514Y-16439892D01*
X31387093Y-16433589D01*
X31387095Y-16433587D01*
X31437500Y-16334661D01*
X31454869Y-16225000D01*
X31454435Y-16222263D01*
X31444388Y-16158828D01*
X31437500Y-16115339D01*
X31387095Y-16016413D01*
X31308587Y-15937905D01*
X31209661Y-15887500D01*
X31100000Y-15870131D01*
X30990338Y-15887500D01*
X30891413Y-15937905D01*
X30812904Y-16016414D01*
X30785374Y-16070445D01*
X30742109Y-16113709D01*
X30697165Y-16124499D01*
X29981077Y-16124499D01*
X29981069Y-16124498D01*
X29969546Y-16124498D01*
X29879837Y-16124498D01*
X29854049Y-16135180D01*
X29854048Y-16135180D01*
X29796955Y-16158828D01*
X29733520Y-16222262D01*
X29733521Y-16222263D01*
X29733520Y-16222264D01*
X28960281Y-16995504D01*
X28905764Y-17023281D01*
X28890277Y-17024500D01*
X28449500Y-17024500D01*
X28391309Y-17005593D01*
X28355345Y-16956093D01*
X28350500Y-16925500D01*
X28350500Y-16835181D01*
X28350499Y-16835172D01*
X28341767Y-16791279D01*
X28341766Y-16791276D01*
X28317528Y-16755002D01*
X28300919Y-16696114D01*
X28317528Y-16644998D01*
X28341766Y-16608723D01*
X28341765Y-16608723D01*
X28341767Y-16608722D01*
X28346162Y-16586623D01*
X28350499Y-16564827D01*
X28350500Y-16564818D01*
X28350500Y-16135180D01*
X28350499Y-16135172D01*
X28341767Y-16091279D01*
X28341766Y-16091276D01*
X28317528Y-16055002D01*
X28300919Y-15996114D01*
X28317528Y-15944998D01*
X28319320Y-15942317D01*
X28341767Y-15908722D01*
X28350500Y-15864820D01*
X28350500Y-15435180D01*
X28350499Y-15435178D01*
X28350499Y-15435172D01*
X28342112Y-15393011D01*
X28341767Y-15391278D01*
X28317527Y-15355001D01*
X28300919Y-15296114D01*
X28317528Y-15244998D01*
X28341766Y-15208723D01*
X28341765Y-15208723D01*
X28341767Y-15208722D01*
X28350500Y-15164820D01*
X28350500Y-14735180D01*
X28350499Y-14735178D01*
X28350499Y-14735172D01*
X28341767Y-14691279D01*
X28341766Y-14691276D01*
X28317528Y-14655002D01*
X28300919Y-14596114D01*
X28317528Y-14544998D01*
X28322810Y-14537094D01*
X28341767Y-14508722D01*
X28350500Y-14464820D01*
X28350500Y-14035180D01*
X28350499Y-14035178D01*
X28350499Y-14035172D01*
X28342712Y-13996027D01*
X28341767Y-13991278D01*
X28308504Y-13941496D01*
X28273277Y-13917958D01*
X28258724Y-13908234D01*
X28258720Y-13908232D01*
X28214827Y-13899500D01*
X28214820Y-13899500D01*
X26985180Y-13899500D01*
X26985174Y-13899500D01*
X26968813Y-13902755D01*
X26908052Y-13895563D01*
X26863122Y-13854030D01*
X26850500Y-13805657D01*
X26850500Y-12635181D01*
X26850499Y-12635172D01*
X26841767Y-12591279D01*
X26841765Y-12591276D01*
X26808504Y-12541496D01*
X26780567Y-12522829D01*
X26758724Y-12508234D01*
X26758720Y-12508232D01*
X26714827Y-12499500D01*
X26714820Y-12499500D01*
X26285180Y-12499500D01*
X26285172Y-12499500D01*
X26241279Y-12508232D01*
X26241276Y-12508233D01*
X26205001Y-12532472D01*
X26146113Y-12549080D01*
X26094999Y-12532472D01*
X26058723Y-12508233D01*
X26058720Y-12508232D01*
X26014827Y-12499500D01*
X26014820Y-12499500D01*
X25585180Y-12499500D01*
X25585172Y-12499500D01*
X25541279Y-12508232D01*
X25541275Y-12508234D01*
X25491498Y-12541494D01*
X25491494Y-12541498D01*
X25458234Y-12591275D01*
X25458232Y-12591279D01*
X25449500Y-12635172D01*
X24750499Y-12635172D01*
X24741767Y-12591279D01*
X24741766Y-12591276D01*
X24729055Y-12572253D01*
X24723160Y-12562195D01*
X24687097Y-12491416D01*
X24687096Y-12491415D01*
X24687095Y-12491413D01*
X24608587Y-12412905D01*
X24509661Y-12362500D01*
X24400000Y-12345131D01*
X24290338Y-12362500D01*
X24194445Y-12411360D01*
X24134013Y-12420931D01*
X24079496Y-12393153D01*
X24051719Y-12338637D01*
X24050500Y-12323150D01*
X24050500Y-11887106D01*
X24063019Y-11846693D01*
X24060107Y-11845408D01*
X24063811Y-11837017D01*
X24063813Y-11837016D01*
X24107682Y-11737662D01*
X24110500Y-11713373D01*
X24110499Y-11286628D01*
X24107682Y-11262338D01*
X24063813Y-11162984D01*
X24063812Y-11162983D01*
X24060107Y-11154592D01*
X24063014Y-11153308D01*
X24050500Y-11112893D01*
X24050500Y-11035375D01*
X24051719Y-11019887D01*
X24053001Y-11011791D01*
X24054869Y-11000000D01*
X24051719Y-10980111D01*
X24050500Y-10964624D01*
X24050500Y-10887106D01*
X24063019Y-10846693D01*
X24060107Y-10845408D01*
X24063811Y-10837017D01*
X24063813Y-10837016D01*
X24107682Y-10737662D01*
X24110500Y-10713373D01*
X24110499Y-10286628D01*
X24107682Y-10262338D01*
X24080157Y-10199999D01*
X27069819Y-10199999D01*
X27069819Y-10200000D01*
X27088426Y-10317481D01*
X27088428Y-10317488D01*
X27137046Y-10412905D01*
X27142427Y-10423465D01*
X27226535Y-10507573D01*
X27226537Y-10507574D01*
X27332511Y-10561571D01*
X27332513Y-10561571D01*
X27332518Y-10561574D01*
X27450000Y-10580181D01*
X27567482Y-10561574D01*
X27673465Y-10507573D01*
X27757573Y-10423465D01*
X27811574Y-10317482D01*
X27830181Y-10200000D01*
X27811574Y-10082518D01*
X27811571Y-10082513D01*
X27811571Y-10082511D01*
X27757574Y-9976537D01*
X27757573Y-9976535D01*
X27673465Y-9892427D01*
X27673462Y-9892425D01*
X27567488Y-9838428D01*
X27567483Y-9838426D01*
X27567482Y-9838426D01*
X27450000Y-9819819D01*
X27332518Y-9838426D01*
X27332511Y-9838428D01*
X27226537Y-9892425D01*
X27142425Y-9976537D01*
X27088428Y-10082511D01*
X27088426Y-10082518D01*
X27069819Y-10199999D01*
X24080157Y-10199999D01*
X24063813Y-10162984D01*
X23987016Y-10086187D01*
X23887662Y-10042318D01*
X23887661Y-10042317D01*
X23887659Y-10042317D01*
X23863376Y-10039500D01*
X23496630Y-10039500D01*
X23496627Y-10039501D01*
X23472338Y-10042317D01*
X23372984Y-10086187D01*
X23296187Y-10162984D01*
X23252317Y-10262340D01*
X23249500Y-10286622D01*
X21850500Y-10286622D01*
X21850500Y-8400000D01*
X35945131Y-8400000D01*
X35962500Y-8509661D01*
X36012905Y-8608587D01*
X36091413Y-8687095D01*
X36190339Y-8737500D01*
X36300000Y-8754869D01*
X36409661Y-8737500D01*
X36508587Y-8687095D01*
X36587095Y-8608587D01*
X36637500Y-8509661D01*
X36654869Y-8400000D01*
X36654040Y-8394769D01*
X36652117Y-8382630D01*
X36637500Y-8290339D01*
X36587095Y-8191413D01*
X36587094Y-8191412D01*
X36587093Y-8191410D01*
X36579494Y-8183811D01*
X36551718Y-8129293D01*
X36550500Y-8113810D01*
X36550500Y-7400000D01*
X38019819Y-7400000D01*
X38029990Y-7464221D01*
X38038426Y-7517481D01*
X38038428Y-7517488D01*
X38086840Y-7612500D01*
X38092427Y-7623465D01*
X38176535Y-7707573D01*
X38176537Y-7707574D01*
X38282511Y-7761571D01*
X38282513Y-7761571D01*
X38282518Y-7761574D01*
X38400000Y-7780181D01*
X38517482Y-7761574D01*
X38623465Y-7707573D01*
X38707573Y-7623465D01*
X38761574Y-7517482D01*
X38761574Y-7517480D01*
X38761790Y-7517057D01*
X38805055Y-7473792D01*
X38865487Y-7464221D01*
X38920004Y-7491999D01*
X38938210Y-7517057D01*
X38938425Y-7517480D01*
X38938426Y-7517482D01*
X38992427Y-7623465D01*
X39076535Y-7707573D01*
X39076537Y-7707574D01*
X39182511Y-7761571D01*
X39182513Y-7761571D01*
X39182518Y-7761574D01*
X39300000Y-7780181D01*
X39417482Y-7761574D01*
X39523465Y-7707573D01*
X39607573Y-7623465D01*
X39661574Y-7517482D01*
X39680181Y-7400000D01*
X39661574Y-7282518D01*
X39661571Y-7282513D01*
X39661571Y-7282511D01*
X39607574Y-7176537D01*
X39607573Y-7176535D01*
X39523465Y-7092427D01*
X39523462Y-7092425D01*
X39417488Y-7038428D01*
X39417483Y-7038426D01*
X39417482Y-7038426D01*
X39300000Y-7019819D01*
X39182518Y-7038426D01*
X39182511Y-7038428D01*
X39076537Y-7092425D01*
X38992426Y-7176536D01*
X38938209Y-7282943D01*
X38894945Y-7326207D01*
X38834512Y-7335778D01*
X38779996Y-7308000D01*
X38761791Y-7282943D01*
X38707574Y-7176537D01*
X38707573Y-7176535D01*
X38623465Y-7092427D01*
X38623462Y-7092425D01*
X38517488Y-7038428D01*
X38517483Y-7038426D01*
X38517482Y-7038426D01*
X38400000Y-7019819D01*
X38282518Y-7038426D01*
X38282511Y-7038428D01*
X38176537Y-7092425D01*
X38092425Y-7176537D01*
X38038428Y-7282511D01*
X38038426Y-7282518D01*
X38019819Y-7400000D01*
X36550500Y-7400000D01*
X36550500Y-6744769D01*
X36569407Y-6686578D01*
X36579496Y-6674765D01*
X37574765Y-5679496D01*
X37629282Y-5651719D01*
X37644769Y-5650500D01*
X38563811Y-5650500D01*
X38622002Y-5669407D01*
X38633808Y-5679490D01*
X38641413Y-5687095D01*
X38740339Y-5737500D01*
X38850000Y-5754869D01*
X38959661Y-5737500D01*
X39058587Y-5687095D01*
X39137095Y-5608587D01*
X39187500Y-5509661D01*
X39204869Y-5400000D01*
X39187500Y-5290339D01*
X39137095Y-5191413D01*
X39058587Y-5112905D01*
X38959661Y-5062500D01*
X38850000Y-5045131D01*
X38740338Y-5062500D01*
X38641413Y-5112905D01*
X38633812Y-5120505D01*
X38579298Y-5148281D01*
X38563811Y-5149500D01*
X37450171Y-5149500D01*
X37358105Y-5187634D01*
X36158103Y-6387636D01*
X36158102Y-6387635D01*
X36087635Y-6458103D01*
X36049500Y-6550171D01*
X36049500Y-8113810D01*
X36030593Y-8172001D01*
X36020506Y-8183811D01*
X36012907Y-8191409D01*
X36012906Y-8191410D01*
X35962500Y-8290338D01*
X35945960Y-8394769D01*
X35945131Y-8400000D01*
X21850500Y-8400000D01*
X21850500Y-6896189D01*
X21869407Y-6837998D01*
X21879490Y-6826191D01*
X21897095Y-6808587D01*
X21947500Y-6709661D01*
X21964869Y-6600000D01*
X21947500Y-6490339D01*
X21897095Y-6391413D01*
X21818587Y-6312905D01*
X21719661Y-6262500D01*
X21610000Y-6245131D01*
X21500338Y-6262500D01*
X21401413Y-6312905D01*
X21322905Y-6391413D01*
X21272500Y-6490338D01*
X21255131Y-6599999D01*
X21255131Y-6600000D01*
X21272500Y-6709661D01*
X21322906Y-6808589D01*
X21327486Y-6814892D01*
X21325628Y-6816241D01*
X21348281Y-6860702D01*
X21349500Y-6876189D01*
X21349500Y-12449822D01*
X21330593Y-12508013D01*
X21305491Y-12532144D01*
X21304991Y-12532478D01*
X21246101Y-12549079D01*
X21194999Y-12532472D01*
X21158723Y-12508233D01*
X21158720Y-12508232D01*
X21114827Y-12499500D01*
X21114820Y-12499500D01*
X20685180Y-12499500D01*
X20685172Y-12499500D01*
X20641279Y-12508232D01*
X20632268Y-12511965D01*
X20631395Y-12509859D01*
X20585384Y-12522829D01*
X20527984Y-12501644D01*
X20501076Y-12468852D01*
X20496880Y-12460618D01*
X20487095Y-12441413D01*
X20408587Y-12362905D01*
X20309661Y-12312500D01*
X20200000Y-12295131D01*
X20090338Y-12312500D01*
X19991413Y-12362905D01*
X19912905Y-12441413D01*
X19862500Y-12540338D01*
X19845131Y-12649999D01*
X18450500Y-12649999D01*
X18450500Y-12635181D01*
X18450499Y-12635172D01*
X18441767Y-12591279D01*
X18441765Y-12591276D01*
X18408504Y-12541496D01*
X18394496Y-12532136D01*
X18356618Y-12484086D01*
X18350500Y-12449822D01*
X18350500Y-11800171D01*
X18312365Y-11708105D01*
X18312364Y-11708104D01*
X18312364Y-11708103D01*
X18241897Y-11637636D01*
X18241895Y-11637635D01*
X17902728Y-11298468D01*
X17874951Y-11243951D01*
X17870046Y-11212984D01*
X17862500Y-11165339D01*
X17812095Y-11066413D01*
X17733587Y-10987905D01*
X17634661Y-10937500D01*
X17525000Y-10920131D01*
X17415338Y-10937500D01*
X17316413Y-10987905D01*
X17237905Y-11066413D01*
X17187500Y-11165338D01*
X17170131Y-11274999D01*
X17170131Y-11275000D01*
X17187500Y-11384663D01*
X17187501Y-11384664D01*
X17229537Y-11467164D01*
X17239109Y-11527596D01*
X17211332Y-11582112D01*
X17156817Y-11609890D01*
X17140338Y-11612500D01*
X17094445Y-11635884D01*
X17034013Y-11645455D01*
X16979496Y-11617677D01*
X16951719Y-11563161D01*
X16950500Y-11547674D01*
X16950500Y-9350000D01*
X18145131Y-9350000D01*
X18162500Y-9459661D01*
X18212905Y-9558587D01*
X18291413Y-9637095D01*
X18390339Y-9687500D01*
X18500000Y-9704869D01*
X18609661Y-9687500D01*
X18708587Y-9637095D01*
X18787095Y-9558587D01*
X18837500Y-9459661D01*
X18854869Y-9350000D01*
X18850909Y-9325000D01*
X20395131Y-9325000D01*
X20412500Y-9434661D01*
X20462905Y-9533587D01*
X20541413Y-9612095D01*
X20640339Y-9662500D01*
X20750000Y-9679869D01*
X20859661Y-9662500D01*
X20958587Y-9612095D01*
X21037095Y-9533587D01*
X21087500Y-9434661D01*
X21104869Y-9325000D01*
X21087500Y-9215339D01*
X21037095Y-9116413D01*
X20958587Y-9037905D01*
X20859661Y-8987500D01*
X20750000Y-8970131D01*
X20640338Y-8987500D01*
X20541413Y-9037905D01*
X20462905Y-9116413D01*
X20412500Y-9215338D01*
X20412500Y-9215339D01*
X20395131Y-9325000D01*
X18850909Y-9325000D01*
X18837500Y-9240339D01*
X18787095Y-9141413D01*
X18708587Y-9062905D01*
X18609661Y-9012500D01*
X18500000Y-8995131D01*
X18390338Y-9012500D01*
X18291413Y-9062905D01*
X18212905Y-9141413D01*
X18162500Y-9240338D01*
X18151007Y-9312904D01*
X18145131Y-9350000D01*
X16950500Y-9350000D01*
X16950500Y-7900171D01*
X16912364Y-7808103D01*
X16841897Y-7737635D01*
X16841897Y-7737636D01*
X15641897Y-6537636D01*
X15641895Y-6537635D01*
X15641894Y-6537634D01*
X15549829Y-6499500D01*
X15549828Y-6499500D01*
X12594768Y-6499500D01*
X12536577Y-6480593D01*
X12524764Y-6470504D01*
X12454260Y-6400000D01*
X17745131Y-6400000D01*
X17762500Y-6509661D01*
X17812905Y-6608587D01*
X17859316Y-6654998D01*
X17887092Y-6709513D01*
X17877521Y-6769945D01*
X17859317Y-6795000D01*
X17828133Y-6826185D01*
X17812905Y-6841413D01*
X17762500Y-6940338D01*
X17762500Y-6940339D01*
X17745131Y-7050000D01*
X17762500Y-7159661D01*
X17812905Y-7258587D01*
X17891413Y-7337095D01*
X17990339Y-7387500D01*
X18100000Y-7404869D01*
X18209661Y-7387500D01*
X18308587Y-7337095D01*
X18379998Y-7265683D01*
X18434513Y-7237908D01*
X18494945Y-7247479D01*
X18520000Y-7265682D01*
X18591413Y-7337095D01*
X18690339Y-7387500D01*
X18800000Y-7404869D01*
X18909661Y-7387500D01*
X19008587Y-7337095D01*
X19087095Y-7258587D01*
X19087097Y-7258581D01*
X19091673Y-7252285D01*
X19092841Y-7253133D01*
X19130050Y-7215921D01*
X19190482Y-7206346D01*
X19245000Y-7234121D01*
X19258241Y-7252346D01*
X19258327Y-7252285D01*
X19262903Y-7258584D01*
X19262905Y-7258587D01*
X19341413Y-7337095D01*
X19440339Y-7387500D01*
X19550000Y-7404869D01*
X19659661Y-7387500D01*
X19758587Y-7337095D01*
X19837095Y-7258587D01*
X19887500Y-7159661D01*
X19904869Y-7050000D01*
X19887500Y-6940339D01*
X19837095Y-6841413D01*
X19790683Y-6795001D01*
X19762908Y-6740487D01*
X19772479Y-6680055D01*
X19790682Y-6654999D01*
X19837095Y-6608587D01*
X19887500Y-6509661D01*
X19904869Y-6400000D01*
X19887500Y-6290339D01*
X19837095Y-6191413D01*
X19758587Y-6112905D01*
X19659661Y-6062500D01*
X19550000Y-6045131D01*
X19440338Y-6062500D01*
X19341413Y-6112905D01*
X19262903Y-6191415D01*
X19258327Y-6197715D01*
X19257159Y-6196866D01*
X19219944Y-6234081D01*
X19159512Y-6243652D01*
X19104996Y-6215874D01*
X19091757Y-6197653D01*
X19091673Y-6197715D01*
X19087096Y-6191415D01*
X19087095Y-6191413D01*
X19008587Y-6112905D01*
X18909661Y-6062500D01*
X18800000Y-6045131D01*
X18690338Y-6062500D01*
X18599888Y-6108587D01*
X18591413Y-6112905D01*
X18520001Y-6184316D01*
X18465487Y-6212092D01*
X18405055Y-6202521D01*
X18379999Y-6184317D01*
X18308587Y-6112905D01*
X18209661Y-6062500D01*
X18100000Y-6045131D01*
X17990338Y-6062500D01*
X17891413Y-6112905D01*
X17812905Y-6191413D01*
X17762500Y-6290338D01*
X17762500Y-6290339D01*
X17745131Y-6400000D01*
X12454260Y-6400000D01*
X11977728Y-5923468D01*
X11949951Y-5868951D01*
X11937500Y-5790339D01*
X11887095Y-5691413D01*
X11808587Y-5612905D01*
X11709661Y-5562500D01*
X11600000Y-5545131D01*
X11490338Y-5562500D01*
X11391413Y-5612905D01*
X11312905Y-5691413D01*
X11262500Y-5790338D01*
X11262500Y-5790339D01*
X11245131Y-5900000D01*
X6504260Y-5900000D01*
X7824764Y-4579496D01*
X7879281Y-4551719D01*
X7894768Y-4550500D01*
X15613811Y-4550500D01*
X15672002Y-4569407D01*
X15683808Y-4579490D01*
X15691413Y-4587095D01*
X15790339Y-4637500D01*
X15900000Y-4654869D01*
X16009661Y-4637500D01*
X16108587Y-4587095D01*
X16187095Y-4508587D01*
X16237500Y-4409661D01*
X16254869Y-4300000D01*
X16237500Y-4190339D01*
X16187095Y-4091413D01*
X16108587Y-4012905D01*
X16009661Y-3962500D01*
X15900000Y-3945131D01*
X15790338Y-3962500D01*
X15691413Y-4012905D01*
X15683812Y-4020505D01*
X15629298Y-4048281D01*
X15613811Y-4049500D01*
X7700171Y-4049500D01*
X7608103Y-4087635D01*
X7537635Y-4158102D01*
X7537636Y-4158103D01*
X7537635Y-4158104D01*
X4008103Y-7687635D01*
X4008103Y-7687636D01*
X4008102Y-7687635D01*
X3937635Y-7758103D01*
X3899500Y-7850171D01*
X0Y-7850171D01*
X0Y-3505509D01*
X18907Y-3447318D01*
X68407Y-3411354D01*
X129593Y-3411354D01*
X179093Y-3447318D01*
X188196Y-3462555D01*
X308047Y-3711430D01*
X308051Y-3711437D01*
X308055Y-3711445D01*
X457477Y-3949248D01*
X632584Y-4168825D01*
X831175Y-4367416D01*
X1050752Y-4542523D01*
X1288555Y-4691945D01*
X1288566Y-4691950D01*
X1288569Y-4691952D01*
X1509962Y-4798569D01*
X1541592Y-4813801D01*
X1806682Y-4906560D01*
X2080491Y-4969055D01*
X2359575Y-5000500D01*
X2359576Y-5000500D01*
X2640424Y-5000500D01*
X2640425Y-5000500D01*
X2919509Y-4969055D01*
X3193318Y-4906560D01*
X3458408Y-4813801D01*
X3711445Y-4691945D01*
X3949248Y-4542523D01*
X4168825Y-4367416D01*
X4367416Y-4168825D01*
X4542523Y-3949248D01*
X4691945Y-3711445D01*
X4813801Y-3458408D01*
X4906560Y-3193318D01*
X4969055Y-2919509D01*
X5000500Y-2640425D01*
X5000500Y-2359575D01*
X4969055Y-2080491D01*
X4906560Y-1806682D01*
X4813801Y-1541592D01*
X4798569Y-1509962D01*
X4691952Y-1288569D01*
X4691950Y-1288566D01*
X4691945Y-1288555D01*
X4573468Y-1100000D01*
X15845131Y-1100000D01*
X15862500Y-1209661D01*
X15912905Y-1308587D01*
X15991413Y-1387095D01*
X16090339Y-1437500D01*
X16200000Y-1454869D01*
X16309661Y-1437500D01*
X16408587Y-1387095D01*
X16487095Y-1308587D01*
X16537500Y-1209661D01*
X16554869Y-1100000D01*
X16537500Y-990339D01*
X16487095Y-891413D01*
X16408587Y-812905D01*
X16309661Y-762500D01*
X16200000Y-745131D01*
X16090338Y-762500D01*
X15991413Y-812905D01*
X15912905Y-891413D01*
X15862500Y-990338D01*
X15862500Y-990339D01*
X15845131Y-1100000D01*
X4573468Y-1100000D01*
X4542523Y-1050752D01*
X4367416Y-831175D01*
X4168825Y-632584D01*
X3949248Y-457477D01*
X3711445Y-308055D01*
X3711437Y-308051D01*
X3711430Y-308047D01*
X3462555Y-188196D01*
X3418330Y-145913D01*
X3407405Y-85711D01*
X3433952Y-30585D01*
X3487832Y-1591D01*
X3505509Y0D01*
X35494491Y0D01*
X35552682Y-18907D01*
G37*
G04 #@! TD.AperFunction*
G04 #@! TD*
G04 #@! TA.AperFunction,Conductor*
G04 #@! TO.N,+3V3*
G36*
X38178326Y-24621674D02*
G01*
X38200000Y-24674000D01*
X38200000Y-25801000D01*
X38178326Y-25853326D01*
X38126000Y-25875000D01*
X36724000Y-25875000D01*
X36671674Y-25853326D01*
X36650000Y-25801000D01*
X36650000Y-24674000D01*
X36671674Y-24621674D01*
X36724000Y-24600000D01*
X38126000Y-24600000D01*
X38178326Y-24621674D01*
G37*
G04 #@! TD.AperFunction*
G04 #@! TD*
M02*
