G04 #@! TF.GenerationSoftware,KiCad,Pcbnew,8.0.4*
G04 #@! TF.CreationDate,2025-01-16T23:08:25-08:00*
G04 #@! TF.ProjectId,GMAX4002_MIPI_Breakout,474d4158-3430-4303-925f-4d4950495f42,rev?*
G04 #@! TF.SameCoordinates,Original*
G04 #@! TF.FileFunction,Legend,Bot*
G04 #@! TF.FilePolarity,Positive*
%FSLAX46Y46*%
G04 Gerber Fmt 4.6, Leading zero omitted, Abs format (unit mm)*
G04 Created by KiCad (PCBNEW 8.0.4) date 2025-01-16 23:08:25*
%MOMM*%
%LPD*%
G01*
G04 APERTURE LIST*
%ADD10C,0.150000*%
%ADD11C,0.120000*%
G04 APERTURE END LIST*
D10*
X702464Y-11099999D02*
X659607Y-11014285D01*
X659607Y-11014285D02*
X659607Y-10885713D01*
X659607Y-10885713D02*
X702464Y-10757142D01*
X702464Y-10757142D02*
X788178Y-10671427D01*
X788178Y-10671427D02*
X873892Y-10628570D01*
X873892Y-10628570D02*
X1045321Y-10585713D01*
X1045321Y-10585713D02*
X1173892Y-10585713D01*
X1173892Y-10585713D02*
X1345321Y-10628570D01*
X1345321Y-10628570D02*
X1431035Y-10671427D01*
X1431035Y-10671427D02*
X1516750Y-10757142D01*
X1516750Y-10757142D02*
X1559607Y-10885713D01*
X1559607Y-10885713D02*
X1559607Y-10971427D01*
X1559607Y-10971427D02*
X1516750Y-11099999D01*
X1516750Y-11099999D02*
X1473892Y-11142856D01*
X1473892Y-11142856D02*
X1173892Y-11142856D01*
X1173892Y-11142856D02*
X1173892Y-10971427D01*
X1559607Y-11528570D02*
X659607Y-11528570D01*
X659607Y-11528570D02*
X1302464Y-11828570D01*
X1302464Y-11828570D02*
X659607Y-12128570D01*
X659607Y-12128570D02*
X1559607Y-12128570D01*
X1302464Y-12514284D02*
X1302464Y-12942856D01*
X1559607Y-12428570D02*
X659607Y-12728570D01*
X659607Y-12728570D02*
X1559607Y-13028570D01*
X659607Y-13242856D02*
X1559607Y-13842856D01*
X659607Y-13842856D02*
X1559607Y-13242856D01*
X959607Y-14571428D02*
X1559607Y-14571428D01*
X616750Y-14357142D02*
X1259607Y-14142856D01*
X1259607Y-14142856D02*
X1259607Y-14699999D01*
X659607Y-15214285D02*
X659607Y-15299999D01*
X659607Y-15299999D02*
X702464Y-15385713D01*
X702464Y-15385713D02*
X745321Y-15428571D01*
X745321Y-15428571D02*
X831035Y-15471428D01*
X831035Y-15471428D02*
X1002464Y-15514285D01*
X1002464Y-15514285D02*
X1216750Y-15514285D01*
X1216750Y-15514285D02*
X1388178Y-15471428D01*
X1388178Y-15471428D02*
X1473892Y-15428571D01*
X1473892Y-15428571D02*
X1516750Y-15385713D01*
X1516750Y-15385713D02*
X1559607Y-15299999D01*
X1559607Y-15299999D02*
X1559607Y-15214285D01*
X1559607Y-15214285D02*
X1516750Y-15128571D01*
X1516750Y-15128571D02*
X1473892Y-15085713D01*
X1473892Y-15085713D02*
X1388178Y-15042856D01*
X1388178Y-15042856D02*
X1216750Y-14999999D01*
X1216750Y-14999999D02*
X1002464Y-14999999D01*
X1002464Y-14999999D02*
X831035Y-15042856D01*
X831035Y-15042856D02*
X745321Y-15085713D01*
X745321Y-15085713D02*
X702464Y-15128571D01*
X702464Y-15128571D02*
X659607Y-15214285D01*
X659607Y-16071428D02*
X659607Y-16157142D01*
X659607Y-16157142D02*
X702464Y-16242856D01*
X702464Y-16242856D02*
X745321Y-16285714D01*
X745321Y-16285714D02*
X831035Y-16328571D01*
X831035Y-16328571D02*
X1002464Y-16371428D01*
X1002464Y-16371428D02*
X1216750Y-16371428D01*
X1216750Y-16371428D02*
X1388178Y-16328571D01*
X1388178Y-16328571D02*
X1473892Y-16285714D01*
X1473892Y-16285714D02*
X1516750Y-16242856D01*
X1516750Y-16242856D02*
X1559607Y-16157142D01*
X1559607Y-16157142D02*
X1559607Y-16071428D01*
X1559607Y-16071428D02*
X1516750Y-15985714D01*
X1516750Y-15985714D02*
X1473892Y-15942856D01*
X1473892Y-15942856D02*
X1388178Y-15899999D01*
X1388178Y-15899999D02*
X1216750Y-15857142D01*
X1216750Y-15857142D02*
X1002464Y-15857142D01*
X1002464Y-15857142D02*
X831035Y-15899999D01*
X831035Y-15899999D02*
X745321Y-15942856D01*
X745321Y-15942856D02*
X702464Y-15985714D01*
X702464Y-15985714D02*
X659607Y-16071428D01*
X745321Y-16714285D02*
X702464Y-16757142D01*
X702464Y-16757142D02*
X659607Y-16842857D01*
X659607Y-16842857D02*
X659607Y-17057142D01*
X659607Y-17057142D02*
X702464Y-17142857D01*
X702464Y-17142857D02*
X745321Y-17185714D01*
X745321Y-17185714D02*
X831035Y-17228571D01*
X831035Y-17228571D02*
X916750Y-17228571D01*
X916750Y-17228571D02*
X1045321Y-17185714D01*
X1045321Y-17185714D02*
X1559607Y-16671428D01*
X1559607Y-16671428D02*
X1559607Y-17228571D01*
X1088178Y-18599999D02*
X1131035Y-18728571D01*
X1131035Y-18728571D02*
X1173892Y-18771428D01*
X1173892Y-18771428D02*
X1259607Y-18814285D01*
X1259607Y-18814285D02*
X1388178Y-18814285D01*
X1388178Y-18814285D02*
X1473892Y-18771428D01*
X1473892Y-18771428D02*
X1516750Y-18728571D01*
X1516750Y-18728571D02*
X1559607Y-18642856D01*
X1559607Y-18642856D02*
X1559607Y-18299999D01*
X1559607Y-18299999D02*
X659607Y-18299999D01*
X659607Y-18299999D02*
X659607Y-18599999D01*
X659607Y-18599999D02*
X702464Y-18685714D01*
X702464Y-18685714D02*
X745321Y-18728571D01*
X745321Y-18728571D02*
X831035Y-18771428D01*
X831035Y-18771428D02*
X916750Y-18771428D01*
X916750Y-18771428D02*
X1002464Y-18728571D01*
X1002464Y-18728571D02*
X1045321Y-18685714D01*
X1045321Y-18685714D02*
X1088178Y-18599999D01*
X1088178Y-18599999D02*
X1088178Y-18299999D01*
X1559607Y-19199999D02*
X959607Y-19199999D01*
X1131035Y-19199999D02*
X1045321Y-19242856D01*
X1045321Y-19242856D02*
X1002464Y-19285714D01*
X1002464Y-19285714D02*
X959607Y-19371428D01*
X959607Y-19371428D02*
X959607Y-19457142D01*
X1516750Y-20099999D02*
X1559607Y-20014285D01*
X1559607Y-20014285D02*
X1559607Y-19842857D01*
X1559607Y-19842857D02*
X1516750Y-19757142D01*
X1516750Y-19757142D02*
X1431035Y-19714285D01*
X1431035Y-19714285D02*
X1088178Y-19714285D01*
X1088178Y-19714285D02*
X1002464Y-19757142D01*
X1002464Y-19757142D02*
X959607Y-19842857D01*
X959607Y-19842857D02*
X959607Y-20014285D01*
X959607Y-20014285D02*
X1002464Y-20099999D01*
X1002464Y-20099999D02*
X1088178Y-20142857D01*
X1088178Y-20142857D02*
X1173892Y-20142857D01*
X1173892Y-20142857D02*
X1259607Y-19714285D01*
X1559607Y-20914286D02*
X1088178Y-20914286D01*
X1088178Y-20914286D02*
X1002464Y-20871428D01*
X1002464Y-20871428D02*
X959607Y-20785714D01*
X959607Y-20785714D02*
X959607Y-20614286D01*
X959607Y-20614286D02*
X1002464Y-20528571D01*
X1516750Y-20914286D02*
X1559607Y-20828571D01*
X1559607Y-20828571D02*
X1559607Y-20614286D01*
X1559607Y-20614286D02*
X1516750Y-20528571D01*
X1516750Y-20528571D02*
X1431035Y-20485714D01*
X1431035Y-20485714D02*
X1345321Y-20485714D01*
X1345321Y-20485714D02*
X1259607Y-20528571D01*
X1259607Y-20528571D02*
X1216750Y-20614286D01*
X1216750Y-20614286D02*
X1216750Y-20828571D01*
X1216750Y-20828571D02*
X1173892Y-20914286D01*
X1559607Y-21342857D02*
X659607Y-21342857D01*
X1216750Y-21428572D02*
X1559607Y-21685714D01*
X959607Y-21685714D02*
X1302464Y-21342857D01*
X1559607Y-22200000D02*
X1516750Y-22114285D01*
X1516750Y-22114285D02*
X1473892Y-22071428D01*
X1473892Y-22071428D02*
X1388178Y-22028571D01*
X1388178Y-22028571D02*
X1131035Y-22028571D01*
X1131035Y-22028571D02*
X1045321Y-22071428D01*
X1045321Y-22071428D02*
X1002464Y-22114285D01*
X1002464Y-22114285D02*
X959607Y-22200000D01*
X959607Y-22200000D02*
X959607Y-22328571D01*
X959607Y-22328571D02*
X1002464Y-22414285D01*
X1002464Y-22414285D02*
X1045321Y-22457143D01*
X1045321Y-22457143D02*
X1131035Y-22500000D01*
X1131035Y-22500000D02*
X1388178Y-22500000D01*
X1388178Y-22500000D02*
X1473892Y-22457143D01*
X1473892Y-22457143D02*
X1516750Y-22414285D01*
X1516750Y-22414285D02*
X1559607Y-22328571D01*
X1559607Y-22328571D02*
X1559607Y-22200000D01*
X959607Y-23271429D02*
X1559607Y-23271429D01*
X959607Y-22885714D02*
X1431035Y-22885714D01*
X1431035Y-22885714D02*
X1516750Y-22928571D01*
X1516750Y-22928571D02*
X1559607Y-23014286D01*
X1559607Y-23014286D02*
X1559607Y-23142857D01*
X1559607Y-23142857D02*
X1516750Y-23228571D01*
X1516750Y-23228571D02*
X1473892Y-23271429D01*
X959607Y-23571429D02*
X959607Y-23914286D01*
X659607Y-23700000D02*
X1431035Y-23700000D01*
X1431035Y-23700000D02*
X1516750Y-23742857D01*
X1516750Y-23742857D02*
X1559607Y-23828572D01*
X1559607Y-23828572D02*
X1559607Y-23914286D01*
X1088178Y-25200000D02*
X1131035Y-25328572D01*
X1131035Y-25328572D02*
X1173892Y-25371429D01*
X1173892Y-25371429D02*
X1259607Y-25414286D01*
X1259607Y-25414286D02*
X1388178Y-25414286D01*
X1388178Y-25414286D02*
X1473892Y-25371429D01*
X1473892Y-25371429D02*
X1516750Y-25328572D01*
X1516750Y-25328572D02*
X1559607Y-25242857D01*
X1559607Y-25242857D02*
X1559607Y-24900000D01*
X1559607Y-24900000D02*
X659607Y-24900000D01*
X659607Y-24900000D02*
X659607Y-25200000D01*
X659607Y-25200000D02*
X702464Y-25285715D01*
X702464Y-25285715D02*
X745321Y-25328572D01*
X745321Y-25328572D02*
X831035Y-25371429D01*
X831035Y-25371429D02*
X916750Y-25371429D01*
X916750Y-25371429D02*
X1002464Y-25328572D01*
X1002464Y-25328572D02*
X1045321Y-25285715D01*
X1045321Y-25285715D02*
X1088178Y-25200000D01*
X1088178Y-25200000D02*
X1088178Y-24900000D01*
X1559607Y-25928572D02*
X1516750Y-25842857D01*
X1516750Y-25842857D02*
X1473892Y-25800000D01*
X1473892Y-25800000D02*
X1388178Y-25757143D01*
X1388178Y-25757143D02*
X1131035Y-25757143D01*
X1131035Y-25757143D02*
X1045321Y-25800000D01*
X1045321Y-25800000D02*
X1002464Y-25842857D01*
X1002464Y-25842857D02*
X959607Y-25928572D01*
X959607Y-25928572D02*
X959607Y-26057143D01*
X959607Y-26057143D02*
X1002464Y-26142857D01*
X1002464Y-26142857D02*
X1045321Y-26185715D01*
X1045321Y-26185715D02*
X1131035Y-26228572D01*
X1131035Y-26228572D02*
X1388178Y-26228572D01*
X1388178Y-26228572D02*
X1473892Y-26185715D01*
X1473892Y-26185715D02*
X1516750Y-26142857D01*
X1516750Y-26142857D02*
X1559607Y-26057143D01*
X1559607Y-26057143D02*
X1559607Y-25928572D01*
X1559607Y-27000001D02*
X1088178Y-27000001D01*
X1088178Y-27000001D02*
X1002464Y-26957143D01*
X1002464Y-26957143D02*
X959607Y-26871429D01*
X959607Y-26871429D02*
X959607Y-26700001D01*
X959607Y-26700001D02*
X1002464Y-26614286D01*
X1516750Y-27000001D02*
X1559607Y-26914286D01*
X1559607Y-26914286D02*
X1559607Y-26700001D01*
X1559607Y-26700001D02*
X1516750Y-26614286D01*
X1516750Y-26614286D02*
X1431035Y-26571429D01*
X1431035Y-26571429D02*
X1345321Y-26571429D01*
X1345321Y-26571429D02*
X1259607Y-26614286D01*
X1259607Y-26614286D02*
X1216750Y-26700001D01*
X1216750Y-26700001D02*
X1216750Y-26914286D01*
X1216750Y-26914286D02*
X1173892Y-27000001D01*
X1559607Y-27428572D02*
X959607Y-27428572D01*
X1131035Y-27428572D02*
X1045321Y-27471429D01*
X1045321Y-27471429D02*
X1002464Y-27514287D01*
X1002464Y-27514287D02*
X959607Y-27600001D01*
X959607Y-27600001D02*
X959607Y-27685715D01*
X1559607Y-28371430D02*
X659607Y-28371430D01*
X1516750Y-28371430D02*
X1559607Y-28285715D01*
X1559607Y-28285715D02*
X1559607Y-28114287D01*
X1559607Y-28114287D02*
X1516750Y-28028572D01*
X1516750Y-28028572D02*
X1473892Y-27985715D01*
X1473892Y-27985715D02*
X1388178Y-27942858D01*
X1388178Y-27942858D02*
X1131035Y-27942858D01*
X1131035Y-27942858D02*
X1045321Y-27985715D01*
X1045321Y-27985715D02*
X1002464Y-28028572D01*
X1002464Y-28028572D02*
X959607Y-28114287D01*
X959607Y-28114287D02*
X959607Y-28285715D01*
X959607Y-28285715D02*
X1002464Y-28371430D01*
X3008557Y-11571428D02*
X2108557Y-11571428D01*
X2108557Y-11571428D02*
X2108557Y-11785714D01*
X2108557Y-11785714D02*
X2151414Y-11914285D01*
X2151414Y-11914285D02*
X2237128Y-12000000D01*
X2237128Y-12000000D02*
X2322842Y-12042857D01*
X2322842Y-12042857D02*
X2494271Y-12085714D01*
X2494271Y-12085714D02*
X2622842Y-12085714D01*
X2622842Y-12085714D02*
X2794271Y-12042857D01*
X2794271Y-12042857D02*
X2879985Y-12000000D01*
X2879985Y-12000000D02*
X2965700Y-11914285D01*
X2965700Y-11914285D02*
X3008557Y-11785714D01*
X3008557Y-11785714D02*
X3008557Y-11571428D01*
X2965700Y-12814285D02*
X3008557Y-12728571D01*
X3008557Y-12728571D02*
X3008557Y-12557143D01*
X3008557Y-12557143D02*
X2965700Y-12471428D01*
X2965700Y-12471428D02*
X2879985Y-12428571D01*
X2879985Y-12428571D02*
X2537128Y-12428571D01*
X2537128Y-12428571D02*
X2451414Y-12471428D01*
X2451414Y-12471428D02*
X2408557Y-12557143D01*
X2408557Y-12557143D02*
X2408557Y-12728571D01*
X2408557Y-12728571D02*
X2451414Y-12814285D01*
X2451414Y-12814285D02*
X2537128Y-12857143D01*
X2537128Y-12857143D02*
X2622842Y-12857143D01*
X2622842Y-12857143D02*
X2708557Y-12428571D01*
X2965700Y-13200000D02*
X3008557Y-13285714D01*
X3008557Y-13285714D02*
X3008557Y-13457143D01*
X3008557Y-13457143D02*
X2965700Y-13542857D01*
X2965700Y-13542857D02*
X2879985Y-13585714D01*
X2879985Y-13585714D02*
X2837128Y-13585714D01*
X2837128Y-13585714D02*
X2751414Y-13542857D01*
X2751414Y-13542857D02*
X2708557Y-13457143D01*
X2708557Y-13457143D02*
X2708557Y-13328572D01*
X2708557Y-13328572D02*
X2665700Y-13242857D01*
X2665700Y-13242857D02*
X2579985Y-13200000D01*
X2579985Y-13200000D02*
X2537128Y-13200000D01*
X2537128Y-13200000D02*
X2451414Y-13242857D01*
X2451414Y-13242857D02*
X2408557Y-13328572D01*
X2408557Y-13328572D02*
X2408557Y-13457143D01*
X2408557Y-13457143D02*
X2451414Y-13542857D01*
X3008557Y-13971428D02*
X2408557Y-13971428D01*
X2108557Y-13971428D02*
X2151414Y-13928571D01*
X2151414Y-13928571D02*
X2194271Y-13971428D01*
X2194271Y-13971428D02*
X2151414Y-14014285D01*
X2151414Y-14014285D02*
X2108557Y-13971428D01*
X2108557Y-13971428D02*
X2194271Y-13971428D01*
X2408557Y-14785714D02*
X3137128Y-14785714D01*
X3137128Y-14785714D02*
X3222842Y-14742856D01*
X3222842Y-14742856D02*
X3265700Y-14699999D01*
X3265700Y-14699999D02*
X3308557Y-14614285D01*
X3308557Y-14614285D02*
X3308557Y-14485714D01*
X3308557Y-14485714D02*
X3265700Y-14399999D01*
X2965700Y-14785714D02*
X3008557Y-14699999D01*
X3008557Y-14699999D02*
X3008557Y-14528571D01*
X3008557Y-14528571D02*
X2965700Y-14442856D01*
X2965700Y-14442856D02*
X2922842Y-14399999D01*
X2922842Y-14399999D02*
X2837128Y-14357142D01*
X2837128Y-14357142D02*
X2579985Y-14357142D01*
X2579985Y-14357142D02*
X2494271Y-14399999D01*
X2494271Y-14399999D02*
X2451414Y-14442856D01*
X2451414Y-14442856D02*
X2408557Y-14528571D01*
X2408557Y-14528571D02*
X2408557Y-14699999D01*
X2408557Y-14699999D02*
X2451414Y-14785714D01*
X2408557Y-15214285D02*
X3008557Y-15214285D01*
X2494271Y-15214285D02*
X2451414Y-15257142D01*
X2451414Y-15257142D02*
X2408557Y-15342857D01*
X2408557Y-15342857D02*
X2408557Y-15471428D01*
X2408557Y-15471428D02*
X2451414Y-15557142D01*
X2451414Y-15557142D02*
X2537128Y-15600000D01*
X2537128Y-15600000D02*
X3008557Y-15600000D01*
X2965700Y-16371428D02*
X3008557Y-16285714D01*
X3008557Y-16285714D02*
X3008557Y-16114286D01*
X3008557Y-16114286D02*
X2965700Y-16028571D01*
X2965700Y-16028571D02*
X2879985Y-15985714D01*
X2879985Y-15985714D02*
X2537128Y-15985714D01*
X2537128Y-15985714D02*
X2451414Y-16028571D01*
X2451414Y-16028571D02*
X2408557Y-16114286D01*
X2408557Y-16114286D02*
X2408557Y-16285714D01*
X2408557Y-16285714D02*
X2451414Y-16371428D01*
X2451414Y-16371428D02*
X2537128Y-16414286D01*
X2537128Y-16414286D02*
X2622842Y-16414286D01*
X2622842Y-16414286D02*
X2708557Y-15985714D01*
X3008557Y-17185715D02*
X2108557Y-17185715D01*
X2965700Y-17185715D02*
X3008557Y-17100000D01*
X3008557Y-17100000D02*
X3008557Y-16928572D01*
X3008557Y-16928572D02*
X2965700Y-16842857D01*
X2965700Y-16842857D02*
X2922842Y-16800000D01*
X2922842Y-16800000D02*
X2837128Y-16757143D01*
X2837128Y-16757143D02*
X2579985Y-16757143D01*
X2579985Y-16757143D02*
X2494271Y-16800000D01*
X2494271Y-16800000D02*
X2451414Y-16842857D01*
X2451414Y-16842857D02*
X2408557Y-16928572D01*
X2408557Y-16928572D02*
X2408557Y-17100000D01*
X2408557Y-17100000D02*
X2451414Y-17185715D01*
X3008557Y-18300000D02*
X2108557Y-18300000D01*
X2451414Y-18300000D02*
X2408557Y-18385715D01*
X2408557Y-18385715D02*
X2408557Y-18557143D01*
X2408557Y-18557143D02*
X2451414Y-18642857D01*
X2451414Y-18642857D02*
X2494271Y-18685715D01*
X2494271Y-18685715D02*
X2579985Y-18728572D01*
X2579985Y-18728572D02*
X2837128Y-18728572D01*
X2837128Y-18728572D02*
X2922842Y-18685715D01*
X2922842Y-18685715D02*
X2965700Y-18642857D01*
X2965700Y-18642857D02*
X3008557Y-18557143D01*
X3008557Y-18557143D02*
X3008557Y-18385715D01*
X3008557Y-18385715D02*
X2965700Y-18300000D01*
X2408557Y-19028572D02*
X3008557Y-19242858D01*
X2408557Y-19457143D02*
X3008557Y-19242858D01*
X3008557Y-19242858D02*
X3222842Y-19157143D01*
X3222842Y-19157143D02*
X3265700Y-19114286D01*
X3265700Y-19114286D02*
X3308557Y-19028572D01*
X2108557Y-20400000D02*
X3008557Y-20614286D01*
X3008557Y-20614286D02*
X2365700Y-20785714D01*
X2365700Y-20785714D02*
X3008557Y-20957143D01*
X3008557Y-20957143D02*
X2108557Y-21171429D01*
X3008557Y-21514285D02*
X2408557Y-21514285D01*
X2108557Y-21514285D02*
X2151414Y-21471428D01*
X2151414Y-21471428D02*
X2194271Y-21514285D01*
X2194271Y-21514285D02*
X2151414Y-21557142D01*
X2151414Y-21557142D02*
X2108557Y-21514285D01*
X2108557Y-21514285D02*
X2194271Y-21514285D01*
X3008557Y-22071428D02*
X2965700Y-21985713D01*
X2965700Y-21985713D02*
X2879985Y-21942856D01*
X2879985Y-21942856D02*
X2108557Y-21942856D01*
X3008557Y-22542857D02*
X2965700Y-22457142D01*
X2965700Y-22457142D02*
X2879985Y-22414285D01*
X2879985Y-22414285D02*
X2108557Y-22414285D01*
X2108557Y-23485714D02*
X3008557Y-23700000D01*
X3008557Y-23700000D02*
X2365700Y-23871428D01*
X2365700Y-23871428D02*
X3008557Y-24042857D01*
X3008557Y-24042857D02*
X2108557Y-24257143D01*
X3008557Y-24599999D02*
X2108557Y-24599999D01*
X3008557Y-24985714D02*
X2537128Y-24985714D01*
X2537128Y-24985714D02*
X2451414Y-24942856D01*
X2451414Y-24942856D02*
X2408557Y-24857142D01*
X2408557Y-24857142D02*
X2408557Y-24728571D01*
X2408557Y-24728571D02*
X2451414Y-24642856D01*
X2451414Y-24642856D02*
X2494271Y-24599999D01*
X3008557Y-25800000D02*
X2537128Y-25800000D01*
X2537128Y-25800000D02*
X2451414Y-25757142D01*
X2451414Y-25757142D02*
X2408557Y-25671428D01*
X2408557Y-25671428D02*
X2408557Y-25500000D01*
X2408557Y-25500000D02*
X2451414Y-25414285D01*
X2965700Y-25800000D02*
X3008557Y-25714285D01*
X3008557Y-25714285D02*
X3008557Y-25500000D01*
X3008557Y-25500000D02*
X2965700Y-25414285D01*
X2965700Y-25414285D02*
X2879985Y-25371428D01*
X2879985Y-25371428D02*
X2794271Y-25371428D01*
X2794271Y-25371428D02*
X2708557Y-25414285D01*
X2708557Y-25414285D02*
X2665700Y-25500000D01*
X2665700Y-25500000D02*
X2665700Y-25714285D01*
X2665700Y-25714285D02*
X2622842Y-25800000D01*
X2408557Y-26228571D02*
X3008557Y-26228571D01*
X2494271Y-26228571D02*
X2451414Y-26271428D01*
X2451414Y-26271428D02*
X2408557Y-26357143D01*
X2408557Y-26357143D02*
X2408557Y-26485714D01*
X2408557Y-26485714D02*
X2451414Y-26571428D01*
X2451414Y-26571428D02*
X2537128Y-26614286D01*
X2537128Y-26614286D02*
X3008557Y-26614286D01*
X2408557Y-27428572D02*
X3137128Y-27428572D01*
X3137128Y-27428572D02*
X3222842Y-27385714D01*
X3222842Y-27385714D02*
X3265700Y-27342857D01*
X3265700Y-27342857D02*
X3308557Y-27257143D01*
X3308557Y-27257143D02*
X3308557Y-27128572D01*
X3308557Y-27128572D02*
X3265700Y-27042857D01*
X2965700Y-27428572D02*
X3008557Y-27342857D01*
X3008557Y-27342857D02*
X3008557Y-27171429D01*
X3008557Y-27171429D02*
X2965700Y-27085714D01*
X2965700Y-27085714D02*
X2922842Y-27042857D01*
X2922842Y-27042857D02*
X2837128Y-27000000D01*
X2837128Y-27000000D02*
X2579985Y-27000000D01*
X2579985Y-27000000D02*
X2494271Y-27042857D01*
X2494271Y-27042857D02*
X2451414Y-27085714D01*
X2451414Y-27085714D02*
X2408557Y-27171429D01*
X2408557Y-27171429D02*
X2408557Y-27342857D01*
X2408557Y-27342857D02*
X2451414Y-27428572D01*
X3643221Y-15299999D02*
X3600364Y-15342856D01*
X3600364Y-15342856D02*
X3557507Y-15428571D01*
X3557507Y-15428571D02*
X3557507Y-15642856D01*
X3557507Y-15642856D02*
X3600364Y-15728571D01*
X3600364Y-15728571D02*
X3643221Y-15771428D01*
X3643221Y-15771428D02*
X3728935Y-15814285D01*
X3728935Y-15814285D02*
X3814650Y-15814285D01*
X3814650Y-15814285D02*
X3943221Y-15771428D01*
X3943221Y-15771428D02*
X4457507Y-15257142D01*
X4457507Y-15257142D02*
X4457507Y-15814285D01*
X3557507Y-16371428D02*
X3557507Y-16457142D01*
X3557507Y-16457142D02*
X3600364Y-16542856D01*
X3600364Y-16542856D02*
X3643221Y-16585714D01*
X3643221Y-16585714D02*
X3728935Y-16628571D01*
X3728935Y-16628571D02*
X3900364Y-16671428D01*
X3900364Y-16671428D02*
X4114650Y-16671428D01*
X4114650Y-16671428D02*
X4286078Y-16628571D01*
X4286078Y-16628571D02*
X4371792Y-16585714D01*
X4371792Y-16585714D02*
X4414650Y-16542856D01*
X4414650Y-16542856D02*
X4457507Y-16457142D01*
X4457507Y-16457142D02*
X4457507Y-16371428D01*
X4457507Y-16371428D02*
X4414650Y-16285714D01*
X4414650Y-16285714D02*
X4371792Y-16242856D01*
X4371792Y-16242856D02*
X4286078Y-16199999D01*
X4286078Y-16199999D02*
X4114650Y-16157142D01*
X4114650Y-16157142D02*
X3900364Y-16157142D01*
X3900364Y-16157142D02*
X3728935Y-16199999D01*
X3728935Y-16199999D02*
X3643221Y-16242856D01*
X3643221Y-16242856D02*
X3600364Y-16285714D01*
X3600364Y-16285714D02*
X3557507Y-16371428D01*
X3643221Y-17014285D02*
X3600364Y-17057142D01*
X3600364Y-17057142D02*
X3557507Y-17142857D01*
X3557507Y-17142857D02*
X3557507Y-17357142D01*
X3557507Y-17357142D02*
X3600364Y-17442857D01*
X3600364Y-17442857D02*
X3643221Y-17485714D01*
X3643221Y-17485714D02*
X3728935Y-17528571D01*
X3728935Y-17528571D02*
X3814650Y-17528571D01*
X3814650Y-17528571D02*
X3943221Y-17485714D01*
X3943221Y-17485714D02*
X4457507Y-16971428D01*
X4457507Y-16971428D02*
X4457507Y-17528571D01*
X3557507Y-18342857D02*
X3557507Y-17914285D01*
X3557507Y-17914285D02*
X3986078Y-17871428D01*
X3986078Y-17871428D02*
X3943221Y-17914285D01*
X3943221Y-17914285D02*
X3900364Y-18000000D01*
X3900364Y-18000000D02*
X3900364Y-18214285D01*
X3900364Y-18214285D02*
X3943221Y-18300000D01*
X3943221Y-18300000D02*
X3986078Y-18342857D01*
X3986078Y-18342857D02*
X4071792Y-18385714D01*
X4071792Y-18385714D02*
X4286078Y-18385714D01*
X4286078Y-18385714D02*
X4371792Y-18342857D01*
X4371792Y-18342857D02*
X4414650Y-18300000D01*
X4414650Y-18300000D02*
X4457507Y-18214285D01*
X4457507Y-18214285D02*
X4457507Y-18000000D01*
X4457507Y-18000000D02*
X4414650Y-17914285D01*
X4414650Y-17914285D02*
X4371792Y-17871428D01*
X3514650Y-19414285D02*
X4671792Y-18642857D01*
X3557507Y-19885714D02*
X3557507Y-19971428D01*
X3557507Y-19971428D02*
X3600364Y-20057142D01*
X3600364Y-20057142D02*
X3643221Y-20100000D01*
X3643221Y-20100000D02*
X3728935Y-20142857D01*
X3728935Y-20142857D02*
X3900364Y-20185714D01*
X3900364Y-20185714D02*
X4114650Y-20185714D01*
X4114650Y-20185714D02*
X4286078Y-20142857D01*
X4286078Y-20142857D02*
X4371792Y-20100000D01*
X4371792Y-20100000D02*
X4414650Y-20057142D01*
X4414650Y-20057142D02*
X4457507Y-19971428D01*
X4457507Y-19971428D02*
X4457507Y-19885714D01*
X4457507Y-19885714D02*
X4414650Y-19800000D01*
X4414650Y-19800000D02*
X4371792Y-19757142D01*
X4371792Y-19757142D02*
X4286078Y-19714285D01*
X4286078Y-19714285D02*
X4114650Y-19671428D01*
X4114650Y-19671428D02*
X3900364Y-19671428D01*
X3900364Y-19671428D02*
X3728935Y-19714285D01*
X3728935Y-19714285D02*
X3643221Y-19757142D01*
X3643221Y-19757142D02*
X3600364Y-19800000D01*
X3600364Y-19800000D02*
X3557507Y-19885714D01*
X4457507Y-21042857D02*
X4457507Y-20528571D01*
X4457507Y-20785714D02*
X3557507Y-20785714D01*
X3557507Y-20785714D02*
X3686078Y-20700000D01*
X3686078Y-20700000D02*
X3771792Y-20614285D01*
X3771792Y-20614285D02*
X3814650Y-20528571D01*
X3514650Y-22071428D02*
X4671792Y-21300000D01*
X4457507Y-22842857D02*
X4457507Y-22328571D01*
X4457507Y-22585714D02*
X3557507Y-22585714D01*
X3557507Y-22585714D02*
X3686078Y-22500000D01*
X3686078Y-22500000D02*
X3771792Y-22414285D01*
X3771792Y-22414285D02*
X3814650Y-22328571D01*
X3557507Y-23657143D02*
X3557507Y-23228571D01*
X3557507Y-23228571D02*
X3986078Y-23185714D01*
X3986078Y-23185714D02*
X3943221Y-23228571D01*
X3943221Y-23228571D02*
X3900364Y-23314286D01*
X3900364Y-23314286D02*
X3900364Y-23528571D01*
X3900364Y-23528571D02*
X3943221Y-23614286D01*
X3943221Y-23614286D02*
X3986078Y-23657143D01*
X3986078Y-23657143D02*
X4071792Y-23700000D01*
X4071792Y-23700000D02*
X4286078Y-23700000D01*
X4286078Y-23700000D02*
X4371792Y-23657143D01*
X4371792Y-23657143D02*
X4414650Y-23614286D01*
X4414650Y-23614286D02*
X4457507Y-23528571D01*
X4457507Y-23528571D02*
X4457507Y-23314286D01*
X4457507Y-23314286D02*
X4414650Y-23228571D01*
X4414650Y-23228571D02*
X4371792Y-23185714D01*
X21285714Y-28712628D02*
X21314286Y-28741200D01*
X21314286Y-28741200D02*
X21400000Y-28769771D01*
X21400000Y-28769771D02*
X21457143Y-28769771D01*
X21457143Y-28769771D02*
X21542857Y-28741200D01*
X21542857Y-28741200D02*
X21600000Y-28684057D01*
X21600000Y-28684057D02*
X21628571Y-28626914D01*
X21628571Y-28626914D02*
X21657143Y-28512628D01*
X21657143Y-28512628D02*
X21657143Y-28426914D01*
X21657143Y-28426914D02*
X21628571Y-28312628D01*
X21628571Y-28312628D02*
X21600000Y-28255485D01*
X21600000Y-28255485D02*
X21542857Y-28198342D01*
X21542857Y-28198342D02*
X21457143Y-28169771D01*
X21457143Y-28169771D02*
X21400000Y-28169771D01*
X21400000Y-28169771D02*
X21314286Y-28198342D01*
X21314286Y-28198342D02*
X21285714Y-28226914D01*
X21000000Y-28769771D02*
X20885714Y-28769771D01*
X20885714Y-28769771D02*
X20828571Y-28741200D01*
X20828571Y-28741200D02*
X20800000Y-28712628D01*
X20800000Y-28712628D02*
X20742857Y-28626914D01*
X20742857Y-28626914D02*
X20714286Y-28512628D01*
X20714286Y-28512628D02*
X20714286Y-28284057D01*
X20714286Y-28284057D02*
X20742857Y-28226914D01*
X20742857Y-28226914D02*
X20771429Y-28198342D01*
X20771429Y-28198342D02*
X20828571Y-28169771D01*
X20828571Y-28169771D02*
X20942857Y-28169771D01*
X20942857Y-28169771D02*
X21000000Y-28198342D01*
X21000000Y-28198342D02*
X21028571Y-28226914D01*
X21028571Y-28226914D02*
X21057143Y-28284057D01*
X21057143Y-28284057D02*
X21057143Y-28426914D01*
X21057143Y-28426914D02*
X21028571Y-28484057D01*
X21028571Y-28484057D02*
X21000000Y-28512628D01*
X21000000Y-28512628D02*
X20942857Y-28541200D01*
X20942857Y-28541200D02*
X20828571Y-28541200D01*
X20828571Y-28541200D02*
X20771429Y-28512628D01*
X20771429Y-28512628D02*
X20742857Y-28484057D01*
X20742857Y-28484057D02*
X20714286Y-28426914D01*
X20371428Y-28426914D02*
X20428571Y-28398342D01*
X20428571Y-28398342D02*
X20457142Y-28369771D01*
X20457142Y-28369771D02*
X20485714Y-28312628D01*
X20485714Y-28312628D02*
X20485714Y-28284057D01*
X20485714Y-28284057D02*
X20457142Y-28226914D01*
X20457142Y-28226914D02*
X20428571Y-28198342D01*
X20428571Y-28198342D02*
X20371428Y-28169771D01*
X20371428Y-28169771D02*
X20257142Y-28169771D01*
X20257142Y-28169771D02*
X20200000Y-28198342D01*
X20200000Y-28198342D02*
X20171428Y-28226914D01*
X20171428Y-28226914D02*
X20142857Y-28284057D01*
X20142857Y-28284057D02*
X20142857Y-28312628D01*
X20142857Y-28312628D02*
X20171428Y-28369771D01*
X20171428Y-28369771D02*
X20200000Y-28398342D01*
X20200000Y-28398342D02*
X20257142Y-28426914D01*
X20257142Y-28426914D02*
X20371428Y-28426914D01*
X20371428Y-28426914D02*
X20428571Y-28455485D01*
X20428571Y-28455485D02*
X20457142Y-28484057D01*
X20457142Y-28484057D02*
X20485714Y-28541200D01*
X20485714Y-28541200D02*
X20485714Y-28655485D01*
X20485714Y-28655485D02*
X20457142Y-28712628D01*
X20457142Y-28712628D02*
X20428571Y-28741200D01*
X20428571Y-28741200D02*
X20371428Y-28769771D01*
X20371428Y-28769771D02*
X20257142Y-28769771D01*
X20257142Y-28769771D02*
X20200000Y-28741200D01*
X20200000Y-28741200D02*
X20171428Y-28712628D01*
X20171428Y-28712628D02*
X20142857Y-28655485D01*
X20142857Y-28655485D02*
X20142857Y-28541200D01*
X20142857Y-28541200D02*
X20171428Y-28484057D01*
X20171428Y-28484057D02*
X20200000Y-28455485D01*
X20200000Y-28455485D02*
X20257142Y-28426914D01*
X21285714Y-27712628D02*
X21314286Y-27741200D01*
X21314286Y-27741200D02*
X21400000Y-27769771D01*
X21400000Y-27769771D02*
X21457143Y-27769771D01*
X21457143Y-27769771D02*
X21542857Y-27741200D01*
X21542857Y-27741200D02*
X21600000Y-27684057D01*
X21600000Y-27684057D02*
X21628571Y-27626914D01*
X21628571Y-27626914D02*
X21657143Y-27512628D01*
X21657143Y-27512628D02*
X21657143Y-27426914D01*
X21657143Y-27426914D02*
X21628571Y-27312628D01*
X21628571Y-27312628D02*
X21600000Y-27255485D01*
X21600000Y-27255485D02*
X21542857Y-27198342D01*
X21542857Y-27198342D02*
X21457143Y-27169771D01*
X21457143Y-27169771D02*
X21400000Y-27169771D01*
X21400000Y-27169771D02*
X21314286Y-27198342D01*
X21314286Y-27198342D02*
X21285714Y-27226914D01*
X21000000Y-27769771D02*
X20885714Y-27769771D01*
X20885714Y-27769771D02*
X20828571Y-27741200D01*
X20828571Y-27741200D02*
X20800000Y-27712628D01*
X20800000Y-27712628D02*
X20742857Y-27626914D01*
X20742857Y-27626914D02*
X20714286Y-27512628D01*
X20714286Y-27512628D02*
X20714286Y-27284057D01*
X20714286Y-27284057D02*
X20742857Y-27226914D01*
X20742857Y-27226914D02*
X20771429Y-27198342D01*
X20771429Y-27198342D02*
X20828571Y-27169771D01*
X20828571Y-27169771D02*
X20942857Y-27169771D01*
X20942857Y-27169771D02*
X21000000Y-27198342D01*
X21000000Y-27198342D02*
X21028571Y-27226914D01*
X21028571Y-27226914D02*
X21057143Y-27284057D01*
X21057143Y-27284057D02*
X21057143Y-27426914D01*
X21057143Y-27426914D02*
X21028571Y-27484057D01*
X21028571Y-27484057D02*
X21000000Y-27512628D01*
X21000000Y-27512628D02*
X20942857Y-27541200D01*
X20942857Y-27541200D02*
X20828571Y-27541200D01*
X20828571Y-27541200D02*
X20771429Y-27512628D01*
X20771429Y-27512628D02*
X20742857Y-27484057D01*
X20742857Y-27484057D02*
X20714286Y-27426914D01*
X20514285Y-27169771D02*
X20114285Y-27169771D01*
X20114285Y-27169771D02*
X20371428Y-27769771D01*
X25435714Y-11712628D02*
X25464286Y-11741200D01*
X25464286Y-11741200D02*
X25550000Y-11769771D01*
X25550000Y-11769771D02*
X25607143Y-11769771D01*
X25607143Y-11769771D02*
X25692857Y-11741200D01*
X25692857Y-11741200D02*
X25750000Y-11684057D01*
X25750000Y-11684057D02*
X25778571Y-11626914D01*
X25778571Y-11626914D02*
X25807143Y-11512628D01*
X25807143Y-11512628D02*
X25807143Y-11426914D01*
X25807143Y-11426914D02*
X25778571Y-11312628D01*
X25778571Y-11312628D02*
X25750000Y-11255485D01*
X25750000Y-11255485D02*
X25692857Y-11198342D01*
X25692857Y-11198342D02*
X25607143Y-11169771D01*
X25607143Y-11169771D02*
X25550000Y-11169771D01*
X25550000Y-11169771D02*
X25464286Y-11198342D01*
X25464286Y-11198342D02*
X25435714Y-11226914D01*
X25150000Y-11769771D02*
X25035714Y-11769771D01*
X25035714Y-11769771D02*
X24978571Y-11741200D01*
X24978571Y-11741200D02*
X24950000Y-11712628D01*
X24950000Y-11712628D02*
X24892857Y-11626914D01*
X24892857Y-11626914D02*
X24864286Y-11512628D01*
X24864286Y-11512628D02*
X24864286Y-11284057D01*
X24864286Y-11284057D02*
X24892857Y-11226914D01*
X24892857Y-11226914D02*
X24921429Y-11198342D01*
X24921429Y-11198342D02*
X24978571Y-11169771D01*
X24978571Y-11169771D02*
X25092857Y-11169771D01*
X25092857Y-11169771D02*
X25150000Y-11198342D01*
X25150000Y-11198342D02*
X25178571Y-11226914D01*
X25178571Y-11226914D02*
X25207143Y-11284057D01*
X25207143Y-11284057D02*
X25207143Y-11426914D01*
X25207143Y-11426914D02*
X25178571Y-11484057D01*
X25178571Y-11484057D02*
X25150000Y-11512628D01*
X25150000Y-11512628D02*
X25092857Y-11541200D01*
X25092857Y-11541200D02*
X24978571Y-11541200D01*
X24978571Y-11541200D02*
X24921429Y-11512628D01*
X24921429Y-11512628D02*
X24892857Y-11484057D01*
X24892857Y-11484057D02*
X24864286Y-11426914D01*
X24350000Y-11169771D02*
X24464285Y-11169771D01*
X24464285Y-11169771D02*
X24521428Y-11198342D01*
X24521428Y-11198342D02*
X24550000Y-11226914D01*
X24550000Y-11226914D02*
X24607142Y-11312628D01*
X24607142Y-11312628D02*
X24635714Y-11426914D01*
X24635714Y-11426914D02*
X24635714Y-11655485D01*
X24635714Y-11655485D02*
X24607142Y-11712628D01*
X24607142Y-11712628D02*
X24578571Y-11741200D01*
X24578571Y-11741200D02*
X24521428Y-11769771D01*
X24521428Y-11769771D02*
X24407142Y-11769771D01*
X24407142Y-11769771D02*
X24350000Y-11741200D01*
X24350000Y-11741200D02*
X24321428Y-11712628D01*
X24321428Y-11712628D02*
X24292857Y-11655485D01*
X24292857Y-11655485D02*
X24292857Y-11512628D01*
X24292857Y-11512628D02*
X24321428Y-11455485D01*
X24321428Y-11455485D02*
X24350000Y-11426914D01*
X24350000Y-11426914D02*
X24407142Y-11398342D01*
X24407142Y-11398342D02*
X24521428Y-11398342D01*
X24521428Y-11398342D02*
X24578571Y-11426914D01*
X24578571Y-11426914D02*
X24607142Y-11455485D01*
X24607142Y-11455485D02*
X24635714Y-11512628D01*
X25435714Y-10712628D02*
X25464286Y-10741200D01*
X25464286Y-10741200D02*
X25550000Y-10769771D01*
X25550000Y-10769771D02*
X25607143Y-10769771D01*
X25607143Y-10769771D02*
X25692857Y-10741200D01*
X25692857Y-10741200D02*
X25750000Y-10684057D01*
X25750000Y-10684057D02*
X25778571Y-10626914D01*
X25778571Y-10626914D02*
X25807143Y-10512628D01*
X25807143Y-10512628D02*
X25807143Y-10426914D01*
X25807143Y-10426914D02*
X25778571Y-10312628D01*
X25778571Y-10312628D02*
X25750000Y-10255485D01*
X25750000Y-10255485D02*
X25692857Y-10198342D01*
X25692857Y-10198342D02*
X25607143Y-10169771D01*
X25607143Y-10169771D02*
X25550000Y-10169771D01*
X25550000Y-10169771D02*
X25464286Y-10198342D01*
X25464286Y-10198342D02*
X25435714Y-10226914D01*
X25150000Y-10769771D02*
X25035714Y-10769771D01*
X25035714Y-10769771D02*
X24978571Y-10741200D01*
X24978571Y-10741200D02*
X24950000Y-10712628D01*
X24950000Y-10712628D02*
X24892857Y-10626914D01*
X24892857Y-10626914D02*
X24864286Y-10512628D01*
X24864286Y-10512628D02*
X24864286Y-10284057D01*
X24864286Y-10284057D02*
X24892857Y-10226914D01*
X24892857Y-10226914D02*
X24921429Y-10198342D01*
X24921429Y-10198342D02*
X24978571Y-10169771D01*
X24978571Y-10169771D02*
X25092857Y-10169771D01*
X25092857Y-10169771D02*
X25150000Y-10198342D01*
X25150000Y-10198342D02*
X25178571Y-10226914D01*
X25178571Y-10226914D02*
X25207143Y-10284057D01*
X25207143Y-10284057D02*
X25207143Y-10426914D01*
X25207143Y-10426914D02*
X25178571Y-10484057D01*
X25178571Y-10484057D02*
X25150000Y-10512628D01*
X25150000Y-10512628D02*
X25092857Y-10541200D01*
X25092857Y-10541200D02*
X24978571Y-10541200D01*
X24978571Y-10541200D02*
X24921429Y-10512628D01*
X24921429Y-10512628D02*
X24892857Y-10484057D01*
X24892857Y-10484057D02*
X24864286Y-10426914D01*
X24321428Y-10169771D02*
X24607142Y-10169771D01*
X24607142Y-10169771D02*
X24635714Y-10455485D01*
X24635714Y-10455485D02*
X24607142Y-10426914D01*
X24607142Y-10426914D02*
X24550000Y-10398342D01*
X24550000Y-10398342D02*
X24407142Y-10398342D01*
X24407142Y-10398342D02*
X24350000Y-10426914D01*
X24350000Y-10426914D02*
X24321428Y-10455485D01*
X24321428Y-10455485D02*
X24292857Y-10512628D01*
X24292857Y-10512628D02*
X24292857Y-10655485D01*
X24292857Y-10655485D02*
X24321428Y-10712628D01*
X24321428Y-10712628D02*
X24350000Y-10741200D01*
X24350000Y-10741200D02*
X24407142Y-10769771D01*
X24407142Y-10769771D02*
X24550000Y-10769771D01*
X24550000Y-10769771D02*
X24607142Y-10741200D01*
X24607142Y-10741200D02*
X24635714Y-10712628D01*
X16735714Y-10762628D02*
X16764286Y-10791200D01*
X16764286Y-10791200D02*
X16850000Y-10819771D01*
X16850000Y-10819771D02*
X16907143Y-10819771D01*
X16907143Y-10819771D02*
X16992857Y-10791200D01*
X16992857Y-10791200D02*
X17050000Y-10734057D01*
X17050000Y-10734057D02*
X17078571Y-10676914D01*
X17078571Y-10676914D02*
X17107143Y-10562628D01*
X17107143Y-10562628D02*
X17107143Y-10476914D01*
X17107143Y-10476914D02*
X17078571Y-10362628D01*
X17078571Y-10362628D02*
X17050000Y-10305485D01*
X17050000Y-10305485D02*
X16992857Y-10248342D01*
X16992857Y-10248342D02*
X16907143Y-10219771D01*
X16907143Y-10219771D02*
X16850000Y-10219771D01*
X16850000Y-10219771D02*
X16764286Y-10248342D01*
X16764286Y-10248342D02*
X16735714Y-10276914D01*
X16450000Y-10819771D02*
X16335714Y-10819771D01*
X16335714Y-10819771D02*
X16278571Y-10791200D01*
X16278571Y-10791200D02*
X16250000Y-10762628D01*
X16250000Y-10762628D02*
X16192857Y-10676914D01*
X16192857Y-10676914D02*
X16164286Y-10562628D01*
X16164286Y-10562628D02*
X16164286Y-10334057D01*
X16164286Y-10334057D02*
X16192857Y-10276914D01*
X16192857Y-10276914D02*
X16221429Y-10248342D01*
X16221429Y-10248342D02*
X16278571Y-10219771D01*
X16278571Y-10219771D02*
X16392857Y-10219771D01*
X16392857Y-10219771D02*
X16450000Y-10248342D01*
X16450000Y-10248342D02*
X16478571Y-10276914D01*
X16478571Y-10276914D02*
X16507143Y-10334057D01*
X16507143Y-10334057D02*
X16507143Y-10476914D01*
X16507143Y-10476914D02*
X16478571Y-10534057D01*
X16478571Y-10534057D02*
X16450000Y-10562628D01*
X16450000Y-10562628D02*
X16392857Y-10591200D01*
X16392857Y-10591200D02*
X16278571Y-10591200D01*
X16278571Y-10591200D02*
X16221429Y-10562628D01*
X16221429Y-10562628D02*
X16192857Y-10534057D01*
X16192857Y-10534057D02*
X16164286Y-10476914D01*
X15935714Y-10276914D02*
X15907142Y-10248342D01*
X15907142Y-10248342D02*
X15850000Y-10219771D01*
X15850000Y-10219771D02*
X15707142Y-10219771D01*
X15707142Y-10219771D02*
X15650000Y-10248342D01*
X15650000Y-10248342D02*
X15621428Y-10276914D01*
X15621428Y-10276914D02*
X15592857Y-10334057D01*
X15592857Y-10334057D02*
X15592857Y-10391200D01*
X15592857Y-10391200D02*
X15621428Y-10476914D01*
X15621428Y-10476914D02*
X15964285Y-10819771D01*
X15964285Y-10819771D02*
X15592857Y-10819771D01*
X16735714Y-11762628D02*
X16764286Y-11791200D01*
X16764286Y-11791200D02*
X16850000Y-11819771D01*
X16850000Y-11819771D02*
X16907143Y-11819771D01*
X16907143Y-11819771D02*
X16992857Y-11791200D01*
X16992857Y-11791200D02*
X17050000Y-11734057D01*
X17050000Y-11734057D02*
X17078571Y-11676914D01*
X17078571Y-11676914D02*
X17107143Y-11562628D01*
X17107143Y-11562628D02*
X17107143Y-11476914D01*
X17107143Y-11476914D02*
X17078571Y-11362628D01*
X17078571Y-11362628D02*
X17050000Y-11305485D01*
X17050000Y-11305485D02*
X16992857Y-11248342D01*
X16992857Y-11248342D02*
X16907143Y-11219771D01*
X16907143Y-11219771D02*
X16850000Y-11219771D01*
X16850000Y-11219771D02*
X16764286Y-11248342D01*
X16764286Y-11248342D02*
X16735714Y-11276914D01*
X16450000Y-11819771D02*
X16335714Y-11819771D01*
X16335714Y-11819771D02*
X16278571Y-11791200D01*
X16278571Y-11791200D02*
X16250000Y-11762628D01*
X16250000Y-11762628D02*
X16192857Y-11676914D01*
X16192857Y-11676914D02*
X16164286Y-11562628D01*
X16164286Y-11562628D02*
X16164286Y-11334057D01*
X16164286Y-11334057D02*
X16192857Y-11276914D01*
X16192857Y-11276914D02*
X16221429Y-11248342D01*
X16221429Y-11248342D02*
X16278571Y-11219771D01*
X16278571Y-11219771D02*
X16392857Y-11219771D01*
X16392857Y-11219771D02*
X16450000Y-11248342D01*
X16450000Y-11248342D02*
X16478571Y-11276914D01*
X16478571Y-11276914D02*
X16507143Y-11334057D01*
X16507143Y-11334057D02*
X16507143Y-11476914D01*
X16507143Y-11476914D02*
X16478571Y-11534057D01*
X16478571Y-11534057D02*
X16450000Y-11562628D01*
X16450000Y-11562628D02*
X16392857Y-11591200D01*
X16392857Y-11591200D02*
X16278571Y-11591200D01*
X16278571Y-11591200D02*
X16221429Y-11562628D01*
X16221429Y-11562628D02*
X16192857Y-11534057D01*
X16192857Y-11534057D02*
X16164286Y-11476914D01*
X15592857Y-11819771D02*
X15935714Y-11819771D01*
X15764285Y-11819771D02*
X15764285Y-11219771D01*
X15764285Y-11219771D02*
X15821428Y-11305485D01*
X15821428Y-11305485D02*
X15878571Y-11362628D01*
X15878571Y-11362628D02*
X15935714Y-11391200D01*
X8062628Y-16514285D02*
X8091200Y-16485713D01*
X8091200Y-16485713D02*
X8119771Y-16399999D01*
X8119771Y-16399999D02*
X8119771Y-16342856D01*
X8119771Y-16342856D02*
X8091200Y-16257142D01*
X8091200Y-16257142D02*
X8034057Y-16199999D01*
X8034057Y-16199999D02*
X7976914Y-16171428D01*
X7976914Y-16171428D02*
X7862628Y-16142856D01*
X7862628Y-16142856D02*
X7776914Y-16142856D01*
X7776914Y-16142856D02*
X7662628Y-16171428D01*
X7662628Y-16171428D02*
X7605485Y-16199999D01*
X7605485Y-16199999D02*
X7548342Y-16257142D01*
X7548342Y-16257142D02*
X7519771Y-16342856D01*
X7519771Y-16342856D02*
X7519771Y-16399999D01*
X7519771Y-16399999D02*
X7548342Y-16485713D01*
X7548342Y-16485713D02*
X7576914Y-16514285D01*
X8119771Y-16799999D02*
X8119771Y-16914285D01*
X8119771Y-16914285D02*
X8091200Y-16971428D01*
X8091200Y-16971428D02*
X8062628Y-16999999D01*
X8062628Y-16999999D02*
X7976914Y-17057142D01*
X7976914Y-17057142D02*
X7862628Y-17085713D01*
X7862628Y-17085713D02*
X7634057Y-17085713D01*
X7634057Y-17085713D02*
X7576914Y-17057142D01*
X7576914Y-17057142D02*
X7548342Y-17028571D01*
X7548342Y-17028571D02*
X7519771Y-16971428D01*
X7519771Y-16971428D02*
X7519771Y-16857142D01*
X7519771Y-16857142D02*
X7548342Y-16799999D01*
X7548342Y-16799999D02*
X7576914Y-16771428D01*
X7576914Y-16771428D02*
X7634057Y-16742856D01*
X7634057Y-16742856D02*
X7776914Y-16742856D01*
X7776914Y-16742856D02*
X7834057Y-16771428D01*
X7834057Y-16771428D02*
X7862628Y-16799999D01*
X7862628Y-16799999D02*
X7891200Y-16857142D01*
X7891200Y-16857142D02*
X7891200Y-16971428D01*
X7891200Y-16971428D02*
X7862628Y-17028571D01*
X7862628Y-17028571D02*
X7834057Y-17057142D01*
X7834057Y-17057142D02*
X7776914Y-17085713D01*
X7519771Y-17457142D02*
X7519771Y-17514285D01*
X7519771Y-17514285D02*
X7548342Y-17571428D01*
X7548342Y-17571428D02*
X7576914Y-17600000D01*
X7576914Y-17600000D02*
X7634057Y-17628571D01*
X7634057Y-17628571D02*
X7748342Y-17657142D01*
X7748342Y-17657142D02*
X7891200Y-17657142D01*
X7891200Y-17657142D02*
X8005485Y-17628571D01*
X8005485Y-17628571D02*
X8062628Y-17600000D01*
X8062628Y-17600000D02*
X8091200Y-17571428D01*
X8091200Y-17571428D02*
X8119771Y-17514285D01*
X8119771Y-17514285D02*
X8119771Y-17457142D01*
X8119771Y-17457142D02*
X8091200Y-17400000D01*
X8091200Y-17400000D02*
X8062628Y-17371428D01*
X8062628Y-17371428D02*
X8005485Y-17342857D01*
X8005485Y-17342857D02*
X7891200Y-17314285D01*
X7891200Y-17314285D02*
X7748342Y-17314285D01*
X7748342Y-17314285D02*
X7634057Y-17342857D01*
X7634057Y-17342857D02*
X7576914Y-17371428D01*
X7576914Y-17371428D02*
X7548342Y-17400000D01*
X7548342Y-17400000D02*
X7519771Y-17457142D01*
X7062628Y-16514285D02*
X7091200Y-16485713D01*
X7091200Y-16485713D02*
X7119771Y-16399999D01*
X7119771Y-16399999D02*
X7119771Y-16342856D01*
X7119771Y-16342856D02*
X7091200Y-16257142D01*
X7091200Y-16257142D02*
X7034057Y-16199999D01*
X7034057Y-16199999D02*
X6976914Y-16171428D01*
X6976914Y-16171428D02*
X6862628Y-16142856D01*
X6862628Y-16142856D02*
X6776914Y-16142856D01*
X6776914Y-16142856D02*
X6662628Y-16171428D01*
X6662628Y-16171428D02*
X6605485Y-16199999D01*
X6605485Y-16199999D02*
X6548342Y-16257142D01*
X6548342Y-16257142D02*
X6519771Y-16342856D01*
X6519771Y-16342856D02*
X6519771Y-16399999D01*
X6519771Y-16399999D02*
X6548342Y-16485713D01*
X6548342Y-16485713D02*
X6576914Y-16514285D01*
X6776914Y-16857142D02*
X6748342Y-16799999D01*
X6748342Y-16799999D02*
X6719771Y-16771428D01*
X6719771Y-16771428D02*
X6662628Y-16742856D01*
X6662628Y-16742856D02*
X6634057Y-16742856D01*
X6634057Y-16742856D02*
X6576914Y-16771428D01*
X6576914Y-16771428D02*
X6548342Y-16799999D01*
X6548342Y-16799999D02*
X6519771Y-16857142D01*
X6519771Y-16857142D02*
X6519771Y-16971428D01*
X6519771Y-16971428D02*
X6548342Y-17028571D01*
X6548342Y-17028571D02*
X6576914Y-17057142D01*
X6576914Y-17057142D02*
X6634057Y-17085713D01*
X6634057Y-17085713D02*
X6662628Y-17085713D01*
X6662628Y-17085713D02*
X6719771Y-17057142D01*
X6719771Y-17057142D02*
X6748342Y-17028571D01*
X6748342Y-17028571D02*
X6776914Y-16971428D01*
X6776914Y-16971428D02*
X6776914Y-16857142D01*
X6776914Y-16857142D02*
X6805485Y-16799999D01*
X6805485Y-16799999D02*
X6834057Y-16771428D01*
X6834057Y-16771428D02*
X6891200Y-16742856D01*
X6891200Y-16742856D02*
X7005485Y-16742856D01*
X7005485Y-16742856D02*
X7062628Y-16771428D01*
X7062628Y-16771428D02*
X7091200Y-16799999D01*
X7091200Y-16799999D02*
X7119771Y-16857142D01*
X7119771Y-16857142D02*
X7119771Y-16971428D01*
X7119771Y-16971428D02*
X7091200Y-17028571D01*
X7091200Y-17028571D02*
X7062628Y-17057142D01*
X7062628Y-17057142D02*
X7005485Y-17085713D01*
X7005485Y-17085713D02*
X6891200Y-17085713D01*
X6891200Y-17085713D02*
X6834057Y-17057142D01*
X6834057Y-17057142D02*
X6805485Y-17028571D01*
X6805485Y-17028571D02*
X6776914Y-16971428D01*
X7119771Y-17371428D02*
X7119771Y-17485714D01*
X7119771Y-17485714D02*
X7091200Y-17542857D01*
X7091200Y-17542857D02*
X7062628Y-17571428D01*
X7062628Y-17571428D02*
X6976914Y-17628571D01*
X6976914Y-17628571D02*
X6862628Y-17657142D01*
X6862628Y-17657142D02*
X6634057Y-17657142D01*
X6634057Y-17657142D02*
X6576914Y-17628571D01*
X6576914Y-17628571D02*
X6548342Y-17600000D01*
X6548342Y-17600000D02*
X6519771Y-17542857D01*
X6519771Y-17542857D02*
X6519771Y-17428571D01*
X6519771Y-17428571D02*
X6548342Y-17371428D01*
X6548342Y-17371428D02*
X6576914Y-17342857D01*
X6576914Y-17342857D02*
X6634057Y-17314285D01*
X6634057Y-17314285D02*
X6776914Y-17314285D01*
X6776914Y-17314285D02*
X6834057Y-17342857D01*
X6834057Y-17342857D02*
X6862628Y-17371428D01*
X6862628Y-17371428D02*
X6891200Y-17428571D01*
X6891200Y-17428571D02*
X6891200Y-17542857D01*
X6891200Y-17542857D02*
X6862628Y-17600000D01*
X6862628Y-17600000D02*
X6834057Y-17628571D01*
X6834057Y-17628571D02*
X6776914Y-17657142D01*
X8062628Y-14314285D02*
X8091200Y-14285713D01*
X8091200Y-14285713D02*
X8119771Y-14199999D01*
X8119771Y-14199999D02*
X8119771Y-14142856D01*
X8119771Y-14142856D02*
X8091200Y-14057142D01*
X8091200Y-14057142D02*
X8034057Y-13999999D01*
X8034057Y-13999999D02*
X7976914Y-13971428D01*
X7976914Y-13971428D02*
X7862628Y-13942856D01*
X7862628Y-13942856D02*
X7776914Y-13942856D01*
X7776914Y-13942856D02*
X7662628Y-13971428D01*
X7662628Y-13971428D02*
X7605485Y-13999999D01*
X7605485Y-13999999D02*
X7548342Y-14057142D01*
X7548342Y-14057142D02*
X7519771Y-14142856D01*
X7519771Y-14142856D02*
X7519771Y-14199999D01*
X7519771Y-14199999D02*
X7548342Y-14285713D01*
X7548342Y-14285713D02*
X7576914Y-14314285D01*
X7776914Y-14657142D02*
X7748342Y-14599999D01*
X7748342Y-14599999D02*
X7719771Y-14571428D01*
X7719771Y-14571428D02*
X7662628Y-14542856D01*
X7662628Y-14542856D02*
X7634057Y-14542856D01*
X7634057Y-14542856D02*
X7576914Y-14571428D01*
X7576914Y-14571428D02*
X7548342Y-14599999D01*
X7548342Y-14599999D02*
X7519771Y-14657142D01*
X7519771Y-14657142D02*
X7519771Y-14771428D01*
X7519771Y-14771428D02*
X7548342Y-14828571D01*
X7548342Y-14828571D02*
X7576914Y-14857142D01*
X7576914Y-14857142D02*
X7634057Y-14885713D01*
X7634057Y-14885713D02*
X7662628Y-14885713D01*
X7662628Y-14885713D02*
X7719771Y-14857142D01*
X7719771Y-14857142D02*
X7748342Y-14828571D01*
X7748342Y-14828571D02*
X7776914Y-14771428D01*
X7776914Y-14771428D02*
X7776914Y-14657142D01*
X7776914Y-14657142D02*
X7805485Y-14599999D01*
X7805485Y-14599999D02*
X7834057Y-14571428D01*
X7834057Y-14571428D02*
X7891200Y-14542856D01*
X7891200Y-14542856D02*
X8005485Y-14542856D01*
X8005485Y-14542856D02*
X8062628Y-14571428D01*
X8062628Y-14571428D02*
X8091200Y-14599999D01*
X8091200Y-14599999D02*
X8119771Y-14657142D01*
X8119771Y-14657142D02*
X8119771Y-14771428D01*
X8119771Y-14771428D02*
X8091200Y-14828571D01*
X8091200Y-14828571D02*
X8062628Y-14857142D01*
X8062628Y-14857142D02*
X8005485Y-14885713D01*
X8005485Y-14885713D02*
X7891200Y-14885713D01*
X7891200Y-14885713D02*
X7834057Y-14857142D01*
X7834057Y-14857142D02*
X7805485Y-14828571D01*
X7805485Y-14828571D02*
X7776914Y-14771428D01*
X7776914Y-15228571D02*
X7748342Y-15171428D01*
X7748342Y-15171428D02*
X7719771Y-15142857D01*
X7719771Y-15142857D02*
X7662628Y-15114285D01*
X7662628Y-15114285D02*
X7634057Y-15114285D01*
X7634057Y-15114285D02*
X7576914Y-15142857D01*
X7576914Y-15142857D02*
X7548342Y-15171428D01*
X7548342Y-15171428D02*
X7519771Y-15228571D01*
X7519771Y-15228571D02*
X7519771Y-15342857D01*
X7519771Y-15342857D02*
X7548342Y-15400000D01*
X7548342Y-15400000D02*
X7576914Y-15428571D01*
X7576914Y-15428571D02*
X7634057Y-15457142D01*
X7634057Y-15457142D02*
X7662628Y-15457142D01*
X7662628Y-15457142D02*
X7719771Y-15428571D01*
X7719771Y-15428571D02*
X7748342Y-15400000D01*
X7748342Y-15400000D02*
X7776914Y-15342857D01*
X7776914Y-15342857D02*
X7776914Y-15228571D01*
X7776914Y-15228571D02*
X7805485Y-15171428D01*
X7805485Y-15171428D02*
X7834057Y-15142857D01*
X7834057Y-15142857D02*
X7891200Y-15114285D01*
X7891200Y-15114285D02*
X8005485Y-15114285D01*
X8005485Y-15114285D02*
X8062628Y-15142857D01*
X8062628Y-15142857D02*
X8091200Y-15171428D01*
X8091200Y-15171428D02*
X8119771Y-15228571D01*
X8119771Y-15228571D02*
X8119771Y-15342857D01*
X8119771Y-15342857D02*
X8091200Y-15400000D01*
X8091200Y-15400000D02*
X8062628Y-15428571D01*
X8062628Y-15428571D02*
X8005485Y-15457142D01*
X8005485Y-15457142D02*
X7891200Y-15457142D01*
X7891200Y-15457142D02*
X7834057Y-15428571D01*
X7834057Y-15428571D02*
X7805485Y-15400000D01*
X7805485Y-15400000D02*
X7776914Y-15342857D01*
X7102628Y-14314285D02*
X7131200Y-14285713D01*
X7131200Y-14285713D02*
X7159771Y-14199999D01*
X7159771Y-14199999D02*
X7159771Y-14142856D01*
X7159771Y-14142856D02*
X7131200Y-14057142D01*
X7131200Y-14057142D02*
X7074057Y-13999999D01*
X7074057Y-13999999D02*
X7016914Y-13971428D01*
X7016914Y-13971428D02*
X6902628Y-13942856D01*
X6902628Y-13942856D02*
X6816914Y-13942856D01*
X6816914Y-13942856D02*
X6702628Y-13971428D01*
X6702628Y-13971428D02*
X6645485Y-13999999D01*
X6645485Y-13999999D02*
X6588342Y-14057142D01*
X6588342Y-14057142D02*
X6559771Y-14142856D01*
X6559771Y-14142856D02*
X6559771Y-14199999D01*
X6559771Y-14199999D02*
X6588342Y-14285713D01*
X6588342Y-14285713D02*
X6616914Y-14314285D01*
X6816914Y-14657142D02*
X6788342Y-14599999D01*
X6788342Y-14599999D02*
X6759771Y-14571428D01*
X6759771Y-14571428D02*
X6702628Y-14542856D01*
X6702628Y-14542856D02*
X6674057Y-14542856D01*
X6674057Y-14542856D02*
X6616914Y-14571428D01*
X6616914Y-14571428D02*
X6588342Y-14599999D01*
X6588342Y-14599999D02*
X6559771Y-14657142D01*
X6559771Y-14657142D02*
X6559771Y-14771428D01*
X6559771Y-14771428D02*
X6588342Y-14828571D01*
X6588342Y-14828571D02*
X6616914Y-14857142D01*
X6616914Y-14857142D02*
X6674057Y-14885713D01*
X6674057Y-14885713D02*
X6702628Y-14885713D01*
X6702628Y-14885713D02*
X6759771Y-14857142D01*
X6759771Y-14857142D02*
X6788342Y-14828571D01*
X6788342Y-14828571D02*
X6816914Y-14771428D01*
X6816914Y-14771428D02*
X6816914Y-14657142D01*
X6816914Y-14657142D02*
X6845485Y-14599999D01*
X6845485Y-14599999D02*
X6874057Y-14571428D01*
X6874057Y-14571428D02*
X6931200Y-14542856D01*
X6931200Y-14542856D02*
X7045485Y-14542856D01*
X7045485Y-14542856D02*
X7102628Y-14571428D01*
X7102628Y-14571428D02*
X7131200Y-14599999D01*
X7131200Y-14599999D02*
X7159771Y-14657142D01*
X7159771Y-14657142D02*
X7159771Y-14771428D01*
X7159771Y-14771428D02*
X7131200Y-14828571D01*
X7131200Y-14828571D02*
X7102628Y-14857142D01*
X7102628Y-14857142D02*
X7045485Y-14885713D01*
X7045485Y-14885713D02*
X6931200Y-14885713D01*
X6931200Y-14885713D02*
X6874057Y-14857142D01*
X6874057Y-14857142D02*
X6845485Y-14828571D01*
X6845485Y-14828571D02*
X6816914Y-14771428D01*
X6559771Y-15085714D02*
X6559771Y-15485714D01*
X6559771Y-15485714D02*
X7159771Y-15228571D01*
X8012628Y-24294285D02*
X8041200Y-24265713D01*
X8041200Y-24265713D02*
X8069771Y-24179999D01*
X8069771Y-24179999D02*
X8069771Y-24122856D01*
X8069771Y-24122856D02*
X8041200Y-24037142D01*
X8041200Y-24037142D02*
X7984057Y-23979999D01*
X7984057Y-23979999D02*
X7926914Y-23951428D01*
X7926914Y-23951428D02*
X7812628Y-23922856D01*
X7812628Y-23922856D02*
X7726914Y-23922856D01*
X7726914Y-23922856D02*
X7612628Y-23951428D01*
X7612628Y-23951428D02*
X7555485Y-23979999D01*
X7555485Y-23979999D02*
X7498342Y-24037142D01*
X7498342Y-24037142D02*
X7469771Y-24122856D01*
X7469771Y-24122856D02*
X7469771Y-24179999D01*
X7469771Y-24179999D02*
X7498342Y-24265713D01*
X7498342Y-24265713D02*
X7526914Y-24294285D01*
X7469771Y-24808571D02*
X7469771Y-24694285D01*
X7469771Y-24694285D02*
X7498342Y-24637142D01*
X7498342Y-24637142D02*
X7526914Y-24608571D01*
X7526914Y-24608571D02*
X7612628Y-24551428D01*
X7612628Y-24551428D02*
X7726914Y-24522856D01*
X7726914Y-24522856D02*
X7955485Y-24522856D01*
X7955485Y-24522856D02*
X8012628Y-24551428D01*
X8012628Y-24551428D02*
X8041200Y-24579999D01*
X8041200Y-24579999D02*
X8069771Y-24637142D01*
X8069771Y-24637142D02*
X8069771Y-24751428D01*
X8069771Y-24751428D02*
X8041200Y-24808571D01*
X8041200Y-24808571D02*
X8012628Y-24837142D01*
X8012628Y-24837142D02*
X7955485Y-24865713D01*
X7955485Y-24865713D02*
X7812628Y-24865713D01*
X7812628Y-24865713D02*
X7755485Y-24837142D01*
X7755485Y-24837142D02*
X7726914Y-24808571D01*
X7726914Y-24808571D02*
X7698342Y-24751428D01*
X7698342Y-24751428D02*
X7698342Y-24637142D01*
X7698342Y-24637142D02*
X7726914Y-24579999D01*
X7726914Y-24579999D02*
X7755485Y-24551428D01*
X7755485Y-24551428D02*
X7812628Y-24522856D01*
X7469771Y-25380000D02*
X7469771Y-25265714D01*
X7469771Y-25265714D02*
X7498342Y-25208571D01*
X7498342Y-25208571D02*
X7526914Y-25180000D01*
X7526914Y-25180000D02*
X7612628Y-25122857D01*
X7612628Y-25122857D02*
X7726914Y-25094285D01*
X7726914Y-25094285D02*
X7955485Y-25094285D01*
X7955485Y-25094285D02*
X8012628Y-25122857D01*
X8012628Y-25122857D02*
X8041200Y-25151428D01*
X8041200Y-25151428D02*
X8069771Y-25208571D01*
X8069771Y-25208571D02*
X8069771Y-25322857D01*
X8069771Y-25322857D02*
X8041200Y-25380000D01*
X8041200Y-25380000D02*
X8012628Y-25408571D01*
X8012628Y-25408571D02*
X7955485Y-25437142D01*
X7955485Y-25437142D02*
X7812628Y-25437142D01*
X7812628Y-25437142D02*
X7755485Y-25408571D01*
X7755485Y-25408571D02*
X7726914Y-25380000D01*
X7726914Y-25380000D02*
X7698342Y-25322857D01*
X7698342Y-25322857D02*
X7698342Y-25208571D01*
X7698342Y-25208571D02*
X7726914Y-25151428D01*
X7726914Y-25151428D02*
X7755485Y-25122857D01*
X7755485Y-25122857D02*
X7812628Y-25094285D01*
X8012628Y-22414285D02*
X8041200Y-22385713D01*
X8041200Y-22385713D02*
X8069771Y-22299999D01*
X8069771Y-22299999D02*
X8069771Y-22242856D01*
X8069771Y-22242856D02*
X8041200Y-22157142D01*
X8041200Y-22157142D02*
X7984057Y-22099999D01*
X7984057Y-22099999D02*
X7926914Y-22071428D01*
X7926914Y-22071428D02*
X7812628Y-22042856D01*
X7812628Y-22042856D02*
X7726914Y-22042856D01*
X7726914Y-22042856D02*
X7612628Y-22071428D01*
X7612628Y-22071428D02*
X7555485Y-22099999D01*
X7555485Y-22099999D02*
X7498342Y-22157142D01*
X7498342Y-22157142D02*
X7469771Y-22242856D01*
X7469771Y-22242856D02*
X7469771Y-22299999D01*
X7469771Y-22299999D02*
X7498342Y-22385713D01*
X7498342Y-22385713D02*
X7526914Y-22414285D01*
X7469771Y-22957142D02*
X7469771Y-22671428D01*
X7469771Y-22671428D02*
X7755485Y-22642856D01*
X7755485Y-22642856D02*
X7726914Y-22671428D01*
X7726914Y-22671428D02*
X7698342Y-22728571D01*
X7698342Y-22728571D02*
X7698342Y-22871428D01*
X7698342Y-22871428D02*
X7726914Y-22928571D01*
X7726914Y-22928571D02*
X7755485Y-22957142D01*
X7755485Y-22957142D02*
X7812628Y-22985713D01*
X7812628Y-22985713D02*
X7955485Y-22985713D01*
X7955485Y-22985713D02*
X8012628Y-22957142D01*
X8012628Y-22957142D02*
X8041200Y-22928571D01*
X8041200Y-22928571D02*
X8069771Y-22871428D01*
X8069771Y-22871428D02*
X8069771Y-22728571D01*
X8069771Y-22728571D02*
X8041200Y-22671428D01*
X8041200Y-22671428D02*
X8012628Y-22642856D01*
X7726914Y-23328571D02*
X7698342Y-23271428D01*
X7698342Y-23271428D02*
X7669771Y-23242857D01*
X7669771Y-23242857D02*
X7612628Y-23214285D01*
X7612628Y-23214285D02*
X7584057Y-23214285D01*
X7584057Y-23214285D02*
X7526914Y-23242857D01*
X7526914Y-23242857D02*
X7498342Y-23271428D01*
X7498342Y-23271428D02*
X7469771Y-23328571D01*
X7469771Y-23328571D02*
X7469771Y-23442857D01*
X7469771Y-23442857D02*
X7498342Y-23500000D01*
X7498342Y-23500000D02*
X7526914Y-23528571D01*
X7526914Y-23528571D02*
X7584057Y-23557142D01*
X7584057Y-23557142D02*
X7612628Y-23557142D01*
X7612628Y-23557142D02*
X7669771Y-23528571D01*
X7669771Y-23528571D02*
X7698342Y-23500000D01*
X7698342Y-23500000D02*
X7726914Y-23442857D01*
X7726914Y-23442857D02*
X7726914Y-23328571D01*
X7726914Y-23328571D02*
X7755485Y-23271428D01*
X7755485Y-23271428D02*
X7784057Y-23242857D01*
X7784057Y-23242857D02*
X7841200Y-23214285D01*
X7841200Y-23214285D02*
X7955485Y-23214285D01*
X7955485Y-23214285D02*
X8012628Y-23242857D01*
X8012628Y-23242857D02*
X8041200Y-23271428D01*
X8041200Y-23271428D02*
X8069771Y-23328571D01*
X8069771Y-23328571D02*
X8069771Y-23442857D01*
X8069771Y-23442857D02*
X8041200Y-23500000D01*
X8041200Y-23500000D02*
X8012628Y-23528571D01*
X8012628Y-23528571D02*
X7955485Y-23557142D01*
X7955485Y-23557142D02*
X7841200Y-23557142D01*
X7841200Y-23557142D02*
X7784057Y-23528571D01*
X7784057Y-23528571D02*
X7755485Y-23500000D01*
X7755485Y-23500000D02*
X7726914Y-23442857D01*
X8012628Y-18544285D02*
X8041200Y-18515713D01*
X8041200Y-18515713D02*
X8069771Y-18429999D01*
X8069771Y-18429999D02*
X8069771Y-18372856D01*
X8069771Y-18372856D02*
X8041200Y-18287142D01*
X8041200Y-18287142D02*
X7984057Y-18229999D01*
X7984057Y-18229999D02*
X7926914Y-18201428D01*
X7926914Y-18201428D02*
X7812628Y-18172856D01*
X7812628Y-18172856D02*
X7726914Y-18172856D01*
X7726914Y-18172856D02*
X7612628Y-18201428D01*
X7612628Y-18201428D02*
X7555485Y-18229999D01*
X7555485Y-18229999D02*
X7498342Y-18287142D01*
X7498342Y-18287142D02*
X7469771Y-18372856D01*
X7469771Y-18372856D02*
X7469771Y-18429999D01*
X7469771Y-18429999D02*
X7498342Y-18515713D01*
X7498342Y-18515713D02*
X7526914Y-18544285D01*
X7469771Y-18744285D02*
X7469771Y-19115713D01*
X7469771Y-19115713D02*
X7698342Y-18915713D01*
X7698342Y-18915713D02*
X7698342Y-19001428D01*
X7698342Y-19001428D02*
X7726914Y-19058571D01*
X7726914Y-19058571D02*
X7755485Y-19087142D01*
X7755485Y-19087142D02*
X7812628Y-19115713D01*
X7812628Y-19115713D02*
X7955485Y-19115713D01*
X7955485Y-19115713D02*
X8012628Y-19087142D01*
X8012628Y-19087142D02*
X8041200Y-19058571D01*
X8041200Y-19058571D02*
X8069771Y-19001428D01*
X8069771Y-19001428D02*
X8069771Y-18829999D01*
X8069771Y-18829999D02*
X8041200Y-18772856D01*
X8041200Y-18772856D02*
X8012628Y-18744285D01*
X7669771Y-19630000D02*
X8069771Y-19630000D01*
X7441200Y-19487142D02*
X7869771Y-19344285D01*
X7869771Y-19344285D02*
X7869771Y-19715714D01*
X11157142Y-27019771D02*
X11157142Y-27505485D01*
X11157142Y-27505485D02*
X11128571Y-27562628D01*
X11128571Y-27562628D02*
X11100000Y-27591200D01*
X11100000Y-27591200D02*
X11042857Y-27619771D01*
X11042857Y-27619771D02*
X10928571Y-27619771D01*
X10928571Y-27619771D02*
X10871428Y-27591200D01*
X10871428Y-27591200D02*
X10842857Y-27562628D01*
X10842857Y-27562628D02*
X10814285Y-27505485D01*
X10814285Y-27505485D02*
X10814285Y-27019771D01*
X10214286Y-27619771D02*
X10557143Y-27619771D01*
X10385714Y-27619771D02*
X10385714Y-27019771D01*
X10385714Y-27019771D02*
X10442857Y-27105485D01*
X10442857Y-27105485D02*
X10500000Y-27162628D01*
X10500000Y-27162628D02*
X10557143Y-27191200D01*
X14299999Y-28569771D02*
X14499999Y-28284057D01*
X14642856Y-28569771D02*
X14642856Y-27969771D01*
X14642856Y-27969771D02*
X14414285Y-27969771D01*
X14414285Y-27969771D02*
X14357142Y-27998342D01*
X14357142Y-27998342D02*
X14328571Y-28026914D01*
X14328571Y-28026914D02*
X14299999Y-28084057D01*
X14299999Y-28084057D02*
X14299999Y-28169771D01*
X14299999Y-28169771D02*
X14328571Y-28226914D01*
X14328571Y-28226914D02*
X14357142Y-28255485D01*
X14357142Y-28255485D02*
X14414285Y-28284057D01*
X14414285Y-28284057D02*
X14642856Y-28284057D01*
X13728571Y-28569771D02*
X14071428Y-28569771D01*
X13899999Y-28569771D02*
X13899999Y-27969771D01*
X13899999Y-27969771D02*
X13957142Y-28055485D01*
X13957142Y-28055485D02*
X14014285Y-28112628D01*
X14014285Y-28112628D02*
X14071428Y-28141200D01*
X12725714Y-28562628D02*
X12754286Y-28591200D01*
X12754286Y-28591200D02*
X12840000Y-28619771D01*
X12840000Y-28619771D02*
X12897143Y-28619771D01*
X12897143Y-28619771D02*
X12982857Y-28591200D01*
X12982857Y-28591200D02*
X13040000Y-28534057D01*
X13040000Y-28534057D02*
X13068571Y-28476914D01*
X13068571Y-28476914D02*
X13097143Y-28362628D01*
X13097143Y-28362628D02*
X13097143Y-28276914D01*
X13097143Y-28276914D02*
X13068571Y-28162628D01*
X13068571Y-28162628D02*
X13040000Y-28105485D01*
X13040000Y-28105485D02*
X12982857Y-28048342D01*
X12982857Y-28048342D02*
X12897143Y-28019771D01*
X12897143Y-28019771D02*
X12840000Y-28019771D01*
X12840000Y-28019771D02*
X12754286Y-28048342D01*
X12754286Y-28048342D02*
X12725714Y-28076914D01*
X12211429Y-28019771D02*
X12325714Y-28019771D01*
X12325714Y-28019771D02*
X12382857Y-28048342D01*
X12382857Y-28048342D02*
X12411429Y-28076914D01*
X12411429Y-28076914D02*
X12468571Y-28162628D01*
X12468571Y-28162628D02*
X12497143Y-28276914D01*
X12497143Y-28276914D02*
X12497143Y-28505485D01*
X12497143Y-28505485D02*
X12468571Y-28562628D01*
X12468571Y-28562628D02*
X12440000Y-28591200D01*
X12440000Y-28591200D02*
X12382857Y-28619771D01*
X12382857Y-28619771D02*
X12268571Y-28619771D01*
X12268571Y-28619771D02*
X12211429Y-28591200D01*
X12211429Y-28591200D02*
X12182857Y-28562628D01*
X12182857Y-28562628D02*
X12154286Y-28505485D01*
X12154286Y-28505485D02*
X12154286Y-28362628D01*
X12154286Y-28362628D02*
X12182857Y-28305485D01*
X12182857Y-28305485D02*
X12211429Y-28276914D01*
X12211429Y-28276914D02*
X12268571Y-28248342D01*
X12268571Y-28248342D02*
X12382857Y-28248342D01*
X12382857Y-28248342D02*
X12440000Y-28276914D01*
X12440000Y-28276914D02*
X12468571Y-28305485D01*
X12468571Y-28305485D02*
X12497143Y-28362628D01*
X11811428Y-28276914D02*
X11868571Y-28248342D01*
X11868571Y-28248342D02*
X11897142Y-28219771D01*
X11897142Y-28219771D02*
X11925714Y-28162628D01*
X11925714Y-28162628D02*
X11925714Y-28134057D01*
X11925714Y-28134057D02*
X11897142Y-28076914D01*
X11897142Y-28076914D02*
X11868571Y-28048342D01*
X11868571Y-28048342D02*
X11811428Y-28019771D01*
X11811428Y-28019771D02*
X11697142Y-28019771D01*
X11697142Y-28019771D02*
X11640000Y-28048342D01*
X11640000Y-28048342D02*
X11611428Y-28076914D01*
X11611428Y-28076914D02*
X11582857Y-28134057D01*
X11582857Y-28134057D02*
X11582857Y-28162628D01*
X11582857Y-28162628D02*
X11611428Y-28219771D01*
X11611428Y-28219771D02*
X11640000Y-28248342D01*
X11640000Y-28248342D02*
X11697142Y-28276914D01*
X11697142Y-28276914D02*
X11811428Y-28276914D01*
X11811428Y-28276914D02*
X11868571Y-28305485D01*
X11868571Y-28305485D02*
X11897142Y-28334057D01*
X11897142Y-28334057D02*
X11925714Y-28391200D01*
X11925714Y-28391200D02*
X11925714Y-28505485D01*
X11925714Y-28505485D02*
X11897142Y-28562628D01*
X11897142Y-28562628D02*
X11868571Y-28591200D01*
X11868571Y-28591200D02*
X11811428Y-28619771D01*
X11811428Y-28619771D02*
X11697142Y-28619771D01*
X11697142Y-28619771D02*
X11640000Y-28591200D01*
X11640000Y-28591200D02*
X11611428Y-28562628D01*
X11611428Y-28562628D02*
X11582857Y-28505485D01*
X11582857Y-28505485D02*
X11582857Y-28391200D01*
X11582857Y-28391200D02*
X11611428Y-28334057D01*
X11611428Y-28334057D02*
X11640000Y-28305485D01*
X11640000Y-28305485D02*
X11697142Y-28276914D01*
X17162628Y-27514285D02*
X17191200Y-27485713D01*
X17191200Y-27485713D02*
X17219771Y-27399999D01*
X17219771Y-27399999D02*
X17219771Y-27342856D01*
X17219771Y-27342856D02*
X17191200Y-27257142D01*
X17191200Y-27257142D02*
X17134057Y-27199999D01*
X17134057Y-27199999D02*
X17076914Y-27171428D01*
X17076914Y-27171428D02*
X16962628Y-27142856D01*
X16962628Y-27142856D02*
X16876914Y-27142856D01*
X16876914Y-27142856D02*
X16762628Y-27171428D01*
X16762628Y-27171428D02*
X16705485Y-27199999D01*
X16705485Y-27199999D02*
X16648342Y-27257142D01*
X16648342Y-27257142D02*
X16619771Y-27342856D01*
X16619771Y-27342856D02*
X16619771Y-27399999D01*
X16619771Y-27399999D02*
X16648342Y-27485713D01*
X16648342Y-27485713D02*
X16676914Y-27514285D01*
X16619771Y-28028571D02*
X16619771Y-27914285D01*
X16619771Y-27914285D02*
X16648342Y-27857142D01*
X16648342Y-27857142D02*
X16676914Y-27828571D01*
X16676914Y-27828571D02*
X16762628Y-27771428D01*
X16762628Y-27771428D02*
X16876914Y-27742856D01*
X16876914Y-27742856D02*
X17105485Y-27742856D01*
X17105485Y-27742856D02*
X17162628Y-27771428D01*
X17162628Y-27771428D02*
X17191200Y-27799999D01*
X17191200Y-27799999D02*
X17219771Y-27857142D01*
X17219771Y-27857142D02*
X17219771Y-27971428D01*
X17219771Y-27971428D02*
X17191200Y-28028571D01*
X17191200Y-28028571D02*
X17162628Y-28057142D01*
X17162628Y-28057142D02*
X17105485Y-28085713D01*
X17105485Y-28085713D02*
X16962628Y-28085713D01*
X16962628Y-28085713D02*
X16905485Y-28057142D01*
X16905485Y-28057142D02*
X16876914Y-28028571D01*
X16876914Y-28028571D02*
X16848342Y-27971428D01*
X16848342Y-27971428D02*
X16848342Y-27857142D01*
X16848342Y-27857142D02*
X16876914Y-27799999D01*
X16876914Y-27799999D02*
X16905485Y-27771428D01*
X16905485Y-27771428D02*
X16962628Y-27742856D01*
X16619771Y-28285714D02*
X16619771Y-28685714D01*
X16619771Y-28685714D02*
X17219771Y-28428571D01*
X7012628Y-24294285D02*
X7041200Y-24265713D01*
X7041200Y-24265713D02*
X7069771Y-24179999D01*
X7069771Y-24179999D02*
X7069771Y-24122856D01*
X7069771Y-24122856D02*
X7041200Y-24037142D01*
X7041200Y-24037142D02*
X6984057Y-23979999D01*
X6984057Y-23979999D02*
X6926914Y-23951428D01*
X6926914Y-23951428D02*
X6812628Y-23922856D01*
X6812628Y-23922856D02*
X6726914Y-23922856D01*
X6726914Y-23922856D02*
X6612628Y-23951428D01*
X6612628Y-23951428D02*
X6555485Y-23979999D01*
X6555485Y-23979999D02*
X6498342Y-24037142D01*
X6498342Y-24037142D02*
X6469771Y-24122856D01*
X6469771Y-24122856D02*
X6469771Y-24179999D01*
X6469771Y-24179999D02*
X6498342Y-24265713D01*
X6498342Y-24265713D02*
X6526914Y-24294285D01*
X6469771Y-24808571D02*
X6469771Y-24694285D01*
X6469771Y-24694285D02*
X6498342Y-24637142D01*
X6498342Y-24637142D02*
X6526914Y-24608571D01*
X6526914Y-24608571D02*
X6612628Y-24551428D01*
X6612628Y-24551428D02*
X6726914Y-24522856D01*
X6726914Y-24522856D02*
X6955485Y-24522856D01*
X6955485Y-24522856D02*
X7012628Y-24551428D01*
X7012628Y-24551428D02*
X7041200Y-24579999D01*
X7041200Y-24579999D02*
X7069771Y-24637142D01*
X7069771Y-24637142D02*
X7069771Y-24751428D01*
X7069771Y-24751428D02*
X7041200Y-24808571D01*
X7041200Y-24808571D02*
X7012628Y-24837142D01*
X7012628Y-24837142D02*
X6955485Y-24865713D01*
X6955485Y-24865713D02*
X6812628Y-24865713D01*
X6812628Y-24865713D02*
X6755485Y-24837142D01*
X6755485Y-24837142D02*
X6726914Y-24808571D01*
X6726914Y-24808571D02*
X6698342Y-24751428D01*
X6698342Y-24751428D02*
X6698342Y-24637142D01*
X6698342Y-24637142D02*
X6726914Y-24579999D01*
X6726914Y-24579999D02*
X6755485Y-24551428D01*
X6755485Y-24551428D02*
X6812628Y-24522856D01*
X6526914Y-25094285D02*
X6498342Y-25122857D01*
X6498342Y-25122857D02*
X6469771Y-25180000D01*
X6469771Y-25180000D02*
X6469771Y-25322857D01*
X6469771Y-25322857D02*
X6498342Y-25380000D01*
X6498342Y-25380000D02*
X6526914Y-25408571D01*
X6526914Y-25408571D02*
X6584057Y-25437142D01*
X6584057Y-25437142D02*
X6641200Y-25437142D01*
X6641200Y-25437142D02*
X6726914Y-25408571D01*
X6726914Y-25408571D02*
X7069771Y-25065714D01*
X7069771Y-25065714D02*
X7069771Y-25437142D01*
X7012628Y-22414285D02*
X7041200Y-22385713D01*
X7041200Y-22385713D02*
X7069771Y-22299999D01*
X7069771Y-22299999D02*
X7069771Y-22242856D01*
X7069771Y-22242856D02*
X7041200Y-22157142D01*
X7041200Y-22157142D02*
X6984057Y-22099999D01*
X6984057Y-22099999D02*
X6926914Y-22071428D01*
X6926914Y-22071428D02*
X6812628Y-22042856D01*
X6812628Y-22042856D02*
X6726914Y-22042856D01*
X6726914Y-22042856D02*
X6612628Y-22071428D01*
X6612628Y-22071428D02*
X6555485Y-22099999D01*
X6555485Y-22099999D02*
X6498342Y-22157142D01*
X6498342Y-22157142D02*
X6469771Y-22242856D01*
X6469771Y-22242856D02*
X6469771Y-22299999D01*
X6469771Y-22299999D02*
X6498342Y-22385713D01*
X6498342Y-22385713D02*
X6526914Y-22414285D01*
X6469771Y-22957142D02*
X6469771Y-22671428D01*
X6469771Y-22671428D02*
X6755485Y-22642856D01*
X6755485Y-22642856D02*
X6726914Y-22671428D01*
X6726914Y-22671428D02*
X6698342Y-22728571D01*
X6698342Y-22728571D02*
X6698342Y-22871428D01*
X6698342Y-22871428D02*
X6726914Y-22928571D01*
X6726914Y-22928571D02*
X6755485Y-22957142D01*
X6755485Y-22957142D02*
X6812628Y-22985713D01*
X6812628Y-22985713D02*
X6955485Y-22985713D01*
X6955485Y-22985713D02*
X7012628Y-22957142D01*
X7012628Y-22957142D02*
X7041200Y-22928571D01*
X7041200Y-22928571D02*
X7069771Y-22871428D01*
X7069771Y-22871428D02*
X7069771Y-22728571D01*
X7069771Y-22728571D02*
X7041200Y-22671428D01*
X7041200Y-22671428D02*
X7012628Y-22642856D01*
X6669771Y-23500000D02*
X7069771Y-23500000D01*
X6441200Y-23357142D02*
X6869771Y-23214285D01*
X6869771Y-23214285D02*
X6869771Y-23585714D01*
X7012628Y-18544285D02*
X7041200Y-18515713D01*
X7041200Y-18515713D02*
X7069771Y-18429999D01*
X7069771Y-18429999D02*
X7069771Y-18372856D01*
X7069771Y-18372856D02*
X7041200Y-18287142D01*
X7041200Y-18287142D02*
X6984057Y-18229999D01*
X6984057Y-18229999D02*
X6926914Y-18201428D01*
X6926914Y-18201428D02*
X6812628Y-18172856D01*
X6812628Y-18172856D02*
X6726914Y-18172856D01*
X6726914Y-18172856D02*
X6612628Y-18201428D01*
X6612628Y-18201428D02*
X6555485Y-18229999D01*
X6555485Y-18229999D02*
X6498342Y-18287142D01*
X6498342Y-18287142D02*
X6469771Y-18372856D01*
X6469771Y-18372856D02*
X6469771Y-18429999D01*
X6469771Y-18429999D02*
X6498342Y-18515713D01*
X6498342Y-18515713D02*
X6526914Y-18544285D01*
X6469771Y-18744285D02*
X6469771Y-19115713D01*
X6469771Y-19115713D02*
X6698342Y-18915713D01*
X6698342Y-18915713D02*
X6698342Y-19001428D01*
X6698342Y-19001428D02*
X6726914Y-19058571D01*
X6726914Y-19058571D02*
X6755485Y-19087142D01*
X6755485Y-19087142D02*
X6812628Y-19115713D01*
X6812628Y-19115713D02*
X6955485Y-19115713D01*
X6955485Y-19115713D02*
X7012628Y-19087142D01*
X7012628Y-19087142D02*
X7041200Y-19058571D01*
X7041200Y-19058571D02*
X7069771Y-19001428D01*
X7069771Y-19001428D02*
X7069771Y-18829999D01*
X7069771Y-18829999D02*
X7041200Y-18772856D01*
X7041200Y-18772856D02*
X7012628Y-18744285D01*
X6469771Y-19315714D02*
X6469771Y-19687142D01*
X6469771Y-19687142D02*
X6698342Y-19487142D01*
X6698342Y-19487142D02*
X6698342Y-19572857D01*
X6698342Y-19572857D02*
X6726914Y-19630000D01*
X6726914Y-19630000D02*
X6755485Y-19658571D01*
X6755485Y-19658571D02*
X6812628Y-19687142D01*
X6812628Y-19687142D02*
X6955485Y-19687142D01*
X6955485Y-19687142D02*
X7012628Y-19658571D01*
X7012628Y-19658571D02*
X7041200Y-19630000D01*
X7041200Y-19630000D02*
X7069771Y-19572857D01*
X7069771Y-19572857D02*
X7069771Y-19401428D01*
X7069771Y-19401428D02*
X7041200Y-19344285D01*
X7041200Y-19344285D02*
X7012628Y-19315714D01*
X11149999Y-10762628D02*
X11178571Y-10791200D01*
X11178571Y-10791200D02*
X11264285Y-10819771D01*
X11264285Y-10819771D02*
X11321428Y-10819771D01*
X11321428Y-10819771D02*
X11407142Y-10791200D01*
X11407142Y-10791200D02*
X11464285Y-10734057D01*
X11464285Y-10734057D02*
X11492856Y-10676914D01*
X11492856Y-10676914D02*
X11521428Y-10562628D01*
X11521428Y-10562628D02*
X11521428Y-10476914D01*
X11521428Y-10476914D02*
X11492856Y-10362628D01*
X11492856Y-10362628D02*
X11464285Y-10305485D01*
X11464285Y-10305485D02*
X11407142Y-10248342D01*
X11407142Y-10248342D02*
X11321428Y-10219771D01*
X11321428Y-10219771D02*
X11264285Y-10219771D01*
X11264285Y-10219771D02*
X11178571Y-10248342D01*
X11178571Y-10248342D02*
X11149999Y-10276914D01*
X10635714Y-10419771D02*
X10635714Y-10819771D01*
X10778571Y-10191200D02*
X10921428Y-10619771D01*
X10921428Y-10619771D02*
X10549999Y-10619771D01*
X11099999Y-11762628D02*
X11128571Y-11791200D01*
X11128571Y-11791200D02*
X11214285Y-11819771D01*
X11214285Y-11819771D02*
X11271428Y-11819771D01*
X11271428Y-11819771D02*
X11357142Y-11791200D01*
X11357142Y-11791200D02*
X11414285Y-11734057D01*
X11414285Y-11734057D02*
X11442856Y-11676914D01*
X11442856Y-11676914D02*
X11471428Y-11562628D01*
X11471428Y-11562628D02*
X11471428Y-11476914D01*
X11471428Y-11476914D02*
X11442856Y-11362628D01*
X11442856Y-11362628D02*
X11414285Y-11305485D01*
X11414285Y-11305485D02*
X11357142Y-11248342D01*
X11357142Y-11248342D02*
X11271428Y-11219771D01*
X11271428Y-11219771D02*
X11214285Y-11219771D01*
X11214285Y-11219771D02*
X11128571Y-11248342D01*
X11128571Y-11248342D02*
X11099999Y-11276914D01*
X10899999Y-11219771D02*
X10528571Y-11219771D01*
X10528571Y-11219771D02*
X10728571Y-11448342D01*
X10728571Y-11448342D02*
X10642856Y-11448342D01*
X10642856Y-11448342D02*
X10585714Y-11476914D01*
X10585714Y-11476914D02*
X10557142Y-11505485D01*
X10557142Y-11505485D02*
X10528571Y-11562628D01*
X10528571Y-11562628D02*
X10528571Y-11705485D01*
X10528571Y-11705485D02*
X10557142Y-11762628D01*
X10557142Y-11762628D02*
X10585714Y-11791200D01*
X10585714Y-11791200D02*
X10642856Y-11819771D01*
X10642856Y-11819771D02*
X10814285Y-11819771D01*
X10814285Y-11819771D02*
X10871428Y-11791200D01*
X10871428Y-11791200D02*
X10899999Y-11762628D01*
D11*
G04 #@! TO.C,C98*
X18912164Y-28810000D02*
X19127836Y-28810000D01*
X18912164Y-28090000D02*
X19127836Y-28090000D01*
G04 #@! TO.C,C97*
X18912164Y-27810000D02*
X19127836Y-27810000D01*
X18912164Y-27090000D02*
X19127836Y-27090000D01*
G04 #@! TO.C,C96*
X23092164Y-11860000D02*
X23307836Y-11860000D01*
X23092164Y-11140000D02*
X23307836Y-11140000D01*
G04 #@! TO.C,C95*
X23092164Y-10860000D02*
X23307836Y-10860000D01*
X23092164Y-10140000D02*
X23307836Y-10140000D01*
G04 #@! TO.C,C92*
X14587836Y-10190000D02*
X14372164Y-10190000D01*
X14587836Y-10910000D02*
X14372164Y-10910000D01*
G04 #@! TO.C,C91*
X14587836Y-11190000D02*
X14372164Y-11190000D01*
X14587836Y-11910000D02*
X14372164Y-11910000D01*
G04 #@! TO.C,C90*
X10060000Y-16957836D02*
X10060000Y-16742164D01*
X9340000Y-16957836D02*
X9340000Y-16742164D01*
G04 #@! TO.C,C89*
X9060000Y-16957836D02*
X9060000Y-16742164D01*
X8340000Y-16957836D02*
X8340000Y-16742164D01*
G04 #@! TO.C,C88*
X10060000Y-14837836D02*
X10060000Y-14622164D01*
X9340000Y-14837836D02*
X9340000Y-14622164D01*
G04 #@! TO.C,C87*
X9100000Y-14837836D02*
X9100000Y-14622164D01*
X8380000Y-14837836D02*
X8380000Y-14622164D01*
G04 #@! TO.C,C66*
X10060000Y-24787836D02*
X10060000Y-24572164D01*
X9340000Y-24787836D02*
X9340000Y-24572164D01*
G04 #@! TO.C,C58*
X9340000Y-22692164D02*
X9340000Y-22907836D01*
X10060000Y-22692164D02*
X10060000Y-22907836D01*
G04 #@! TO.C,C34*
X9340000Y-19037836D02*
X9340000Y-18822164D01*
X10060000Y-19037836D02*
X10060000Y-18822164D01*
G04 #@! TO.C,U1*
X27950000Y-13550000D02*
X27950000Y-12900000D01*
X27950000Y-25450000D02*
X27950000Y-26100000D01*
X27950000Y-12900000D02*
X27200000Y-12900000D01*
X27950000Y-26100000D02*
X27200000Y-26100000D01*
X11050000Y-12900000D02*
X11800000Y-12900000D01*
X10600000Y-26100000D02*
X11800000Y-26100000D01*
X11050000Y-13550000D02*
X11050000Y-12900000D01*
G04 #@! TO.C,R1*
X14096359Y-27830000D02*
X14403641Y-27830000D01*
X14096359Y-27070000D02*
X14403641Y-27070000D01*
G04 #@! TO.C,C68*
X12447836Y-27090000D02*
X12232164Y-27090000D01*
X12447836Y-27810000D02*
X12232164Y-27810000D01*
G04 #@! TO.C,C67*
X16360000Y-28007836D02*
X16360000Y-27792164D01*
X15640000Y-28007836D02*
X15640000Y-27792164D01*
G04 #@! TO.C,C62*
X9060000Y-24787836D02*
X9060000Y-24572164D01*
X8340000Y-24787836D02*
X8340000Y-24572164D01*
G04 #@! TO.C,C54*
X8340000Y-22692164D02*
X8340000Y-22907836D01*
X9060000Y-22692164D02*
X9060000Y-22907836D01*
G04 #@! TO.C,C33*
X8340000Y-19037836D02*
X8340000Y-18822164D01*
X9060000Y-19037836D02*
X9060000Y-18822164D01*
G04 #@! TO.C,C4*
X12492164Y-10910000D02*
X12707836Y-10910000D01*
X12492164Y-10190000D02*
X12707836Y-10190000D01*
G04 #@! TO.C,C3*
X12492164Y-11910000D02*
X12707836Y-11910000D01*
X12492164Y-11190000D02*
X12707836Y-11190000D01*
G04 #@! TD*
M02*
