G04 #@! TF.GenerationSoftware,KiCad,Pcbnew,8.0.4*
G04 #@! TF.CreationDate,2025-01-16T23:08:25-08:00*
G04 #@! TF.ProjectId,GMAX4002_MIPI_Breakout,474d4158-3430-4303-925f-4d4950495f42,rev?*
G04 #@! TF.SameCoordinates,Original*
G04 #@! TF.FileFunction,Paste,Bot*
G04 #@! TF.FilePolarity,Positive*
%FSLAX46Y46*%
G04 Gerber Fmt 4.6, Leading zero omitted, Abs format (unit mm)*
G04 Created by KiCad (PCBNEW 8.0.4) date 2025-01-16 23:08:25*
%MOMM*%
%LPD*%
G01*
G04 APERTURE LIST*
%ADD10R,0.400000X1.200000*%
%ADD11R,1.200000X0.400000*%
G04 APERTURE END LIST*
G04 #@! TO.C,C98*
G36*
G01*
X18820000Y-28280000D02*
X18820000Y-28620000D01*
G75*
G02*
X18680000Y-28760000I-140000J0D01*
G01*
X18400000Y-28760000D01*
G75*
G02*
X18260000Y-28620000I0J140000D01*
G01*
X18260000Y-28280000D01*
G75*
G02*
X18400000Y-28140000I140000J0D01*
G01*
X18680000Y-28140000D01*
G75*
G02*
X18820000Y-28280000I0J-140000D01*
G01*
G37*
G36*
G01*
X19780000Y-28280000D02*
X19780000Y-28620000D01*
G75*
G02*
X19640000Y-28760000I-140000J0D01*
G01*
X19360000Y-28760000D01*
G75*
G02*
X19220000Y-28620000I0J140000D01*
G01*
X19220000Y-28280000D01*
G75*
G02*
X19360000Y-28140000I140000J0D01*
G01*
X19640000Y-28140000D01*
G75*
G02*
X19780000Y-28280000I0J-140000D01*
G01*
G37*
G04 #@! TD*
G04 #@! TO.C,C97*
G36*
G01*
X18820000Y-27280000D02*
X18820000Y-27620000D01*
G75*
G02*
X18680000Y-27760000I-140000J0D01*
G01*
X18400000Y-27760000D01*
G75*
G02*
X18260000Y-27620000I0J140000D01*
G01*
X18260000Y-27280000D01*
G75*
G02*
X18400000Y-27140000I140000J0D01*
G01*
X18680000Y-27140000D01*
G75*
G02*
X18820000Y-27280000I0J-140000D01*
G01*
G37*
G36*
G01*
X19780000Y-27280000D02*
X19780000Y-27620000D01*
G75*
G02*
X19640000Y-27760000I-140000J0D01*
G01*
X19360000Y-27760000D01*
G75*
G02*
X19220000Y-27620000I0J140000D01*
G01*
X19220000Y-27280000D01*
G75*
G02*
X19360000Y-27140000I140000J0D01*
G01*
X19640000Y-27140000D01*
G75*
G02*
X19780000Y-27280000I0J-140000D01*
G01*
G37*
G04 #@! TD*
G04 #@! TO.C,C96*
G36*
G01*
X23000000Y-11330000D02*
X23000000Y-11670000D01*
G75*
G02*
X22860000Y-11810000I-140000J0D01*
G01*
X22580000Y-11810000D01*
G75*
G02*
X22440000Y-11670000I0J140000D01*
G01*
X22440000Y-11330000D01*
G75*
G02*
X22580000Y-11190000I140000J0D01*
G01*
X22860000Y-11190000D01*
G75*
G02*
X23000000Y-11330000I0J-140000D01*
G01*
G37*
G36*
G01*
X23960000Y-11330000D02*
X23960000Y-11670000D01*
G75*
G02*
X23820000Y-11810000I-140000J0D01*
G01*
X23540000Y-11810000D01*
G75*
G02*
X23400000Y-11670000I0J140000D01*
G01*
X23400000Y-11330000D01*
G75*
G02*
X23540000Y-11190000I140000J0D01*
G01*
X23820000Y-11190000D01*
G75*
G02*
X23960000Y-11330000I0J-140000D01*
G01*
G37*
G04 #@! TD*
G04 #@! TO.C,C95*
G36*
G01*
X23000000Y-10330000D02*
X23000000Y-10670000D01*
G75*
G02*
X22860000Y-10810000I-140000J0D01*
G01*
X22580000Y-10810000D01*
G75*
G02*
X22440000Y-10670000I0J140000D01*
G01*
X22440000Y-10330000D01*
G75*
G02*
X22580000Y-10190000I140000J0D01*
G01*
X22860000Y-10190000D01*
G75*
G02*
X23000000Y-10330000I0J-140000D01*
G01*
G37*
G36*
G01*
X23960000Y-10330000D02*
X23960000Y-10670000D01*
G75*
G02*
X23820000Y-10810000I-140000J0D01*
G01*
X23540000Y-10810000D01*
G75*
G02*
X23400000Y-10670000I0J140000D01*
G01*
X23400000Y-10330000D01*
G75*
G02*
X23540000Y-10190000I140000J0D01*
G01*
X23820000Y-10190000D01*
G75*
G02*
X23960000Y-10330000I0J-140000D01*
G01*
G37*
G04 #@! TD*
G04 #@! TO.C,C92*
G36*
G01*
X14680000Y-10720000D02*
X14680000Y-10380000D01*
G75*
G02*
X14820000Y-10240000I140000J0D01*
G01*
X15100000Y-10240000D01*
G75*
G02*
X15240000Y-10380000I0J-140000D01*
G01*
X15240000Y-10720000D01*
G75*
G02*
X15100000Y-10860000I-140000J0D01*
G01*
X14820000Y-10860000D01*
G75*
G02*
X14680000Y-10720000I0J140000D01*
G01*
G37*
G36*
G01*
X13720000Y-10720000D02*
X13720000Y-10380000D01*
G75*
G02*
X13860000Y-10240000I140000J0D01*
G01*
X14140000Y-10240000D01*
G75*
G02*
X14280000Y-10380000I0J-140000D01*
G01*
X14280000Y-10720000D01*
G75*
G02*
X14140000Y-10860000I-140000J0D01*
G01*
X13860000Y-10860000D01*
G75*
G02*
X13720000Y-10720000I0J140000D01*
G01*
G37*
G04 #@! TD*
G04 #@! TO.C,C91*
G36*
G01*
X14680000Y-11720000D02*
X14680000Y-11380000D01*
G75*
G02*
X14820000Y-11240000I140000J0D01*
G01*
X15100000Y-11240000D01*
G75*
G02*
X15240000Y-11380000I0J-140000D01*
G01*
X15240000Y-11720000D01*
G75*
G02*
X15100000Y-11860000I-140000J0D01*
G01*
X14820000Y-11860000D01*
G75*
G02*
X14680000Y-11720000I0J140000D01*
G01*
G37*
G36*
G01*
X13720000Y-11720000D02*
X13720000Y-11380000D01*
G75*
G02*
X13860000Y-11240000I140000J0D01*
G01*
X14140000Y-11240000D01*
G75*
G02*
X14280000Y-11380000I0J-140000D01*
G01*
X14280000Y-11720000D01*
G75*
G02*
X14140000Y-11860000I-140000J0D01*
G01*
X13860000Y-11860000D01*
G75*
G02*
X13720000Y-11720000I0J140000D01*
G01*
G37*
G04 #@! TD*
G04 #@! TO.C,C90*
G36*
G01*
X9530000Y-17050000D02*
X9870000Y-17050000D01*
G75*
G02*
X10010000Y-17190000I0J-140000D01*
G01*
X10010000Y-17470000D01*
G75*
G02*
X9870000Y-17610000I-140000J0D01*
G01*
X9530000Y-17610000D01*
G75*
G02*
X9390000Y-17470000I0J140000D01*
G01*
X9390000Y-17190000D01*
G75*
G02*
X9530000Y-17050000I140000J0D01*
G01*
G37*
G36*
G01*
X9530000Y-16090000D02*
X9870000Y-16090000D01*
G75*
G02*
X10010000Y-16230000I0J-140000D01*
G01*
X10010000Y-16510000D01*
G75*
G02*
X9870000Y-16650000I-140000J0D01*
G01*
X9530000Y-16650000D01*
G75*
G02*
X9390000Y-16510000I0J140000D01*
G01*
X9390000Y-16230000D01*
G75*
G02*
X9530000Y-16090000I140000J0D01*
G01*
G37*
G04 #@! TD*
G04 #@! TO.C,C89*
G36*
G01*
X8530000Y-17050000D02*
X8870000Y-17050000D01*
G75*
G02*
X9010000Y-17190000I0J-140000D01*
G01*
X9010000Y-17470000D01*
G75*
G02*
X8870000Y-17610000I-140000J0D01*
G01*
X8530000Y-17610000D01*
G75*
G02*
X8390000Y-17470000I0J140000D01*
G01*
X8390000Y-17190000D01*
G75*
G02*
X8530000Y-17050000I140000J0D01*
G01*
G37*
G36*
G01*
X8530000Y-16090000D02*
X8870000Y-16090000D01*
G75*
G02*
X9010000Y-16230000I0J-140000D01*
G01*
X9010000Y-16510000D01*
G75*
G02*
X8870000Y-16650000I-140000J0D01*
G01*
X8530000Y-16650000D01*
G75*
G02*
X8390000Y-16510000I0J140000D01*
G01*
X8390000Y-16230000D01*
G75*
G02*
X8530000Y-16090000I140000J0D01*
G01*
G37*
G04 #@! TD*
G04 #@! TO.C,C88*
G36*
G01*
X9530000Y-14930000D02*
X9870000Y-14930000D01*
G75*
G02*
X10010000Y-15070000I0J-140000D01*
G01*
X10010000Y-15350000D01*
G75*
G02*
X9870000Y-15490000I-140000J0D01*
G01*
X9530000Y-15490000D01*
G75*
G02*
X9390000Y-15350000I0J140000D01*
G01*
X9390000Y-15070000D01*
G75*
G02*
X9530000Y-14930000I140000J0D01*
G01*
G37*
G36*
G01*
X9530000Y-13970000D02*
X9870000Y-13970000D01*
G75*
G02*
X10010000Y-14110000I0J-140000D01*
G01*
X10010000Y-14390000D01*
G75*
G02*
X9870000Y-14530000I-140000J0D01*
G01*
X9530000Y-14530000D01*
G75*
G02*
X9390000Y-14390000I0J140000D01*
G01*
X9390000Y-14110000D01*
G75*
G02*
X9530000Y-13970000I140000J0D01*
G01*
G37*
G04 #@! TD*
G04 #@! TO.C,C87*
G36*
G01*
X8570000Y-14930000D02*
X8910000Y-14930000D01*
G75*
G02*
X9050000Y-15070000I0J-140000D01*
G01*
X9050000Y-15350000D01*
G75*
G02*
X8910000Y-15490000I-140000J0D01*
G01*
X8570000Y-15490000D01*
G75*
G02*
X8430000Y-15350000I0J140000D01*
G01*
X8430000Y-15070000D01*
G75*
G02*
X8570000Y-14930000I140000J0D01*
G01*
G37*
G36*
G01*
X8570000Y-13970000D02*
X8910000Y-13970000D01*
G75*
G02*
X9050000Y-14110000I0J-140000D01*
G01*
X9050000Y-14390000D01*
G75*
G02*
X8910000Y-14530000I-140000J0D01*
G01*
X8570000Y-14530000D01*
G75*
G02*
X8430000Y-14390000I0J140000D01*
G01*
X8430000Y-14110000D01*
G75*
G02*
X8570000Y-13970000I140000J0D01*
G01*
G37*
G04 #@! TD*
G04 #@! TO.C,C66*
G36*
G01*
X9530000Y-24880000D02*
X9870000Y-24880000D01*
G75*
G02*
X10010000Y-25020000I0J-140000D01*
G01*
X10010000Y-25300000D01*
G75*
G02*
X9870000Y-25440000I-140000J0D01*
G01*
X9530000Y-25440000D01*
G75*
G02*
X9390000Y-25300000I0J140000D01*
G01*
X9390000Y-25020000D01*
G75*
G02*
X9530000Y-24880000I140000J0D01*
G01*
G37*
G36*
G01*
X9530000Y-23920000D02*
X9870000Y-23920000D01*
G75*
G02*
X10010000Y-24060000I0J-140000D01*
G01*
X10010000Y-24340000D01*
G75*
G02*
X9870000Y-24480000I-140000J0D01*
G01*
X9530000Y-24480000D01*
G75*
G02*
X9390000Y-24340000I0J140000D01*
G01*
X9390000Y-24060000D01*
G75*
G02*
X9530000Y-23920000I140000J0D01*
G01*
G37*
G04 #@! TD*
G04 #@! TO.C,C58*
G36*
G01*
X9870000Y-22600000D02*
X9530000Y-22600000D01*
G75*
G02*
X9390000Y-22460000I0J140000D01*
G01*
X9390000Y-22180000D01*
G75*
G02*
X9530000Y-22040000I140000J0D01*
G01*
X9870000Y-22040000D01*
G75*
G02*
X10010000Y-22180000I0J-140000D01*
G01*
X10010000Y-22460000D01*
G75*
G02*
X9870000Y-22600000I-140000J0D01*
G01*
G37*
G36*
G01*
X9870000Y-23560000D02*
X9530000Y-23560000D01*
G75*
G02*
X9390000Y-23420000I0J140000D01*
G01*
X9390000Y-23140000D01*
G75*
G02*
X9530000Y-23000000I140000J0D01*
G01*
X9870000Y-23000000D01*
G75*
G02*
X10010000Y-23140000I0J-140000D01*
G01*
X10010000Y-23420000D01*
G75*
G02*
X9870000Y-23560000I-140000J0D01*
G01*
G37*
G04 #@! TD*
G04 #@! TO.C,C34*
G36*
G01*
X9530000Y-18170000D02*
X9870000Y-18170000D01*
G75*
G02*
X10010000Y-18310000I0J-140000D01*
G01*
X10010000Y-18590000D01*
G75*
G02*
X9870000Y-18730000I-140000J0D01*
G01*
X9530000Y-18730000D01*
G75*
G02*
X9390000Y-18590000I0J140000D01*
G01*
X9390000Y-18310000D01*
G75*
G02*
X9530000Y-18170000I140000J0D01*
G01*
G37*
G36*
G01*
X9530000Y-19130000D02*
X9870000Y-19130000D01*
G75*
G02*
X10010000Y-19270000I0J-140000D01*
G01*
X10010000Y-19550000D01*
G75*
G02*
X9870000Y-19690000I-140000J0D01*
G01*
X9530000Y-19690000D01*
G75*
G02*
X9390000Y-19550000I0J140000D01*
G01*
X9390000Y-19270000D01*
G75*
G02*
X9530000Y-19130000I140000J0D01*
G01*
G37*
G04 #@! TD*
D10*
G04 #@! TO.C,U1*
X12500000Y-25750000D03*
X13200000Y-25750000D03*
X13900000Y-25750000D03*
X14600000Y-25750000D03*
X15300000Y-25750000D03*
X16000000Y-25750000D03*
X16700000Y-25750000D03*
X17400000Y-25750000D03*
X18100000Y-25750000D03*
X18800000Y-25750000D03*
X19500000Y-25750000D03*
X20200000Y-25750000D03*
X20900000Y-25750000D03*
X21600000Y-25750000D03*
X22300000Y-25750000D03*
X23000000Y-25750000D03*
X23700000Y-25750000D03*
X24400000Y-25750000D03*
X25100000Y-25750000D03*
X25800000Y-25750000D03*
X26500000Y-25750000D03*
D11*
X27600000Y-24750000D03*
X27600000Y-24050000D03*
X27600000Y-23350000D03*
X27600000Y-22650000D03*
X27600000Y-21950000D03*
X27600000Y-21250000D03*
X27600000Y-20550000D03*
X27600000Y-19850000D03*
X27600000Y-19150000D03*
X27600000Y-18450000D03*
X27600000Y-17750000D03*
X27600000Y-17050000D03*
X27600000Y-16350000D03*
X27600000Y-15650000D03*
X27600000Y-14950000D03*
X27600000Y-14250000D03*
D10*
X26500000Y-13250000D03*
X25800000Y-13250000D03*
X25100000Y-13250000D03*
X24400000Y-13250000D03*
X23700000Y-13250000D03*
X23000000Y-13250000D03*
X22300000Y-13250000D03*
X21600000Y-13250000D03*
X20900000Y-13250000D03*
X20200000Y-13250000D03*
X19500000Y-13250000D03*
X18800000Y-13250000D03*
X18100000Y-13250000D03*
X17400000Y-13250000D03*
X16700000Y-13250000D03*
X16000000Y-13250000D03*
X15300000Y-13250000D03*
X14600000Y-13250000D03*
X13900000Y-13250000D03*
X13200000Y-13250000D03*
X12500000Y-13250000D03*
D11*
X11400000Y-14250000D03*
X11400000Y-14950000D03*
X11400000Y-15650000D03*
X11400000Y-16350000D03*
X11400000Y-17050000D03*
X11400000Y-17750000D03*
X11400000Y-18450000D03*
X11400000Y-19150000D03*
X11400000Y-19850000D03*
X11400000Y-20550000D03*
X11400000Y-21250000D03*
X11400000Y-21950000D03*
X11400000Y-22650000D03*
X11400000Y-23350000D03*
X11400000Y-24050000D03*
X11400000Y-24750000D03*
G04 #@! TD*
G04 #@! TO.C,R1*
G36*
G01*
X14010000Y-27265000D02*
X14010000Y-27635000D01*
G75*
G02*
X13875000Y-27770000I-135000J0D01*
G01*
X13605000Y-27770000D01*
G75*
G02*
X13470000Y-27635000I0J135000D01*
G01*
X13470000Y-27265000D01*
G75*
G02*
X13605000Y-27130000I135000J0D01*
G01*
X13875000Y-27130000D01*
G75*
G02*
X14010000Y-27265000I0J-135000D01*
G01*
G37*
G36*
G01*
X15030000Y-27265000D02*
X15030000Y-27635000D01*
G75*
G02*
X14895000Y-27770000I-135000J0D01*
G01*
X14625000Y-27770000D01*
G75*
G02*
X14490000Y-27635000I0J135000D01*
G01*
X14490000Y-27265000D01*
G75*
G02*
X14625000Y-27130000I135000J0D01*
G01*
X14895000Y-27130000D01*
G75*
G02*
X15030000Y-27265000I0J-135000D01*
G01*
G37*
G04 #@! TD*
G04 #@! TO.C,C68*
G36*
G01*
X12540000Y-27620000D02*
X12540000Y-27280000D01*
G75*
G02*
X12680000Y-27140000I140000J0D01*
G01*
X12960000Y-27140000D01*
G75*
G02*
X13100000Y-27280000I0J-140000D01*
G01*
X13100000Y-27620000D01*
G75*
G02*
X12960000Y-27760000I-140000J0D01*
G01*
X12680000Y-27760000D01*
G75*
G02*
X12540000Y-27620000I0J140000D01*
G01*
G37*
G36*
G01*
X11580000Y-27620000D02*
X11580000Y-27280000D01*
G75*
G02*
X11720000Y-27140000I140000J0D01*
G01*
X12000000Y-27140000D01*
G75*
G02*
X12140000Y-27280000I0J-140000D01*
G01*
X12140000Y-27620000D01*
G75*
G02*
X12000000Y-27760000I-140000J0D01*
G01*
X11720000Y-27760000D01*
G75*
G02*
X11580000Y-27620000I0J140000D01*
G01*
G37*
G04 #@! TD*
G04 #@! TO.C,C67*
G36*
G01*
X15830000Y-28100000D02*
X16170000Y-28100000D01*
G75*
G02*
X16310000Y-28240000I0J-140000D01*
G01*
X16310000Y-28520000D01*
G75*
G02*
X16170000Y-28660000I-140000J0D01*
G01*
X15830000Y-28660000D01*
G75*
G02*
X15690000Y-28520000I0J140000D01*
G01*
X15690000Y-28240000D01*
G75*
G02*
X15830000Y-28100000I140000J0D01*
G01*
G37*
G36*
G01*
X15830000Y-27140000D02*
X16170000Y-27140000D01*
G75*
G02*
X16310000Y-27280000I0J-140000D01*
G01*
X16310000Y-27560000D01*
G75*
G02*
X16170000Y-27700000I-140000J0D01*
G01*
X15830000Y-27700000D01*
G75*
G02*
X15690000Y-27560000I0J140000D01*
G01*
X15690000Y-27280000D01*
G75*
G02*
X15830000Y-27140000I140000J0D01*
G01*
G37*
G04 #@! TD*
G04 #@! TO.C,C62*
G36*
G01*
X8530000Y-24880000D02*
X8870000Y-24880000D01*
G75*
G02*
X9010000Y-25020000I0J-140000D01*
G01*
X9010000Y-25300000D01*
G75*
G02*
X8870000Y-25440000I-140000J0D01*
G01*
X8530000Y-25440000D01*
G75*
G02*
X8390000Y-25300000I0J140000D01*
G01*
X8390000Y-25020000D01*
G75*
G02*
X8530000Y-24880000I140000J0D01*
G01*
G37*
G36*
G01*
X8530000Y-23920000D02*
X8870000Y-23920000D01*
G75*
G02*
X9010000Y-24060000I0J-140000D01*
G01*
X9010000Y-24340000D01*
G75*
G02*
X8870000Y-24480000I-140000J0D01*
G01*
X8530000Y-24480000D01*
G75*
G02*
X8390000Y-24340000I0J140000D01*
G01*
X8390000Y-24060000D01*
G75*
G02*
X8530000Y-23920000I140000J0D01*
G01*
G37*
G04 #@! TD*
G04 #@! TO.C,C54*
G36*
G01*
X8870000Y-22600000D02*
X8530000Y-22600000D01*
G75*
G02*
X8390000Y-22460000I0J140000D01*
G01*
X8390000Y-22180000D01*
G75*
G02*
X8530000Y-22040000I140000J0D01*
G01*
X8870000Y-22040000D01*
G75*
G02*
X9010000Y-22180000I0J-140000D01*
G01*
X9010000Y-22460000D01*
G75*
G02*
X8870000Y-22600000I-140000J0D01*
G01*
G37*
G36*
G01*
X8870000Y-23560000D02*
X8530000Y-23560000D01*
G75*
G02*
X8390000Y-23420000I0J140000D01*
G01*
X8390000Y-23140000D01*
G75*
G02*
X8530000Y-23000000I140000J0D01*
G01*
X8870000Y-23000000D01*
G75*
G02*
X9010000Y-23140000I0J-140000D01*
G01*
X9010000Y-23420000D01*
G75*
G02*
X8870000Y-23560000I-140000J0D01*
G01*
G37*
G04 #@! TD*
G04 #@! TO.C,C33*
G36*
G01*
X8530000Y-18170000D02*
X8870000Y-18170000D01*
G75*
G02*
X9010000Y-18310000I0J-140000D01*
G01*
X9010000Y-18590000D01*
G75*
G02*
X8870000Y-18730000I-140000J0D01*
G01*
X8530000Y-18730000D01*
G75*
G02*
X8390000Y-18590000I0J140000D01*
G01*
X8390000Y-18310000D01*
G75*
G02*
X8530000Y-18170000I140000J0D01*
G01*
G37*
G36*
G01*
X8530000Y-19130000D02*
X8870000Y-19130000D01*
G75*
G02*
X9010000Y-19270000I0J-140000D01*
G01*
X9010000Y-19550000D01*
G75*
G02*
X8870000Y-19690000I-140000J0D01*
G01*
X8530000Y-19690000D01*
G75*
G02*
X8390000Y-19550000I0J140000D01*
G01*
X8390000Y-19270000D01*
G75*
G02*
X8530000Y-19130000I140000J0D01*
G01*
G37*
G04 #@! TD*
G04 #@! TO.C,C4*
G36*
G01*
X12400000Y-10380000D02*
X12400000Y-10720000D01*
G75*
G02*
X12260000Y-10860000I-140000J0D01*
G01*
X11980000Y-10860000D01*
G75*
G02*
X11840000Y-10720000I0J140000D01*
G01*
X11840000Y-10380000D01*
G75*
G02*
X11980000Y-10240000I140000J0D01*
G01*
X12260000Y-10240000D01*
G75*
G02*
X12400000Y-10380000I0J-140000D01*
G01*
G37*
G36*
G01*
X13360000Y-10380000D02*
X13360000Y-10720000D01*
G75*
G02*
X13220000Y-10860000I-140000J0D01*
G01*
X12940000Y-10860000D01*
G75*
G02*
X12800000Y-10720000I0J140000D01*
G01*
X12800000Y-10380000D01*
G75*
G02*
X12940000Y-10240000I140000J0D01*
G01*
X13220000Y-10240000D01*
G75*
G02*
X13360000Y-10380000I0J-140000D01*
G01*
G37*
G04 #@! TD*
G04 #@! TO.C,C3*
G36*
G01*
X12400000Y-11380000D02*
X12400000Y-11720000D01*
G75*
G02*
X12260000Y-11860000I-140000J0D01*
G01*
X11980000Y-11860000D01*
G75*
G02*
X11840000Y-11720000I0J140000D01*
G01*
X11840000Y-11380000D01*
G75*
G02*
X11980000Y-11240000I140000J0D01*
G01*
X12260000Y-11240000D01*
G75*
G02*
X12400000Y-11380000I0J-140000D01*
G01*
G37*
G36*
G01*
X13360000Y-11380000D02*
X13360000Y-11720000D01*
G75*
G02*
X13220000Y-11860000I-140000J0D01*
G01*
X12940000Y-11860000D01*
G75*
G02*
X12800000Y-11720000I0J140000D01*
G01*
X12800000Y-11380000D01*
G75*
G02*
X12940000Y-11240000I140000J0D01*
G01*
X13220000Y-11240000D01*
G75*
G02*
X13360000Y-11380000I0J-140000D01*
G01*
G37*
G04 #@! TD*
M02*
