G04 #@! TF.GenerationSoftware,KiCad,Pcbnew,8.0.4*
G04 #@! TF.CreationDate,2025-01-16T23:08:25-08:00*
G04 #@! TF.ProjectId,GMAX4002_MIPI_Breakout,474d4158-3430-4303-925f-4d4950495f42,rev?*
G04 #@! TF.SameCoordinates,Original*
G04 #@! TF.FileFunction,Paste,Top*
G04 #@! TF.FilePolarity,Positive*
%FSLAX46Y46*%
G04 Gerber Fmt 4.6, Leading zero omitted, Abs format (unit mm)*
G04 Created by KiCad (PCBNEW 8.0.4) date 2025-01-16 23:08:25*
%MOMM*%
%LPD*%
G01*
G04 APERTURE LIST*
%ADD10R,0.254000X1.168400*%
%ADD11R,0.850000X0.650000*%
%ADD12R,0.700000X0.300000*%
%ADD13R,0.600000X0.600000*%
%ADD14R,0.400000X0.400000*%
%ADD15R,2.200000X1.800000*%
%ADD16R,1.300000X0.300000*%
G04 APERTURE END LIST*
G04 #@! TO.C,C69*
G36*
G01*
X15860000Y-13380000D02*
X15860000Y-13720000D01*
G75*
G02*
X15720000Y-13860000I-140000J0D01*
G01*
X15440000Y-13860000D01*
G75*
G02*
X15300000Y-13720000I0J140000D01*
G01*
X15300000Y-13380000D01*
G75*
G02*
X15440000Y-13240000I140000J0D01*
G01*
X15720000Y-13240000D01*
G75*
G02*
X15860000Y-13380000I0J-140000D01*
G01*
G37*
G36*
G01*
X14900000Y-13380000D02*
X14900000Y-13720000D01*
G75*
G02*
X14760000Y-13860000I-140000J0D01*
G01*
X14480000Y-13860000D01*
G75*
G02*
X14340000Y-13720000I0J140000D01*
G01*
X14340000Y-13380000D01*
G75*
G02*
X14480000Y-13240000I140000J0D01*
G01*
X14760000Y-13240000D01*
G75*
G02*
X14900000Y-13380000I0J-140000D01*
G01*
G37*
G04 #@! TD*
D10*
G04 #@! TO.C,U7*
X27950001Y-9371600D03*
X27450000Y-9371600D03*
X26950000Y-9371600D03*
X26449999Y-9371600D03*
X26449999Y-6628400D03*
X26950000Y-6628400D03*
X27450000Y-6628400D03*
X27950001Y-6628400D03*
G04 #@! TD*
G04 #@! TO.C,J3*
G36*
G01*
X39475000Y-8700000D02*
X38225000Y-8700000D01*
G75*
G02*
X38075000Y-8550000I0J150000D01*
G01*
X38075000Y-8250000D01*
G75*
G02*
X38225000Y-8100000I150000J0D01*
G01*
X39475000Y-8100000D01*
G75*
G02*
X39625000Y-8250000I0J-150000D01*
G01*
X39625000Y-8550000D01*
G75*
G02*
X39475000Y-8700000I-150000J0D01*
G01*
G37*
G36*
G01*
X39475000Y-7700000D02*
X38225000Y-7700000D01*
G75*
G02*
X38075000Y-7550000I0J150000D01*
G01*
X38075000Y-7250000D01*
G75*
G02*
X38225000Y-7100000I150000J0D01*
G01*
X39475000Y-7100000D01*
G75*
G02*
X39625000Y-7250000I0J-150000D01*
G01*
X39625000Y-7550000D01*
G75*
G02*
X39475000Y-7700000I-150000J0D01*
G01*
G37*
G36*
G01*
X39475000Y-6700000D02*
X38225000Y-6700000D01*
G75*
G02*
X38075000Y-6550000I0J150000D01*
G01*
X38075000Y-6250000D01*
G75*
G02*
X38225000Y-6100000I150000J0D01*
G01*
X39475000Y-6100000D01*
G75*
G02*
X39625000Y-6250000I0J-150000D01*
G01*
X39625000Y-6550000D01*
G75*
G02*
X39475000Y-6700000I-150000J0D01*
G01*
G37*
G36*
G01*
X39475000Y-5700000D02*
X38225000Y-5700000D01*
G75*
G02*
X38075000Y-5550000I0J150000D01*
G01*
X38075000Y-5250000D01*
G75*
G02*
X38225000Y-5100000I150000J0D01*
G01*
X39475000Y-5100000D01*
G75*
G02*
X39625000Y-5250000I0J-150000D01*
G01*
X39625000Y-5550000D01*
G75*
G02*
X39475000Y-5700000I-150000J0D01*
G01*
G37*
G36*
G01*
X43375000Y-10300000D02*
X42075000Y-10300000D01*
G75*
G02*
X41825000Y-10050000I0J250000D01*
G01*
X41825000Y-9350000D01*
G75*
G02*
X42075000Y-9100000I250000J0D01*
G01*
X43375000Y-9100000D01*
G75*
G02*
X43625000Y-9350000I0J-250000D01*
G01*
X43625000Y-10050000D01*
G75*
G02*
X43375000Y-10300000I-250000J0D01*
G01*
G37*
G36*
G01*
X43375000Y-4700000D02*
X42075000Y-4700000D01*
G75*
G02*
X41825000Y-4450000I0J250000D01*
G01*
X41825000Y-3750000D01*
G75*
G02*
X42075000Y-3500000I250000J0D01*
G01*
X43375000Y-3500000D01*
G75*
G02*
X43625000Y-3750000I0J-250000D01*
G01*
X43625000Y-4450000D01*
G75*
G02*
X43375000Y-4700000I-250000J0D01*
G01*
G37*
G04 #@! TD*
G04 #@! TO.C,FB2*
G36*
G01*
X18225000Y-843750D02*
X18225000Y-1356250D01*
G75*
G02*
X18006250Y-1575000I-218750J0D01*
G01*
X17568750Y-1575000D01*
G75*
G02*
X17350000Y-1356250I0J218750D01*
G01*
X17350000Y-843750D01*
G75*
G02*
X17568750Y-625000I218750J0D01*
G01*
X18006250Y-625000D01*
G75*
G02*
X18225000Y-843750I0J-218750D01*
G01*
G37*
G36*
G01*
X16650000Y-843750D02*
X16650000Y-1356250D01*
G75*
G02*
X16431250Y-1575000I-218750J0D01*
G01*
X15993750Y-1575000D01*
G75*
G02*
X15775000Y-1356250I0J218750D01*
G01*
X15775000Y-843750D01*
G75*
G02*
X15993750Y-625000I218750J0D01*
G01*
X16431250Y-625000D01*
G75*
G02*
X16650000Y-843750I0J-218750D01*
G01*
G37*
G04 #@! TD*
G04 #@! TO.C,C104*
G36*
G01*
X15300000Y-11675000D02*
X15300000Y-10725000D01*
G75*
G02*
X15550000Y-10475000I250000J0D01*
G01*
X16050000Y-10475000D01*
G75*
G02*
X16300000Y-10725000I0J-250000D01*
G01*
X16300000Y-11675000D01*
G75*
G02*
X16050000Y-11925000I-250000J0D01*
G01*
X15550000Y-11925000D01*
G75*
G02*
X15300000Y-11675000I0J250000D01*
G01*
G37*
G36*
G01*
X13400000Y-11675000D02*
X13400000Y-10725000D01*
G75*
G02*
X13650000Y-10475000I250000J0D01*
G01*
X14150000Y-10475000D01*
G75*
G02*
X14400000Y-10725000I0J-250000D01*
G01*
X14400000Y-11675000D01*
G75*
G02*
X14150000Y-11925000I-250000J0D01*
G01*
X13650000Y-11925000D01*
G75*
G02*
X13400000Y-11675000I0J250000D01*
G01*
G37*
G04 #@! TD*
G04 #@! TO.C,C103*
G36*
G01*
X15300000Y-9625000D02*
X15300000Y-8675000D01*
G75*
G02*
X15550000Y-8425000I250000J0D01*
G01*
X16050000Y-8425000D01*
G75*
G02*
X16300000Y-8675000I0J-250000D01*
G01*
X16300000Y-9625000D01*
G75*
G02*
X16050000Y-9875000I-250000J0D01*
G01*
X15550000Y-9875000D01*
G75*
G02*
X15300000Y-9625000I0J250000D01*
G01*
G37*
G36*
G01*
X13400000Y-9625000D02*
X13400000Y-8675000D01*
G75*
G02*
X13650000Y-8425000I250000J0D01*
G01*
X14150000Y-8425000D01*
G75*
G02*
X14400000Y-8675000I0J-250000D01*
G01*
X14400000Y-9625000D01*
G75*
G02*
X14150000Y-9875000I-250000J0D01*
G01*
X13650000Y-9875000D01*
G75*
G02*
X13400000Y-9625000I0J250000D01*
G01*
G37*
G04 #@! TD*
G04 #@! TO.C,C102*
G36*
G01*
X9500000Y-10635000D02*
X9500000Y-11585000D01*
G75*
G02*
X9250000Y-11835000I-250000J0D01*
G01*
X8750000Y-11835000D01*
G75*
G02*
X8500000Y-11585000I0J250000D01*
G01*
X8500000Y-10635000D01*
G75*
G02*
X8750000Y-10385000I250000J0D01*
G01*
X9250000Y-10385000D01*
G75*
G02*
X9500000Y-10635000I0J-250000D01*
G01*
G37*
G36*
G01*
X11400000Y-10635000D02*
X11400000Y-11585000D01*
G75*
G02*
X11150000Y-11835000I-250000J0D01*
G01*
X10650000Y-11835000D01*
G75*
G02*
X10400000Y-11585000I0J250000D01*
G01*
X10400000Y-10635000D01*
G75*
G02*
X10650000Y-10385000I250000J0D01*
G01*
X11150000Y-10385000D01*
G75*
G02*
X11400000Y-10635000I0J-250000D01*
G01*
G37*
G04 #@! TD*
G04 #@! TO.C,C101*
G36*
G01*
X9500000Y-12675000D02*
X9500000Y-13625000D01*
G75*
G02*
X9250000Y-13875000I-250000J0D01*
G01*
X8750000Y-13875000D01*
G75*
G02*
X8500000Y-13625000I0J250000D01*
G01*
X8500000Y-12675000D01*
G75*
G02*
X8750000Y-12425000I250000J0D01*
G01*
X9250000Y-12425000D01*
G75*
G02*
X9500000Y-12675000I0J-250000D01*
G01*
G37*
G36*
G01*
X11400000Y-12675000D02*
X11400000Y-13625000D01*
G75*
G02*
X11150000Y-13875000I-250000J0D01*
G01*
X10650000Y-13875000D01*
G75*
G02*
X10400000Y-13625000I0J250000D01*
G01*
X10400000Y-12675000D01*
G75*
G02*
X10650000Y-12425000I250000J0D01*
G01*
X11150000Y-12425000D01*
G75*
G02*
X11400000Y-12675000I0J-250000D01*
G01*
G37*
G04 #@! TD*
G04 #@! TO.C,C100*
G36*
G01*
X14050000Y-25080000D02*
X14050000Y-25420000D01*
G75*
G02*
X13910000Y-25560000I-140000J0D01*
G01*
X13630000Y-25560000D01*
G75*
G02*
X13490000Y-25420000I0J140000D01*
G01*
X13490000Y-25080000D01*
G75*
G02*
X13630000Y-24940000I140000J0D01*
G01*
X13910000Y-24940000D01*
G75*
G02*
X14050000Y-25080000I0J-140000D01*
G01*
G37*
G36*
G01*
X15010000Y-25080000D02*
X15010000Y-25420000D01*
G75*
G02*
X14870000Y-25560000I-140000J0D01*
G01*
X14590000Y-25560000D01*
G75*
G02*
X14450000Y-25420000I0J140000D01*
G01*
X14450000Y-25080000D01*
G75*
G02*
X14590000Y-24940000I140000J0D01*
G01*
X14870000Y-24940000D01*
G75*
G02*
X15010000Y-25080000I0J-140000D01*
G01*
G37*
G04 #@! TD*
G04 #@! TO.C,C99*
G36*
G01*
X14050000Y-26050000D02*
X14050000Y-26390000D01*
G75*
G02*
X13910000Y-26530000I-140000J0D01*
G01*
X13630000Y-26530000D01*
G75*
G02*
X13490000Y-26390000I0J140000D01*
G01*
X13490000Y-26050000D01*
G75*
G02*
X13630000Y-25910000I140000J0D01*
G01*
X13910000Y-25910000D01*
G75*
G02*
X14050000Y-26050000I0J-140000D01*
G01*
G37*
G36*
G01*
X15010000Y-26050000D02*
X15010000Y-26390000D01*
G75*
G02*
X14870000Y-26530000I-140000J0D01*
G01*
X14590000Y-26530000D01*
G75*
G02*
X14450000Y-26390000I0J140000D01*
G01*
X14450000Y-26050000D01*
G75*
G02*
X14590000Y-25910000I140000J0D01*
G01*
X14870000Y-25910000D01*
G75*
G02*
X15010000Y-26050000I0J-140000D01*
G01*
G37*
G04 #@! TD*
G04 #@! TO.C,C94*
G36*
G01*
X22090000Y-13920000D02*
X22090000Y-13580000D01*
G75*
G02*
X22230000Y-13440000I140000J0D01*
G01*
X22510000Y-13440000D01*
G75*
G02*
X22650000Y-13580000I0J-140000D01*
G01*
X22650000Y-13920000D01*
G75*
G02*
X22510000Y-14060000I-140000J0D01*
G01*
X22230000Y-14060000D01*
G75*
G02*
X22090000Y-13920000I0J140000D01*
G01*
G37*
G36*
G01*
X23050000Y-13920000D02*
X23050000Y-13580000D01*
G75*
G02*
X23190000Y-13440000I140000J0D01*
G01*
X23470000Y-13440000D01*
G75*
G02*
X23610000Y-13580000I0J-140000D01*
G01*
X23610000Y-13920000D01*
G75*
G02*
X23470000Y-14060000I-140000J0D01*
G01*
X23190000Y-14060000D01*
G75*
G02*
X23050000Y-13920000I0J140000D01*
G01*
G37*
G04 #@! TD*
G04 #@! TO.C,C93*
G36*
G01*
X22090000Y-12930000D02*
X22090000Y-12590000D01*
G75*
G02*
X22230000Y-12450000I140000J0D01*
G01*
X22510000Y-12450000D01*
G75*
G02*
X22650000Y-12590000I0J-140000D01*
G01*
X22650000Y-12930000D01*
G75*
G02*
X22510000Y-13070000I-140000J0D01*
G01*
X22230000Y-13070000D01*
G75*
G02*
X22090000Y-12930000I0J140000D01*
G01*
G37*
G36*
G01*
X23050000Y-12930000D02*
X23050000Y-12590000D01*
G75*
G02*
X23190000Y-12450000I140000J0D01*
G01*
X23470000Y-12450000D01*
G75*
G02*
X23610000Y-12590000I0J-140000D01*
G01*
X23610000Y-12930000D01*
G75*
G02*
X23470000Y-13070000I-140000J0D01*
G01*
X23190000Y-13070000D01*
G75*
G02*
X23050000Y-12930000I0J140000D01*
G01*
G37*
G04 #@! TD*
G04 #@! TO.C,C65*
G36*
G01*
X9930000Y-23330000D02*
X10270000Y-23330000D01*
G75*
G02*
X10410000Y-23470000I0J-140000D01*
G01*
X10410000Y-23750000D01*
G75*
G02*
X10270000Y-23890000I-140000J0D01*
G01*
X9930000Y-23890000D01*
G75*
G02*
X9790000Y-23750000I0J140000D01*
G01*
X9790000Y-23470000D01*
G75*
G02*
X9930000Y-23330000I140000J0D01*
G01*
G37*
G36*
G01*
X9930000Y-22370000D02*
X10270000Y-22370000D01*
G75*
G02*
X10410000Y-22510000I0J-140000D01*
G01*
X10410000Y-22790000D01*
G75*
G02*
X10270000Y-22930000I-140000J0D01*
G01*
X9930000Y-22930000D01*
G75*
G02*
X9790000Y-22790000I0J140000D01*
G01*
X9790000Y-22510000D01*
G75*
G02*
X9930000Y-22370000I140000J0D01*
G01*
G37*
G04 #@! TD*
G04 #@! TO.C,C57*
G36*
G01*
X8930000Y-23330000D02*
X9270000Y-23330000D01*
G75*
G02*
X9410000Y-23470000I0J-140000D01*
G01*
X9410000Y-23750000D01*
G75*
G02*
X9270000Y-23890000I-140000J0D01*
G01*
X8930000Y-23890000D01*
G75*
G02*
X8790000Y-23750000I0J140000D01*
G01*
X8790000Y-23470000D01*
G75*
G02*
X8930000Y-23330000I140000J0D01*
G01*
G37*
G36*
G01*
X8930000Y-22370000D02*
X9270000Y-22370000D01*
G75*
G02*
X9410000Y-22510000I0J-140000D01*
G01*
X9410000Y-22790000D01*
G75*
G02*
X9270000Y-22930000I-140000J0D01*
G01*
X8930000Y-22930000D01*
G75*
G02*
X8790000Y-22790000I0J140000D01*
G01*
X8790000Y-22510000D01*
G75*
G02*
X8930000Y-22370000I140000J0D01*
G01*
G37*
G04 #@! TD*
G04 #@! TO.C,C64*
G36*
G01*
X8270000Y-15930000D02*
X7930000Y-15930000D01*
G75*
G02*
X7790000Y-15790000I0J140000D01*
G01*
X7790000Y-15510000D01*
G75*
G02*
X7930000Y-15370000I140000J0D01*
G01*
X8270000Y-15370000D01*
G75*
G02*
X8410000Y-15510000I0J-140000D01*
G01*
X8410000Y-15790000D01*
G75*
G02*
X8270000Y-15930000I-140000J0D01*
G01*
G37*
G36*
G01*
X8270000Y-14970000D02*
X7930000Y-14970000D01*
G75*
G02*
X7790000Y-14830000I0J140000D01*
G01*
X7790000Y-14550000D01*
G75*
G02*
X7930000Y-14410000I140000J0D01*
G01*
X8270000Y-14410000D01*
G75*
G02*
X8410000Y-14550000I0J-140000D01*
G01*
X8410000Y-14830000D01*
G75*
G02*
X8270000Y-14970000I-140000J0D01*
G01*
G37*
G04 #@! TD*
G04 #@! TO.C,C63*
G36*
G01*
X14860000Y-16370000D02*
X14520000Y-16370000D01*
G75*
G02*
X14380000Y-16230000I0J140000D01*
G01*
X14380000Y-15950000D01*
G75*
G02*
X14520000Y-15810000I140000J0D01*
G01*
X14860000Y-15810000D01*
G75*
G02*
X15000000Y-15950000I0J-140000D01*
G01*
X15000000Y-16230000D01*
G75*
G02*
X14860000Y-16370000I-140000J0D01*
G01*
G37*
G36*
G01*
X14860000Y-17330000D02*
X14520000Y-17330000D01*
G75*
G02*
X14380000Y-17190000I0J140000D01*
G01*
X14380000Y-16910000D01*
G75*
G02*
X14520000Y-16770000I140000J0D01*
G01*
X14860000Y-16770000D01*
G75*
G02*
X15000000Y-16910000I0J-140000D01*
G01*
X15000000Y-17190000D01*
G75*
G02*
X14860000Y-17330000I-140000J0D01*
G01*
G37*
G04 #@! TD*
G04 #@! TO.C,C56*
G36*
G01*
X10270000Y-15930000D02*
X9930000Y-15930000D01*
G75*
G02*
X9790000Y-15790000I0J140000D01*
G01*
X9790000Y-15510000D01*
G75*
G02*
X9930000Y-15370000I140000J0D01*
G01*
X10270000Y-15370000D01*
G75*
G02*
X10410000Y-15510000I0J-140000D01*
G01*
X10410000Y-15790000D01*
G75*
G02*
X10270000Y-15930000I-140000J0D01*
G01*
G37*
G36*
G01*
X10270000Y-14970000D02*
X9930000Y-14970000D01*
G75*
G02*
X9790000Y-14830000I0J140000D01*
G01*
X9790000Y-14550000D01*
G75*
G02*
X9930000Y-14410000I140000J0D01*
G01*
X10270000Y-14410000D01*
G75*
G02*
X10410000Y-14550000I0J-140000D01*
G01*
X10410000Y-14830000D01*
G75*
G02*
X10270000Y-14970000I-140000J0D01*
G01*
G37*
G04 #@! TD*
G04 #@! TO.C,C55*
G36*
G01*
X15860000Y-16370000D02*
X15520000Y-16370000D01*
G75*
G02*
X15380000Y-16230000I0J140000D01*
G01*
X15380000Y-15950000D01*
G75*
G02*
X15520000Y-15810000I140000J0D01*
G01*
X15860000Y-15810000D01*
G75*
G02*
X16000000Y-15950000I0J-140000D01*
G01*
X16000000Y-16230000D01*
G75*
G02*
X15860000Y-16370000I-140000J0D01*
G01*
G37*
G36*
G01*
X15860000Y-17330000D02*
X15520000Y-17330000D01*
G75*
G02*
X15380000Y-17190000I0J140000D01*
G01*
X15380000Y-16910000D01*
G75*
G02*
X15520000Y-16770000I140000J0D01*
G01*
X15860000Y-16770000D01*
G75*
G02*
X16000000Y-16910000I0J-140000D01*
G01*
X16000000Y-17190000D01*
G75*
G02*
X15860000Y-17330000I-140000J0D01*
G01*
G37*
G04 #@! TD*
G04 #@! TO.C,C50*
G36*
G01*
X13860000Y-21310000D02*
X13520000Y-21310000D01*
G75*
G02*
X13380000Y-21170000I0J140000D01*
G01*
X13380000Y-20890000D01*
G75*
G02*
X13520000Y-20750000I140000J0D01*
G01*
X13860000Y-20750000D01*
G75*
G02*
X14000000Y-20890000I0J-140000D01*
G01*
X14000000Y-21170000D01*
G75*
G02*
X13860000Y-21310000I-140000J0D01*
G01*
G37*
G36*
G01*
X13860000Y-20350000D02*
X13520000Y-20350000D01*
G75*
G02*
X13380000Y-20210000I0J140000D01*
G01*
X13380000Y-19930000D01*
G75*
G02*
X13520000Y-19790000I140000J0D01*
G01*
X13860000Y-19790000D01*
G75*
G02*
X14000000Y-19930000I0J-140000D01*
G01*
X14000000Y-20210000D01*
G75*
G02*
X13860000Y-20350000I-140000J0D01*
G01*
G37*
G04 #@! TD*
G04 #@! TO.C,C49*
G36*
G01*
X15860000Y-18470000D02*
X15520000Y-18470000D01*
G75*
G02*
X15380000Y-18330000I0J140000D01*
G01*
X15380000Y-18050000D01*
G75*
G02*
X15520000Y-17910000I140000J0D01*
G01*
X15860000Y-17910000D01*
G75*
G02*
X16000000Y-18050000I0J-140000D01*
G01*
X16000000Y-18330000D01*
G75*
G02*
X15860000Y-18470000I-140000J0D01*
G01*
G37*
G36*
G01*
X15860000Y-19430000D02*
X15520000Y-19430000D01*
G75*
G02*
X15380000Y-19290000I0J140000D01*
G01*
X15380000Y-19010000D01*
G75*
G02*
X15520000Y-18870000I140000J0D01*
G01*
X15860000Y-18870000D01*
G75*
G02*
X16000000Y-19010000I0J-140000D01*
G01*
X16000000Y-19290000D01*
G75*
G02*
X15860000Y-19430000I-140000J0D01*
G01*
G37*
G04 #@! TD*
G04 #@! TO.C,C46*
G36*
G01*
X12860000Y-21310000D02*
X12520000Y-21310000D01*
G75*
G02*
X12380000Y-21170000I0J140000D01*
G01*
X12380000Y-20890000D01*
G75*
G02*
X12520000Y-20750000I140000J0D01*
G01*
X12860000Y-20750000D01*
G75*
G02*
X13000000Y-20890000I0J-140000D01*
G01*
X13000000Y-21170000D01*
G75*
G02*
X12860000Y-21310000I-140000J0D01*
G01*
G37*
G36*
G01*
X12860000Y-20350000D02*
X12520000Y-20350000D01*
G75*
G02*
X12380000Y-20210000I0J140000D01*
G01*
X12380000Y-19930000D01*
G75*
G02*
X12520000Y-19790000I140000J0D01*
G01*
X12860000Y-19790000D01*
G75*
G02*
X13000000Y-19930000I0J-140000D01*
G01*
X13000000Y-20210000D01*
G75*
G02*
X12860000Y-20350000I-140000J0D01*
G01*
G37*
G04 #@! TD*
G04 #@! TO.C,C45*
G36*
G01*
X14860000Y-18470000D02*
X14520000Y-18470000D01*
G75*
G02*
X14380000Y-18330000I0J140000D01*
G01*
X14380000Y-18050000D01*
G75*
G02*
X14520000Y-17910000I140000J0D01*
G01*
X14860000Y-17910000D01*
G75*
G02*
X15000000Y-18050000I0J-140000D01*
G01*
X15000000Y-18330000D01*
G75*
G02*
X14860000Y-18470000I-140000J0D01*
G01*
G37*
G36*
G01*
X14860000Y-19430000D02*
X14520000Y-19430000D01*
G75*
G02*
X14380000Y-19290000I0J140000D01*
G01*
X14380000Y-19010000D01*
G75*
G02*
X14520000Y-18870000I140000J0D01*
G01*
X14860000Y-18870000D01*
G75*
G02*
X15000000Y-19010000I0J-140000D01*
G01*
X15000000Y-19290000D01*
G75*
G02*
X14860000Y-19430000I-140000J0D01*
G01*
G37*
G04 #@! TD*
G04 #@! TO.C,C42*
G36*
G01*
X6920000Y-20270000D02*
X7260000Y-20270000D01*
G75*
G02*
X7400000Y-20410000I0J-140000D01*
G01*
X7400000Y-20690000D01*
G75*
G02*
X7260000Y-20830000I-140000J0D01*
G01*
X6920000Y-20830000D01*
G75*
G02*
X6780000Y-20690000I0J140000D01*
G01*
X6780000Y-20410000D01*
G75*
G02*
X6920000Y-20270000I140000J0D01*
G01*
G37*
G36*
G01*
X6920000Y-21230000D02*
X7260000Y-21230000D01*
G75*
G02*
X7400000Y-21370000I0J-140000D01*
G01*
X7400000Y-21650000D01*
G75*
G02*
X7260000Y-21790000I-140000J0D01*
G01*
X6920000Y-21790000D01*
G75*
G02*
X6780000Y-21650000I0J140000D01*
G01*
X6780000Y-21370000D01*
G75*
G02*
X6920000Y-21230000I140000J0D01*
G01*
G37*
G04 #@! TD*
G04 #@! TO.C,C41*
G36*
G01*
X12520000Y-22630000D02*
X12860000Y-22630000D01*
G75*
G02*
X13000000Y-22770000I0J-140000D01*
G01*
X13000000Y-23050000D01*
G75*
G02*
X12860000Y-23190000I-140000J0D01*
G01*
X12520000Y-23190000D01*
G75*
G02*
X12380000Y-23050000I0J140000D01*
G01*
X12380000Y-22770000D01*
G75*
G02*
X12520000Y-22630000I140000J0D01*
G01*
G37*
G36*
G01*
X12520000Y-21670000D02*
X12860000Y-21670000D01*
G75*
G02*
X13000000Y-21810000I0J-140000D01*
G01*
X13000000Y-22090000D01*
G75*
G02*
X12860000Y-22230000I-140000J0D01*
G01*
X12520000Y-22230000D01*
G75*
G02*
X12380000Y-22090000I0J140000D01*
G01*
X12380000Y-21810000D01*
G75*
G02*
X12520000Y-21670000I140000J0D01*
G01*
G37*
G04 #@! TD*
G04 #@! TO.C,C38*
G36*
G01*
X8920000Y-20270000D02*
X9260000Y-20270000D01*
G75*
G02*
X9400000Y-20410000I0J-140000D01*
G01*
X9400000Y-20690000D01*
G75*
G02*
X9260000Y-20830000I-140000J0D01*
G01*
X8920000Y-20830000D01*
G75*
G02*
X8780000Y-20690000I0J140000D01*
G01*
X8780000Y-20410000D01*
G75*
G02*
X8920000Y-20270000I140000J0D01*
G01*
G37*
G36*
G01*
X8920000Y-21230000D02*
X9260000Y-21230000D01*
G75*
G02*
X9400000Y-21370000I0J-140000D01*
G01*
X9400000Y-21650000D01*
G75*
G02*
X9260000Y-21790000I-140000J0D01*
G01*
X8920000Y-21790000D01*
G75*
G02*
X8780000Y-21650000I0J140000D01*
G01*
X8780000Y-21370000D01*
G75*
G02*
X8920000Y-21230000I140000J0D01*
G01*
G37*
G04 #@! TD*
G04 #@! TO.C,C37*
G36*
G01*
X15520000Y-22630000D02*
X15860000Y-22630000D01*
G75*
G02*
X16000000Y-22770000I0J-140000D01*
G01*
X16000000Y-23050000D01*
G75*
G02*
X15860000Y-23190000I-140000J0D01*
G01*
X15520000Y-23190000D01*
G75*
G02*
X15380000Y-23050000I0J140000D01*
G01*
X15380000Y-22770000D01*
G75*
G02*
X15520000Y-22630000I140000J0D01*
G01*
G37*
G36*
G01*
X15520000Y-21670000D02*
X15860000Y-21670000D01*
G75*
G02*
X16000000Y-21810000I0J-140000D01*
G01*
X16000000Y-22090000D01*
G75*
G02*
X15860000Y-22230000I-140000J0D01*
G01*
X15520000Y-22230000D01*
G75*
G02*
X15380000Y-22090000I0J140000D01*
G01*
X15380000Y-21810000D01*
G75*
G02*
X15520000Y-21670000I140000J0D01*
G01*
G37*
G04 #@! TD*
G04 #@! TO.C,C32*
G36*
G01*
X8530000Y-19330000D02*
X8870000Y-19330000D01*
G75*
G02*
X9010000Y-19470000I0J-140000D01*
G01*
X9010000Y-19750000D01*
G75*
G02*
X8870000Y-19890000I-140000J0D01*
G01*
X8530000Y-19890000D01*
G75*
G02*
X8390000Y-19750000I0J140000D01*
G01*
X8390000Y-19470000D01*
G75*
G02*
X8530000Y-19330000I140000J0D01*
G01*
G37*
G36*
G01*
X8530000Y-18370000D02*
X8870000Y-18370000D01*
G75*
G02*
X9010000Y-18510000I0J-140000D01*
G01*
X9010000Y-18790000D01*
G75*
G02*
X8870000Y-18930000I-140000J0D01*
G01*
X8530000Y-18930000D01*
G75*
G02*
X8390000Y-18790000I0J140000D01*
G01*
X8390000Y-18510000D01*
G75*
G02*
X8530000Y-18370000I140000J0D01*
G01*
G37*
G04 #@! TD*
G04 #@! TO.C,C30*
G36*
G01*
X9270000Y-17070000D02*
X8930000Y-17070000D01*
G75*
G02*
X8790000Y-16930000I0J140000D01*
G01*
X8790000Y-16650000D01*
G75*
G02*
X8930000Y-16510000I140000J0D01*
G01*
X9270000Y-16510000D01*
G75*
G02*
X9410000Y-16650000I0J-140000D01*
G01*
X9410000Y-16930000D01*
G75*
G02*
X9270000Y-17070000I-140000J0D01*
G01*
G37*
G36*
G01*
X9270000Y-18030000D02*
X8930000Y-18030000D01*
G75*
G02*
X8790000Y-17890000I0J140000D01*
G01*
X8790000Y-17610000D01*
G75*
G02*
X8930000Y-17470000I140000J0D01*
G01*
X9270000Y-17470000D01*
G75*
G02*
X9410000Y-17610000I0J-140000D01*
G01*
X9410000Y-17890000D01*
G75*
G02*
X9270000Y-18030000I-140000J0D01*
G01*
G37*
G04 #@! TD*
G04 #@! TO.C,C29*
G36*
G01*
X10270000Y-17070000D02*
X9930000Y-17070000D01*
G75*
G02*
X9790000Y-16930000I0J140000D01*
G01*
X9790000Y-16650000D01*
G75*
G02*
X9930000Y-16510000I140000J0D01*
G01*
X10270000Y-16510000D01*
G75*
G02*
X10410000Y-16650000I0J-140000D01*
G01*
X10410000Y-16930000D01*
G75*
G02*
X10270000Y-17070000I-140000J0D01*
G01*
G37*
G36*
G01*
X10270000Y-18030000D02*
X9930000Y-18030000D01*
G75*
G02*
X9790000Y-17890000I0J140000D01*
G01*
X9790000Y-17610000D01*
G75*
G02*
X9930000Y-17470000I140000J0D01*
G01*
X10270000Y-17470000D01*
G75*
G02*
X10410000Y-17610000I0J-140000D01*
G01*
X10410000Y-17890000D01*
G75*
G02*
X10270000Y-18030000I-140000J0D01*
G01*
G37*
G04 #@! TD*
D11*
G04 #@! TO.C,U8*
X20075000Y-9325000D03*
X20075000Y-10975000D03*
X18525000Y-10975000D03*
X18525000Y-9325000D03*
G04 #@! TD*
G04 #@! TO.C,U6*
G36*
G01*
X17650000Y-3662500D02*
X17950000Y-3662500D01*
G75*
G02*
X18100000Y-3812500I0J-150000D01*
G01*
X18100000Y-4837500D01*
G75*
G02*
X17950000Y-4987500I-150000J0D01*
G01*
X17650000Y-4987500D01*
G75*
G02*
X17500000Y-4837500I0J150000D01*
G01*
X17500000Y-3812500D01*
G75*
G02*
X17650000Y-3662500I150000J0D01*
G01*
G37*
G36*
G01*
X16700000Y-3662500D02*
X17000000Y-3662500D01*
G75*
G02*
X17150000Y-3812500I0J-150000D01*
G01*
X17150000Y-4837500D01*
G75*
G02*
X17000000Y-4987500I-150000J0D01*
G01*
X16700000Y-4987500D01*
G75*
G02*
X16550000Y-4837500I0J150000D01*
G01*
X16550000Y-3812500D01*
G75*
G02*
X16700000Y-3662500I150000J0D01*
G01*
G37*
G36*
G01*
X15750000Y-3662500D02*
X16050000Y-3662500D01*
G75*
G02*
X16200000Y-3812500I0J-150000D01*
G01*
X16200000Y-4837500D01*
G75*
G02*
X16050000Y-4987500I-150000J0D01*
G01*
X15750000Y-4987500D01*
G75*
G02*
X15600000Y-4837500I0J150000D01*
G01*
X15600000Y-3812500D01*
G75*
G02*
X15750000Y-3662500I150000J0D01*
G01*
G37*
G36*
G01*
X15750000Y-5937500D02*
X16050000Y-5937500D01*
G75*
G02*
X16200000Y-6087500I0J-150000D01*
G01*
X16200000Y-7112500D01*
G75*
G02*
X16050000Y-7262500I-150000J0D01*
G01*
X15750000Y-7262500D01*
G75*
G02*
X15600000Y-7112500I0J150000D01*
G01*
X15600000Y-6087500D01*
G75*
G02*
X15750000Y-5937500I150000J0D01*
G01*
G37*
G36*
G01*
X17650000Y-5937500D02*
X17950000Y-5937500D01*
G75*
G02*
X18100000Y-6087500I0J-150000D01*
G01*
X18100000Y-7112500D01*
G75*
G02*
X17950000Y-7262500I-150000J0D01*
G01*
X17650000Y-7262500D01*
G75*
G02*
X17500000Y-7112500I0J150000D01*
G01*
X17500000Y-6087500D01*
G75*
G02*
X17650000Y-5937500I150000J0D01*
G01*
G37*
G04 #@! TD*
G04 #@! TO.C,U5*
G36*
G01*
X13737500Y-32800000D02*
X13862500Y-32800000D01*
G75*
G02*
X13925000Y-32862500I0J-62500D01*
G01*
X13925000Y-33562500D01*
G75*
G02*
X13862500Y-33625000I-62500J0D01*
G01*
X13737500Y-33625000D01*
G75*
G02*
X13675000Y-33562500I0J62500D01*
G01*
X13675000Y-32862500D01*
G75*
G02*
X13737500Y-32800000I62500J0D01*
G01*
G37*
G36*
G01*
X13237500Y-32800000D02*
X13362500Y-32800000D01*
G75*
G02*
X13425000Y-32862500I0J-62500D01*
G01*
X13425000Y-33562500D01*
G75*
G02*
X13362500Y-33625000I-62500J0D01*
G01*
X13237500Y-33625000D01*
G75*
G02*
X13175000Y-33562500I0J62500D01*
G01*
X13175000Y-32862500D01*
G75*
G02*
X13237500Y-32800000I62500J0D01*
G01*
G37*
G36*
G01*
X12737500Y-32800000D02*
X12862500Y-32800000D01*
G75*
G02*
X12925000Y-32862500I0J-62500D01*
G01*
X12925000Y-33562500D01*
G75*
G02*
X12862500Y-33625000I-62500J0D01*
G01*
X12737500Y-33625000D01*
G75*
G02*
X12675000Y-33562500I0J62500D01*
G01*
X12675000Y-32862500D01*
G75*
G02*
X12737500Y-32800000I62500J0D01*
G01*
G37*
G36*
G01*
X12237500Y-32800000D02*
X12362500Y-32800000D01*
G75*
G02*
X12425000Y-32862500I0J-62500D01*
G01*
X12425000Y-33562500D01*
G75*
G02*
X12362500Y-33625000I-62500J0D01*
G01*
X12237500Y-33625000D01*
G75*
G02*
X12175000Y-33562500I0J62500D01*
G01*
X12175000Y-32862500D01*
G75*
G02*
X12237500Y-32800000I62500J0D01*
G01*
G37*
G36*
G01*
X11737500Y-32800000D02*
X11862500Y-32800000D01*
G75*
G02*
X11925000Y-32862500I0J-62500D01*
G01*
X11925000Y-33562500D01*
G75*
G02*
X11862500Y-33625000I-62500J0D01*
G01*
X11737500Y-33625000D01*
G75*
G02*
X11675000Y-33562500I0J62500D01*
G01*
X11675000Y-32862500D01*
G75*
G02*
X11737500Y-32800000I62500J0D01*
G01*
G37*
G36*
G01*
X11737500Y-30375000D02*
X11862500Y-30375000D01*
G75*
G02*
X11925000Y-30437500I0J-62500D01*
G01*
X11925000Y-31137500D01*
G75*
G02*
X11862500Y-31200000I-62500J0D01*
G01*
X11737500Y-31200000D01*
G75*
G02*
X11675000Y-31137500I0J62500D01*
G01*
X11675000Y-30437500D01*
G75*
G02*
X11737500Y-30375000I62500J0D01*
G01*
G37*
G36*
G01*
X12237500Y-30375000D02*
X12362500Y-30375000D01*
G75*
G02*
X12425000Y-30437500I0J-62500D01*
G01*
X12425000Y-31137500D01*
G75*
G02*
X12362500Y-31200000I-62500J0D01*
G01*
X12237500Y-31200000D01*
G75*
G02*
X12175000Y-31137500I0J62500D01*
G01*
X12175000Y-30437500D01*
G75*
G02*
X12237500Y-30375000I62500J0D01*
G01*
G37*
G36*
G01*
X12737500Y-30375000D02*
X12862500Y-30375000D01*
G75*
G02*
X12925000Y-30437500I0J-62500D01*
G01*
X12925000Y-31137500D01*
G75*
G02*
X12862500Y-31200000I-62500J0D01*
G01*
X12737500Y-31200000D01*
G75*
G02*
X12675000Y-31137500I0J62500D01*
G01*
X12675000Y-30437500D01*
G75*
G02*
X12737500Y-30375000I62500J0D01*
G01*
G37*
G36*
G01*
X13237500Y-30375000D02*
X13362500Y-30375000D01*
G75*
G02*
X13425000Y-30437500I0J-62500D01*
G01*
X13425000Y-31137500D01*
G75*
G02*
X13362500Y-31200000I-62500J0D01*
G01*
X13237500Y-31200000D01*
G75*
G02*
X13175000Y-31137500I0J62500D01*
G01*
X13175000Y-30437500D01*
G75*
G02*
X13237500Y-30375000I62500J0D01*
G01*
G37*
G36*
G01*
X13737500Y-30375000D02*
X13862500Y-30375000D01*
G75*
G02*
X13925000Y-30437500I0J-62500D01*
G01*
X13925000Y-31137500D01*
G75*
G02*
X13862500Y-31200000I-62500J0D01*
G01*
X13737500Y-31200000D01*
G75*
G02*
X13675000Y-31137500I0J62500D01*
G01*
X13675000Y-30437500D01*
G75*
G02*
X13737500Y-30375000I62500J0D01*
G01*
G37*
G36*
G01*
X12015000Y-32060000D02*
X12585000Y-32060000D01*
G75*
G02*
X12705000Y-32180000I0J-120000D01*
G01*
X12705000Y-32420000D01*
G75*
G02*
X12585000Y-32540000I-120000J0D01*
G01*
X12015000Y-32540000D01*
G75*
G02*
X11895000Y-32420000I0J120000D01*
G01*
X11895000Y-32180000D01*
G75*
G02*
X12015000Y-32060000I120000J0D01*
G01*
G37*
G36*
G01*
X13015000Y-32060000D02*
X13585000Y-32060000D01*
G75*
G02*
X13705000Y-32180000I0J-120000D01*
G01*
X13705000Y-32420000D01*
G75*
G02*
X13585000Y-32540000I-120000J0D01*
G01*
X13015000Y-32540000D01*
G75*
G02*
X12895000Y-32420000I0J120000D01*
G01*
X12895000Y-32180000D01*
G75*
G02*
X13015000Y-32060000I120000J0D01*
G01*
G37*
G36*
G01*
X12015000Y-31460000D02*
X12585000Y-31460000D01*
G75*
G02*
X12705000Y-31580000I0J-120000D01*
G01*
X12705000Y-31820000D01*
G75*
G02*
X12585000Y-31940000I-120000J0D01*
G01*
X12015000Y-31940000D01*
G75*
G02*
X11895000Y-31820000I0J120000D01*
G01*
X11895000Y-31580000D01*
G75*
G02*
X12015000Y-31460000I120000J0D01*
G01*
G37*
G36*
G01*
X13015000Y-31460000D02*
X13585000Y-31460000D01*
G75*
G02*
X13705000Y-31580000I0J-120000D01*
G01*
X13705000Y-31820000D01*
G75*
G02*
X13585000Y-31940000I-120000J0D01*
G01*
X13015000Y-31940000D01*
G75*
G02*
X12895000Y-31820000I0J120000D01*
G01*
X12895000Y-31580000D01*
G75*
G02*
X13015000Y-31460000I120000J0D01*
G01*
G37*
G04 #@! TD*
G04 #@! TO.C,U4*
G36*
G01*
X24862500Y-33425000D02*
X25162500Y-33425000D01*
G75*
G02*
X25312500Y-33575000I0J-150000D01*
G01*
X25312500Y-34600000D01*
G75*
G02*
X25162500Y-34750000I-150000J0D01*
G01*
X24862500Y-34750000D01*
G75*
G02*
X24712500Y-34600000I0J150000D01*
G01*
X24712500Y-33575000D01*
G75*
G02*
X24862500Y-33425000I150000J0D01*
G01*
G37*
G36*
G01*
X22962500Y-33425000D02*
X23262500Y-33425000D01*
G75*
G02*
X23412500Y-33575000I0J-150000D01*
G01*
X23412500Y-34600000D01*
G75*
G02*
X23262500Y-34750000I-150000J0D01*
G01*
X22962500Y-34750000D01*
G75*
G02*
X22812500Y-34600000I0J150000D01*
G01*
X22812500Y-33575000D01*
G75*
G02*
X22962500Y-33425000I150000J0D01*
G01*
G37*
G36*
G01*
X22962500Y-31150000D02*
X23262500Y-31150000D01*
G75*
G02*
X23412500Y-31300000I0J-150000D01*
G01*
X23412500Y-32325000D01*
G75*
G02*
X23262500Y-32475000I-150000J0D01*
G01*
X22962500Y-32475000D01*
G75*
G02*
X22812500Y-32325000I0J150000D01*
G01*
X22812500Y-31300000D01*
G75*
G02*
X22962500Y-31150000I150000J0D01*
G01*
G37*
G36*
G01*
X23912500Y-31150000D02*
X24212500Y-31150000D01*
G75*
G02*
X24362500Y-31300000I0J-150000D01*
G01*
X24362500Y-32325000D01*
G75*
G02*
X24212500Y-32475000I-150000J0D01*
G01*
X23912500Y-32475000D01*
G75*
G02*
X23762500Y-32325000I0J150000D01*
G01*
X23762500Y-31300000D01*
G75*
G02*
X23912500Y-31150000I150000J0D01*
G01*
G37*
G36*
G01*
X24862500Y-31150000D02*
X25162500Y-31150000D01*
G75*
G02*
X25312500Y-31300000I0J-150000D01*
G01*
X25312500Y-32325000D01*
G75*
G02*
X25162500Y-32475000I-150000J0D01*
G01*
X24862500Y-32475000D01*
G75*
G02*
X24712500Y-32325000I0J150000D01*
G01*
X24712500Y-31300000D01*
G75*
G02*
X24862500Y-31150000I150000J0D01*
G01*
G37*
G04 #@! TD*
G04 #@! TO.C,U3*
G36*
G01*
X29595000Y-31947500D02*
X29595000Y-31627500D01*
G75*
G02*
X29755000Y-31467500I160000J0D01*
G01*
X30245000Y-31467500D01*
G75*
G02*
X30405000Y-31627500I0J-160000D01*
G01*
X30405000Y-31947500D01*
G75*
G02*
X30245000Y-32107500I-160000J0D01*
G01*
X29755000Y-32107500D01*
G75*
G02*
X29595000Y-31947500I0J160000D01*
G01*
G37*
G36*
G01*
X29595000Y-32747500D02*
X29595000Y-32427500D01*
G75*
G02*
X29755000Y-32267500I160000J0D01*
G01*
X30245000Y-32267500D01*
G75*
G02*
X30405000Y-32427500I0J-160000D01*
G01*
X30405000Y-32747500D01*
G75*
G02*
X30245000Y-32907500I-160000J0D01*
G01*
X29755000Y-32907500D01*
G75*
G02*
X29595000Y-32747500I0J160000D01*
G01*
G37*
G36*
G01*
X28925000Y-31643750D02*
X28925000Y-31431250D01*
G75*
G02*
X29018750Y-31337500I93750J0D01*
G01*
X29206250Y-31337500D01*
G75*
G02*
X29300000Y-31431250I0J-93750D01*
G01*
X29300000Y-31643750D01*
G75*
G02*
X29206250Y-31737500I-93750J0D01*
G01*
X29018750Y-31737500D01*
G75*
G02*
X28925000Y-31643750I0J93750D01*
G01*
G37*
G36*
G01*
X28925000Y-32293750D02*
X28925000Y-32081250D01*
G75*
G02*
X29018750Y-31987500I93750J0D01*
G01*
X29206250Y-31987500D01*
G75*
G02*
X29300000Y-32081250I0J-93750D01*
G01*
X29300000Y-32293750D01*
G75*
G02*
X29206250Y-32387500I-93750J0D01*
G01*
X29018750Y-32387500D01*
G75*
G02*
X28925000Y-32293750I0J93750D01*
G01*
G37*
G36*
G01*
X28925000Y-32943750D02*
X28925000Y-32731250D01*
G75*
G02*
X29018750Y-32637500I93750J0D01*
G01*
X29206250Y-32637500D01*
G75*
G02*
X29300000Y-32731250I0J-93750D01*
G01*
X29300000Y-32943750D01*
G75*
G02*
X29206250Y-33037500I-93750J0D01*
G01*
X29018750Y-33037500D01*
G75*
G02*
X28925000Y-32943750I0J93750D01*
G01*
G37*
G36*
G01*
X30700000Y-32943750D02*
X30700000Y-32731250D01*
G75*
G02*
X30793750Y-32637500I93750J0D01*
G01*
X30981250Y-32637500D01*
G75*
G02*
X31075000Y-32731250I0J-93750D01*
G01*
X31075000Y-32943750D01*
G75*
G02*
X30981250Y-33037500I-93750J0D01*
G01*
X30793750Y-33037500D01*
G75*
G02*
X30700000Y-32943750I0J93750D01*
G01*
G37*
G36*
G01*
X30700000Y-32293750D02*
X30700000Y-32081250D01*
G75*
G02*
X30793750Y-31987500I93750J0D01*
G01*
X30981250Y-31987500D01*
G75*
G02*
X31075000Y-32081250I0J-93750D01*
G01*
X31075000Y-32293750D01*
G75*
G02*
X30981250Y-32387500I-93750J0D01*
G01*
X30793750Y-32387500D01*
G75*
G02*
X30700000Y-32293750I0J93750D01*
G01*
G37*
G36*
G01*
X30700000Y-31643750D02*
X30700000Y-31431250D01*
G75*
G02*
X30793750Y-31337500I93750J0D01*
G01*
X30981250Y-31337500D01*
G75*
G02*
X31075000Y-31431250I0J-93750D01*
G01*
X31075000Y-31643750D01*
G75*
G02*
X30981250Y-31737500I-93750J0D01*
G01*
X30793750Y-31737500D01*
G75*
G02*
X30700000Y-31643750I0J93750D01*
G01*
G37*
G04 #@! TD*
G04 #@! TO.C,R10*
G36*
G01*
X25982500Y-31985000D02*
X25982500Y-31615000D01*
G75*
G02*
X26117500Y-31480000I135000J0D01*
G01*
X26387500Y-31480000D01*
G75*
G02*
X26522500Y-31615000I0J-135000D01*
G01*
X26522500Y-31985000D01*
G75*
G02*
X26387500Y-32120000I-135000J0D01*
G01*
X26117500Y-32120000D01*
G75*
G02*
X25982500Y-31985000I0J135000D01*
G01*
G37*
G36*
G01*
X27002500Y-31985000D02*
X27002500Y-31615000D01*
G75*
G02*
X27137500Y-31480000I135000J0D01*
G01*
X27407500Y-31480000D01*
G75*
G02*
X27542500Y-31615000I0J-135000D01*
G01*
X27542500Y-31985000D01*
G75*
G02*
X27407500Y-32120000I-135000J0D01*
G01*
X27137500Y-32120000D01*
G75*
G02*
X27002500Y-31985000I0J135000D01*
G01*
G37*
G04 #@! TD*
G04 #@! TO.C,R9*
G36*
G01*
X21235000Y-12460000D02*
X20865000Y-12460000D01*
G75*
G02*
X20730000Y-12325000I0J135000D01*
G01*
X20730000Y-12055000D01*
G75*
G02*
X20865000Y-11920000I135000J0D01*
G01*
X21235000Y-11920000D01*
G75*
G02*
X21370000Y-12055000I0J-135000D01*
G01*
X21370000Y-12325000D01*
G75*
G02*
X21235000Y-12460000I-135000J0D01*
G01*
G37*
G36*
G01*
X21235000Y-13480000D02*
X20865000Y-13480000D01*
G75*
G02*
X20730000Y-13345000I0J135000D01*
G01*
X20730000Y-13075000D01*
G75*
G02*
X20865000Y-12940000I135000J0D01*
G01*
X21235000Y-12940000D01*
G75*
G02*
X21370000Y-13075000I0J-135000D01*
G01*
X21370000Y-13345000D01*
G75*
G02*
X21235000Y-13480000I-135000J0D01*
G01*
G37*
G04 #@! TD*
G04 #@! TO.C,R8*
G36*
G01*
X20320000Y-6785000D02*
X20320000Y-6415000D01*
G75*
G02*
X20455000Y-6280000I135000J0D01*
G01*
X20725000Y-6280000D01*
G75*
G02*
X20860000Y-6415000I0J-135000D01*
G01*
X20860000Y-6785000D01*
G75*
G02*
X20725000Y-6920000I-135000J0D01*
G01*
X20455000Y-6920000D01*
G75*
G02*
X20320000Y-6785000I0J135000D01*
G01*
G37*
G36*
G01*
X21340000Y-6785000D02*
X21340000Y-6415000D01*
G75*
G02*
X21475000Y-6280000I135000J0D01*
G01*
X21745000Y-6280000D01*
G75*
G02*
X21880000Y-6415000I0J-135000D01*
G01*
X21880000Y-6785000D01*
G75*
G02*
X21745000Y-6920000I-135000J0D01*
G01*
X21475000Y-6920000D01*
G75*
G02*
X21340000Y-6785000I0J135000D01*
G01*
G37*
G04 #@! TD*
G04 #@! TO.C,R7*
G36*
G01*
X11290000Y-28547500D02*
X11290000Y-28177500D01*
G75*
G02*
X11425000Y-28042500I135000J0D01*
G01*
X11695000Y-28042500D01*
G75*
G02*
X11830000Y-28177500I0J-135000D01*
G01*
X11830000Y-28547500D01*
G75*
G02*
X11695000Y-28682500I-135000J0D01*
G01*
X11425000Y-28682500D01*
G75*
G02*
X11290000Y-28547500I0J135000D01*
G01*
G37*
G36*
G01*
X10270000Y-28547500D02*
X10270000Y-28177500D01*
G75*
G02*
X10405000Y-28042500I135000J0D01*
G01*
X10675000Y-28042500D01*
G75*
G02*
X10810000Y-28177500I0J-135000D01*
G01*
X10810000Y-28547500D01*
G75*
G02*
X10675000Y-28682500I-135000J0D01*
G01*
X10405000Y-28682500D01*
G75*
G02*
X10270000Y-28547500I0J135000D01*
G01*
G37*
G04 #@! TD*
G04 #@! TO.C,R6*
G36*
G01*
X13190000Y-28547500D02*
X13190000Y-28177500D01*
G75*
G02*
X13325000Y-28042500I135000J0D01*
G01*
X13595000Y-28042500D01*
G75*
G02*
X13730000Y-28177500I0J-135000D01*
G01*
X13730000Y-28547500D01*
G75*
G02*
X13595000Y-28682500I-135000J0D01*
G01*
X13325000Y-28682500D01*
G75*
G02*
X13190000Y-28547500I0J135000D01*
G01*
G37*
G36*
G01*
X12170000Y-28547500D02*
X12170000Y-28177500D01*
G75*
G02*
X12305000Y-28042500I135000J0D01*
G01*
X12575000Y-28042500D01*
G75*
G02*
X12710000Y-28177500I0J-135000D01*
G01*
X12710000Y-28547500D01*
G75*
G02*
X12575000Y-28682500I-135000J0D01*
G01*
X12305000Y-28682500D01*
G75*
G02*
X12170000Y-28547500I0J135000D01*
G01*
G37*
G04 #@! TD*
G04 #@! TO.C,R5*
G36*
G01*
X27002500Y-33285000D02*
X27002500Y-32915000D01*
G75*
G02*
X27137500Y-32780000I135000J0D01*
G01*
X27407500Y-32780000D01*
G75*
G02*
X27542500Y-32915000I0J-135000D01*
G01*
X27542500Y-33285000D01*
G75*
G02*
X27407500Y-33420000I-135000J0D01*
G01*
X27137500Y-33420000D01*
G75*
G02*
X27002500Y-33285000I0J135000D01*
G01*
G37*
G36*
G01*
X25982500Y-33285000D02*
X25982500Y-32915000D01*
G75*
G02*
X26117500Y-32780000I135000J0D01*
G01*
X26387500Y-32780000D01*
G75*
G02*
X26522500Y-32915000I0J-135000D01*
G01*
X26522500Y-33285000D01*
G75*
G02*
X26387500Y-33420000I-135000J0D01*
G01*
X26117500Y-33420000D01*
G75*
G02*
X25982500Y-33285000I0J135000D01*
G01*
G37*
G04 #@! TD*
G04 #@! TO.C,R4*
G36*
G01*
X26522500Y-34915000D02*
X26522500Y-35285000D01*
G75*
G02*
X26387500Y-35420000I-135000J0D01*
G01*
X26117500Y-35420000D01*
G75*
G02*
X25982500Y-35285000I0J135000D01*
G01*
X25982500Y-34915000D01*
G75*
G02*
X26117500Y-34780000I135000J0D01*
G01*
X26387500Y-34780000D01*
G75*
G02*
X26522500Y-34915000I0J-135000D01*
G01*
G37*
G36*
G01*
X27542500Y-34915000D02*
X27542500Y-35285000D01*
G75*
G02*
X27407500Y-35420000I-135000J0D01*
G01*
X27137500Y-35420000D01*
G75*
G02*
X27002500Y-35285000I0J135000D01*
G01*
X27002500Y-34915000D01*
G75*
G02*
X27137500Y-34780000I135000J0D01*
G01*
X27407500Y-34780000D01*
G75*
G02*
X27542500Y-34915000I0J-135000D01*
G01*
G37*
G04 #@! TD*
G04 #@! TO.C,L1*
G36*
G01*
X21743750Y-30387500D02*
X20981250Y-30387500D01*
G75*
G02*
X20762500Y-30168750I0J218750D01*
G01*
X20762500Y-29731250D01*
G75*
G02*
X20981250Y-29512500I218750J0D01*
G01*
X21743750Y-29512500D01*
G75*
G02*
X21962500Y-29731250I0J-218750D01*
G01*
X21962500Y-30168750D01*
G75*
G02*
X21743750Y-30387500I-218750J0D01*
G01*
G37*
G36*
G01*
X21743750Y-32512500D02*
X20981250Y-32512500D01*
G75*
G02*
X20762500Y-32293750I0J218750D01*
G01*
X20762500Y-31856250D01*
G75*
G02*
X20981250Y-31637500I218750J0D01*
G01*
X21743750Y-31637500D01*
G75*
G02*
X21962500Y-31856250I0J-218750D01*
G01*
X21962500Y-32293750D01*
G75*
G02*
X21743750Y-32512500I-218750J0D01*
G01*
G37*
G04 #@! TD*
G04 #@! TO.C,J1*
G36*
G01*
X39200000Y-33925000D02*
X38000000Y-33925000D01*
G75*
G02*
X37800000Y-33725000I0J200000D01*
G01*
X37800000Y-33325000D01*
G75*
G02*
X38000000Y-33125000I200000J0D01*
G01*
X39200000Y-33125000D01*
G75*
G02*
X39400000Y-33325000I0J-200000D01*
G01*
X39400000Y-33725000D01*
G75*
G02*
X39200000Y-33925000I-200000J0D01*
G01*
G37*
G36*
G01*
X39200000Y-32675000D02*
X38000000Y-32675000D01*
G75*
G02*
X37800000Y-32475000I0J200000D01*
G01*
X37800000Y-32075000D01*
G75*
G02*
X38000000Y-31875000I200000J0D01*
G01*
X39200000Y-31875000D01*
G75*
G02*
X39400000Y-32075000I0J-200000D01*
G01*
X39400000Y-32475000D01*
G75*
G02*
X39200000Y-32675000I-200000J0D01*
G01*
G37*
G36*
G01*
X42749999Y-37125000D02*
X40250001Y-37125000D01*
G75*
G02*
X40000000Y-36874999I0J250001D01*
G01*
X40000000Y-35275001D01*
G75*
G02*
X40250001Y-35025000I250001J0D01*
G01*
X42749999Y-35025000D01*
G75*
G02*
X43000000Y-35275001I0J-250001D01*
G01*
X43000000Y-36874999D01*
G75*
G02*
X42749999Y-37125000I-250001J0D01*
G01*
G37*
G36*
G01*
X42749999Y-30775000D02*
X40250001Y-30775000D01*
G75*
G02*
X40000000Y-30524999I0J250001D01*
G01*
X40000000Y-28925001D01*
G75*
G02*
X40250001Y-28675000I250001J0D01*
G01*
X42749999Y-28675000D01*
G75*
G02*
X43000000Y-28925001I0J-250001D01*
G01*
X43000000Y-30524999D01*
G75*
G02*
X42749999Y-30775000I-250001J0D01*
G01*
G37*
G04 #@! TD*
D12*
G04 #@! TO.C,FL5*
X34712500Y-21275000D03*
X35962500Y-21275000D03*
X35962500Y-20725000D03*
X34712500Y-20725000D03*
G04 #@! TD*
G04 #@! TO.C,FL4*
X34700000Y-19225000D03*
X35950000Y-19225000D03*
X35950000Y-19775000D03*
X34700000Y-19775000D03*
G04 #@! TD*
G04 #@! TO.C,FL3*
X34712500Y-18275000D03*
X35962500Y-18275000D03*
X35962500Y-17725000D03*
X34712500Y-17725000D03*
G04 #@! TD*
G04 #@! TO.C,FL2*
X34712500Y-16775000D03*
X35962500Y-16775000D03*
X35962500Y-16225000D03*
X34712500Y-16225000D03*
G04 #@! TD*
G04 #@! TO.C,FL1*
X34700000Y-15275000D03*
X35950000Y-15275000D03*
X35950000Y-14725000D03*
X34700000Y-14725000D03*
G04 #@! TD*
G04 #@! TO.C,FB1*
G36*
G01*
X21293750Y-35675000D02*
X21806250Y-35675000D01*
G75*
G02*
X22025000Y-35893750I0J-218750D01*
G01*
X22025000Y-36331250D01*
G75*
G02*
X21806250Y-36550000I-218750J0D01*
G01*
X21293750Y-36550000D01*
G75*
G02*
X21075000Y-36331250I0J218750D01*
G01*
X21075000Y-35893750D01*
G75*
G02*
X21293750Y-35675000I218750J0D01*
G01*
G37*
G36*
G01*
X21293750Y-37250000D02*
X21806250Y-37250000D01*
G75*
G02*
X22025000Y-37468750I0J-218750D01*
G01*
X22025000Y-37906250D01*
G75*
G02*
X21806250Y-38125000I-218750J0D01*
G01*
X21293750Y-38125000D01*
G75*
G02*
X21075000Y-37906250I0J218750D01*
G01*
X21075000Y-37468750D01*
G75*
G02*
X21293750Y-37250000I218750J0D01*
G01*
G37*
G04 #@! TD*
G04 #@! TO.C,D1*
G36*
G01*
X31650000Y-32575000D02*
X31650000Y-31825000D01*
G75*
G02*
X31875000Y-31600000I225000J0D01*
G01*
X32325000Y-31600000D01*
G75*
G02*
X32550000Y-31825000I0J-225000D01*
G01*
X32550000Y-32575000D01*
G75*
G02*
X32325000Y-32800000I-225000J0D01*
G01*
X31875000Y-32800000D01*
G75*
G02*
X31650000Y-32575000I0J225000D01*
G01*
G37*
G36*
G01*
X34950000Y-32575000D02*
X34950000Y-31825000D01*
G75*
G02*
X35175000Y-31600000I225000J0D01*
G01*
X35625000Y-31600000D01*
G75*
G02*
X35850000Y-31825000I0J-225000D01*
G01*
X35850000Y-32575000D01*
G75*
G02*
X35625000Y-32800000I-225000J0D01*
G01*
X35175000Y-32800000D01*
G75*
G02*
X34950000Y-32575000I0J225000D01*
G01*
G37*
G04 #@! TD*
G04 #@! TO.C,C86*
G36*
G01*
X21860000Y-5430000D02*
X21860000Y-5770000D01*
G75*
G02*
X21720000Y-5910000I-140000J0D01*
G01*
X21440000Y-5910000D01*
G75*
G02*
X21300000Y-5770000I0J140000D01*
G01*
X21300000Y-5430000D01*
G75*
G02*
X21440000Y-5290000I140000J0D01*
G01*
X21720000Y-5290000D01*
G75*
G02*
X21860000Y-5430000I0J-140000D01*
G01*
G37*
G36*
G01*
X20900000Y-5430000D02*
X20900000Y-5770000D01*
G75*
G02*
X20760000Y-5910000I-140000J0D01*
G01*
X20480000Y-5910000D01*
G75*
G02*
X20340000Y-5770000I0J140000D01*
G01*
X20340000Y-5430000D01*
G75*
G02*
X20480000Y-5290000I140000J0D01*
G01*
X20760000Y-5290000D01*
G75*
G02*
X20900000Y-5430000I0J-140000D01*
G01*
G37*
G04 #@! TD*
G04 #@! TO.C,C85*
G36*
G01*
X21130000Y-10000000D02*
X21470000Y-10000000D01*
G75*
G02*
X21610000Y-10140000I0J-140000D01*
G01*
X21610000Y-10420000D01*
G75*
G02*
X21470000Y-10560000I-140000J0D01*
G01*
X21130000Y-10560000D01*
G75*
G02*
X20990000Y-10420000I0J140000D01*
G01*
X20990000Y-10140000D01*
G75*
G02*
X21130000Y-10000000I140000J0D01*
G01*
G37*
G36*
G01*
X21130000Y-9040000D02*
X21470000Y-9040000D01*
G75*
G02*
X21610000Y-9180000I0J-140000D01*
G01*
X21610000Y-9460000D01*
G75*
G02*
X21470000Y-9600000I-140000J0D01*
G01*
X21130000Y-9600000D01*
G75*
G02*
X20990000Y-9460000I0J140000D01*
G01*
X20990000Y-9180000D01*
G75*
G02*
X21130000Y-9040000I140000J0D01*
G01*
G37*
G04 #@! TD*
G04 #@! TO.C,C84*
G36*
G01*
X27170000Y-10920000D02*
X27170000Y-10580000D01*
G75*
G02*
X27310000Y-10440000I140000J0D01*
G01*
X27590000Y-10440000D01*
G75*
G02*
X27730000Y-10580000I0J-140000D01*
G01*
X27730000Y-10920000D01*
G75*
G02*
X27590000Y-11060000I-140000J0D01*
G01*
X27310000Y-11060000D01*
G75*
G02*
X27170000Y-10920000I0J140000D01*
G01*
G37*
G36*
G01*
X28130000Y-10920000D02*
X28130000Y-10580000D01*
G75*
G02*
X28270000Y-10440000I140000J0D01*
G01*
X28550000Y-10440000D01*
G75*
G02*
X28690000Y-10580000I0J-140000D01*
G01*
X28690000Y-10920000D01*
G75*
G02*
X28550000Y-11060000I-140000J0D01*
G01*
X28270000Y-11060000D01*
G75*
G02*
X28130000Y-10920000I0J140000D01*
G01*
G37*
G04 #@! TD*
G04 #@! TO.C,C83*
G36*
G01*
X26440000Y-5430200D02*
X26440000Y-5090200D01*
G75*
G02*
X26580000Y-4950200I140000J0D01*
G01*
X26860000Y-4950200D01*
G75*
G02*
X27000000Y-5090200I0J-140000D01*
G01*
X27000000Y-5430200D01*
G75*
G02*
X26860000Y-5570200I-140000J0D01*
G01*
X26580000Y-5570200D01*
G75*
G02*
X26440000Y-5430200I0J140000D01*
G01*
G37*
G36*
G01*
X27400000Y-5430200D02*
X27400000Y-5090200D01*
G75*
G02*
X27540000Y-4950200I140000J0D01*
G01*
X27820000Y-4950200D01*
G75*
G02*
X27960000Y-5090200I0J-140000D01*
G01*
X27960000Y-5430200D01*
G75*
G02*
X27820000Y-5570200I-140000J0D01*
G01*
X27540000Y-5570200D01*
G75*
G02*
X27400000Y-5430200I0J140000D01*
G01*
G37*
G04 #@! TD*
G04 #@! TO.C,C82*
G36*
G01*
X14900000Y-31887500D02*
X15400000Y-31887500D01*
G75*
G02*
X15625000Y-32112500I0J-225000D01*
G01*
X15625000Y-32562500D01*
G75*
G02*
X15400000Y-32787500I-225000J0D01*
G01*
X14900000Y-32787500D01*
G75*
G02*
X14675000Y-32562500I0J225000D01*
G01*
X14675000Y-32112500D01*
G75*
G02*
X14900000Y-31887500I225000J0D01*
G01*
G37*
G36*
G01*
X14900000Y-30337500D02*
X15400000Y-30337500D01*
G75*
G02*
X15625000Y-30562500I0J-225000D01*
G01*
X15625000Y-31012500D01*
G75*
G02*
X15400000Y-31237500I-225000J0D01*
G01*
X14900000Y-31237500D01*
G75*
G02*
X14675000Y-31012500I0J225000D01*
G01*
X14675000Y-30562500D01*
G75*
G02*
X14900000Y-30337500I225000J0D01*
G01*
G37*
G04 #@! TD*
G04 #@! TO.C,C81*
G36*
G01*
X13150000Y-29532500D02*
X13150000Y-29192500D01*
G75*
G02*
X13290000Y-29052500I140000J0D01*
G01*
X13570000Y-29052500D01*
G75*
G02*
X13710000Y-29192500I0J-140000D01*
G01*
X13710000Y-29532500D01*
G75*
G02*
X13570000Y-29672500I-140000J0D01*
G01*
X13290000Y-29672500D01*
G75*
G02*
X13150000Y-29532500I0J140000D01*
G01*
G37*
G36*
G01*
X12190000Y-29532500D02*
X12190000Y-29192500D01*
G75*
G02*
X12330000Y-29052500I140000J0D01*
G01*
X12610000Y-29052500D01*
G75*
G02*
X12750000Y-29192500I0J-140000D01*
G01*
X12750000Y-29532500D01*
G75*
G02*
X12610000Y-29672500I-140000J0D01*
G01*
X12330000Y-29672500D01*
G75*
G02*
X12190000Y-29532500I0J140000D01*
G01*
G37*
G04 #@! TD*
G04 #@! TO.C,C80*
G36*
G01*
X23437500Y-29700000D02*
X23437500Y-30200000D01*
G75*
G02*
X23212500Y-30425000I-225000J0D01*
G01*
X22762500Y-30425000D01*
G75*
G02*
X22537500Y-30200000I0J225000D01*
G01*
X22537500Y-29700000D01*
G75*
G02*
X22762500Y-29475000I225000J0D01*
G01*
X23212500Y-29475000D01*
G75*
G02*
X23437500Y-29700000I0J-225000D01*
G01*
G37*
G36*
G01*
X24987500Y-29700000D02*
X24987500Y-30200000D01*
G75*
G02*
X24762500Y-30425000I-225000J0D01*
G01*
X24312500Y-30425000D01*
G75*
G02*
X24087500Y-30200000I0J225000D01*
G01*
X24087500Y-29700000D01*
G75*
G02*
X24312500Y-29475000I225000J0D01*
G01*
X24762500Y-29475000D01*
G75*
G02*
X24987500Y-29700000I0J-225000D01*
G01*
G37*
G04 #@! TD*
G04 #@! TO.C,C79*
G36*
G01*
X24212500Y-36350000D02*
X24212500Y-35850000D01*
G75*
G02*
X24437500Y-35625000I225000J0D01*
G01*
X24887500Y-35625000D01*
G75*
G02*
X25112500Y-35850000I0J-225000D01*
G01*
X25112500Y-36350000D01*
G75*
G02*
X24887500Y-36575000I-225000J0D01*
G01*
X24437500Y-36575000D01*
G75*
G02*
X24212500Y-36350000I0J225000D01*
G01*
G37*
G36*
G01*
X22662500Y-36350000D02*
X22662500Y-35850000D01*
G75*
G02*
X22887500Y-35625000I225000J0D01*
G01*
X23337500Y-35625000D01*
G75*
G02*
X23562500Y-35850000I0J-225000D01*
G01*
X23562500Y-36350000D01*
G75*
G02*
X23337500Y-36575000I-225000J0D01*
G01*
X22887500Y-36575000D01*
G75*
G02*
X22662500Y-36350000I0J225000D01*
G01*
G37*
G04 #@! TD*
G04 #@! TO.C,C78*
G36*
G01*
X19600000Y-7050000D02*
X19100000Y-7050000D01*
G75*
G02*
X18875000Y-6825000I0J225000D01*
G01*
X18875000Y-6375000D01*
G75*
G02*
X19100000Y-6150000I225000J0D01*
G01*
X19600000Y-6150000D01*
G75*
G02*
X19825000Y-6375000I0J-225000D01*
G01*
X19825000Y-6825000D01*
G75*
G02*
X19600000Y-7050000I-225000J0D01*
G01*
G37*
G36*
G01*
X19600000Y-5500000D02*
X19100000Y-5500000D01*
G75*
G02*
X18875000Y-5275000I0J225000D01*
G01*
X18875000Y-4825000D01*
G75*
G02*
X19100000Y-4600000I225000J0D01*
G01*
X19600000Y-4600000D01*
G75*
G02*
X19825000Y-4825000I0J-225000D01*
G01*
X19825000Y-5275000D01*
G75*
G02*
X19600000Y-5500000I-225000J0D01*
G01*
G37*
G04 #@! TD*
G04 #@! TO.C,C77*
G36*
G01*
X26962500Y-34270000D02*
X26962500Y-33930000D01*
G75*
G02*
X27102500Y-33790000I140000J0D01*
G01*
X27382500Y-33790000D01*
G75*
G02*
X27522500Y-33930000I0J-140000D01*
G01*
X27522500Y-34270000D01*
G75*
G02*
X27382500Y-34410000I-140000J0D01*
G01*
X27102500Y-34410000D01*
G75*
G02*
X26962500Y-34270000I0J140000D01*
G01*
G37*
G36*
G01*
X26002500Y-34270000D02*
X26002500Y-33930000D01*
G75*
G02*
X26142500Y-33790000I140000J0D01*
G01*
X26422500Y-33790000D01*
G75*
G02*
X26562500Y-33930000I0J-140000D01*
G01*
X26562500Y-34270000D01*
G75*
G02*
X26422500Y-34410000I-140000J0D01*
G01*
X26142500Y-34410000D01*
G75*
G02*
X26002500Y-34270000I0J140000D01*
G01*
G37*
G04 #@! TD*
G04 #@! TO.C,C76*
G36*
G01*
X11600000Y-34580000D02*
X11600000Y-34920000D01*
G75*
G02*
X11460000Y-35060000I-140000J0D01*
G01*
X11180000Y-35060000D01*
G75*
G02*
X11040000Y-34920000I0J140000D01*
G01*
X11040000Y-34580000D01*
G75*
G02*
X11180000Y-34440000I140000J0D01*
G01*
X11460000Y-34440000D01*
G75*
G02*
X11600000Y-34580000I0J-140000D01*
G01*
G37*
G36*
G01*
X12560000Y-34580000D02*
X12560000Y-34920000D01*
G75*
G02*
X12420000Y-35060000I-140000J0D01*
G01*
X12140000Y-35060000D01*
G75*
G02*
X12000000Y-34920000I0J140000D01*
G01*
X12000000Y-34580000D01*
G75*
G02*
X12140000Y-34440000I140000J0D01*
G01*
X12420000Y-34440000D01*
G75*
G02*
X12560000Y-34580000I0J-140000D01*
G01*
G37*
G04 #@! TD*
G04 #@! TO.C,C75*
G36*
G01*
X15775000Y-2850000D02*
X15775000Y-2350000D01*
G75*
G02*
X16000000Y-2125000I225000J0D01*
G01*
X16450000Y-2125000D01*
G75*
G02*
X16675000Y-2350000I0J-225000D01*
G01*
X16675000Y-2850000D01*
G75*
G02*
X16450000Y-3075000I-225000J0D01*
G01*
X16000000Y-3075000D01*
G75*
G02*
X15775000Y-2850000I0J225000D01*
G01*
G37*
G36*
G01*
X17325000Y-2850000D02*
X17325000Y-2350000D01*
G75*
G02*
X17550000Y-2125000I225000J0D01*
G01*
X18000000Y-2125000D01*
G75*
G02*
X18225000Y-2350000I0J-225000D01*
G01*
X18225000Y-2850000D01*
G75*
G02*
X18000000Y-3075000I-225000J0D01*
G01*
X17550000Y-3075000D01*
G75*
G02*
X17325000Y-2850000I0J225000D01*
G01*
G37*
G04 #@! TD*
G04 #@! TO.C,C74*
G36*
G01*
X14725000Y-34950000D02*
X14725000Y-34450000D01*
G75*
G02*
X14950000Y-34225000I225000J0D01*
G01*
X15400000Y-34225000D01*
G75*
G02*
X15625000Y-34450000I0J-225000D01*
G01*
X15625000Y-34950000D01*
G75*
G02*
X15400000Y-35175000I-225000J0D01*
G01*
X14950000Y-35175000D01*
G75*
G02*
X14725000Y-34950000I0J225000D01*
G01*
G37*
G36*
G01*
X13175000Y-34950000D02*
X13175000Y-34450000D01*
G75*
G02*
X13400000Y-34225000I225000J0D01*
G01*
X13850000Y-34225000D01*
G75*
G02*
X14075000Y-34450000I0J-225000D01*
G01*
X14075000Y-34950000D01*
G75*
G02*
X13850000Y-35175000I-225000J0D01*
G01*
X13400000Y-35175000D01*
G75*
G02*
X13175000Y-34950000I0J225000D01*
G01*
G37*
G04 #@! TD*
D13*
G04 #@! TO.C,C73*
X13650000Y-36000000D03*
D14*
X13250000Y-36800000D03*
X14050000Y-36800000D03*
D13*
X13650000Y-37600000D03*
G04 #@! TD*
G04 #@! TO.C,C70*
X31400000Y-33837500D03*
D14*
X31000000Y-34637500D03*
X31800000Y-34637500D03*
D13*
X31400000Y-35437500D03*
G04 #@! TD*
G04 #@! TO.C,C61*
G36*
G01*
X7930000Y-23330000D02*
X8270000Y-23330000D01*
G75*
G02*
X8410000Y-23470000I0J-140000D01*
G01*
X8410000Y-23750000D01*
G75*
G02*
X8270000Y-23890000I-140000J0D01*
G01*
X7930000Y-23890000D01*
G75*
G02*
X7790000Y-23750000I0J140000D01*
G01*
X7790000Y-23470000D01*
G75*
G02*
X7930000Y-23330000I140000J0D01*
G01*
G37*
G36*
G01*
X7930000Y-22370000D02*
X8270000Y-22370000D01*
G75*
G02*
X8410000Y-22510000I0J-140000D01*
G01*
X8410000Y-22790000D01*
G75*
G02*
X8270000Y-22930000I-140000J0D01*
G01*
X7930000Y-22930000D01*
G75*
G02*
X7790000Y-22790000I0J140000D01*
G01*
X7790000Y-22510000D01*
G75*
G02*
X7930000Y-22370000I140000J0D01*
G01*
G37*
G04 #@! TD*
G04 #@! TO.C,C60*
G36*
G01*
X9270000Y-15930000D02*
X8930000Y-15930000D01*
G75*
G02*
X8790000Y-15790000I0J140000D01*
G01*
X8790000Y-15510000D01*
G75*
G02*
X8930000Y-15370000I140000J0D01*
G01*
X9270000Y-15370000D01*
G75*
G02*
X9410000Y-15510000I0J-140000D01*
G01*
X9410000Y-15790000D01*
G75*
G02*
X9270000Y-15930000I-140000J0D01*
G01*
G37*
G36*
G01*
X9270000Y-14970000D02*
X8930000Y-14970000D01*
G75*
G02*
X8790000Y-14830000I0J140000D01*
G01*
X8790000Y-14550000D01*
G75*
G02*
X8930000Y-14410000I140000J0D01*
G01*
X9270000Y-14410000D01*
G75*
G02*
X9410000Y-14550000I0J-140000D01*
G01*
X9410000Y-14830000D01*
G75*
G02*
X9270000Y-14970000I-140000J0D01*
G01*
G37*
G04 #@! TD*
G04 #@! TO.C,C59*
G36*
G01*
X13860000Y-16370000D02*
X13520000Y-16370000D01*
G75*
G02*
X13380000Y-16230000I0J140000D01*
G01*
X13380000Y-15950000D01*
G75*
G02*
X13520000Y-15810000I140000J0D01*
G01*
X13860000Y-15810000D01*
G75*
G02*
X14000000Y-15950000I0J-140000D01*
G01*
X14000000Y-16230000D01*
G75*
G02*
X13860000Y-16370000I-140000J0D01*
G01*
G37*
G36*
G01*
X13860000Y-17330000D02*
X13520000Y-17330000D01*
G75*
G02*
X13380000Y-17190000I0J140000D01*
G01*
X13380000Y-16910000D01*
G75*
G02*
X13520000Y-16770000I140000J0D01*
G01*
X13860000Y-16770000D01*
G75*
G02*
X14000000Y-16910000I0J-140000D01*
G01*
X14000000Y-17190000D01*
G75*
G02*
X13860000Y-17330000I-140000J0D01*
G01*
G37*
G04 #@! TD*
G04 #@! TO.C,C53*
G36*
G01*
X6930000Y-23330000D02*
X7270000Y-23330000D01*
G75*
G02*
X7410000Y-23470000I0J-140000D01*
G01*
X7410000Y-23750000D01*
G75*
G02*
X7270000Y-23890000I-140000J0D01*
G01*
X6930000Y-23890000D01*
G75*
G02*
X6790000Y-23750000I0J140000D01*
G01*
X6790000Y-23470000D01*
G75*
G02*
X6930000Y-23330000I140000J0D01*
G01*
G37*
G36*
G01*
X6930000Y-22370000D02*
X7270000Y-22370000D01*
G75*
G02*
X7410000Y-22510000I0J-140000D01*
G01*
X7410000Y-22790000D01*
G75*
G02*
X7270000Y-22930000I-140000J0D01*
G01*
X6930000Y-22930000D01*
G75*
G02*
X6790000Y-22790000I0J140000D01*
G01*
X6790000Y-22510000D01*
G75*
G02*
X6930000Y-22370000I140000J0D01*
G01*
G37*
G04 #@! TD*
G04 #@! TO.C,C52*
G36*
G01*
X7270000Y-15930000D02*
X6930000Y-15930000D01*
G75*
G02*
X6790000Y-15790000I0J140000D01*
G01*
X6790000Y-15510000D01*
G75*
G02*
X6930000Y-15370000I140000J0D01*
G01*
X7270000Y-15370000D01*
G75*
G02*
X7410000Y-15510000I0J-140000D01*
G01*
X7410000Y-15790000D01*
G75*
G02*
X7270000Y-15930000I-140000J0D01*
G01*
G37*
G36*
G01*
X7270000Y-14970000D02*
X6930000Y-14970000D01*
G75*
G02*
X6790000Y-14830000I0J140000D01*
G01*
X6790000Y-14550000D01*
G75*
G02*
X6930000Y-14410000I140000J0D01*
G01*
X7270000Y-14410000D01*
G75*
G02*
X7410000Y-14550000I0J-140000D01*
G01*
X7410000Y-14830000D01*
G75*
G02*
X7270000Y-14970000I-140000J0D01*
G01*
G37*
G04 #@! TD*
G04 #@! TO.C,C51*
G36*
G01*
X12860000Y-16370000D02*
X12520000Y-16370000D01*
G75*
G02*
X12380000Y-16230000I0J140000D01*
G01*
X12380000Y-15950000D01*
G75*
G02*
X12520000Y-15810000I140000J0D01*
G01*
X12860000Y-15810000D01*
G75*
G02*
X13000000Y-15950000I0J-140000D01*
G01*
X13000000Y-16230000D01*
G75*
G02*
X12860000Y-16370000I-140000J0D01*
G01*
G37*
G36*
G01*
X12860000Y-17330000D02*
X12520000Y-17330000D01*
G75*
G02*
X12380000Y-17190000I0J140000D01*
G01*
X12380000Y-16910000D01*
G75*
G02*
X12520000Y-16770000I140000J0D01*
G01*
X12860000Y-16770000D01*
G75*
G02*
X13000000Y-16910000I0J-140000D01*
G01*
X13000000Y-17190000D01*
G75*
G02*
X12860000Y-17330000I-140000J0D01*
G01*
G37*
G04 #@! TD*
G04 #@! TO.C,C48*
G36*
G01*
X15860000Y-21310000D02*
X15520000Y-21310000D01*
G75*
G02*
X15380000Y-21170000I0J140000D01*
G01*
X15380000Y-20890000D01*
G75*
G02*
X15520000Y-20750000I140000J0D01*
G01*
X15860000Y-20750000D01*
G75*
G02*
X16000000Y-20890000I0J-140000D01*
G01*
X16000000Y-21170000D01*
G75*
G02*
X15860000Y-21310000I-140000J0D01*
G01*
G37*
G36*
G01*
X15860000Y-20350000D02*
X15520000Y-20350000D01*
G75*
G02*
X15380000Y-20210000I0J140000D01*
G01*
X15380000Y-19930000D01*
G75*
G02*
X15520000Y-19790000I140000J0D01*
G01*
X15860000Y-19790000D01*
G75*
G02*
X16000000Y-19930000I0J-140000D01*
G01*
X16000000Y-20210000D01*
G75*
G02*
X15860000Y-20350000I-140000J0D01*
G01*
G37*
G04 #@! TD*
G04 #@! TO.C,C47*
G36*
G01*
X12860000Y-18470000D02*
X12520000Y-18470000D01*
G75*
G02*
X12380000Y-18330000I0J140000D01*
G01*
X12380000Y-18050000D01*
G75*
G02*
X12520000Y-17910000I140000J0D01*
G01*
X12860000Y-17910000D01*
G75*
G02*
X13000000Y-18050000I0J-140000D01*
G01*
X13000000Y-18330000D01*
G75*
G02*
X12860000Y-18470000I-140000J0D01*
G01*
G37*
G36*
G01*
X12860000Y-19430000D02*
X12520000Y-19430000D01*
G75*
G02*
X12380000Y-19290000I0J140000D01*
G01*
X12380000Y-19010000D01*
G75*
G02*
X12520000Y-18870000I140000J0D01*
G01*
X12860000Y-18870000D01*
G75*
G02*
X13000000Y-19010000I0J-140000D01*
G01*
X13000000Y-19290000D01*
G75*
G02*
X12860000Y-19430000I-140000J0D01*
G01*
G37*
G04 #@! TD*
G04 #@! TO.C,C44*
G36*
G01*
X14860000Y-21310000D02*
X14520000Y-21310000D01*
G75*
G02*
X14380000Y-21170000I0J140000D01*
G01*
X14380000Y-20890000D01*
G75*
G02*
X14520000Y-20750000I140000J0D01*
G01*
X14860000Y-20750000D01*
G75*
G02*
X15000000Y-20890000I0J-140000D01*
G01*
X15000000Y-21170000D01*
G75*
G02*
X14860000Y-21310000I-140000J0D01*
G01*
G37*
G36*
G01*
X14860000Y-20350000D02*
X14520000Y-20350000D01*
G75*
G02*
X14380000Y-20210000I0J140000D01*
G01*
X14380000Y-19930000D01*
G75*
G02*
X14520000Y-19790000I140000J0D01*
G01*
X14860000Y-19790000D01*
G75*
G02*
X15000000Y-19930000I0J-140000D01*
G01*
X15000000Y-20210000D01*
G75*
G02*
X14860000Y-20350000I-140000J0D01*
G01*
G37*
G04 #@! TD*
G04 #@! TO.C,C43*
G36*
G01*
X13860000Y-18470000D02*
X13520000Y-18470000D01*
G75*
G02*
X13380000Y-18330000I0J140000D01*
G01*
X13380000Y-18050000D01*
G75*
G02*
X13520000Y-17910000I140000J0D01*
G01*
X13860000Y-17910000D01*
G75*
G02*
X14000000Y-18050000I0J-140000D01*
G01*
X14000000Y-18330000D01*
G75*
G02*
X13860000Y-18470000I-140000J0D01*
G01*
G37*
G36*
G01*
X13860000Y-19430000D02*
X13520000Y-19430000D01*
G75*
G02*
X13380000Y-19290000I0J140000D01*
G01*
X13380000Y-19010000D01*
G75*
G02*
X13520000Y-18870000I140000J0D01*
G01*
X13860000Y-18870000D01*
G75*
G02*
X14000000Y-19010000I0J-140000D01*
G01*
X14000000Y-19290000D01*
G75*
G02*
X13860000Y-19430000I-140000J0D01*
G01*
G37*
G04 #@! TD*
G04 #@! TO.C,C40*
G36*
G01*
X7920000Y-20270000D02*
X8260000Y-20270000D01*
G75*
G02*
X8400000Y-20410000I0J-140000D01*
G01*
X8400000Y-20690000D01*
G75*
G02*
X8260000Y-20830000I-140000J0D01*
G01*
X7920000Y-20830000D01*
G75*
G02*
X7780000Y-20690000I0J140000D01*
G01*
X7780000Y-20410000D01*
G75*
G02*
X7920000Y-20270000I140000J0D01*
G01*
G37*
G36*
G01*
X7920000Y-21230000D02*
X8260000Y-21230000D01*
G75*
G02*
X8400000Y-21370000I0J-140000D01*
G01*
X8400000Y-21650000D01*
G75*
G02*
X8260000Y-21790000I-140000J0D01*
G01*
X7920000Y-21790000D01*
G75*
G02*
X7780000Y-21650000I0J140000D01*
G01*
X7780000Y-21370000D01*
G75*
G02*
X7920000Y-21230000I140000J0D01*
G01*
G37*
G04 #@! TD*
G04 #@! TO.C,C39*
G36*
G01*
X13520000Y-22630000D02*
X13860000Y-22630000D01*
G75*
G02*
X14000000Y-22770000I0J-140000D01*
G01*
X14000000Y-23050000D01*
G75*
G02*
X13860000Y-23190000I-140000J0D01*
G01*
X13520000Y-23190000D01*
G75*
G02*
X13380000Y-23050000I0J140000D01*
G01*
X13380000Y-22770000D01*
G75*
G02*
X13520000Y-22630000I140000J0D01*
G01*
G37*
G36*
G01*
X13520000Y-21670000D02*
X13860000Y-21670000D01*
G75*
G02*
X14000000Y-21810000I0J-140000D01*
G01*
X14000000Y-22090000D01*
G75*
G02*
X13860000Y-22230000I-140000J0D01*
G01*
X13520000Y-22230000D01*
G75*
G02*
X13380000Y-22090000I0J140000D01*
G01*
X13380000Y-21810000D01*
G75*
G02*
X13520000Y-21670000I140000J0D01*
G01*
G37*
G04 #@! TD*
G04 #@! TO.C,C36*
G36*
G01*
X9930000Y-20270000D02*
X10270000Y-20270000D01*
G75*
G02*
X10410000Y-20410000I0J-140000D01*
G01*
X10410000Y-20690000D01*
G75*
G02*
X10270000Y-20830000I-140000J0D01*
G01*
X9930000Y-20830000D01*
G75*
G02*
X9790000Y-20690000I0J140000D01*
G01*
X9790000Y-20410000D01*
G75*
G02*
X9930000Y-20270000I140000J0D01*
G01*
G37*
G36*
G01*
X9930000Y-21230000D02*
X10270000Y-21230000D01*
G75*
G02*
X10410000Y-21370000I0J-140000D01*
G01*
X10410000Y-21650000D01*
G75*
G02*
X10270000Y-21790000I-140000J0D01*
G01*
X9930000Y-21790000D01*
G75*
G02*
X9790000Y-21650000I0J140000D01*
G01*
X9790000Y-21370000D01*
G75*
G02*
X9930000Y-21230000I140000J0D01*
G01*
G37*
G04 #@! TD*
G04 #@! TO.C,C35*
G36*
G01*
X14520000Y-22630000D02*
X14860000Y-22630000D01*
G75*
G02*
X15000000Y-22770000I0J-140000D01*
G01*
X15000000Y-23050000D01*
G75*
G02*
X14860000Y-23190000I-140000J0D01*
G01*
X14520000Y-23190000D01*
G75*
G02*
X14380000Y-23050000I0J140000D01*
G01*
X14380000Y-22770000D01*
G75*
G02*
X14520000Y-22630000I140000J0D01*
G01*
G37*
G36*
G01*
X14520000Y-21670000D02*
X14860000Y-21670000D01*
G75*
G02*
X15000000Y-21810000I0J-140000D01*
G01*
X15000000Y-22090000D01*
G75*
G02*
X14860000Y-22230000I-140000J0D01*
G01*
X14520000Y-22230000D01*
G75*
G02*
X14380000Y-22090000I0J140000D01*
G01*
X14380000Y-21810000D01*
G75*
G02*
X14520000Y-21670000I140000J0D01*
G01*
G37*
G04 #@! TD*
G04 #@! TO.C,C31*
G36*
G01*
X9530000Y-19330000D02*
X9870000Y-19330000D01*
G75*
G02*
X10010000Y-19470000I0J-140000D01*
G01*
X10010000Y-19750000D01*
G75*
G02*
X9870000Y-19890000I-140000J0D01*
G01*
X9530000Y-19890000D01*
G75*
G02*
X9390000Y-19750000I0J140000D01*
G01*
X9390000Y-19470000D01*
G75*
G02*
X9530000Y-19330000I140000J0D01*
G01*
G37*
G36*
G01*
X9530000Y-18370000D02*
X9870000Y-18370000D01*
G75*
G02*
X10010000Y-18510000I0J-140000D01*
G01*
X10010000Y-18790000D01*
G75*
G02*
X9870000Y-18930000I-140000J0D01*
G01*
X9530000Y-18930000D01*
G75*
G02*
X9390000Y-18790000I0J140000D01*
G01*
X9390000Y-18510000D01*
G75*
G02*
X9530000Y-18370000I140000J0D01*
G01*
G37*
G04 #@! TD*
G04 #@! TO.C,C28*
G36*
G01*
X7270000Y-17070000D02*
X6930000Y-17070000D01*
G75*
G02*
X6790000Y-16930000I0J140000D01*
G01*
X6790000Y-16650000D01*
G75*
G02*
X6930000Y-16510000I140000J0D01*
G01*
X7270000Y-16510000D01*
G75*
G02*
X7410000Y-16650000I0J-140000D01*
G01*
X7410000Y-16930000D01*
G75*
G02*
X7270000Y-17070000I-140000J0D01*
G01*
G37*
G36*
G01*
X7270000Y-18030000D02*
X6930000Y-18030000D01*
G75*
G02*
X6790000Y-17890000I0J140000D01*
G01*
X6790000Y-17610000D01*
G75*
G02*
X6930000Y-17470000I140000J0D01*
G01*
X7270000Y-17470000D01*
G75*
G02*
X7410000Y-17610000I0J-140000D01*
G01*
X7410000Y-17890000D01*
G75*
G02*
X7270000Y-18030000I-140000J0D01*
G01*
G37*
G04 #@! TD*
G04 #@! TO.C,C27*
G36*
G01*
X8270000Y-17070000D02*
X7930000Y-17070000D01*
G75*
G02*
X7790000Y-16930000I0J140000D01*
G01*
X7790000Y-16650000D01*
G75*
G02*
X7930000Y-16510000I140000J0D01*
G01*
X8270000Y-16510000D01*
G75*
G02*
X8410000Y-16650000I0J-140000D01*
G01*
X8410000Y-16930000D01*
G75*
G02*
X8270000Y-17070000I-140000J0D01*
G01*
G37*
G36*
G01*
X8270000Y-18030000D02*
X7930000Y-18030000D01*
G75*
G02*
X7790000Y-17890000I0J140000D01*
G01*
X7790000Y-17610000D01*
G75*
G02*
X7930000Y-17470000I140000J0D01*
G01*
X8270000Y-17470000D01*
G75*
G02*
X8410000Y-17610000I0J-140000D01*
G01*
X8410000Y-17890000D01*
G75*
G02*
X8270000Y-18030000I-140000J0D01*
G01*
G37*
G04 #@! TD*
G04 #@! TO.C,C26*
G36*
G01*
X18700000Y-16875000D02*
X18700000Y-17825000D01*
G75*
G02*
X18450000Y-18075000I-250000J0D01*
G01*
X17950000Y-18075000D01*
G75*
G02*
X17700000Y-17825000I0J250000D01*
G01*
X17700000Y-16875000D01*
G75*
G02*
X17950000Y-16625000I250000J0D01*
G01*
X18450000Y-16625000D01*
G75*
G02*
X18700000Y-16875000I0J-250000D01*
G01*
G37*
G36*
G01*
X20600000Y-16875000D02*
X20600000Y-17825000D01*
G75*
G02*
X20350000Y-18075000I-250000J0D01*
G01*
X19850000Y-18075000D01*
G75*
G02*
X19600000Y-17825000I0J250000D01*
G01*
X19600000Y-16875000D01*
G75*
G02*
X19850000Y-16625000I250000J0D01*
G01*
X20350000Y-16625000D01*
G75*
G02*
X20600000Y-16875000I0J-250000D01*
G01*
G37*
G04 #@! TD*
G04 #@! TO.C,C25*
G36*
G01*
X18700000Y-14825000D02*
X18700000Y-15775000D01*
G75*
G02*
X18450000Y-16025000I-250000J0D01*
G01*
X17950000Y-16025000D01*
G75*
G02*
X17700000Y-15775000I0J250000D01*
G01*
X17700000Y-14825000D01*
G75*
G02*
X17950000Y-14575000I250000J0D01*
G01*
X18450000Y-14575000D01*
G75*
G02*
X18700000Y-14825000I0J-250000D01*
G01*
G37*
G36*
G01*
X20600000Y-14825000D02*
X20600000Y-15775000D01*
G75*
G02*
X20350000Y-16025000I-250000J0D01*
G01*
X19850000Y-16025000D01*
G75*
G02*
X19600000Y-15775000I0J250000D01*
G01*
X19600000Y-14825000D01*
G75*
G02*
X19850000Y-14575000I250000J0D01*
G01*
X20350000Y-14575000D01*
G75*
G02*
X20600000Y-14825000I0J-250000D01*
G01*
G37*
G04 #@! TD*
G04 #@! TO.C,C24*
G36*
G01*
X19420000Y-13630000D02*
X19420000Y-13970000D01*
G75*
G02*
X19280000Y-14110000I-140000J0D01*
G01*
X19000000Y-14110000D01*
G75*
G02*
X18860000Y-13970000I0J140000D01*
G01*
X18860000Y-13630000D01*
G75*
G02*
X19000000Y-13490000I140000J0D01*
G01*
X19280000Y-13490000D01*
G75*
G02*
X19420000Y-13630000I0J-140000D01*
G01*
G37*
G36*
G01*
X20380000Y-13630000D02*
X20380000Y-13970000D01*
G75*
G02*
X20240000Y-14110000I-140000J0D01*
G01*
X19960000Y-14110000D01*
G75*
G02*
X19820000Y-13970000I0J140000D01*
G01*
X19820000Y-13630000D01*
G75*
G02*
X19960000Y-13490000I140000J0D01*
G01*
X20240000Y-13490000D01*
G75*
G02*
X20380000Y-13630000I0J-140000D01*
G01*
G37*
G04 #@! TD*
G04 #@! TO.C,C23*
G36*
G01*
X19420000Y-12630000D02*
X19420000Y-12970000D01*
G75*
G02*
X19280000Y-13110000I-140000J0D01*
G01*
X19000000Y-13110000D01*
G75*
G02*
X18860000Y-12970000I0J140000D01*
G01*
X18860000Y-12630000D01*
G75*
G02*
X19000000Y-12490000I140000J0D01*
G01*
X19280000Y-12490000D01*
G75*
G02*
X19420000Y-12630000I0J-140000D01*
G01*
G37*
G36*
G01*
X20380000Y-12630000D02*
X20380000Y-12970000D01*
G75*
G02*
X20240000Y-13110000I-140000J0D01*
G01*
X19960000Y-13110000D01*
G75*
G02*
X19820000Y-12970000I0J140000D01*
G01*
X19820000Y-12630000D01*
G75*
G02*
X19960000Y-12490000I140000J0D01*
G01*
X20240000Y-12490000D01*
G75*
G02*
X20380000Y-12630000I0J-140000D01*
G01*
G37*
G04 #@! TD*
G04 #@! TO.C,C22*
G36*
G01*
X25100000Y-27325000D02*
X25100000Y-28275000D01*
G75*
G02*
X24850000Y-28525000I-250000J0D01*
G01*
X24350000Y-28525000D01*
G75*
G02*
X24100000Y-28275000I0J250000D01*
G01*
X24100000Y-27325000D01*
G75*
G02*
X24350000Y-27075000I250000J0D01*
G01*
X24850000Y-27075000D01*
G75*
G02*
X25100000Y-27325000I0J-250000D01*
G01*
G37*
G36*
G01*
X27000000Y-27325000D02*
X27000000Y-28275000D01*
G75*
G02*
X26750000Y-28525000I-250000J0D01*
G01*
X26250000Y-28525000D01*
G75*
G02*
X26000000Y-28275000I0J250000D01*
G01*
X26000000Y-27325000D01*
G75*
G02*
X26250000Y-27075000I250000J0D01*
G01*
X26750000Y-27075000D01*
G75*
G02*
X27000000Y-27325000I0J-250000D01*
G01*
G37*
G04 #@! TD*
G04 #@! TO.C,C21*
G36*
G01*
X7075000Y-26250000D02*
X8025000Y-26250000D01*
G75*
G02*
X8275000Y-26500000I0J-250000D01*
G01*
X8275000Y-27000000D01*
G75*
G02*
X8025000Y-27250000I-250000J0D01*
G01*
X7075000Y-27250000D01*
G75*
G02*
X6825000Y-27000000I0J250000D01*
G01*
X6825000Y-26500000D01*
G75*
G02*
X7075000Y-26250000I250000J0D01*
G01*
G37*
G36*
G01*
X7075000Y-24350000D02*
X8025000Y-24350000D01*
G75*
G02*
X8275000Y-24600000I0J-250000D01*
G01*
X8275000Y-25100000D01*
G75*
G02*
X8025000Y-25350000I-250000J0D01*
G01*
X7075000Y-25350000D01*
G75*
G02*
X6825000Y-25100000I0J250000D01*
G01*
X6825000Y-24600000D01*
G75*
G02*
X7075000Y-24350000I250000J0D01*
G01*
G37*
G04 #@! TD*
G04 #@! TO.C,C20*
G36*
G01*
X25100000Y-23275000D02*
X25100000Y-24225000D01*
G75*
G02*
X24850000Y-24475000I-250000J0D01*
G01*
X24350000Y-24475000D01*
G75*
G02*
X24100000Y-24225000I0J250000D01*
G01*
X24100000Y-23275000D01*
G75*
G02*
X24350000Y-23025000I250000J0D01*
G01*
X24850000Y-23025000D01*
G75*
G02*
X25100000Y-23275000I0J-250000D01*
G01*
G37*
G36*
G01*
X27000000Y-23275000D02*
X27000000Y-24225000D01*
G75*
G02*
X26750000Y-24475000I-250000J0D01*
G01*
X26250000Y-24475000D01*
G75*
G02*
X26000000Y-24225000I0J250000D01*
G01*
X26000000Y-23275000D01*
G75*
G02*
X26250000Y-23025000I250000J0D01*
G01*
X26750000Y-23025000D01*
G75*
G02*
X27000000Y-23275000I0J-250000D01*
G01*
G37*
G04 #@! TD*
G04 #@! TO.C,C19*
G36*
G01*
X9125000Y-26250000D02*
X10075000Y-26250000D01*
G75*
G02*
X10325000Y-26500000I0J-250000D01*
G01*
X10325000Y-27000000D01*
G75*
G02*
X10075000Y-27250000I-250000J0D01*
G01*
X9125000Y-27250000D01*
G75*
G02*
X8875000Y-27000000I0J250000D01*
G01*
X8875000Y-26500000D01*
G75*
G02*
X9125000Y-26250000I250000J0D01*
G01*
G37*
G36*
G01*
X9125000Y-24350000D02*
X10075000Y-24350000D01*
G75*
G02*
X10325000Y-24600000I0J-250000D01*
G01*
X10325000Y-25100000D01*
G75*
G02*
X10075000Y-25350000I-250000J0D01*
G01*
X9125000Y-25350000D01*
G75*
G02*
X8875000Y-25100000I0J250000D01*
G01*
X8875000Y-24600000D01*
G75*
G02*
X9125000Y-24350000I250000J0D01*
G01*
G37*
G04 #@! TD*
G04 #@! TO.C,C18*
G36*
G01*
X25900000Y-26080000D02*
X25900000Y-26420000D01*
G75*
G02*
X25760000Y-26560000I-140000J0D01*
G01*
X25480000Y-26560000D01*
G75*
G02*
X25340000Y-26420000I0J140000D01*
G01*
X25340000Y-26080000D01*
G75*
G02*
X25480000Y-25940000I140000J0D01*
G01*
X25760000Y-25940000D01*
G75*
G02*
X25900000Y-26080000I0J-140000D01*
G01*
G37*
G36*
G01*
X26860000Y-26080000D02*
X26860000Y-26420000D01*
G75*
G02*
X26720000Y-26560000I-140000J0D01*
G01*
X26440000Y-26560000D01*
G75*
G02*
X26300000Y-26420000I0J140000D01*
G01*
X26300000Y-26080000D01*
G75*
G02*
X26440000Y-25940000I140000J0D01*
G01*
X26720000Y-25940000D01*
G75*
G02*
X26860000Y-26080000I0J-140000D01*
G01*
G37*
G04 #@! TD*
G04 #@! TO.C,C17*
G36*
G01*
X25900000Y-25080000D02*
X25900000Y-25420000D01*
G75*
G02*
X25760000Y-25560000I-140000J0D01*
G01*
X25480000Y-25560000D01*
G75*
G02*
X25340000Y-25420000I0J140000D01*
G01*
X25340000Y-25080000D01*
G75*
G02*
X25480000Y-24940000I140000J0D01*
G01*
X25760000Y-24940000D01*
G75*
G02*
X25900000Y-25080000I0J-140000D01*
G01*
G37*
G36*
G01*
X26860000Y-25080000D02*
X26860000Y-25420000D01*
G75*
G02*
X26720000Y-25560000I-140000J0D01*
G01*
X26440000Y-25560000D01*
G75*
G02*
X26300000Y-25420000I0J140000D01*
G01*
X26300000Y-25080000D01*
G75*
G02*
X26440000Y-24940000I140000J0D01*
G01*
X26720000Y-24940000D01*
G75*
G02*
X26860000Y-25080000I0J-140000D01*
G01*
G37*
G04 #@! TD*
G04 #@! TO.C,C16*
G36*
G01*
X17420000Y-26030000D02*
X17420000Y-26370000D01*
G75*
G02*
X17280000Y-26510000I-140000J0D01*
G01*
X17000000Y-26510000D01*
G75*
G02*
X16860000Y-26370000I0J140000D01*
G01*
X16860000Y-26030000D01*
G75*
G02*
X17000000Y-25890000I140000J0D01*
G01*
X17280000Y-25890000D01*
G75*
G02*
X17420000Y-26030000I0J-140000D01*
G01*
G37*
G36*
G01*
X18380000Y-26030000D02*
X18380000Y-26370000D01*
G75*
G02*
X18240000Y-26510000I-140000J0D01*
G01*
X17960000Y-26510000D01*
G75*
G02*
X17820000Y-26370000I0J140000D01*
G01*
X17820000Y-26030000D01*
G75*
G02*
X17960000Y-25890000I140000J0D01*
G01*
X18240000Y-25890000D01*
G75*
G02*
X18380000Y-26030000I0J-140000D01*
G01*
G37*
G04 #@! TD*
G04 #@! TO.C,C15*
G36*
G01*
X17420000Y-25080000D02*
X17420000Y-25420000D01*
G75*
G02*
X17280000Y-25560000I-140000J0D01*
G01*
X17000000Y-25560000D01*
G75*
G02*
X16860000Y-25420000I0J140000D01*
G01*
X16860000Y-25080000D01*
G75*
G02*
X17000000Y-24940000I140000J0D01*
G01*
X17280000Y-24940000D01*
G75*
G02*
X17420000Y-25080000I0J-140000D01*
G01*
G37*
G36*
G01*
X18380000Y-25080000D02*
X18380000Y-25420000D01*
G75*
G02*
X18240000Y-25560000I-140000J0D01*
G01*
X17960000Y-25560000D01*
G75*
G02*
X17820000Y-25420000I0J140000D01*
G01*
X17820000Y-25080000D01*
G75*
G02*
X17960000Y-24940000I140000J0D01*
G01*
X18240000Y-24940000D01*
G75*
G02*
X18380000Y-25080000I0J-140000D01*
G01*
G37*
G04 #@! TD*
G04 #@! TO.C,C14*
G36*
G01*
X20220000Y-26080000D02*
X20220000Y-26420000D01*
G75*
G02*
X20080000Y-26560000I-140000J0D01*
G01*
X19800000Y-26560000D01*
G75*
G02*
X19660000Y-26420000I0J140000D01*
G01*
X19660000Y-26080000D01*
G75*
G02*
X19800000Y-25940000I140000J0D01*
G01*
X20080000Y-25940000D01*
G75*
G02*
X20220000Y-26080000I0J-140000D01*
G01*
G37*
G36*
G01*
X21180000Y-26080000D02*
X21180000Y-26420000D01*
G75*
G02*
X21040000Y-26560000I-140000J0D01*
G01*
X20760000Y-26560000D01*
G75*
G02*
X20620000Y-26420000I0J140000D01*
G01*
X20620000Y-26080000D01*
G75*
G02*
X20760000Y-25940000I140000J0D01*
G01*
X21040000Y-25940000D01*
G75*
G02*
X21180000Y-26080000I0J-140000D01*
G01*
G37*
G04 #@! TD*
G04 #@! TO.C,C13*
G36*
G01*
X20220000Y-25080000D02*
X20220000Y-25420000D01*
G75*
G02*
X20080000Y-25560000I-140000J0D01*
G01*
X19800000Y-25560000D01*
G75*
G02*
X19660000Y-25420000I0J140000D01*
G01*
X19660000Y-25080000D01*
G75*
G02*
X19800000Y-24940000I140000J0D01*
G01*
X20080000Y-24940000D01*
G75*
G02*
X20220000Y-25080000I0J-140000D01*
G01*
G37*
G36*
G01*
X21180000Y-25080000D02*
X21180000Y-25420000D01*
G75*
G02*
X21040000Y-25560000I-140000J0D01*
G01*
X20760000Y-25560000D01*
G75*
G02*
X20620000Y-25420000I0J140000D01*
G01*
X20620000Y-25080000D01*
G75*
G02*
X20760000Y-24940000I140000J0D01*
G01*
X21040000Y-24940000D01*
G75*
G02*
X21180000Y-25080000I0J-140000D01*
G01*
G37*
G04 #@! TD*
G04 #@! TO.C,C12*
G36*
G01*
X22120000Y-26080000D02*
X22120000Y-26420000D01*
G75*
G02*
X21980000Y-26560000I-140000J0D01*
G01*
X21700000Y-26560000D01*
G75*
G02*
X21560000Y-26420000I0J140000D01*
G01*
X21560000Y-26080000D01*
G75*
G02*
X21700000Y-25940000I140000J0D01*
G01*
X21980000Y-25940000D01*
G75*
G02*
X22120000Y-26080000I0J-140000D01*
G01*
G37*
G36*
G01*
X23080000Y-26080000D02*
X23080000Y-26420000D01*
G75*
G02*
X22940000Y-26560000I-140000J0D01*
G01*
X22660000Y-26560000D01*
G75*
G02*
X22520000Y-26420000I0J140000D01*
G01*
X22520000Y-26080000D01*
G75*
G02*
X22660000Y-25940000I140000J0D01*
G01*
X22940000Y-25940000D01*
G75*
G02*
X23080000Y-26080000I0J-140000D01*
G01*
G37*
G04 #@! TD*
G04 #@! TO.C,C11*
G36*
G01*
X22120000Y-25080000D02*
X22120000Y-25420000D01*
G75*
G02*
X21980000Y-25560000I-140000J0D01*
G01*
X21700000Y-25560000D01*
G75*
G02*
X21560000Y-25420000I0J140000D01*
G01*
X21560000Y-25080000D01*
G75*
G02*
X21700000Y-24940000I140000J0D01*
G01*
X21980000Y-24940000D01*
G75*
G02*
X22120000Y-25080000I0J-140000D01*
G01*
G37*
G36*
G01*
X23080000Y-25080000D02*
X23080000Y-25420000D01*
G75*
G02*
X22940000Y-25560000I-140000J0D01*
G01*
X22660000Y-25560000D01*
G75*
G02*
X22520000Y-25420000I0J140000D01*
G01*
X22520000Y-25080000D01*
G75*
G02*
X22660000Y-24940000I140000J0D01*
G01*
X22940000Y-24940000D01*
G75*
G02*
X23080000Y-25080000I0J-140000D01*
G01*
G37*
G04 #@! TD*
G04 #@! TO.C,C10*
G36*
G01*
X24000000Y-26080000D02*
X24000000Y-26420000D01*
G75*
G02*
X23860000Y-26560000I-140000J0D01*
G01*
X23580000Y-26560000D01*
G75*
G02*
X23440000Y-26420000I0J140000D01*
G01*
X23440000Y-26080000D01*
G75*
G02*
X23580000Y-25940000I140000J0D01*
G01*
X23860000Y-25940000D01*
G75*
G02*
X24000000Y-26080000I0J-140000D01*
G01*
G37*
G36*
G01*
X24960000Y-26080000D02*
X24960000Y-26420000D01*
G75*
G02*
X24820000Y-26560000I-140000J0D01*
G01*
X24540000Y-26560000D01*
G75*
G02*
X24400000Y-26420000I0J140000D01*
G01*
X24400000Y-26080000D01*
G75*
G02*
X24540000Y-25940000I140000J0D01*
G01*
X24820000Y-25940000D01*
G75*
G02*
X24960000Y-26080000I0J-140000D01*
G01*
G37*
G04 #@! TD*
G04 #@! TO.C,C9*
G36*
G01*
X24000000Y-25080000D02*
X24000000Y-25420000D01*
G75*
G02*
X23860000Y-25560000I-140000J0D01*
G01*
X23580000Y-25560000D01*
G75*
G02*
X23440000Y-25420000I0J140000D01*
G01*
X23440000Y-25080000D01*
G75*
G02*
X23580000Y-24940000I140000J0D01*
G01*
X23860000Y-24940000D01*
G75*
G02*
X24000000Y-25080000I0J-140000D01*
G01*
G37*
G36*
G01*
X24960000Y-25080000D02*
X24960000Y-25420000D01*
G75*
G02*
X24820000Y-25560000I-140000J0D01*
G01*
X24540000Y-25560000D01*
G75*
G02*
X24400000Y-25420000I0J140000D01*
G01*
X24400000Y-25080000D01*
G75*
G02*
X24540000Y-24940000I140000J0D01*
G01*
X24820000Y-24940000D01*
G75*
G02*
X24960000Y-25080000I0J-140000D01*
G01*
G37*
G04 #@! TD*
G04 #@! TO.C,C8*
G36*
G01*
X26880000Y-19000000D02*
X27220000Y-19000000D01*
G75*
G02*
X27360000Y-19140000I0J-140000D01*
G01*
X27360000Y-19420000D01*
G75*
G02*
X27220000Y-19560000I-140000J0D01*
G01*
X26880000Y-19560000D01*
G75*
G02*
X26740000Y-19420000I0J140000D01*
G01*
X26740000Y-19140000D01*
G75*
G02*
X26880000Y-19000000I140000J0D01*
G01*
G37*
G36*
G01*
X26880000Y-18040000D02*
X27220000Y-18040000D01*
G75*
G02*
X27360000Y-18180000I0J-140000D01*
G01*
X27360000Y-18460000D01*
G75*
G02*
X27220000Y-18600000I-140000J0D01*
G01*
X26880000Y-18600000D01*
G75*
G02*
X26740000Y-18460000I0J140000D01*
G01*
X26740000Y-18180000D01*
G75*
G02*
X26880000Y-18040000I140000J0D01*
G01*
G37*
G04 #@! TD*
G04 #@! TO.C,C7*
G36*
G01*
X27880000Y-19000000D02*
X28220000Y-19000000D01*
G75*
G02*
X28360000Y-19140000I0J-140000D01*
G01*
X28360000Y-19420000D01*
G75*
G02*
X28220000Y-19560000I-140000J0D01*
G01*
X27880000Y-19560000D01*
G75*
G02*
X27740000Y-19420000I0J140000D01*
G01*
X27740000Y-19140000D01*
G75*
G02*
X27880000Y-19000000I140000J0D01*
G01*
G37*
G36*
G01*
X27880000Y-18040000D02*
X28220000Y-18040000D01*
G75*
G02*
X28360000Y-18180000I0J-140000D01*
G01*
X28360000Y-18460000D01*
G75*
G02*
X28220000Y-18600000I-140000J0D01*
G01*
X27880000Y-18600000D01*
G75*
G02*
X27740000Y-18460000I0J140000D01*
G01*
X27740000Y-18180000D01*
G75*
G02*
X27880000Y-18040000I140000J0D01*
G01*
G37*
G04 #@! TD*
G04 #@! TO.C,C6*
G36*
G01*
X23990000Y-13920000D02*
X23990000Y-13580000D01*
G75*
G02*
X24130000Y-13440000I140000J0D01*
G01*
X24410000Y-13440000D01*
G75*
G02*
X24550000Y-13580000I0J-140000D01*
G01*
X24550000Y-13920000D01*
G75*
G02*
X24410000Y-14060000I-140000J0D01*
G01*
X24130000Y-14060000D01*
G75*
G02*
X23990000Y-13920000I0J140000D01*
G01*
G37*
G36*
G01*
X24950000Y-13920000D02*
X24950000Y-13580000D01*
G75*
G02*
X25090000Y-13440000I140000J0D01*
G01*
X25370000Y-13440000D01*
G75*
G02*
X25510000Y-13580000I0J-140000D01*
G01*
X25510000Y-13920000D01*
G75*
G02*
X25370000Y-14060000I-140000J0D01*
G01*
X25090000Y-14060000D01*
G75*
G02*
X24950000Y-13920000I0J140000D01*
G01*
G37*
G04 #@! TD*
G04 #@! TO.C,C5*
G36*
G01*
X23990000Y-12920000D02*
X23990000Y-12580000D01*
G75*
G02*
X24130000Y-12440000I140000J0D01*
G01*
X24410000Y-12440000D01*
G75*
G02*
X24550000Y-12580000I0J-140000D01*
G01*
X24550000Y-12920000D01*
G75*
G02*
X24410000Y-13060000I-140000J0D01*
G01*
X24130000Y-13060000D01*
G75*
G02*
X23990000Y-12920000I0J140000D01*
G01*
G37*
G36*
G01*
X24950000Y-12920000D02*
X24950000Y-12580000D01*
G75*
G02*
X25090000Y-12440000I140000J0D01*
G01*
X25370000Y-12440000D01*
G75*
G02*
X25510000Y-12580000I0J-140000D01*
G01*
X25510000Y-12920000D01*
G75*
G02*
X25370000Y-13060000I-140000J0D01*
G01*
X25090000Y-13060000D01*
G75*
G02*
X24950000Y-12920000I0J140000D01*
G01*
G37*
G04 #@! TD*
G04 #@! TO.C,C2*
G36*
G01*
X11230000Y-23640000D02*
X11570000Y-23640000D01*
G75*
G02*
X11710000Y-23780000I0J-140000D01*
G01*
X11710000Y-24060000D01*
G75*
G02*
X11570000Y-24200000I-140000J0D01*
G01*
X11230000Y-24200000D01*
G75*
G02*
X11090000Y-24060000I0J140000D01*
G01*
X11090000Y-23780000D01*
G75*
G02*
X11230000Y-23640000I140000J0D01*
G01*
G37*
G36*
G01*
X11230000Y-24600000D02*
X11570000Y-24600000D01*
G75*
G02*
X11710000Y-24740000I0J-140000D01*
G01*
X11710000Y-25020000D01*
G75*
G02*
X11570000Y-25160000I-140000J0D01*
G01*
X11230000Y-25160000D01*
G75*
G02*
X11090000Y-25020000I0J140000D01*
G01*
X11090000Y-24740000D01*
G75*
G02*
X11230000Y-24600000I140000J0D01*
G01*
G37*
G04 #@! TD*
G04 #@! TO.C,C1*
G36*
G01*
X12230000Y-24600000D02*
X12570000Y-24600000D01*
G75*
G02*
X12710000Y-24740000I0J-140000D01*
G01*
X12710000Y-25020000D01*
G75*
G02*
X12570000Y-25160000I-140000J0D01*
G01*
X12230000Y-25160000D01*
G75*
G02*
X12090000Y-25020000I0J140000D01*
G01*
X12090000Y-24740000D01*
G75*
G02*
X12230000Y-24600000I140000J0D01*
G01*
G37*
G36*
G01*
X12230000Y-23640000D02*
X12570000Y-23640000D01*
G75*
G02*
X12710000Y-23780000I0J-140000D01*
G01*
X12710000Y-24060000D01*
G75*
G02*
X12570000Y-24200000I-140000J0D01*
G01*
X12230000Y-24200000D01*
G75*
G02*
X12090000Y-24060000I0J140000D01*
G01*
X12090000Y-23780000D01*
G75*
G02*
X12230000Y-23640000I140000J0D01*
G01*
G37*
G04 #@! TD*
D15*
G04 #@! TO.C,J4*
X40637500Y-12350000D03*
X40637500Y-26650000D03*
D16*
X37387500Y-14250000D03*
X37387500Y-14750000D03*
X37387500Y-15250000D03*
X37387500Y-15750000D03*
X37387500Y-16250000D03*
X37387500Y-16750000D03*
X37387500Y-17250000D03*
X37387500Y-17750000D03*
X37387500Y-18250000D03*
X37387500Y-18750000D03*
X37387500Y-19250000D03*
X37387500Y-19750000D03*
X37387500Y-20250000D03*
X37387500Y-20750000D03*
X37387500Y-21250000D03*
X37387500Y-21750000D03*
X37387500Y-22250000D03*
X37387500Y-22750000D03*
X37387500Y-23250000D03*
X37387500Y-23750000D03*
X37387500Y-24250000D03*
X37387500Y-24750000D03*
G04 #@! TD*
M02*
