G04 #@! TF.GenerationSoftware,KiCad,Pcbnew,8.0.4*
G04 #@! TF.CreationDate,2025-01-16T23:08:25-08:00*
G04 #@! TF.ProjectId,GMAX4002_MIPI_Breakout,474d4158-3430-4303-925f-4d4950495f42,rev?*
G04 #@! TF.SameCoordinates,Original*
G04 #@! TF.FileFunction,Copper,L3,Inr*
G04 #@! TF.FilePolarity,Positive*
%FSLAX46Y46*%
G04 Gerber Fmt 4.6, Leading zero omitted, Abs format (unit mm)*
G04 Created by KiCad (PCBNEW 8.0.4) date 2025-01-16 23:08:25*
%MOMM*%
%LPD*%
G01*
G04 APERTURE LIST*
G04 #@! TA.AperFunction,ViaPad*
%ADD10C,0.400000*%
G04 #@! TD*
G04 #@! TA.AperFunction,ViaPad*
%ADD11C,0.450000*%
G04 #@! TD*
G04 #@! TA.AperFunction,Conductor*
%ADD12C,0.800000*%
G04 #@! TD*
G04 APERTURE END LIST*
D10*
G04 #@! TO.N,GND*
X16000000Y-28400000D03*
X17900000Y-17850000D03*
X18500000Y-17850000D03*
X17900000Y-16850000D03*
X18500000Y-16850000D03*
X17900000Y-15800000D03*
X18500000Y-15800000D03*
X18500000Y-14800000D03*
X17900000Y-14800000D03*
X27450000Y-5900000D03*
X27450000Y-7350000D03*
X21050000Y-10250000D03*
X18500000Y-11000000D03*
G04 #@! TO.N,VDDIO*
X18500000Y-9350000D03*
X20750000Y-9325000D03*
G04 #@! TO.N,GND*
X32750000Y-37650000D03*
X11600000Y-2350000D03*
X29800000Y-17800000D03*
X30400000Y-19350000D03*
X30650000Y-17300000D03*
X30750000Y-15650000D03*
X33750000Y-18700000D03*
X33750000Y-20250000D03*
G04 #@! TO.N,CAM_D1_P*
X31100000Y-16775000D03*
G04 #@! TO.N,CAM_D1_N*
X31100000Y-16225000D03*
G04 #@! TO.N,CAM_D0_P*
X33350000Y-15275000D03*
G04 #@! TO.N,CAM_D0_N*
X33350000Y-14725000D03*
G04 #@! TO.N,CAM_CLK_N*
X30055545Y-18355545D03*
G04 #@! TO.N,CAM_CLK_P*
X30444455Y-18744455D03*
G04 #@! TO.N,CAM_D2_N*
X33350000Y-19225000D03*
G04 #@! TO.N,CAM_D2_P*
X33350000Y-19775000D03*
G04 #@! TO.N,+5V*
X13950000Y-37700000D03*
G04 #@! TO.N,GND*
X9850000Y-14950000D03*
X8900000Y-14950000D03*
X8900000Y-17100000D03*
X9800000Y-17100000D03*
X9700000Y-19600000D03*
X8700000Y-19610000D03*
X11700000Y-25400000D03*
X8800000Y-33200000D03*
G04 #@! TO.N,VDD*
X19150000Y-21550000D03*
G04 #@! TO.N,VDDA*
X8800000Y-31150000D03*
G04 #@! TO.N,+5V*
X27400000Y-37700000D03*
G04 #@! TO.N,GND*
X36350000Y-23250000D03*
X38450000Y-23250000D03*
X35350000Y-14200000D03*
X35350000Y-15750000D03*
X35350000Y-17250000D03*
X35350000Y-18750000D03*
X35350000Y-20200000D03*
X35350000Y-21800000D03*
X38450000Y-21750000D03*
X38400000Y-20250000D03*
X38400000Y-18750000D03*
X38400000Y-17250000D03*
X38400000Y-15750000D03*
X38400000Y-14250000D03*
X41000000Y-36700000D03*
X41000000Y-35500000D03*
X42000000Y-36700000D03*
X42000000Y-35500000D03*
X42000000Y-30200000D03*
X41000000Y-30200000D03*
X42000000Y-29000000D03*
X41000000Y-29000000D03*
X39100000Y-31500000D03*
X38100000Y-31500000D03*
X39100000Y-32300000D03*
X38100000Y-32300000D03*
X39800000Y-26000000D03*
X41500000Y-26000000D03*
X39800000Y-27300000D03*
X41500000Y-27300000D03*
X39800000Y-11700000D03*
X39800000Y-13000000D03*
X41500000Y-13000000D03*
X41500000Y-11700000D03*
D11*
G04 #@! TO.N,+3V3*
X27450000Y-10200000D03*
X39300000Y-7400000D03*
X38400000Y-7400000D03*
X37100000Y-25500000D03*
X37800000Y-25500000D03*
X37100000Y-24850000D03*
X37800000Y-24850000D03*
D10*
G04 #@! TO.N,GND*
X39300000Y-8400000D03*
X38400000Y-8400000D03*
X42200000Y-3800000D03*
X42200000Y-4400000D03*
X43300000Y-3800000D03*
X43300000Y-4400000D03*
X43300000Y-9400000D03*
X43300000Y-10000000D03*
X42200000Y-10000000D03*
X42200000Y-9400000D03*
G04 #@! TO.N,SCL_3V3*
X38850000Y-5400000D03*
X36300000Y-8400000D03*
G04 #@! TO.N,VDD*
X22500000Y-28900000D03*
X21800000Y-28900000D03*
X23200000Y-28900000D03*
X21100000Y-28900000D03*
X23200000Y-28200000D03*
X22500000Y-28200000D03*
X21800000Y-28200000D03*
X21100000Y-28200000D03*
G04 #@! TO.N,VDDA*
X14700000Y-29500000D03*
X14700000Y-28950000D03*
X14700000Y-28400000D03*
X14100000Y-29500000D03*
X14100000Y-28950000D03*
X14100000Y-28400000D03*
G04 #@! TO.N,GND*
X28410000Y-10750000D03*
X27680000Y-5260200D03*
X16000000Y-2400000D03*
X16400000Y-2800000D03*
X16850000Y-3900000D03*
X16850000Y-4700000D03*
G04 #@! TO.N,CAM_EN*
X15900000Y-4300000D03*
G04 #@! TO.N,Net-(U1-TEXP)*
X11600000Y-7950000D03*
G04 #@! TO.N,Net-(U1-TDIG)*
X11600000Y-5900000D03*
G04 #@! TO.N,VDDIO*
X18100000Y-6400000D03*
X18100000Y-7050000D03*
X18800000Y-6400000D03*
X18800000Y-7050000D03*
X19550000Y-7050000D03*
X19550000Y-6400000D03*
G04 #@! TO.N,GND*
X7100000Y-27000000D03*
X8050000Y-26500000D03*
X9100000Y-27000000D03*
X10050000Y-26500000D03*
X10050000Y-27000000D03*
X9100000Y-26500000D03*
X8050000Y-27000000D03*
X7100000Y-26500000D03*
X10550000Y-28400000D03*
X24050000Y-32250000D03*
X24050000Y-31350000D03*
X24750000Y-30200000D03*
X24300000Y-29700000D03*
X30000000Y-32750000D03*
X30000000Y-31600000D03*
X30000000Y-32187500D03*
X28600000Y-32850000D03*
X28600000Y-32200000D03*
X28600000Y-31550000D03*
X27272500Y-31800000D03*
X27300000Y-33100000D03*
X24900000Y-36350000D03*
X24450000Y-35850000D03*
X11300000Y-34750000D03*
X14950000Y-34450000D03*
X15400000Y-34950000D03*
X15400000Y-32550000D03*
X14900000Y-32100000D03*
X13600000Y-32000000D03*
X12000000Y-32000000D03*
X12800000Y-32000000D03*
G04 #@! TO.N,Net-(U5-SS_CTRL)*
X11200000Y-33200000D03*
X13550000Y-33900000D03*
G04 #@! TO.N,CAM_EN*
X12300000Y-33950000D03*
G04 #@! TO.N,+5V*
X13300000Y-37700000D03*
G04 #@! TO.N,VDD*
X27242500Y-34550000D03*
G04 #@! TO.N,GND*
X30800000Y-34637500D03*
X32000000Y-34637500D03*
X31400000Y-34637500D03*
X13050000Y-36800000D03*
X14250000Y-36800000D03*
X13650000Y-36800000D03*
G04 #@! TO.N,CAM_EN*
X25012500Y-31812500D03*
G04 #@! TO.N,+5V*
X21550000Y-37700000D03*
X31400000Y-35550000D03*
X16200000Y-1100000D03*
G04 #@! TO.N,SDA_1V8*
X17250000Y-11950000D03*
G04 #@! TO.N,SCL_1V8*
X17525000Y-11275000D03*
G04 #@! TO.N,VDDA*
X13600000Y-8800000D03*
X14200000Y-8800000D03*
X13600000Y-9600000D03*
X14200000Y-9600000D03*
X10600000Y-12800000D03*
X11200000Y-12800000D03*
X10600000Y-13600000D03*
X11200000Y-13600000D03*
X10600000Y-11500000D03*
X11200000Y-11500000D03*
X11200000Y-10700000D03*
X10600000Y-10700000D03*
G04 #@! TO.N,GND*
X26500000Y-15650000D03*
X26500000Y-16350000D03*
X33800000Y-15750000D03*
X33800000Y-14250000D03*
X33000000Y-20250000D03*
X33000000Y-18700000D03*
G04 #@! TO.N,Net-(U1-SYS_RST_N)*
X21610000Y-6600000D03*
G04 #@! TO.N,GND*
X20900000Y-14250000D03*
G04 #@! TO.N,CAM_D3_P*
X27600000Y-16350000D03*
G04 #@! TO.N,CAM_D3_N*
X27600000Y-15650000D03*
G04 #@! TO.N,GND*
X28200000Y-19150000D03*
X27600000Y-19150000D03*
X27000000Y-19150000D03*
X18550000Y-27450000D03*
X18550000Y-28450000D03*
X15550000Y-8650000D03*
X15550000Y-9650000D03*
X15600000Y-10700000D03*
X15600000Y-11700000D03*
X9000000Y-12450000D03*
X9000000Y-13450000D03*
X9000000Y-10600000D03*
X9000000Y-11600000D03*
X8100000Y-14690000D03*
X7100000Y-14690000D03*
X8100000Y-16800000D03*
X7100000Y-16800000D03*
X8000000Y-23700000D03*
X7000000Y-23700000D03*
X10100000Y-21500000D03*
X9100000Y-21500000D03*
X7100000Y-21490000D03*
X8100000Y-21500000D03*
X14950000Y-10450000D03*
X14950000Y-11650000D03*
X14950000Y-11050000D03*
X12100000Y-10450000D03*
X12100000Y-11650000D03*
X12100000Y-11050000D03*
G04 #@! TO.N,VDDIO*
X15300000Y-13250000D03*
X15300000Y-12650000D03*
X15301274Y-13850691D03*
X20201274Y-13850691D03*
X20200000Y-12650000D03*
X20200000Y-13250000D03*
G04 #@! TO.N,VTX2L*
X12000000Y-21250000D03*
X10800000Y-21250000D03*
X11400000Y-21250000D03*
G04 #@! TO.N,VDDA*
X23700000Y-11550000D03*
X23700000Y-11000000D03*
X23700000Y-10450000D03*
G04 #@! TO.N,VTX1H*
X9200000Y-18650000D03*
X8600000Y-18650000D03*
X9800000Y-18650000D03*
G04 #@! TO.N,GND*
X19350000Y-12650000D03*
X19350000Y-13850000D03*
X19350000Y-13250000D03*
X18800000Y-12650000D03*
X18800000Y-13850000D03*
X18800000Y-13250000D03*
X25100000Y-12650000D03*
X25100000Y-13850000D03*
X25100000Y-13250000D03*
G04 #@! TO.N,VDDA*
X19500000Y-28500000D03*
X19500000Y-27950000D03*
X19500000Y-27400000D03*
G04 #@! TO.N,VDD*
X11950000Y-24050000D03*
X11400000Y-24050000D03*
X10850000Y-24050000D03*
G04 #@! TO.N,GND*
X22150000Y-25150000D03*
X22150000Y-26350000D03*
X22150000Y-25750000D03*
X23700000Y-25150000D03*
X23700000Y-26350000D03*
X23700000Y-25750000D03*
X20200000Y-25150000D03*
X20200000Y-26350000D03*
X20200000Y-25750000D03*
X21600000Y-25150000D03*
X21600000Y-26350000D03*
X21600000Y-25750000D03*
X18800000Y-25150000D03*
X18800000Y-26350000D03*
X18800000Y-25750000D03*
X17400000Y-25150000D03*
X17400000Y-26350000D03*
X17400000Y-25750000D03*
X13200000Y-25150000D03*
X13200000Y-26350000D03*
X13200000Y-25750000D03*
X11100000Y-25400000D03*
X11700000Y-24750000D03*
X11100000Y-24750000D03*
X10800000Y-19850000D03*
X12000000Y-19850000D03*
X11400000Y-19850000D03*
X10800000Y-14950000D03*
X12000000Y-14950000D03*
X11400000Y-14950000D03*
X12500000Y-12650000D03*
X12500000Y-13850000D03*
X12500000Y-13250000D03*
X14600000Y-12650000D03*
X14600000Y-13850000D03*
X14600000Y-13250000D03*
X23000000Y-13850000D03*
X23000000Y-12650000D03*
X23000000Y-13250000D03*
G04 #@! TO.N,CLOCK*
X20900000Y-13250000D03*
G04 #@! TO.N,VDD*
X13200000Y-13250000D03*
X13200000Y-12650000D03*
X13200000Y-13850000D03*
G04 #@! TO.N,VDDA*
X22300000Y-13750000D03*
X22300000Y-13200000D03*
X22300000Y-12650000D03*
G04 #@! TO.N,VDD*
X24400000Y-13250000D03*
X24400000Y-12700000D03*
X24400000Y-13800000D03*
X27600000Y-18450000D03*
X27050000Y-18450000D03*
X28150000Y-18450000D03*
X18100000Y-26300000D03*
X20900000Y-26300000D03*
X24400000Y-26300000D03*
X26500000Y-26300000D03*
X23000000Y-26300000D03*
X18100000Y-25200000D03*
X20900000Y-25200000D03*
X24400000Y-25200000D03*
X26500000Y-25200000D03*
X23000000Y-25200000D03*
G04 #@! TO.N,VDDA*
X15300000Y-25200000D03*
X15300000Y-25750000D03*
X15300000Y-26300000D03*
X13900000Y-13850000D03*
X13900000Y-13250000D03*
X13900000Y-12650000D03*
X12000000Y-14250000D03*
X11400000Y-14250000D03*
X10850000Y-14250000D03*
X12000000Y-16350000D03*
G04 #@! TO.N,VDD*
X18100000Y-25750000D03*
X20900000Y-25750000D03*
X23000000Y-25750000D03*
X26500000Y-25750000D03*
X24400000Y-25750000D03*
G04 #@! TO.N,VTX1L*
X10800000Y-20550000D03*
G04 #@! TO.N,VCPPI*
X10800000Y-17050000D03*
G04 #@! TO.N,VCPPO*
X10800000Y-15650000D03*
G04 #@! TO.N,VGRSTH*
X10800000Y-17750000D03*
G04 #@! TO.N,VTX2H*
X10800000Y-19150000D03*
G04 #@! TO.N,VTX1L*
X12000000Y-20550000D03*
G04 #@! TO.N,VCPPI*
X12000000Y-17050000D03*
G04 #@! TO.N,VCPPO*
X12000000Y-15650000D03*
G04 #@! TO.N,VGRSTH*
X12000000Y-17750000D03*
G04 #@! TO.N,VTX2H*
X12000000Y-19150000D03*
G04 #@! TO.N,VCPPO*
X11400000Y-15650000D03*
G04 #@! TO.N,VDDA*
X11400000Y-16350000D03*
G04 #@! TO.N,VCPPI*
X11400000Y-17050000D03*
G04 #@! TO.N,VGRSTH*
X11400000Y-17750000D03*
G04 #@! TO.N,VTX2H*
X11400000Y-19150000D03*
G04 #@! TO.N,VTX1L*
X11400000Y-20550000D03*
G04 #@! TO.N,VGRSTL*
X10800000Y-21950000D03*
X12000000Y-21950000D03*
X11400000Y-21950000D03*
G04 #@! TO.N,VCPNI*
X10800000Y-22650000D03*
X11400000Y-22650000D03*
X12000000Y-22650000D03*
G04 #@! TO.N,VDDA*
X10800000Y-16350000D03*
G04 #@! TD*
D12*
G04 #@! TO.N,+5V*
X8800000Y-1100000D02*
X16200000Y-1100000D01*
X2200000Y-30400000D02*
X2200000Y-7700000D01*
X9500000Y-37700000D02*
X2200000Y-30400000D01*
X2200000Y-7700000D02*
X8800000Y-1100000D01*
X31400000Y-35550000D02*
X29250000Y-37700000D01*
X29250000Y-37700000D02*
X9500000Y-37700000D01*
G04 #@! TO.N,+3V3*
X40700000Y-23400000D02*
X39250000Y-24850000D01*
X39950000Y-7400000D02*
X40700000Y-8150000D01*
X40700000Y-8150000D02*
X40700000Y-23400000D01*
X29400000Y-7400000D02*
X39950000Y-7400000D01*
X39250000Y-24850000D02*
X37800000Y-24850000D01*
X27450000Y-9350000D02*
X29400000Y-7400000D01*
X27450000Y-10200000D02*
X27450000Y-9350000D01*
G04 #@! TD*
G04 #@! TA.AperFunction,Conductor*
G04 #@! TO.N,VDDIO*
G36*
X21465090Y-6118907D02*
G01*
X21501054Y-6168407D01*
X21501054Y-6229593D01*
X21465090Y-6279093D01*
X21451850Y-6287205D01*
X21401413Y-6312905D01*
X21322905Y-6391413D01*
X21272500Y-6490338D01*
X21272500Y-6490339D01*
X21255131Y-6600000D01*
X21272500Y-6709661D01*
X21322905Y-6808587D01*
X21401413Y-6887095D01*
X21500339Y-6937500D01*
X21584487Y-6950828D01*
X21609999Y-6954869D01*
X21609999Y-6954868D01*
X21610000Y-6954869D01*
X21635512Y-6950828D01*
X21695944Y-6960399D01*
X21739209Y-7003663D01*
X21750000Y-7048609D01*
X21750000Y-9299683D01*
X21749999Y-9300193D01*
X21724762Y-14196010D01*
X21705555Y-14254103D01*
X21655870Y-14289811D01*
X21625763Y-14294500D01*
X21346471Y-14294500D01*
X21288280Y-14275593D01*
X21252316Y-14226093D01*
X21248690Y-14210988D01*
X21247721Y-14204869D01*
X21237500Y-14140339D01*
X21187095Y-14041413D01*
X21108587Y-13962905D01*
X21009661Y-13912500D01*
X20900000Y-13895131D01*
X20790338Y-13912500D01*
X20691413Y-13962905D01*
X20612905Y-14041413D01*
X20562500Y-14140338D01*
X20551310Y-14210988D01*
X20523532Y-14265504D01*
X20469015Y-14293281D01*
X20453529Y-14294500D01*
X19640189Y-14294500D01*
X19581998Y-14275593D01*
X19546034Y-14226093D01*
X19546034Y-14164907D01*
X19570183Y-14125498D01*
X19637095Y-14058587D01*
X19687500Y-13959661D01*
X19704869Y-13850000D01*
X19687500Y-13740339D01*
X19637095Y-13641413D01*
X19615683Y-13620001D01*
X19587908Y-13565487D01*
X19597479Y-13505055D01*
X19615682Y-13479999D01*
X19637095Y-13458587D01*
X19687500Y-13359661D01*
X19704869Y-13250000D01*
X20545131Y-13250000D01*
X20562500Y-13359661D01*
X20612905Y-13458587D01*
X20691413Y-13537095D01*
X20790339Y-13587500D01*
X20900000Y-13604869D01*
X21009661Y-13587500D01*
X21108587Y-13537095D01*
X21187095Y-13458587D01*
X21237500Y-13359661D01*
X21254869Y-13250000D01*
X21237500Y-13140339D01*
X21187095Y-13041413D01*
X21108587Y-12962905D01*
X21009661Y-12912500D01*
X20900000Y-12895131D01*
X20790338Y-12912500D01*
X20691413Y-12962905D01*
X20612905Y-13041413D01*
X20562500Y-13140338D01*
X20562500Y-13140339D01*
X20545131Y-13250000D01*
X19704869Y-13250000D01*
X19687500Y-13140339D01*
X19637095Y-13041413D01*
X19615683Y-13020001D01*
X19587908Y-12965487D01*
X19597479Y-12905055D01*
X19615682Y-12879999D01*
X19637095Y-12858587D01*
X19687500Y-12759661D01*
X19704869Y-12650000D01*
X19687500Y-12540339D01*
X19637095Y-12441413D01*
X19558587Y-12362905D01*
X19459661Y-12312500D01*
X19350000Y-12295131D01*
X19240338Y-12312500D01*
X19141410Y-12362906D01*
X19135108Y-12367486D01*
X19133450Y-12365205D01*
X19090462Y-12387095D01*
X19030032Y-12377508D01*
X19015357Y-12366845D01*
X19014892Y-12367486D01*
X19008589Y-12362906D01*
X18909661Y-12312500D01*
X18800000Y-12295131D01*
X18690338Y-12312500D01*
X18591413Y-12362905D01*
X18512905Y-12441413D01*
X18462500Y-12540338D01*
X18462500Y-12540339D01*
X18445131Y-12650000D01*
X18462500Y-12759661D01*
X18512905Y-12858587D01*
X18534316Y-12879998D01*
X18562092Y-12934513D01*
X18552521Y-12994945D01*
X18534317Y-13020000D01*
X18512905Y-13041413D01*
X18462500Y-13140338D01*
X18462500Y-13140339D01*
X18445131Y-13250000D01*
X18462500Y-13359661D01*
X18512905Y-13458587D01*
X18534316Y-13479998D01*
X18562092Y-13534513D01*
X18552521Y-13594945D01*
X18534317Y-13620000D01*
X18516550Y-13637768D01*
X18512905Y-13641413D01*
X18462500Y-13740338D01*
X18462500Y-13740339D01*
X18445131Y-13850000D01*
X18462500Y-13959661D01*
X18512905Y-14058587D01*
X18585316Y-14130998D01*
X18613092Y-14185513D01*
X18603521Y-14245945D01*
X18560256Y-14289210D01*
X18515311Y-14300000D01*
X17520012Y-14300000D01*
X17500698Y-14298098D01*
X17482610Y-14294500D01*
X15199000Y-14294500D01*
X15140809Y-14275593D01*
X15104845Y-14226093D01*
X15100000Y-14195500D01*
X15100000Y-12549000D01*
X15118907Y-12490809D01*
X15168407Y-12454845D01*
X15199000Y-12450000D01*
X16775000Y-12450000D01*
X16955107Y-12269892D01*
X17009622Y-12242116D01*
X17070050Y-12251686D01*
X17140337Y-12287499D01*
X17140339Y-12287500D01*
X17250000Y-12304869D01*
X17359661Y-12287500D01*
X17458587Y-12237095D01*
X17537095Y-12158587D01*
X17587500Y-12059661D01*
X17604869Y-11950000D01*
X17587500Y-11840339D01*
X17545461Y-11757833D01*
X17535890Y-11697404D01*
X17563667Y-11642887D01*
X17618180Y-11615110D01*
X17634661Y-11612500D01*
X17733587Y-11562095D01*
X17812095Y-11483587D01*
X17862500Y-11384661D01*
X17879869Y-11275000D01*
X17862500Y-11165339D01*
X17812095Y-11066413D01*
X17745682Y-11000000D01*
X18145131Y-11000000D01*
X18162500Y-11109661D01*
X18212905Y-11208587D01*
X18291413Y-11287095D01*
X18390339Y-11337500D01*
X18500000Y-11354869D01*
X18609661Y-11337500D01*
X18708587Y-11287095D01*
X18787095Y-11208587D01*
X18837500Y-11109661D01*
X18854869Y-11000000D01*
X18853125Y-10988992D01*
X18852117Y-10982630D01*
X18837500Y-10890339D01*
X18787095Y-10791413D01*
X18708587Y-10712905D01*
X18609661Y-10662500D01*
X18500000Y-10645131D01*
X18390338Y-10662500D01*
X18291413Y-10712905D01*
X18212905Y-10791413D01*
X18162500Y-10890338D01*
X18146875Y-10988992D01*
X18145131Y-11000000D01*
X17745682Y-11000000D01*
X17733587Y-10987905D01*
X17634661Y-10937500D01*
X17593511Y-10930982D01*
X17538995Y-10903203D01*
X17511219Y-10848686D01*
X17510000Y-10833201D01*
X17510000Y-10250000D01*
X20695131Y-10250000D01*
X20712500Y-10359661D01*
X20762905Y-10458587D01*
X20841413Y-10537095D01*
X20940339Y-10587500D01*
X21050000Y-10604869D01*
X21159661Y-10587500D01*
X21258587Y-10537095D01*
X21337095Y-10458587D01*
X21387500Y-10359661D01*
X21404869Y-10250000D01*
X21387500Y-10140339D01*
X21337095Y-10041413D01*
X21258587Y-9962905D01*
X21159661Y-9912500D01*
X21050000Y-9895131D01*
X20940338Y-9912500D01*
X20841413Y-9962905D01*
X20762905Y-10041413D01*
X20712500Y-10140338D01*
X20712500Y-10140339D01*
X20695131Y-10250000D01*
X17510000Y-10250000D01*
X17510000Y-6199000D01*
X17528907Y-6140809D01*
X17578407Y-6104845D01*
X17609000Y-6100000D01*
X21406899Y-6100000D01*
X21465090Y-6118907D01*
G37*
G04 #@! TD.AperFunction*
G04 #@! TD*
G04 #@! TA.AperFunction,Conductor*
G04 #@! TO.N,VDDA*
G36*
X24057183Y-3218907D02*
G01*
X24068996Y-3228996D01*
X25061004Y-4221004D01*
X25088781Y-4275521D01*
X25090000Y-4291008D01*
X25090000Y-10458992D01*
X25071093Y-10517183D01*
X25061004Y-10528996D01*
X23271708Y-12318291D01*
X23217191Y-12346068D01*
X23156760Y-12336497D01*
X23109662Y-12312500D01*
X23109663Y-12312500D01*
X23000000Y-12295131D01*
X22890338Y-12312500D01*
X22791413Y-12362905D01*
X22712905Y-12441413D01*
X22662500Y-12540338D01*
X22659440Y-12559661D01*
X22645131Y-12650000D01*
X22662500Y-12759661D01*
X22712905Y-12858587D01*
X22734316Y-12879998D01*
X22762092Y-12934513D01*
X22752521Y-12994945D01*
X22734317Y-13020000D01*
X22722817Y-13031501D01*
X22712905Y-13041413D01*
X22662500Y-13140338D01*
X22662500Y-13140339D01*
X22645131Y-13250000D01*
X22662500Y-13359661D01*
X22712905Y-13458587D01*
X22734316Y-13479998D01*
X22762092Y-13534513D01*
X22752521Y-13594945D01*
X22734317Y-13620000D01*
X22722817Y-13631501D01*
X22712905Y-13641413D01*
X22662500Y-13740338D01*
X22662391Y-13741030D01*
X22645131Y-13850000D01*
X22662500Y-13959661D01*
X22712905Y-14058587D01*
X22779816Y-14125498D01*
X22807592Y-14180013D01*
X22798021Y-14240445D01*
X22754756Y-14283710D01*
X22709811Y-14294500D01*
X22139000Y-14294500D01*
X22080809Y-14275593D01*
X22044845Y-14226093D01*
X22040000Y-14195500D01*
X22040000Y-5900001D01*
X22040000Y-5900000D01*
X22039999Y-5900000D01*
X17240001Y-5900000D01*
X17240000Y-5900000D01*
X17240000Y-5900001D01*
X17240000Y-11038534D01*
X17229210Y-11083477D01*
X17228143Y-11085573D01*
X17187500Y-11165338D01*
X17172731Y-11258587D01*
X17170131Y-11275000D01*
X17187500Y-11384661D01*
X17228375Y-11464883D01*
X17237946Y-11525314D01*
X17210169Y-11579830D01*
X17210169Y-11579831D01*
X17207239Y-11582761D01*
X17152725Y-11610538D01*
X17140340Y-11612499D01*
X17140337Y-11612500D01*
X17041413Y-11662905D01*
X16962905Y-11741413D01*
X16912500Y-11840337D01*
X16912500Y-11840339D01*
X16910538Y-11852725D01*
X16882761Y-11907237D01*
X16618997Y-12171003D01*
X16564480Y-12198781D01*
X16548993Y-12200000D01*
X15803101Y-12200000D01*
X15744910Y-12181093D01*
X15708946Y-12131593D01*
X15708946Y-12070407D01*
X15744910Y-12020907D01*
X15758149Y-12012794D01*
X15808587Y-11987095D01*
X15887095Y-11908587D01*
X15937500Y-11809661D01*
X15954869Y-11700000D01*
X15937500Y-11590339D01*
X15887095Y-11491413D01*
X15808587Y-11412905D01*
X15709661Y-11362500D01*
X15600000Y-11345131D01*
X15490338Y-11362500D01*
X15391410Y-11412906D01*
X15391410Y-11412907D01*
X15370000Y-11434316D01*
X15315482Y-11462092D01*
X15255051Y-11452518D01*
X15229998Y-11434316D01*
X15215683Y-11420001D01*
X15187908Y-11365487D01*
X15197479Y-11305055D01*
X15215682Y-11279999D01*
X15237095Y-11258587D01*
X15287500Y-11159661D01*
X15299234Y-11085571D01*
X15327011Y-11031056D01*
X15381527Y-11003278D01*
X15441957Y-11012848D01*
X15490337Y-11037499D01*
X15490339Y-11037500D01*
X15600000Y-11054869D01*
X15709661Y-11037500D01*
X15808587Y-10987095D01*
X15887095Y-10908587D01*
X15937500Y-10809661D01*
X15954869Y-10700000D01*
X15937500Y-10590339D01*
X15887095Y-10491413D01*
X15808587Y-10412905D01*
X15709661Y-10362500D01*
X15600000Y-10345131D01*
X15490338Y-10362500D01*
X15425769Y-10395400D01*
X15365337Y-10404971D01*
X15310820Y-10377193D01*
X15292144Y-10346716D01*
X15291037Y-10347281D01*
X15287499Y-10340338D01*
X15237095Y-10241413D01*
X15158587Y-10162905D01*
X15059661Y-10112500D01*
X14950000Y-10095131D01*
X14840338Y-10112500D01*
X14741413Y-10162905D01*
X14662905Y-10241413D01*
X14612500Y-10340338D01*
X14609440Y-10359661D01*
X14595131Y-10450000D01*
X14612500Y-10559661D01*
X14662905Y-10658587D01*
X14684316Y-10679998D01*
X14712092Y-10734513D01*
X14702521Y-10794945D01*
X14684317Y-10820000D01*
X14662905Y-10841413D01*
X14612500Y-10940338D01*
X14598132Y-11031056D01*
X14595131Y-11050000D01*
X14612500Y-11159661D01*
X14662905Y-11258587D01*
X14684316Y-11279998D01*
X14712092Y-11334513D01*
X14702521Y-11394945D01*
X14684317Y-11420000D01*
X14670004Y-11434314D01*
X14662905Y-11441413D01*
X14612500Y-11540338D01*
X14598320Y-11629869D01*
X14595131Y-11650000D01*
X14612500Y-11759661D01*
X14662905Y-11858587D01*
X14741413Y-11937095D01*
X14840339Y-11987500D01*
X14930238Y-12001739D01*
X14939582Y-12003219D01*
X14948924Y-12007979D01*
X14960418Y-12003219D01*
X14968400Y-12001954D01*
X15059661Y-11987500D01*
X15158587Y-11937095D01*
X15179998Y-11915683D01*
X15234513Y-11887908D01*
X15294945Y-11897479D01*
X15320000Y-11915682D01*
X15391413Y-11987095D01*
X15441845Y-12012791D01*
X15485109Y-12056055D01*
X15494680Y-12116487D01*
X15466903Y-12171004D01*
X15412386Y-12198781D01*
X15396899Y-12200000D01*
X14975906Y-12200000D01*
X14953890Y-12192846D01*
X14924094Y-12200000D01*
X14390000Y-12200000D01*
X14240000Y-12350000D01*
X14240000Y-12350001D01*
X14240000Y-14195500D01*
X14221093Y-14253691D01*
X14171593Y-14289655D01*
X14141000Y-14294500D01*
X13739000Y-14294500D01*
X13680809Y-14275593D01*
X13644845Y-14226093D01*
X13640000Y-14195500D01*
X13640000Y-12350001D01*
X13640000Y-12350000D01*
X13490000Y-12200000D01*
X13489999Y-12200000D01*
X13363402Y-12200000D01*
X13344088Y-12198098D01*
X13326000Y-12194500D01*
X12942867Y-12194500D01*
X12942860Y-12194500D01*
X12902188Y-12199314D01*
X12890553Y-12200000D01*
X12240001Y-12200000D01*
X12240000Y-12200000D01*
X12240000Y-12200001D01*
X12240000Y-12373310D01*
X12221093Y-12431501D01*
X12214486Y-12439237D01*
X12212906Y-12441410D01*
X12162500Y-12540338D01*
X12145131Y-12649999D01*
X12145131Y-12650000D01*
X12162500Y-12759661D01*
X12212906Y-12858589D01*
X12217486Y-12864892D01*
X12215807Y-12866111D01*
X12238781Y-12911202D01*
X12240000Y-12926689D01*
X12240000Y-12973310D01*
X12221093Y-13031501D01*
X12214486Y-13039237D01*
X12212906Y-13041410D01*
X12162500Y-13140338D01*
X12145131Y-13249999D01*
X12145131Y-13250000D01*
X12162500Y-13359661D01*
X12212906Y-13458589D01*
X12217486Y-13464892D01*
X12215807Y-13466111D01*
X12238781Y-13511202D01*
X12240000Y-13526689D01*
X12240000Y-13573310D01*
X12221093Y-13631501D01*
X12214486Y-13639237D01*
X12212906Y-13641410D01*
X12162500Y-13740338D01*
X12145131Y-13849999D01*
X12145131Y-13850000D01*
X12162500Y-13959661D01*
X12212906Y-14058589D01*
X12217486Y-14064892D01*
X12215807Y-14066111D01*
X12238781Y-14111202D01*
X12240000Y-14126689D01*
X12240000Y-14155881D01*
X12232464Y-14193766D01*
X12210143Y-14247653D01*
X12194500Y-14326295D01*
X12194500Y-14510023D01*
X12175593Y-14568214D01*
X12126093Y-14604178D01*
X12080013Y-14607804D01*
X12000001Y-14595131D01*
X12000000Y-14595131D01*
X11890338Y-14612500D01*
X11882017Y-14616740D01*
X11791413Y-14662905D01*
X11770001Y-14684316D01*
X11715487Y-14712092D01*
X11655055Y-14702521D01*
X11629999Y-14684317D01*
X11608587Y-14662905D01*
X11509661Y-14612500D01*
X11400000Y-14595131D01*
X11290338Y-14612500D01*
X11282017Y-14616740D01*
X11191413Y-14662905D01*
X11170001Y-14684316D01*
X11115487Y-14712092D01*
X11055055Y-14702521D01*
X11029999Y-14684317D01*
X11008587Y-14662905D01*
X10909661Y-14612500D01*
X10800000Y-14595131D01*
X10690338Y-14612500D01*
X10591413Y-14662905D01*
X10512905Y-14741413D01*
X10462500Y-14840338D01*
X10452009Y-14906578D01*
X10445131Y-14950000D01*
X10462500Y-15059661D01*
X10512905Y-15158587D01*
X10584316Y-15229998D01*
X10612092Y-15284513D01*
X10602521Y-15344945D01*
X10584317Y-15370000D01*
X10512905Y-15441413D01*
X10462500Y-15540338D01*
X10462500Y-15540339D01*
X10445131Y-15650000D01*
X10462500Y-15759661D01*
X10512905Y-15858587D01*
X10591413Y-15937095D01*
X10690339Y-15987500D01*
X10800000Y-16004869D01*
X10909661Y-15987500D01*
X11008587Y-15937095D01*
X11029998Y-15915683D01*
X11084513Y-15887908D01*
X11144945Y-15897479D01*
X11170000Y-15915682D01*
X11191413Y-15937095D01*
X11290339Y-15987500D01*
X11400000Y-16004869D01*
X11509661Y-15987500D01*
X11608587Y-15937095D01*
X11629998Y-15915683D01*
X11684513Y-15887908D01*
X11744945Y-15897479D01*
X11770000Y-15915682D01*
X11791413Y-15937095D01*
X11890339Y-15987500D01*
X12000000Y-16004869D01*
X12080014Y-15992195D01*
X12140444Y-16001766D01*
X12183709Y-16045030D01*
X12194500Y-16089976D01*
X12194500Y-16309490D01*
X12195133Y-16325626D01*
X12196044Y-16337202D01*
X12196184Y-16338380D01*
X12196184Y-16338970D01*
X12196197Y-16339136D01*
X12196184Y-16339137D01*
X12196184Y-16360860D01*
X12196197Y-16360862D01*
X12196184Y-16361027D01*
X12196184Y-16361618D01*
X12196044Y-16362795D01*
X12195133Y-16374371D01*
X12194500Y-16390507D01*
X12194500Y-16451000D01*
X12175593Y-16509191D01*
X12126093Y-16545155D01*
X12095500Y-16550000D01*
X10589999Y-16550000D01*
X10237015Y-16902984D01*
X10182499Y-16930761D01*
X10122067Y-16921190D01*
X10093087Y-16896439D01*
X10092604Y-16896923D01*
X10087096Y-16891415D01*
X10087095Y-16891413D01*
X10008587Y-16812905D01*
X9909661Y-16762500D01*
X9800000Y-16745131D01*
X9690338Y-16762500D01*
X9591413Y-16812905D01*
X9512905Y-16891413D01*
X9462500Y-16990338D01*
X9447781Y-17083268D01*
X9441141Y-17096297D01*
X9447780Y-17116730D01*
X9462500Y-17209661D01*
X9512905Y-17308587D01*
X9591413Y-17387095D01*
X9690339Y-17437500D01*
X9800000Y-17454869D01*
X9909661Y-17437500D01*
X9996056Y-17393479D01*
X10056486Y-17383908D01*
X10111003Y-17411685D01*
X10138781Y-17466201D01*
X10140000Y-17481689D01*
X10140000Y-18268310D01*
X10121093Y-18326501D01*
X10071593Y-18362465D01*
X10010407Y-18362465D01*
X9996058Y-18356521D01*
X9909661Y-18312500D01*
X9800000Y-18295131D01*
X9690338Y-18312500D01*
X9662860Y-18326501D01*
X9591413Y-18362905D01*
X9570001Y-18384316D01*
X9515487Y-18412092D01*
X9455055Y-18402521D01*
X9429999Y-18384317D01*
X9408587Y-18362905D01*
X9309661Y-18312500D01*
X9200000Y-18295131D01*
X9090338Y-18312500D01*
X9062860Y-18326501D01*
X8991413Y-18362905D01*
X8970001Y-18384316D01*
X8915487Y-18412092D01*
X8855055Y-18402521D01*
X8829999Y-18384317D01*
X8808587Y-18362905D01*
X8709661Y-18312500D01*
X8600000Y-18295131D01*
X8490338Y-18312500D01*
X8391413Y-18362905D01*
X8312905Y-18441413D01*
X8262500Y-18540338D01*
X8262500Y-18540339D01*
X8245131Y-18650000D01*
X8262500Y-18759661D01*
X8312905Y-18858587D01*
X8391413Y-18937095D01*
X8490339Y-18987500D01*
X8600000Y-19004869D01*
X8709661Y-18987500D01*
X8808587Y-18937095D01*
X8829998Y-18915683D01*
X8884513Y-18887908D01*
X8944945Y-18897479D01*
X8970000Y-18915682D01*
X8991413Y-18937095D01*
X9090339Y-18987500D01*
X9200000Y-19004869D01*
X9309661Y-18987500D01*
X9408587Y-18937095D01*
X9429998Y-18915683D01*
X9484513Y-18887908D01*
X9544945Y-18897479D01*
X9570000Y-18915682D01*
X9591413Y-18937095D01*
X9690339Y-18987500D01*
X9800000Y-19004869D01*
X9909661Y-18987500D01*
X9996056Y-18943479D01*
X10056486Y-18933908D01*
X10111003Y-18961685D01*
X10138781Y-19016201D01*
X10140000Y-19031689D01*
X10140000Y-19305311D01*
X10121093Y-19363502D01*
X10071593Y-19399466D01*
X10010407Y-19399466D01*
X9970998Y-19375316D01*
X9908587Y-19312905D01*
X9809661Y-19262500D01*
X9700000Y-19245131D01*
X9590338Y-19262500D01*
X9491413Y-19312905D01*
X9412905Y-19391413D01*
X9362500Y-19490338D01*
X9362500Y-19490339D01*
X9345131Y-19600000D01*
X9362500Y-19709661D01*
X9412905Y-19808587D01*
X9491413Y-19887095D01*
X9590339Y-19937500D01*
X9700000Y-19954869D01*
X9809661Y-19937500D01*
X9908587Y-19887095D01*
X9970998Y-19824683D01*
X10025513Y-19796908D01*
X10085945Y-19806479D01*
X10129210Y-19849744D01*
X10140000Y-19894689D01*
X10140000Y-21054241D01*
X10121093Y-21112432D01*
X10071593Y-21148396D01*
X10056489Y-21152022D01*
X9990338Y-21162500D01*
X9891413Y-21212905D01*
X9812905Y-21291413D01*
X9762500Y-21390338D01*
X9762500Y-21390339D01*
X9745131Y-21500000D01*
X9762500Y-21609661D01*
X9812905Y-21708587D01*
X9891413Y-21787095D01*
X9970711Y-21827499D01*
X9990339Y-21837500D01*
X10056487Y-21847977D01*
X10111004Y-21875755D01*
X10138781Y-21930271D01*
X10140000Y-21945758D01*
X10140000Y-24250000D01*
X10665000Y-24775000D01*
X10665001Y-24775000D01*
X10666686Y-24775698D01*
X10722728Y-24793907D01*
X10758692Y-24843407D01*
X10762317Y-24858506D01*
X10762500Y-24859661D01*
X10812905Y-24958587D01*
X10859316Y-25004998D01*
X10887092Y-25059513D01*
X10877521Y-25119945D01*
X10859317Y-25145000D01*
X10812905Y-25191413D01*
X10762500Y-25290338D01*
X10749775Y-25370682D01*
X10745131Y-25400000D01*
X10762500Y-25509661D01*
X10812905Y-25608587D01*
X10891413Y-25687095D01*
X10990339Y-25737500D01*
X11100000Y-25754869D01*
X11209661Y-25737500D01*
X11308587Y-25687095D01*
X11329998Y-25665683D01*
X11384513Y-25637908D01*
X11444945Y-25647479D01*
X11470000Y-25665682D01*
X11491413Y-25687095D01*
X11590339Y-25737500D01*
X11700000Y-25754869D01*
X11809661Y-25737500D01*
X11908587Y-25687095D01*
X11987095Y-25608587D01*
X12037500Y-25509661D01*
X12054869Y-25400000D01*
X12037500Y-25290339D01*
X11987095Y-25191413D01*
X11940683Y-25145001D01*
X11912908Y-25090487D01*
X11922479Y-25030055D01*
X11940682Y-25004999D01*
X11987095Y-24958587D01*
X12037500Y-24859661D01*
X12037682Y-24858509D01*
X12038212Y-24857469D01*
X12039907Y-24852253D01*
X12040733Y-24852521D01*
X12065461Y-24803995D01*
X12119979Y-24776218D01*
X12135463Y-24775000D01*
X12840311Y-24775000D01*
X12898502Y-24793907D01*
X12934466Y-24843407D01*
X12934466Y-24904593D01*
X12916296Y-24934243D01*
X12917486Y-24935108D01*
X12912906Y-24941410D01*
X12862500Y-25040338D01*
X12862500Y-25040339D01*
X12845131Y-25150000D01*
X12862500Y-25259661D01*
X12912905Y-25358587D01*
X12934316Y-25379998D01*
X12962092Y-25434513D01*
X12952521Y-25494945D01*
X12934317Y-25520000D01*
X12912905Y-25541413D01*
X12862500Y-25640338D01*
X12855095Y-25687094D01*
X12845131Y-25750000D01*
X12862500Y-25859661D01*
X12912905Y-25958587D01*
X12934316Y-25979998D01*
X12962092Y-26034513D01*
X12952521Y-26094945D01*
X12934317Y-26120000D01*
X12912905Y-26141413D01*
X12862500Y-26240338D01*
X12862500Y-26240339D01*
X12845131Y-26350000D01*
X12862500Y-26459661D01*
X12912905Y-26558587D01*
X12991413Y-26637095D01*
X13090339Y-26687500D01*
X13200000Y-26704869D01*
X13309661Y-26687500D01*
X13408587Y-26637095D01*
X13487095Y-26558587D01*
X13537500Y-26459661D01*
X13554869Y-26350000D01*
X13537500Y-26240339D01*
X13487095Y-26141413D01*
X13465683Y-26120001D01*
X13437908Y-26065487D01*
X13447479Y-26005055D01*
X13465682Y-25979999D01*
X13487095Y-25958587D01*
X13537500Y-25859661D01*
X13554869Y-25750000D01*
X13537500Y-25640339D01*
X13487095Y-25541413D01*
X13465683Y-25520001D01*
X13437908Y-25465487D01*
X13447479Y-25405055D01*
X13465682Y-25379999D01*
X13487095Y-25358587D01*
X13537500Y-25259661D01*
X13554869Y-25150000D01*
X13537500Y-25040339D01*
X13487095Y-24941413D01*
X13487094Y-24941412D01*
X13487093Y-24941410D01*
X13482514Y-24935108D01*
X13484439Y-24933709D01*
X13461908Y-24889487D01*
X13471479Y-24829055D01*
X13514744Y-24785790D01*
X13559689Y-24775000D01*
X17040311Y-24775000D01*
X17098502Y-24793907D01*
X17134466Y-24843407D01*
X17134466Y-24904593D01*
X17116296Y-24934243D01*
X17117486Y-24935108D01*
X17112906Y-24941410D01*
X17062500Y-25040338D01*
X17062500Y-25040339D01*
X17045131Y-25150000D01*
X17062500Y-25259661D01*
X17112905Y-25358587D01*
X17134316Y-25379998D01*
X17162092Y-25434513D01*
X17152521Y-25494945D01*
X17134317Y-25520000D01*
X17112905Y-25541413D01*
X17062500Y-25640338D01*
X17055095Y-25687094D01*
X17045131Y-25750000D01*
X17062500Y-25859661D01*
X17112905Y-25958587D01*
X17134316Y-25979998D01*
X17162092Y-26034513D01*
X17152521Y-26094945D01*
X17134317Y-26120000D01*
X17112905Y-26141413D01*
X17062500Y-26240338D01*
X17062500Y-26240339D01*
X17045131Y-26350000D01*
X17062500Y-26459661D01*
X17112905Y-26558587D01*
X17191413Y-26637095D01*
X17290339Y-26687500D01*
X17400000Y-26704869D01*
X17432075Y-26699788D01*
X17492503Y-26709358D01*
X17517564Y-26727565D01*
X17789999Y-26999999D01*
X17940000Y-27150000D01*
X18147929Y-27150000D01*
X18206120Y-27168907D01*
X18242084Y-27218407D01*
X18242084Y-27279593D01*
X18236139Y-27293945D01*
X18212500Y-27340338D01*
X18210199Y-27354869D01*
X18195131Y-27450000D01*
X18212500Y-27559661D01*
X18262905Y-27658587D01*
X18341413Y-27737095D01*
X18440339Y-27787500D01*
X18550000Y-27804869D01*
X18659661Y-27787500D01*
X18758587Y-27737095D01*
X18837095Y-27658587D01*
X18887500Y-27559661D01*
X18904869Y-27450000D01*
X18887500Y-27340339D01*
X18863860Y-27293944D01*
X18854290Y-27233513D01*
X18882067Y-27178996D01*
X18936584Y-27151219D01*
X18952071Y-27150000D01*
X19891000Y-27150000D01*
X19949191Y-27168907D01*
X19985155Y-27218407D01*
X19990000Y-27249000D01*
X19990000Y-31608992D01*
X19971093Y-31667183D01*
X19961004Y-31678996D01*
X19418996Y-32221004D01*
X19364479Y-32248781D01*
X19348992Y-32250000D01*
X15607027Y-32250000D01*
X15562083Y-32239210D01*
X15509661Y-32212500D01*
X15400000Y-32195131D01*
X15399997Y-32195131D01*
X15369355Y-32199984D01*
X15308923Y-32190412D01*
X15265659Y-32147147D01*
X15256184Y-32107680D01*
X15256088Y-32107696D01*
X15255894Y-32106474D01*
X15254869Y-32102203D01*
X15254869Y-32099999D01*
X15252117Y-32082630D01*
X15237500Y-31990339D01*
X15187095Y-31891413D01*
X15108587Y-31812905D01*
X15009661Y-31762500D01*
X14900000Y-31745131D01*
X14790338Y-31762500D01*
X14691413Y-31812905D01*
X14612905Y-31891413D01*
X14562500Y-31990338D01*
X14562500Y-31990339D01*
X14545131Y-32100000D01*
X14547957Y-32117845D01*
X14550756Y-32135512D01*
X14541185Y-32195944D01*
X14497921Y-32239209D01*
X14452975Y-32250000D01*
X14027547Y-32250000D01*
X13969356Y-32231093D01*
X13933392Y-32181593D01*
X13933392Y-32120407D01*
X13936250Y-32113507D01*
X13937499Y-32109663D01*
X13937499Y-32109662D01*
X13937500Y-32109661D01*
X13954869Y-32000000D01*
X13937500Y-31890339D01*
X13887095Y-31791413D01*
X13808587Y-31712905D01*
X13709661Y-31662500D01*
X13600000Y-31645131D01*
X13490338Y-31662500D01*
X13391413Y-31712905D01*
X13312904Y-31791414D01*
X13288209Y-31839881D01*
X13244944Y-31883145D01*
X13184512Y-31892716D01*
X13129996Y-31864938D01*
X13111791Y-31839881D01*
X13097839Y-31812500D01*
X13087095Y-31791413D01*
X13008587Y-31712905D01*
X12909661Y-31662500D01*
X12800000Y-31645131D01*
X12690338Y-31662500D01*
X12591413Y-31712905D01*
X12512904Y-31791414D01*
X12488209Y-31839881D01*
X12444944Y-31883145D01*
X12384512Y-31892716D01*
X12329996Y-31864938D01*
X12311791Y-31839881D01*
X12297839Y-31812500D01*
X12287095Y-31791413D01*
X12208587Y-31712905D01*
X12109661Y-31662500D01*
X12000000Y-31645131D01*
X11890338Y-31662500D01*
X11791413Y-31712905D01*
X11712905Y-31791413D01*
X11662500Y-31890338D01*
X11645131Y-31999999D01*
X11645131Y-32000000D01*
X11662500Y-32109663D01*
X11664908Y-32117073D01*
X11662528Y-32117845D01*
X11670235Y-32166482D01*
X11642460Y-32221000D01*
X11587945Y-32248780D01*
X11572453Y-32250000D01*
X7581008Y-32250000D01*
X7522817Y-32231093D01*
X7511004Y-32221004D01*
X4768996Y-29478996D01*
X4741219Y-29424479D01*
X4740000Y-29408992D01*
X4740000Y-28400000D01*
X10195131Y-28400000D01*
X10212500Y-28509661D01*
X10262905Y-28608587D01*
X10341413Y-28687095D01*
X10440339Y-28737500D01*
X10550000Y-28754869D01*
X10659661Y-28737500D01*
X10758587Y-28687095D01*
X10837095Y-28608587D01*
X10887500Y-28509661D01*
X10904869Y-28400000D01*
X15645131Y-28400000D01*
X15662500Y-28509661D01*
X15712905Y-28608587D01*
X15791413Y-28687095D01*
X15890339Y-28737500D01*
X16000000Y-28754869D01*
X16109661Y-28737500D01*
X16208587Y-28687095D01*
X16287095Y-28608587D01*
X16337500Y-28509661D01*
X16346950Y-28450000D01*
X18195131Y-28450000D01*
X18212500Y-28559661D01*
X18262905Y-28658587D01*
X18341413Y-28737095D01*
X18440339Y-28787500D01*
X18550000Y-28804869D01*
X18659661Y-28787500D01*
X18758587Y-28737095D01*
X18837095Y-28658587D01*
X18887500Y-28559661D01*
X18904869Y-28450000D01*
X18887500Y-28340339D01*
X18837095Y-28241413D01*
X18758587Y-28162905D01*
X18659661Y-28112500D01*
X18550000Y-28095131D01*
X18440338Y-28112500D01*
X18341413Y-28162905D01*
X18262905Y-28241413D01*
X18212500Y-28340338D01*
X18203051Y-28399999D01*
X18195131Y-28450000D01*
X16346950Y-28450000D01*
X16354869Y-28400000D01*
X16337500Y-28290339D01*
X16287095Y-28191413D01*
X16208587Y-28112905D01*
X16109661Y-28062500D01*
X16000000Y-28045131D01*
X15890338Y-28062500D01*
X15791413Y-28112905D01*
X15712905Y-28191413D01*
X15662500Y-28290338D01*
X15654581Y-28340339D01*
X15645131Y-28400000D01*
X10904869Y-28400000D01*
X10887500Y-28290339D01*
X10837095Y-28191413D01*
X10758587Y-28112905D01*
X10659661Y-28062500D01*
X10550000Y-28045131D01*
X10440338Y-28062500D01*
X10341413Y-28112905D01*
X10262905Y-28191413D01*
X10212500Y-28290338D01*
X10204581Y-28340339D01*
X10195131Y-28400000D01*
X4740000Y-28400000D01*
X4740000Y-26500000D01*
X6745131Y-26500000D01*
X6762500Y-26609661D01*
X6811106Y-26705056D01*
X6820677Y-26765487D01*
X6811107Y-26794941D01*
X6811105Y-26794946D01*
X6762500Y-26890338D01*
X6762500Y-26890339D01*
X6745131Y-27000000D01*
X6762500Y-27109661D01*
X6812905Y-27208587D01*
X6891413Y-27287095D01*
X6990339Y-27337500D01*
X7100000Y-27354869D01*
X7209661Y-27337500D01*
X7308587Y-27287095D01*
X7387095Y-27208587D01*
X7437500Y-27109661D01*
X7454869Y-27000000D01*
X7437500Y-26890339D01*
X7388893Y-26794942D01*
X7379322Y-26734514D01*
X7388891Y-26705060D01*
X7437500Y-26609661D01*
X7454869Y-26500000D01*
X7695131Y-26500000D01*
X7712500Y-26609661D01*
X7761106Y-26705056D01*
X7770677Y-26765487D01*
X7761107Y-26794941D01*
X7761105Y-26794946D01*
X7712500Y-26890338D01*
X7712500Y-26890339D01*
X7695131Y-27000000D01*
X7712500Y-27109661D01*
X7762905Y-27208587D01*
X7841413Y-27287095D01*
X7940339Y-27337500D01*
X8050000Y-27354869D01*
X8159661Y-27337500D01*
X8258587Y-27287095D01*
X8337095Y-27208587D01*
X8387500Y-27109661D01*
X8404869Y-27000000D01*
X8387500Y-26890339D01*
X8338893Y-26794942D01*
X8329322Y-26734514D01*
X8338891Y-26705060D01*
X8387500Y-26609661D01*
X8404869Y-26500000D01*
X8745131Y-26500000D01*
X8762500Y-26609661D01*
X8811106Y-26705056D01*
X8820677Y-26765487D01*
X8811107Y-26794941D01*
X8811105Y-26794946D01*
X8762500Y-26890338D01*
X8762500Y-26890339D01*
X8745131Y-27000000D01*
X8762500Y-27109661D01*
X8812905Y-27208587D01*
X8891413Y-27287095D01*
X8990339Y-27337500D01*
X9100000Y-27354869D01*
X9209661Y-27337500D01*
X9308587Y-27287095D01*
X9387095Y-27208587D01*
X9437500Y-27109661D01*
X9454869Y-27000000D01*
X9437500Y-26890339D01*
X9388893Y-26794942D01*
X9379322Y-26734514D01*
X9388891Y-26705060D01*
X9437500Y-26609661D01*
X9454869Y-26500000D01*
X9695131Y-26500000D01*
X9712500Y-26609661D01*
X9761106Y-26705056D01*
X9770677Y-26765487D01*
X9761107Y-26794941D01*
X9761105Y-26794946D01*
X9712500Y-26890338D01*
X9712500Y-26890339D01*
X9695131Y-27000000D01*
X9712500Y-27109661D01*
X9762905Y-27208587D01*
X9841413Y-27287095D01*
X9940339Y-27337500D01*
X10050000Y-27354869D01*
X10159661Y-27337500D01*
X10258587Y-27287095D01*
X10337095Y-27208587D01*
X10387500Y-27109661D01*
X10404869Y-27000000D01*
X10387500Y-26890339D01*
X10338893Y-26794942D01*
X10329322Y-26734514D01*
X10338891Y-26705060D01*
X10387500Y-26609661D01*
X10404869Y-26500000D01*
X10387500Y-26390339D01*
X10337095Y-26291413D01*
X10258587Y-26212905D01*
X10159661Y-26162500D01*
X10050000Y-26145131D01*
X9940338Y-26162500D01*
X9841413Y-26212905D01*
X9762905Y-26291413D01*
X9712500Y-26390338D01*
X9712500Y-26390339D01*
X9695131Y-26500000D01*
X9454869Y-26500000D01*
X9437500Y-26390339D01*
X9387095Y-26291413D01*
X9308587Y-26212905D01*
X9209661Y-26162500D01*
X9100000Y-26145131D01*
X8990338Y-26162500D01*
X8891413Y-26212905D01*
X8812905Y-26291413D01*
X8762500Y-26390338D01*
X8762500Y-26390339D01*
X8745131Y-26500000D01*
X8404869Y-26500000D01*
X8387500Y-26390339D01*
X8337095Y-26291413D01*
X8258587Y-26212905D01*
X8159661Y-26162500D01*
X8050000Y-26145131D01*
X7940338Y-26162500D01*
X7841413Y-26212905D01*
X7762905Y-26291413D01*
X7712500Y-26390338D01*
X7712500Y-26390339D01*
X7695131Y-26500000D01*
X7454869Y-26500000D01*
X7437500Y-26390339D01*
X7387095Y-26291413D01*
X7308587Y-26212905D01*
X7209661Y-26162500D01*
X7100000Y-26145131D01*
X6990338Y-26162500D01*
X6891413Y-26212905D01*
X6812905Y-26291413D01*
X6762500Y-26390338D01*
X6762500Y-26390339D01*
X6745131Y-26500000D01*
X4740000Y-26500000D01*
X4740000Y-23700000D01*
X6645131Y-23700000D01*
X6662500Y-23809661D01*
X6712905Y-23908587D01*
X6791413Y-23987095D01*
X6890339Y-24037500D01*
X7000000Y-24054869D01*
X7109661Y-24037500D01*
X7208587Y-23987095D01*
X7287095Y-23908587D01*
X7337500Y-23809661D01*
X7354869Y-23700000D01*
X7645131Y-23700000D01*
X7662500Y-23809661D01*
X7712905Y-23908587D01*
X7791413Y-23987095D01*
X7890339Y-24037500D01*
X8000000Y-24054869D01*
X8109661Y-24037500D01*
X8208587Y-23987095D01*
X8287095Y-23908587D01*
X8337500Y-23809661D01*
X8354869Y-23700000D01*
X8337500Y-23590339D01*
X8287095Y-23491413D01*
X8208587Y-23412905D01*
X8109661Y-23362500D01*
X8000000Y-23345131D01*
X7890338Y-23362500D01*
X7791413Y-23412905D01*
X7712905Y-23491413D01*
X7662500Y-23590338D01*
X7653922Y-23644500D01*
X7645131Y-23700000D01*
X7354869Y-23700000D01*
X7337500Y-23590339D01*
X7287095Y-23491413D01*
X7208587Y-23412905D01*
X7109661Y-23362500D01*
X7000000Y-23345131D01*
X6890338Y-23362500D01*
X6791413Y-23412905D01*
X6712905Y-23491413D01*
X6662500Y-23590338D01*
X6653922Y-23644500D01*
X6645131Y-23700000D01*
X4740000Y-23700000D01*
X4740000Y-21490000D01*
X6745131Y-21490000D01*
X6762500Y-21599661D01*
X6812905Y-21698587D01*
X6891413Y-21777095D01*
X6990339Y-21827500D01*
X7100000Y-21844869D01*
X7209661Y-21827500D01*
X7308587Y-21777095D01*
X7387095Y-21698587D01*
X7437500Y-21599661D01*
X7453285Y-21500000D01*
X7745131Y-21500000D01*
X7762500Y-21609661D01*
X7812905Y-21708587D01*
X7891413Y-21787095D01*
X7990339Y-21837500D01*
X8100000Y-21854869D01*
X8209661Y-21837500D01*
X8308587Y-21787095D01*
X8387095Y-21708587D01*
X8437500Y-21609661D01*
X8454869Y-21500000D01*
X8745131Y-21500000D01*
X8762500Y-21609661D01*
X8812905Y-21708587D01*
X8891413Y-21787095D01*
X8990339Y-21837500D01*
X9100000Y-21854869D01*
X9209661Y-21837500D01*
X9308587Y-21787095D01*
X9387095Y-21708587D01*
X9437500Y-21609661D01*
X9454869Y-21500000D01*
X9437500Y-21390339D01*
X9387095Y-21291413D01*
X9308587Y-21212905D01*
X9209661Y-21162500D01*
X9100000Y-21145131D01*
X8990338Y-21162500D01*
X8891413Y-21212905D01*
X8812905Y-21291413D01*
X8762500Y-21390338D01*
X8762500Y-21390339D01*
X8745131Y-21500000D01*
X8454869Y-21500000D01*
X8437500Y-21390339D01*
X8387095Y-21291413D01*
X8308587Y-21212905D01*
X8209661Y-21162500D01*
X8100000Y-21145131D01*
X7990338Y-21162500D01*
X7891413Y-21212905D01*
X7812905Y-21291413D01*
X7762500Y-21390338D01*
X7762500Y-21390339D01*
X7745131Y-21500000D01*
X7453285Y-21500000D01*
X7454869Y-21490000D01*
X7437500Y-21380339D01*
X7387095Y-21281413D01*
X7308587Y-21202905D01*
X7209661Y-21152500D01*
X7100000Y-21135131D01*
X6990338Y-21152500D01*
X6891413Y-21202905D01*
X6812905Y-21281413D01*
X6762500Y-21380338D01*
X6762500Y-21380339D01*
X6745131Y-21490000D01*
X4740000Y-21490000D01*
X4740000Y-19610000D01*
X8345131Y-19610000D01*
X8362500Y-19719661D01*
X8412905Y-19818587D01*
X8491413Y-19897095D01*
X8590339Y-19947500D01*
X8700000Y-19964869D01*
X8809661Y-19947500D01*
X8908587Y-19897095D01*
X8987095Y-19818587D01*
X9037500Y-19719661D01*
X9054869Y-19610000D01*
X9037500Y-19500339D01*
X8987095Y-19401413D01*
X8908587Y-19322905D01*
X8809661Y-19272500D01*
X8700000Y-19255131D01*
X8590338Y-19272500D01*
X8491413Y-19322905D01*
X8412905Y-19401413D01*
X8362500Y-19500338D01*
X8362500Y-19500339D01*
X8345131Y-19610000D01*
X4740000Y-19610000D01*
X4740000Y-16800000D01*
X6745131Y-16800000D01*
X6762500Y-16909661D01*
X6812905Y-17008587D01*
X6891413Y-17087095D01*
X6990339Y-17137500D01*
X7100000Y-17154869D01*
X7209661Y-17137500D01*
X7308587Y-17087095D01*
X7387095Y-17008587D01*
X7437500Y-16909661D01*
X7454869Y-16800000D01*
X7745131Y-16800000D01*
X7762500Y-16909661D01*
X7812905Y-17008587D01*
X7891413Y-17087095D01*
X7990339Y-17137500D01*
X8100000Y-17154869D01*
X8209661Y-17137500D01*
X8308587Y-17087095D01*
X8376627Y-17019054D01*
X8431141Y-16991278D01*
X8491573Y-17000849D01*
X8534838Y-17044113D01*
X8542462Y-17092208D01*
X8545131Y-17092208D01*
X8545131Y-17100000D01*
X8562500Y-17209661D01*
X8612905Y-17308587D01*
X8691413Y-17387095D01*
X8790339Y-17437500D01*
X8900000Y-17454869D01*
X9009661Y-17437500D01*
X9108587Y-17387095D01*
X9187095Y-17308587D01*
X9237500Y-17209661D01*
X9252219Y-17116730D01*
X9258858Y-17103701D01*
X9252219Y-17083268D01*
X9249991Y-17069204D01*
X9237500Y-16990339D01*
X9187095Y-16891413D01*
X9108587Y-16812905D01*
X9009661Y-16762500D01*
X8900000Y-16745131D01*
X8790338Y-16762500D01*
X8691411Y-16812906D01*
X8623373Y-16880944D01*
X8568856Y-16908721D01*
X8508424Y-16899149D01*
X8465160Y-16855884D01*
X8457543Y-16807792D01*
X8454869Y-16807792D01*
X8454869Y-16799999D01*
X8452117Y-16782630D01*
X8437500Y-16690339D01*
X8387095Y-16591413D01*
X8308587Y-16512905D01*
X8209661Y-16462500D01*
X8100000Y-16445131D01*
X7990338Y-16462500D01*
X7891413Y-16512905D01*
X7812905Y-16591413D01*
X7762500Y-16690338D01*
X7751071Y-16762500D01*
X7745131Y-16800000D01*
X7454869Y-16800000D01*
X7437500Y-16690339D01*
X7387095Y-16591413D01*
X7308587Y-16512905D01*
X7209661Y-16462500D01*
X7100000Y-16445131D01*
X6990338Y-16462500D01*
X6891413Y-16512905D01*
X6812905Y-16591413D01*
X6762500Y-16690338D01*
X6751071Y-16762500D01*
X6745131Y-16800000D01*
X4740000Y-16800000D01*
X4740000Y-14690000D01*
X6745131Y-14690000D01*
X6762500Y-14799661D01*
X6812905Y-14898587D01*
X6891413Y-14977095D01*
X6990339Y-15027500D01*
X7100000Y-15044869D01*
X7209661Y-15027500D01*
X7308587Y-14977095D01*
X7387095Y-14898587D01*
X7437500Y-14799661D01*
X7454869Y-14690000D01*
X7745131Y-14690000D01*
X7762500Y-14799661D01*
X7812905Y-14898587D01*
X7891413Y-14977095D01*
X7990339Y-15027500D01*
X8100000Y-15044869D01*
X8209661Y-15027500D01*
X8308587Y-14977095D01*
X8379105Y-14906576D01*
X8433619Y-14878800D01*
X8494051Y-14888371D01*
X8537316Y-14931635D01*
X8546887Y-14961092D01*
X8562500Y-15059661D01*
X8612905Y-15158587D01*
X8691413Y-15237095D01*
X8790339Y-15287500D01*
X8900000Y-15304869D01*
X9009661Y-15287500D01*
X9108587Y-15237095D01*
X9187095Y-15158587D01*
X9237500Y-15059661D01*
X9254869Y-14950000D01*
X9495131Y-14950000D01*
X9512500Y-15059661D01*
X9562905Y-15158587D01*
X9641413Y-15237095D01*
X9740339Y-15287500D01*
X9850000Y-15304869D01*
X9959661Y-15287500D01*
X10058587Y-15237095D01*
X10137095Y-15158587D01*
X10187500Y-15059661D01*
X10204869Y-14950000D01*
X10187500Y-14840339D01*
X10137095Y-14741413D01*
X10058587Y-14662905D01*
X9959661Y-14612500D01*
X9850000Y-14595131D01*
X9740338Y-14612500D01*
X9641413Y-14662905D01*
X9562905Y-14741413D01*
X9512500Y-14840338D01*
X9502009Y-14906578D01*
X9495131Y-14950000D01*
X9254869Y-14950000D01*
X9237500Y-14840339D01*
X9187095Y-14741413D01*
X9108587Y-14662905D01*
X9009661Y-14612500D01*
X8900000Y-14595131D01*
X8790338Y-14612500D01*
X8691411Y-14662906D01*
X8620895Y-14733422D01*
X8566378Y-14761199D01*
X8505946Y-14751627D01*
X8462682Y-14708362D01*
X8453112Y-14678909D01*
X8437500Y-14580339D01*
X8387095Y-14481413D01*
X8308587Y-14402905D01*
X8209661Y-14352500D01*
X8100000Y-14335131D01*
X7990338Y-14352500D01*
X7891413Y-14402905D01*
X7812905Y-14481413D01*
X7762500Y-14580338D01*
X7749423Y-14662905D01*
X7745131Y-14690000D01*
X7454869Y-14690000D01*
X7437500Y-14580339D01*
X7387095Y-14481413D01*
X7308587Y-14402905D01*
X7209661Y-14352500D01*
X7100000Y-14335131D01*
X6990338Y-14352500D01*
X6891413Y-14402905D01*
X6812905Y-14481413D01*
X6762500Y-14580338D01*
X6749423Y-14662905D01*
X6745131Y-14690000D01*
X4740000Y-14690000D01*
X4740000Y-13450000D01*
X8645131Y-13450000D01*
X8662500Y-13559661D01*
X8712905Y-13658587D01*
X8791413Y-13737095D01*
X8890339Y-13787500D01*
X9000000Y-13804869D01*
X9109661Y-13787500D01*
X9208587Y-13737095D01*
X9287095Y-13658587D01*
X9337500Y-13559661D01*
X9354869Y-13450000D01*
X9337500Y-13340339D01*
X9287095Y-13241413D01*
X9208587Y-13162905D01*
X9109661Y-13112500D01*
X9000000Y-13095131D01*
X8890338Y-13112500D01*
X8791413Y-13162905D01*
X8712905Y-13241413D01*
X8662500Y-13340338D01*
X8659440Y-13359661D01*
X8645131Y-13450000D01*
X4740000Y-13450000D01*
X4740000Y-11600000D01*
X8645131Y-11600000D01*
X8662500Y-11709661D01*
X8712905Y-11808587D01*
X8791413Y-11887095D01*
X8811793Y-11897479D01*
X8888946Y-11936791D01*
X8932210Y-11980056D01*
X8941781Y-12040488D01*
X8914003Y-12095004D01*
X8888946Y-12113209D01*
X8791414Y-12162904D01*
X8712905Y-12241413D01*
X8662500Y-12340338D01*
X8646492Y-12441410D01*
X8645131Y-12450000D01*
X8662500Y-12559661D01*
X8712905Y-12658587D01*
X8791413Y-12737095D01*
X8890339Y-12787500D01*
X9000000Y-12804869D01*
X9109661Y-12787500D01*
X9208587Y-12737095D01*
X9287095Y-12658587D01*
X9337500Y-12559661D01*
X9354869Y-12450000D01*
X9353508Y-12441410D01*
X9347268Y-12402011D01*
X9337500Y-12340339D01*
X9287095Y-12241413D01*
X9208587Y-12162905D01*
X9111053Y-12113209D01*
X9067789Y-12069945D01*
X9058218Y-12009513D01*
X9085996Y-11954996D01*
X9111054Y-11936790D01*
X9208587Y-11887095D01*
X9287095Y-11808587D01*
X9337500Y-11709661D01*
X9354869Y-11600000D01*
X9337500Y-11490339D01*
X9287095Y-11391413D01*
X9208587Y-11312905D01*
X9109661Y-11262500D01*
X9000000Y-11245131D01*
X8890338Y-11262500D01*
X8791413Y-11312905D01*
X8712905Y-11391413D01*
X8662500Y-11490338D01*
X8648326Y-11579831D01*
X8645131Y-11600000D01*
X4740000Y-11600000D01*
X4740000Y-10600000D01*
X8645131Y-10600000D01*
X8662500Y-10709661D01*
X8712905Y-10808587D01*
X8791413Y-10887095D01*
X8890339Y-10937500D01*
X9000000Y-10954869D01*
X9109661Y-10937500D01*
X9208587Y-10887095D01*
X9287095Y-10808587D01*
X9337500Y-10709661D01*
X9354869Y-10600000D01*
X9337500Y-10490339D01*
X9316946Y-10450000D01*
X11745131Y-10450000D01*
X11762500Y-10559661D01*
X11812905Y-10658587D01*
X11834316Y-10679998D01*
X11862092Y-10734513D01*
X11852521Y-10794945D01*
X11834317Y-10820000D01*
X11812905Y-10841413D01*
X11762500Y-10940338D01*
X11748132Y-11031056D01*
X11745131Y-11050000D01*
X11762500Y-11159661D01*
X11812905Y-11258587D01*
X11834316Y-11279998D01*
X11862092Y-11334513D01*
X11852521Y-11394945D01*
X11834317Y-11420000D01*
X11820004Y-11434314D01*
X11812905Y-11441413D01*
X11762500Y-11540338D01*
X11748320Y-11629869D01*
X11745131Y-11650000D01*
X11762500Y-11759661D01*
X11812905Y-11858587D01*
X11891413Y-11937095D01*
X11990339Y-11987500D01*
X12100000Y-12004869D01*
X12209661Y-11987500D01*
X12308587Y-11937095D01*
X12387095Y-11858587D01*
X12437500Y-11759661D01*
X12454869Y-11650000D01*
X12437500Y-11540339D01*
X12387095Y-11441413D01*
X12365683Y-11420001D01*
X12337908Y-11365487D01*
X12347479Y-11305055D01*
X12365682Y-11279999D01*
X12387095Y-11258587D01*
X12437500Y-11159661D01*
X12454869Y-11050000D01*
X12437500Y-10940339D01*
X12387095Y-10841413D01*
X12365683Y-10820001D01*
X12337908Y-10765487D01*
X12347479Y-10705055D01*
X12365682Y-10679999D01*
X12387095Y-10658587D01*
X12437500Y-10559661D01*
X12454869Y-10450000D01*
X12437500Y-10340339D01*
X12387095Y-10241413D01*
X12308587Y-10162905D01*
X12209661Y-10112500D01*
X12100000Y-10095131D01*
X11990338Y-10112500D01*
X11891413Y-10162905D01*
X11812905Y-10241413D01*
X11762500Y-10340338D01*
X11759440Y-10359661D01*
X11745131Y-10450000D01*
X9316946Y-10450000D01*
X9287095Y-10391413D01*
X9208587Y-10312905D01*
X9109661Y-10262500D01*
X9000000Y-10245131D01*
X8890338Y-10262500D01*
X8791413Y-10312905D01*
X8712905Y-10391413D01*
X8662500Y-10490338D01*
X8662500Y-10490339D01*
X8645131Y-10600000D01*
X4740000Y-10600000D01*
X4740000Y-9650000D01*
X15195131Y-9650000D01*
X15212500Y-9759661D01*
X15262905Y-9858587D01*
X15341413Y-9937095D01*
X15440339Y-9987500D01*
X15550000Y-10004869D01*
X15659661Y-9987500D01*
X15758587Y-9937095D01*
X15837095Y-9858587D01*
X15887500Y-9759661D01*
X15904869Y-9650000D01*
X15887500Y-9540339D01*
X15837095Y-9441413D01*
X15758587Y-9362905D01*
X15659661Y-9312500D01*
X15550000Y-9295131D01*
X15440338Y-9312500D01*
X15341413Y-9362905D01*
X15262905Y-9441413D01*
X15212500Y-9540338D01*
X15212500Y-9540339D01*
X15195131Y-9650000D01*
X4740000Y-9650000D01*
X4740000Y-8650000D01*
X15195131Y-8650000D01*
X15212500Y-8759661D01*
X15262905Y-8858587D01*
X15341413Y-8937095D01*
X15440339Y-8987500D01*
X15550000Y-9004869D01*
X15659661Y-8987500D01*
X15758587Y-8937095D01*
X15837095Y-8858587D01*
X15887500Y-8759661D01*
X15904869Y-8650000D01*
X15887500Y-8540339D01*
X15837095Y-8441413D01*
X15758587Y-8362905D01*
X15659661Y-8312500D01*
X15550000Y-8295131D01*
X15440338Y-8312500D01*
X15341413Y-8362905D01*
X15262905Y-8441413D01*
X15212500Y-8540338D01*
X15212500Y-8540339D01*
X15195131Y-8650000D01*
X4740000Y-8650000D01*
X4740000Y-7950000D01*
X11245131Y-7950000D01*
X11262500Y-8059661D01*
X11312905Y-8158587D01*
X11391413Y-8237095D01*
X11490339Y-8287500D01*
X11600000Y-8304869D01*
X11709661Y-8287500D01*
X11808587Y-8237095D01*
X11887095Y-8158587D01*
X11937500Y-8059661D01*
X11954869Y-7950000D01*
X11937500Y-7840339D01*
X11887095Y-7741413D01*
X11808587Y-7662905D01*
X11709661Y-7612500D01*
X11600000Y-7595131D01*
X11490338Y-7612500D01*
X11391413Y-7662905D01*
X11312905Y-7741413D01*
X11262500Y-7840338D01*
X11262500Y-7840339D01*
X11245131Y-7950000D01*
X4740000Y-7950000D01*
X4740000Y-7741008D01*
X4758907Y-7682817D01*
X4768996Y-7671004D01*
X6540000Y-5900000D01*
X11245131Y-5900000D01*
X11262500Y-6009661D01*
X11312905Y-6108587D01*
X11391413Y-6187095D01*
X11490339Y-6237500D01*
X11600000Y-6254869D01*
X11709661Y-6237500D01*
X11808587Y-6187095D01*
X11887095Y-6108587D01*
X11937500Y-6009661D01*
X11954869Y-5900000D01*
X11937500Y-5790339D01*
X11887095Y-5691413D01*
X11808587Y-5612905D01*
X11709661Y-5562500D01*
X11600000Y-5545131D01*
X11490338Y-5562500D01*
X11391413Y-5612905D01*
X11312905Y-5691413D01*
X11262500Y-5790338D01*
X11262500Y-5790339D01*
X11245131Y-5900000D01*
X6540000Y-5900000D01*
X8140000Y-4300000D01*
X15545131Y-4300000D01*
X15562500Y-4409661D01*
X15612905Y-4508587D01*
X15691413Y-4587095D01*
X15790339Y-4637500D01*
X15900000Y-4654869D01*
X16009661Y-4637500D01*
X16108587Y-4587095D01*
X16187095Y-4508587D01*
X16237500Y-4409661D01*
X16254869Y-4300000D01*
X16237500Y-4190339D01*
X16187095Y-4091413D01*
X16108587Y-4012905D01*
X16009661Y-3962500D01*
X15900000Y-3945131D01*
X15790338Y-3962500D01*
X15691413Y-4012905D01*
X15612905Y-4091413D01*
X15562500Y-4190338D01*
X15552250Y-4255056D01*
X15545131Y-4300000D01*
X8140000Y-4300000D01*
X8540000Y-3900000D01*
X16495131Y-3900000D01*
X16512500Y-4009661D01*
X16562905Y-4108587D01*
X16641413Y-4187095D01*
X16647780Y-4190339D01*
X16689881Y-4211791D01*
X16733145Y-4255056D01*
X16742716Y-4315488D01*
X16714938Y-4370004D01*
X16689881Y-4388209D01*
X16641414Y-4412904D01*
X16562905Y-4491413D01*
X16512500Y-4590338D01*
X16512500Y-4590339D01*
X16495131Y-4700000D01*
X16512500Y-4809661D01*
X16562905Y-4908587D01*
X16641413Y-4987095D01*
X16740339Y-5037500D01*
X16850000Y-5054869D01*
X16959661Y-5037500D01*
X17058587Y-4987095D01*
X17137095Y-4908587D01*
X17187500Y-4809661D01*
X17204869Y-4700000D01*
X17187500Y-4590339D01*
X17137095Y-4491413D01*
X17058587Y-4412905D01*
X17010117Y-4388208D01*
X16966854Y-4344945D01*
X16957283Y-4284513D01*
X16985061Y-4229996D01*
X17010116Y-4211791D01*
X17058587Y-4187095D01*
X17137095Y-4108587D01*
X17187500Y-4009661D01*
X17204869Y-3900000D01*
X17187500Y-3790339D01*
X17137095Y-3691413D01*
X17058587Y-3612905D01*
X16959661Y-3562500D01*
X16850000Y-3545131D01*
X16740338Y-3562500D01*
X16641413Y-3612905D01*
X16562905Y-3691413D01*
X16512500Y-3790338D01*
X16512500Y-3790339D01*
X16495131Y-3900000D01*
X8540000Y-3900000D01*
X9211004Y-3228996D01*
X9265521Y-3201219D01*
X9281008Y-3200000D01*
X23998992Y-3200000D01*
X24057183Y-3218907D01*
G37*
G04 #@! TD.AperFunction*
G04 #@! TD*
G04 #@! TA.AperFunction,Conductor*
G04 #@! TO.N,GND*
G36*
X18664956Y-27124407D02*
G01*
X18700920Y-27173907D01*
X18705222Y-27214850D01*
X18700703Y-27257829D01*
X18700703Y-27257830D01*
X18710274Y-27318267D01*
X18725308Y-27364540D01*
X18725312Y-27364548D01*
X18730649Y-27375022D01*
X18740221Y-27404483D01*
X18744977Y-27434515D01*
X18744977Y-27465486D01*
X18740221Y-27495517D01*
X18730649Y-27524977D01*
X18716841Y-27552076D01*
X18698636Y-27577134D01*
X18677134Y-27598636D01*
X18652076Y-27616841D01*
X18624977Y-27630649D01*
X18595516Y-27640221D01*
X18565484Y-27644977D01*
X18534514Y-27644977D01*
X18504482Y-27640221D01*
X18475021Y-27630649D01*
X18447922Y-27616841D01*
X18422864Y-27598636D01*
X18401362Y-27577134D01*
X18383157Y-27552076D01*
X18369349Y-27524977D01*
X18359778Y-27495521D01*
X18355021Y-27465482D01*
X18355021Y-27434518D01*
X18359779Y-27404474D01*
X18369351Y-27375018D01*
X18374690Y-27364542D01*
X18379802Y-27353454D01*
X18385747Y-27339102D01*
X18397584Y-27279593D01*
X18397584Y-27218407D01*
X18397127Y-27209681D01*
X18412963Y-27150580D01*
X18460513Y-27112075D01*
X18495991Y-27105500D01*
X18606765Y-27105500D01*
X18664956Y-27124407D01*
G37*
G04 #@! TD.AperFunction*
G04 #@! TA.AperFunction,Conductor*
G36*
X7145520Y-26309778D02*
G01*
X7174977Y-26319349D01*
X7202076Y-26333157D01*
X7227134Y-26351362D01*
X7248636Y-26372864D01*
X7266841Y-26397922D01*
X7280649Y-26425021D01*
X7290220Y-26454478D01*
X7294693Y-26482716D01*
X7294978Y-26484512D01*
X7294978Y-26515487D01*
X7292599Y-26530504D01*
X7290221Y-26545520D01*
X7280650Y-26574976D01*
X7250339Y-26634464D01*
X7240999Y-26657014D01*
X7231431Y-26686466D01*
X7225736Y-26758839D01*
X7235305Y-26819259D01*
X7235307Y-26819264D01*
X7250339Y-26865532D01*
X7250342Y-26865539D01*
X7280650Y-26925022D01*
X7290221Y-26954482D01*
X7294977Y-26984514D01*
X7294977Y-27015484D01*
X7290221Y-27045516D01*
X7280649Y-27074977D01*
X7266841Y-27102076D01*
X7248636Y-27127134D01*
X7227134Y-27148636D01*
X7202076Y-27166841D01*
X7174977Y-27180649D01*
X7145516Y-27190221D01*
X7115484Y-27194977D01*
X7084514Y-27194977D01*
X7054482Y-27190221D01*
X7025021Y-27180649D01*
X6997922Y-27166841D01*
X6972864Y-27148636D01*
X6951362Y-27127134D01*
X6933157Y-27102076D01*
X6919349Y-27074977D01*
X6909778Y-27045520D01*
X6905021Y-27015484D01*
X6905021Y-26984514D01*
X6905344Y-26982472D01*
X6909779Y-26954472D01*
X6919346Y-26925025D01*
X6949656Y-26865542D01*
X6955483Y-26852697D01*
X6955485Y-26852692D01*
X6958997Y-26842992D01*
X6968567Y-26813538D01*
X6974263Y-26741162D01*
X6964692Y-26680731D01*
X6949658Y-26634461D01*
X6919348Y-26574976D01*
X6909778Y-26545521D01*
X6908938Y-26540220D01*
X6905021Y-26515486D01*
X6905021Y-26484514D01*
X6905661Y-26480471D01*
X6909779Y-26454474D01*
X6919347Y-26425024D01*
X6933157Y-26397920D01*
X6951357Y-26372869D01*
X6972869Y-26351357D01*
X6997923Y-26333155D01*
X7025019Y-26319349D01*
X7054472Y-26309779D01*
X7084513Y-26305021D01*
X7115486Y-26305021D01*
X7145520Y-26309778D01*
G37*
G04 #@! TD.AperFunction*
G04 #@! TA.AperFunction,Conductor*
G36*
X8095520Y-26309778D02*
G01*
X8124977Y-26319349D01*
X8152076Y-26333157D01*
X8177134Y-26351362D01*
X8198636Y-26372864D01*
X8216841Y-26397922D01*
X8230649Y-26425021D01*
X8240220Y-26454478D01*
X8244693Y-26482716D01*
X8244978Y-26484512D01*
X8244978Y-26515487D01*
X8242599Y-26530504D01*
X8240221Y-26545520D01*
X8230650Y-26574976D01*
X8200339Y-26634464D01*
X8190999Y-26657014D01*
X8181431Y-26686466D01*
X8175736Y-26758839D01*
X8185305Y-26819259D01*
X8185307Y-26819264D01*
X8200339Y-26865532D01*
X8200342Y-26865539D01*
X8230650Y-26925022D01*
X8240221Y-26954482D01*
X8244977Y-26984514D01*
X8244977Y-27015484D01*
X8240221Y-27045516D01*
X8230649Y-27074977D01*
X8216841Y-27102076D01*
X8198636Y-27127134D01*
X8177134Y-27148636D01*
X8152076Y-27166841D01*
X8124977Y-27180649D01*
X8095516Y-27190221D01*
X8065484Y-27194977D01*
X8034514Y-27194977D01*
X8004482Y-27190221D01*
X7975021Y-27180649D01*
X7947922Y-27166841D01*
X7922864Y-27148636D01*
X7901362Y-27127134D01*
X7883157Y-27102076D01*
X7869349Y-27074977D01*
X7859778Y-27045520D01*
X7855021Y-27015484D01*
X7855021Y-26984514D01*
X7855344Y-26982472D01*
X7859779Y-26954472D01*
X7869346Y-26925025D01*
X7899656Y-26865542D01*
X7905483Y-26852697D01*
X7905485Y-26852692D01*
X7908997Y-26842992D01*
X7918567Y-26813538D01*
X7924263Y-26741162D01*
X7914692Y-26680731D01*
X7899658Y-26634461D01*
X7869348Y-26574976D01*
X7859778Y-26545521D01*
X7858938Y-26540220D01*
X7855021Y-26515486D01*
X7855021Y-26484514D01*
X7855661Y-26480471D01*
X7859779Y-26454474D01*
X7869347Y-26425024D01*
X7883157Y-26397920D01*
X7901357Y-26372869D01*
X7922869Y-26351357D01*
X7947923Y-26333155D01*
X7975019Y-26319349D01*
X8004472Y-26309779D01*
X8034513Y-26305021D01*
X8065486Y-26305021D01*
X8095520Y-26309778D01*
G37*
G04 #@! TD.AperFunction*
G04 #@! TA.AperFunction,Conductor*
G36*
X9145520Y-26309778D02*
G01*
X9174977Y-26319349D01*
X9202076Y-26333157D01*
X9227134Y-26351362D01*
X9248636Y-26372864D01*
X9266841Y-26397922D01*
X9280649Y-26425021D01*
X9290220Y-26454478D01*
X9294693Y-26482716D01*
X9294978Y-26484512D01*
X9294978Y-26515487D01*
X9292599Y-26530504D01*
X9290221Y-26545520D01*
X9280650Y-26574976D01*
X9250339Y-26634464D01*
X9240999Y-26657014D01*
X9231431Y-26686466D01*
X9225736Y-26758839D01*
X9235305Y-26819259D01*
X9235307Y-26819264D01*
X9250339Y-26865532D01*
X9250342Y-26865539D01*
X9280650Y-26925022D01*
X9290221Y-26954482D01*
X9294977Y-26984514D01*
X9294977Y-27015484D01*
X9290221Y-27045516D01*
X9280649Y-27074977D01*
X9266841Y-27102076D01*
X9248636Y-27127134D01*
X9227134Y-27148636D01*
X9202076Y-27166841D01*
X9174977Y-27180649D01*
X9145516Y-27190221D01*
X9115484Y-27194977D01*
X9084514Y-27194977D01*
X9054482Y-27190221D01*
X9025021Y-27180649D01*
X8997922Y-27166841D01*
X8972864Y-27148636D01*
X8951362Y-27127134D01*
X8933157Y-27102076D01*
X8919349Y-27074977D01*
X8909778Y-27045520D01*
X8905021Y-27015484D01*
X8905021Y-26984514D01*
X8905344Y-26982472D01*
X8909779Y-26954472D01*
X8919346Y-26925025D01*
X8949656Y-26865542D01*
X8955483Y-26852697D01*
X8955485Y-26852692D01*
X8958997Y-26842992D01*
X8968567Y-26813538D01*
X8974263Y-26741162D01*
X8964692Y-26680731D01*
X8949658Y-26634461D01*
X8919348Y-26574976D01*
X8909778Y-26545521D01*
X8908938Y-26540220D01*
X8905021Y-26515486D01*
X8905021Y-26484514D01*
X8905661Y-26480471D01*
X8909779Y-26454474D01*
X8919347Y-26425024D01*
X8933157Y-26397920D01*
X8951357Y-26372869D01*
X8972869Y-26351357D01*
X8997923Y-26333155D01*
X9025019Y-26319349D01*
X9054472Y-26309779D01*
X9084513Y-26305021D01*
X9115486Y-26305021D01*
X9145520Y-26309778D01*
G37*
G04 #@! TD.AperFunction*
G04 #@! TA.AperFunction,Conductor*
G36*
X10095520Y-26309778D02*
G01*
X10124977Y-26319349D01*
X10152076Y-26333157D01*
X10177134Y-26351362D01*
X10198636Y-26372864D01*
X10216841Y-26397922D01*
X10230649Y-26425021D01*
X10240220Y-26454478D01*
X10244693Y-26482716D01*
X10244978Y-26484512D01*
X10244978Y-26515487D01*
X10242599Y-26530504D01*
X10240221Y-26545520D01*
X10230650Y-26574976D01*
X10200339Y-26634464D01*
X10190999Y-26657014D01*
X10181431Y-26686466D01*
X10175736Y-26758839D01*
X10185305Y-26819259D01*
X10185307Y-26819264D01*
X10200339Y-26865532D01*
X10200342Y-26865539D01*
X10230650Y-26925022D01*
X10240221Y-26954482D01*
X10244977Y-26984514D01*
X10244977Y-27015484D01*
X10240221Y-27045516D01*
X10230649Y-27074977D01*
X10216841Y-27102076D01*
X10198636Y-27127134D01*
X10177134Y-27148636D01*
X10152076Y-27166841D01*
X10124977Y-27180649D01*
X10095516Y-27190221D01*
X10065484Y-27194977D01*
X10034514Y-27194977D01*
X10004482Y-27190221D01*
X9975021Y-27180649D01*
X9947922Y-27166841D01*
X9922864Y-27148636D01*
X9901362Y-27127134D01*
X9883157Y-27102076D01*
X9869349Y-27074977D01*
X9859778Y-27045520D01*
X9855021Y-27015484D01*
X9855021Y-26984514D01*
X9855344Y-26982472D01*
X9859779Y-26954472D01*
X9869346Y-26925025D01*
X9899656Y-26865542D01*
X9905483Y-26852697D01*
X9905485Y-26852692D01*
X9908997Y-26842992D01*
X9918567Y-26813538D01*
X9924263Y-26741162D01*
X9914692Y-26680731D01*
X9899658Y-26634461D01*
X9869348Y-26574976D01*
X9859778Y-26545521D01*
X9858938Y-26540220D01*
X9855021Y-26515486D01*
X9855021Y-26484514D01*
X9855661Y-26480471D01*
X9859779Y-26454474D01*
X9869347Y-26425024D01*
X9883157Y-26397920D01*
X9901357Y-26372869D01*
X9922869Y-26351357D01*
X9947923Y-26333155D01*
X9975019Y-26319349D01*
X10004472Y-26309779D01*
X10034513Y-26305021D01*
X10065486Y-26305021D01*
X10095520Y-26309778D01*
G37*
G04 #@! TD.AperFunction*
G04 #@! TA.AperFunction,Conductor*
G36*
X17482063Y-24774407D02*
G01*
X17493876Y-24784496D01*
X17565504Y-24856124D01*
X17593281Y-24910641D01*
X17594500Y-24926128D01*
X17594500Y-25109490D01*
X17595133Y-25125626D01*
X17596045Y-25137214D01*
X17596183Y-25138375D01*
X17596183Y-25138958D01*
X17596197Y-25139136D01*
X17596183Y-25139137D01*
X17596183Y-25160860D01*
X17596197Y-25160862D01*
X17596183Y-25161027D01*
X17596184Y-25161613D01*
X17596045Y-25162781D01*
X17595133Y-25174371D01*
X17594861Y-25181286D01*
X17594500Y-25190499D01*
X17594500Y-25709499D01*
X17594733Y-25715434D01*
X17595133Y-25725626D01*
X17596044Y-25737202D01*
X17596184Y-25738380D01*
X17596184Y-25738970D01*
X17596197Y-25739136D01*
X17596184Y-25739137D01*
X17596184Y-25760862D01*
X17596197Y-25760864D01*
X17596184Y-25761029D01*
X17596184Y-25761614D01*
X17596044Y-25762801D01*
X17595133Y-25774377D01*
X17594500Y-25790499D01*
X17594500Y-26309499D01*
X17594887Y-26319349D01*
X17595133Y-26325626D01*
X17596044Y-26337202D01*
X17596184Y-26338380D01*
X17596184Y-26338970D01*
X17596197Y-26339136D01*
X17596184Y-26339137D01*
X17596184Y-26360862D01*
X17596197Y-26360864D01*
X17596184Y-26361029D01*
X17596184Y-26361614D01*
X17596046Y-26362780D01*
X17595133Y-26374374D01*
X17594500Y-26390507D01*
X17594500Y-26452160D01*
X17575593Y-26510351D01*
X17526093Y-26546315D01*
X17480016Y-26549942D01*
X17456398Y-26546202D01*
X17403858Y-26546203D01*
X17403857Y-26545895D01*
X17385821Y-26545184D01*
X17354482Y-26540221D01*
X17325021Y-26530649D01*
X17297922Y-26516841D01*
X17272864Y-26498636D01*
X17251362Y-26477134D01*
X17233157Y-26452076D01*
X17225759Y-26437557D01*
X17219348Y-26424976D01*
X17209777Y-26395516D01*
X17208982Y-26390499D01*
X17206190Y-26372866D01*
X17205021Y-26365484D01*
X17205021Y-26334512D01*
X17205021Y-26334511D01*
X17209779Y-26304472D01*
X17219350Y-26275019D01*
X17234092Y-26246086D01*
X17247017Y-26226741D01*
X17260118Y-26211402D01*
X17278322Y-26186347D01*
X17306107Y-26119269D01*
X17315678Y-26058837D01*
X17317379Y-26042653D01*
X17300644Y-25963919D01*
X17272868Y-25909404D01*
X17244271Y-25870043D01*
X17244269Y-25870041D01*
X17242290Y-25867317D01*
X17234178Y-25854080D01*
X17219346Y-25824972D01*
X17209778Y-25795519D01*
X17205021Y-25765482D01*
X17205022Y-25734513D01*
X17206430Y-25725626D01*
X17208042Y-25715444D01*
X17208045Y-25715434D01*
X17209780Y-25704478D01*
X17219351Y-25675016D01*
X17234092Y-25646084D01*
X17247017Y-25626741D01*
X17260118Y-25611402D01*
X17278322Y-25586347D01*
X17306107Y-25519269D01*
X17315678Y-25458837D01*
X17317379Y-25442653D01*
X17300644Y-25363919D01*
X17272868Y-25309404D01*
X17244271Y-25270043D01*
X17244269Y-25270041D01*
X17242290Y-25267317D01*
X17234178Y-25254080D01*
X17219346Y-25224972D01*
X17209778Y-25195520D01*
X17205021Y-25165486D01*
X17205021Y-25134513D01*
X17209779Y-25104473D01*
X17219348Y-25075022D01*
X17251458Y-25012005D01*
X17251457Y-25012004D01*
X17251863Y-25011210D01*
X17255663Y-25004425D01*
X17255739Y-25004301D01*
X17267051Y-24985843D01*
X17269133Y-24982343D01*
X17289966Y-24904593D01*
X17289966Y-24854500D01*
X17308873Y-24796309D01*
X17358373Y-24760345D01*
X17388966Y-24755500D01*
X17423872Y-24755500D01*
X17482063Y-24774407D01*
G37*
G04 #@! TD.AperFunction*
G04 #@! TA.AperFunction,Conductor*
G36*
X13255754Y-26066062D02*
G01*
X13293637Y-26114109D01*
X13297594Y-26127798D01*
X13299355Y-26136080D01*
X13327130Y-26190594D01*
X13342230Y-26211377D01*
X13357705Y-26232677D01*
X13365821Y-26245920D01*
X13380649Y-26275020D01*
X13390220Y-26304474D01*
X13394978Y-26334511D01*
X13394978Y-26365484D01*
X13390221Y-26395518D01*
X13380649Y-26424977D01*
X13366841Y-26452076D01*
X13348636Y-26477134D01*
X13327134Y-26498636D01*
X13302076Y-26516841D01*
X13274977Y-26530649D01*
X13245516Y-26540221D01*
X13215484Y-26544977D01*
X13184514Y-26544977D01*
X13154482Y-26540221D01*
X13125021Y-26530649D01*
X13097922Y-26516841D01*
X13072864Y-26498636D01*
X13051362Y-26477134D01*
X13033157Y-26452076D01*
X13025759Y-26437557D01*
X13019348Y-26424976D01*
X13009777Y-26395516D01*
X13008982Y-26390499D01*
X13006190Y-26372866D01*
X13005021Y-26365484D01*
X13005021Y-26334512D01*
X13005021Y-26334511D01*
X13009779Y-26304472D01*
X13019350Y-26275019D01*
X13034092Y-26246086D01*
X13047017Y-26226741D01*
X13060118Y-26211402D01*
X13078322Y-26186347D01*
X13106107Y-26119269D01*
X13106107Y-26119267D01*
X13108341Y-26113875D01*
X13110092Y-26114600D01*
X13139462Y-26070639D01*
X13196864Y-26049458D01*
X13255754Y-26066062D01*
G37*
G04 #@! TD.AperFunction*
G04 #@! TA.AperFunction,Conductor*
G36*
X18845519Y-24959778D02*
G01*
X18874977Y-24969349D01*
X18902076Y-24983157D01*
X18927134Y-25001362D01*
X18948638Y-25022866D01*
X18966841Y-25047921D01*
X18980649Y-25075020D01*
X18990219Y-25104473D01*
X18990302Y-25104996D01*
X18994976Y-25134508D01*
X18994977Y-25134510D01*
X18994977Y-25165489D01*
X18990219Y-25195524D01*
X18980648Y-25224979D01*
X18947790Y-25289466D01*
X18941899Y-25299517D01*
X18928862Y-25319030D01*
X18907188Y-25371356D01*
X18907185Y-25371365D01*
X18895044Y-25424554D01*
X18881943Y-25446479D01*
X18892505Y-25458568D01*
X18899073Y-25480892D01*
X18907186Y-25528639D01*
X18907187Y-25528642D01*
X18920062Y-25559725D01*
X18928861Y-25580967D01*
X18935043Y-25590220D01*
X18941895Y-25600474D01*
X18947786Y-25610525D01*
X18956048Y-25626738D01*
X18980648Y-25675019D01*
X18990219Y-25704474D01*
X18994977Y-25734511D01*
X18994977Y-25765489D01*
X18990219Y-25795524D01*
X18980648Y-25824979D01*
X18947790Y-25889466D01*
X18941899Y-25899517D01*
X18928862Y-25919030D01*
X18907188Y-25971356D01*
X18907185Y-25971365D01*
X18895044Y-26024554D01*
X18881943Y-26046479D01*
X18892505Y-26058568D01*
X18899073Y-26080892D01*
X18907186Y-26128639D01*
X18907187Y-26128642D01*
X18928861Y-26180967D01*
X18941895Y-26200474D01*
X18947786Y-26210525D01*
X18948237Y-26211409D01*
X18980648Y-26275019D01*
X18990219Y-26304474D01*
X18991448Y-26312231D01*
X18994977Y-26334511D01*
X18994977Y-26365488D01*
X18990219Y-26395525D01*
X18980648Y-26424980D01*
X18973511Y-26438989D01*
X18966844Y-26452073D01*
X18948638Y-26477132D01*
X18927132Y-26498638D01*
X18902074Y-26516842D01*
X18874981Y-26530648D01*
X18845525Y-26540219D01*
X18815488Y-26544977D01*
X18784510Y-26544977D01*
X18754473Y-26540219D01*
X18725020Y-26530649D01*
X18697921Y-26516841D01*
X18672866Y-26498638D01*
X18651362Y-26477134D01*
X18633157Y-26452076D01*
X18625759Y-26437557D01*
X18619348Y-26424976D01*
X18609778Y-26395518D01*
X18605021Y-26365481D01*
X18605021Y-26334516D01*
X18609779Y-26304474D01*
X18619349Y-26275022D01*
X18619351Y-26275018D01*
X18652217Y-26210515D01*
X18658093Y-26200489D01*
X18671139Y-26180967D01*
X18671140Y-26180963D01*
X18671142Y-26180961D01*
X18681976Y-26154804D01*
X18692813Y-26128641D01*
X18704955Y-26075444D01*
X18718055Y-26053519D01*
X18707493Y-26041429D01*
X18700926Y-26019105D01*
X18692814Y-25971362D01*
X18692812Y-25971357D01*
X18692812Y-25971356D01*
X18671139Y-25919033D01*
X18658099Y-25899517D01*
X18652208Y-25889466D01*
X18619348Y-25824976D01*
X18609778Y-25795520D01*
X18608983Y-25790499D01*
X18605021Y-25765481D01*
X18605021Y-25734516D01*
X18609779Y-25704474D01*
X18619349Y-25675022D01*
X18634092Y-25646087D01*
X18652217Y-25610515D01*
X18658093Y-25600489D01*
X18671139Y-25580967D01*
X18671140Y-25580963D01*
X18671142Y-25580961D01*
X18688159Y-25539876D01*
X18692813Y-25528641D01*
X18704955Y-25475444D01*
X18718055Y-25453519D01*
X18707493Y-25441429D01*
X18700926Y-25419105D01*
X18692814Y-25371362D01*
X18692812Y-25371357D01*
X18692812Y-25371356D01*
X18671139Y-25319033D01*
X18658099Y-25299517D01*
X18652208Y-25289466D01*
X18619348Y-25224976D01*
X18609778Y-25195520D01*
X18608983Y-25190499D01*
X18605021Y-25165481D01*
X18605021Y-25134514D01*
X18609778Y-25104477D01*
X18619347Y-25075024D01*
X18633159Y-25047918D01*
X18651360Y-25022865D01*
X18672865Y-25001360D01*
X18697918Y-24983159D01*
X18725024Y-24969347D01*
X18754477Y-24959778D01*
X18784517Y-24955021D01*
X18815481Y-24955021D01*
X18845519Y-24959778D01*
G37*
G04 #@! TD.AperFunction*
G04 #@! TA.AperFunction,Conductor*
G36*
X20245519Y-24959778D02*
G01*
X20274977Y-24969349D01*
X20302076Y-24983157D01*
X20327134Y-25001362D01*
X20348638Y-25022866D01*
X20366841Y-25047921D01*
X20380649Y-25075020D01*
X20390219Y-25104473D01*
X20390302Y-25104996D01*
X20394976Y-25134508D01*
X20394977Y-25134510D01*
X20394977Y-25165489D01*
X20390219Y-25195524D01*
X20380648Y-25224979D01*
X20347790Y-25289466D01*
X20341899Y-25299517D01*
X20328862Y-25319030D01*
X20307188Y-25371356D01*
X20307185Y-25371365D01*
X20295044Y-25424554D01*
X20281943Y-25446479D01*
X20292505Y-25458568D01*
X20299073Y-25480892D01*
X20307186Y-25528639D01*
X20307187Y-25528642D01*
X20320062Y-25559725D01*
X20328861Y-25580967D01*
X20335043Y-25590220D01*
X20341895Y-25600474D01*
X20347786Y-25610525D01*
X20356048Y-25626738D01*
X20380648Y-25675019D01*
X20390219Y-25704474D01*
X20394977Y-25734511D01*
X20394977Y-25765489D01*
X20390219Y-25795524D01*
X20380648Y-25824979D01*
X20347790Y-25889466D01*
X20341899Y-25899517D01*
X20328862Y-25919030D01*
X20307188Y-25971356D01*
X20307185Y-25971365D01*
X20295044Y-26024554D01*
X20281943Y-26046479D01*
X20292505Y-26058568D01*
X20299073Y-26080892D01*
X20307186Y-26128639D01*
X20307187Y-26128642D01*
X20328861Y-26180967D01*
X20341895Y-26200474D01*
X20347786Y-26210525D01*
X20348237Y-26211409D01*
X20380648Y-26275019D01*
X20390219Y-26304474D01*
X20391448Y-26312231D01*
X20394977Y-26334511D01*
X20394977Y-26365488D01*
X20390219Y-26395525D01*
X20380648Y-26424980D01*
X20373511Y-26438989D01*
X20366844Y-26452073D01*
X20348638Y-26477132D01*
X20327132Y-26498638D01*
X20302074Y-26516842D01*
X20274981Y-26530648D01*
X20245525Y-26540219D01*
X20215488Y-26544977D01*
X20184510Y-26544977D01*
X20154473Y-26540219D01*
X20125020Y-26530649D01*
X20097921Y-26516841D01*
X20072866Y-26498638D01*
X20051362Y-26477134D01*
X20033157Y-26452076D01*
X20025759Y-26437557D01*
X20019348Y-26424976D01*
X20009778Y-26395518D01*
X20005021Y-26365481D01*
X20005021Y-26334516D01*
X20009779Y-26304474D01*
X20019349Y-26275022D01*
X20019351Y-26275018D01*
X20052217Y-26210515D01*
X20058093Y-26200489D01*
X20071139Y-26180967D01*
X20071140Y-26180963D01*
X20071142Y-26180961D01*
X20081976Y-26154804D01*
X20092813Y-26128641D01*
X20104955Y-26075444D01*
X20118055Y-26053519D01*
X20107493Y-26041429D01*
X20100926Y-26019105D01*
X20092814Y-25971362D01*
X20092812Y-25971357D01*
X20092812Y-25971356D01*
X20071139Y-25919033D01*
X20058099Y-25899517D01*
X20052208Y-25889466D01*
X20019348Y-25824976D01*
X20009778Y-25795520D01*
X20008983Y-25790499D01*
X20005021Y-25765481D01*
X20005021Y-25734516D01*
X20009779Y-25704474D01*
X20019349Y-25675022D01*
X20034092Y-25646087D01*
X20052217Y-25610515D01*
X20058093Y-25600489D01*
X20071139Y-25580967D01*
X20071140Y-25580963D01*
X20071142Y-25580961D01*
X20088159Y-25539876D01*
X20092813Y-25528641D01*
X20104955Y-25475444D01*
X20118055Y-25453519D01*
X20107493Y-25441429D01*
X20100926Y-25419105D01*
X20092814Y-25371362D01*
X20092812Y-25371357D01*
X20092812Y-25371356D01*
X20071139Y-25319033D01*
X20058099Y-25299517D01*
X20052208Y-25289466D01*
X20019348Y-25224976D01*
X20009778Y-25195520D01*
X20008983Y-25190499D01*
X20005021Y-25165481D01*
X20005021Y-25134514D01*
X20009778Y-25104477D01*
X20019347Y-25075024D01*
X20033159Y-25047918D01*
X20051360Y-25022865D01*
X20072865Y-25001360D01*
X20097918Y-24983159D01*
X20125024Y-24969347D01*
X20154477Y-24959778D01*
X20184517Y-24955021D01*
X20215481Y-24955021D01*
X20245519Y-24959778D01*
G37*
G04 #@! TD.AperFunction*
G04 #@! TA.AperFunction,Conductor*
G36*
X21645523Y-24959778D02*
G01*
X21674976Y-24969348D01*
X21745047Y-25005052D01*
X21748195Y-25006656D01*
X21748219Y-25006668D01*
X21749798Y-25007473D01*
X21749828Y-25007487D01*
X21771836Y-25018701D01*
X21771989Y-25018727D01*
X21771997Y-25018679D01*
X21777769Y-25019527D01*
X21868249Y-25032820D01*
X21868252Y-25032821D01*
X21868253Y-25032820D01*
X21868254Y-25032821D01*
X21924716Y-25028378D01*
X22001930Y-25006593D01*
X22004929Y-25005063D01*
X22004956Y-25005059D01*
X22004953Y-25005052D01*
X22042652Y-24985843D01*
X22075021Y-24969349D01*
X22104475Y-24959778D01*
X22134517Y-24955021D01*
X22165481Y-24955021D01*
X22195519Y-24959778D01*
X22224977Y-24969349D01*
X22252076Y-24983157D01*
X22277134Y-25001362D01*
X22298638Y-25022866D01*
X22316841Y-25047921D01*
X22330649Y-25075020D01*
X22340219Y-25104473D01*
X22340302Y-25104996D01*
X22344976Y-25134508D01*
X22344977Y-25134510D01*
X22344977Y-25165489D01*
X22340219Y-25195524D01*
X22330648Y-25224979D01*
X22297790Y-25289466D01*
X22291899Y-25299517D01*
X22278862Y-25319030D01*
X22257188Y-25371356D01*
X22257184Y-25371367D01*
X22241866Y-25438474D01*
X22241866Y-25438476D01*
X22257186Y-25528638D01*
X22257187Y-25528642D01*
X22270062Y-25559725D01*
X22278861Y-25580967D01*
X22285043Y-25590220D01*
X22291895Y-25600474D01*
X22297786Y-25610525D01*
X22306048Y-25626738D01*
X22330648Y-25675019D01*
X22340219Y-25704474D01*
X22344977Y-25734511D01*
X22344977Y-25765489D01*
X22340219Y-25795524D01*
X22330648Y-25824979D01*
X22297790Y-25889466D01*
X22291899Y-25899517D01*
X22278862Y-25919030D01*
X22257188Y-25971356D01*
X22257184Y-25971367D01*
X22241866Y-26038474D01*
X22241866Y-26038476D01*
X22257186Y-26128638D01*
X22257187Y-26128642D01*
X22278861Y-26180967D01*
X22291895Y-26200474D01*
X22297786Y-26210525D01*
X22298237Y-26211409D01*
X22330648Y-26275019D01*
X22340219Y-26304474D01*
X22341448Y-26312231D01*
X22344977Y-26334511D01*
X22344977Y-26365488D01*
X22340219Y-26395525D01*
X22330648Y-26424980D01*
X22323511Y-26438989D01*
X22316844Y-26452073D01*
X22298638Y-26477132D01*
X22277132Y-26498638D01*
X22252074Y-26516842D01*
X22224981Y-26530648D01*
X22195525Y-26540219D01*
X22175495Y-26543391D01*
X22165487Y-26544977D01*
X22134512Y-26544977D01*
X22104477Y-26540219D01*
X22075021Y-26530649D01*
X22008745Y-26496880D01*
X22008745Y-26496879D01*
X22008742Y-26496878D01*
X22000241Y-26492546D01*
X22000141Y-26492496D01*
X21984242Y-26484395D01*
X21980877Y-26483997D01*
X21980300Y-26483758D01*
X21976507Y-26482187D01*
X21972228Y-26480471D01*
X21972227Y-26480470D01*
X21972225Y-26480470D01*
X21881744Y-26467179D01*
X21881743Y-26467179D01*
X21870450Y-26468067D01*
X21825276Y-26471623D01*
X21785931Y-26482716D01*
X21770264Y-26482098D01*
X21752488Y-26491156D01*
X21752487Y-26491155D01*
X21752475Y-26491163D01*
X21743687Y-26495638D01*
X21743621Y-26495674D01*
X21674977Y-26530649D01*
X21645520Y-26540220D01*
X21615486Y-26544977D01*
X21584512Y-26544977D01*
X21566874Y-26542183D01*
X21554473Y-26540219D01*
X21525020Y-26530649D01*
X21497921Y-26516841D01*
X21472866Y-26498638D01*
X21451362Y-26477134D01*
X21433157Y-26452076D01*
X21425759Y-26437557D01*
X21419348Y-26424976D01*
X21409778Y-26395518D01*
X21405021Y-26365481D01*
X21405021Y-26334516D01*
X21409779Y-26304474D01*
X21419349Y-26275022D01*
X21419351Y-26275018D01*
X21452217Y-26210515D01*
X21458093Y-26200489D01*
X21471139Y-26180967D01*
X21471140Y-26180963D01*
X21471142Y-26180961D01*
X21481976Y-26154804D01*
X21492813Y-26128641D01*
X21504955Y-26075447D01*
X21508133Y-26061525D01*
X21508133Y-26061523D01*
X21502670Y-26029374D01*
X21492813Y-25971359D01*
X21471139Y-25919033D01*
X21458099Y-25899517D01*
X21452208Y-25889466D01*
X21419348Y-25824976D01*
X21409778Y-25795520D01*
X21408983Y-25790499D01*
X21405021Y-25765481D01*
X21405021Y-25734516D01*
X21409779Y-25704474D01*
X21419349Y-25675022D01*
X21434092Y-25646087D01*
X21452217Y-25610515D01*
X21458093Y-25600489D01*
X21471139Y-25580967D01*
X21471140Y-25580963D01*
X21471142Y-25580961D01*
X21488159Y-25539876D01*
X21492813Y-25528641D01*
X21498877Y-25502076D01*
X21508133Y-25461525D01*
X21508133Y-25461523D01*
X21502670Y-25429374D01*
X21492813Y-25371359D01*
X21471139Y-25319033D01*
X21458099Y-25299517D01*
X21452208Y-25289466D01*
X21419348Y-25224976D01*
X21409778Y-25195520D01*
X21408983Y-25190499D01*
X21405021Y-25165481D01*
X21405021Y-25134514D01*
X21409778Y-25104477D01*
X21419347Y-25075024D01*
X21433159Y-25047918D01*
X21451360Y-25022865D01*
X21472865Y-25001360D01*
X21497918Y-24983159D01*
X21525024Y-24969347D01*
X21554477Y-24959778D01*
X21584517Y-24955021D01*
X21615481Y-24955021D01*
X21645523Y-24959778D01*
G37*
G04 #@! TD.AperFunction*
G04 #@! TA.AperFunction,Conductor*
G36*
X23745519Y-24959778D02*
G01*
X23774977Y-24969349D01*
X23802076Y-24983157D01*
X23827134Y-25001362D01*
X23848638Y-25022866D01*
X23866841Y-25047921D01*
X23880649Y-25075020D01*
X23890219Y-25104473D01*
X23890302Y-25104996D01*
X23894976Y-25134508D01*
X23894977Y-25134510D01*
X23894977Y-25165489D01*
X23890219Y-25195524D01*
X23880648Y-25224979D01*
X23847790Y-25289466D01*
X23841899Y-25299517D01*
X23828862Y-25319030D01*
X23807188Y-25371356D01*
X23807185Y-25371365D01*
X23795044Y-25424554D01*
X23781943Y-25446479D01*
X23792505Y-25458568D01*
X23799073Y-25480892D01*
X23807186Y-25528639D01*
X23807187Y-25528642D01*
X23820062Y-25559725D01*
X23828861Y-25580967D01*
X23835043Y-25590220D01*
X23841895Y-25600474D01*
X23847786Y-25610525D01*
X23856048Y-25626738D01*
X23880648Y-25675019D01*
X23890219Y-25704474D01*
X23894977Y-25734511D01*
X23894977Y-25765489D01*
X23890219Y-25795524D01*
X23880648Y-25824979D01*
X23847790Y-25889466D01*
X23841899Y-25899517D01*
X23828862Y-25919030D01*
X23807188Y-25971356D01*
X23807185Y-25971365D01*
X23795044Y-26024554D01*
X23781943Y-26046479D01*
X23792505Y-26058568D01*
X23799073Y-26080892D01*
X23807186Y-26128639D01*
X23807187Y-26128642D01*
X23828861Y-26180967D01*
X23841895Y-26200474D01*
X23847786Y-26210525D01*
X23848237Y-26211409D01*
X23880648Y-26275019D01*
X23890219Y-26304474D01*
X23891448Y-26312231D01*
X23894977Y-26334511D01*
X23894977Y-26365488D01*
X23890219Y-26395525D01*
X23880648Y-26424980D01*
X23873511Y-26438989D01*
X23866844Y-26452073D01*
X23848638Y-26477132D01*
X23827132Y-26498638D01*
X23802074Y-26516842D01*
X23774981Y-26530648D01*
X23745525Y-26540219D01*
X23720420Y-26544195D01*
X23715487Y-26544977D01*
X23684512Y-26544977D01*
X23666874Y-26542183D01*
X23654473Y-26540219D01*
X23625020Y-26530649D01*
X23597921Y-26516841D01*
X23572866Y-26498638D01*
X23551362Y-26477134D01*
X23533157Y-26452076D01*
X23525759Y-26437557D01*
X23519348Y-26424976D01*
X23509778Y-26395518D01*
X23505021Y-26365481D01*
X23505021Y-26334516D01*
X23509779Y-26304474D01*
X23519349Y-26275022D01*
X23519351Y-26275018D01*
X23552217Y-26210515D01*
X23558093Y-26200489D01*
X23571139Y-26180967D01*
X23571140Y-26180963D01*
X23571142Y-26180961D01*
X23581976Y-26154804D01*
X23592813Y-26128641D01*
X23604955Y-26075444D01*
X23618055Y-26053519D01*
X23607493Y-26041429D01*
X23600926Y-26019105D01*
X23592814Y-25971362D01*
X23592812Y-25971357D01*
X23592812Y-25971356D01*
X23571139Y-25919033D01*
X23558099Y-25899517D01*
X23552208Y-25889466D01*
X23519348Y-25824976D01*
X23509778Y-25795520D01*
X23508983Y-25790499D01*
X23505021Y-25765481D01*
X23505021Y-25734516D01*
X23509779Y-25704474D01*
X23519349Y-25675022D01*
X23534092Y-25646087D01*
X23552217Y-25610515D01*
X23558093Y-25600489D01*
X23571139Y-25580967D01*
X23571140Y-25580963D01*
X23571142Y-25580961D01*
X23588159Y-25539876D01*
X23592813Y-25528641D01*
X23604955Y-25475444D01*
X23618055Y-25453519D01*
X23607493Y-25441429D01*
X23600926Y-25419105D01*
X23592814Y-25371362D01*
X23592812Y-25371357D01*
X23592812Y-25371356D01*
X23571139Y-25319033D01*
X23558099Y-25299517D01*
X23552208Y-25289466D01*
X23519348Y-25224976D01*
X23509778Y-25195520D01*
X23508983Y-25190499D01*
X23505021Y-25165481D01*
X23505021Y-25134514D01*
X23509778Y-25104477D01*
X23519347Y-25075024D01*
X23533159Y-25047918D01*
X23551360Y-25022865D01*
X23572865Y-25001360D01*
X23597918Y-24983159D01*
X23625024Y-24969347D01*
X23654477Y-24959778D01*
X23684517Y-24955021D01*
X23715481Y-24955021D01*
X23745519Y-24959778D01*
G37*
G04 #@! TD.AperFunction*
G04 #@! TA.AperFunction,Conductor*
G36*
X13255754Y-25466062D02*
G01*
X13293637Y-25514109D01*
X13297594Y-25527798D01*
X13299355Y-25536080D01*
X13327130Y-25590594D01*
X13346665Y-25617482D01*
X13357705Y-25632677D01*
X13365821Y-25645920D01*
X13380649Y-25675020D01*
X13390220Y-25704474D01*
X13394978Y-25734511D01*
X13394978Y-25765486D01*
X13390220Y-25795523D01*
X13380648Y-25824980D01*
X13365906Y-25853912D01*
X13352983Y-25873255D01*
X13339874Y-25888605D01*
X13321673Y-25913659D01*
X13291659Y-25986125D01*
X13289911Y-25985401D01*
X13260519Y-26029374D01*
X13203112Y-26050542D01*
X13144226Y-26033925D01*
X13106355Y-25985869D01*
X13102404Y-25972198D01*
X13100644Y-25963920D01*
X13100644Y-25963919D01*
X13072868Y-25909404D01*
X13044271Y-25870043D01*
X13044269Y-25870041D01*
X13042290Y-25867317D01*
X13034178Y-25854080D01*
X13019346Y-25824972D01*
X13009778Y-25795519D01*
X13005021Y-25765482D01*
X13005022Y-25734513D01*
X13006430Y-25725626D01*
X13008042Y-25715444D01*
X13008045Y-25715434D01*
X13009780Y-25704478D01*
X13019351Y-25675016D01*
X13034092Y-25646084D01*
X13047017Y-25626741D01*
X13060118Y-25611402D01*
X13078322Y-25586347D01*
X13106107Y-25519269D01*
X13106107Y-25519267D01*
X13108341Y-25513875D01*
X13110092Y-25514600D01*
X13139462Y-25470639D01*
X13196864Y-25449458D01*
X13255754Y-25466062D01*
G37*
G04 #@! TD.AperFunction*
G04 #@! TA.AperFunction,Conductor*
G36*
X11145521Y-24559778D02*
G01*
X11174976Y-24569348D01*
X11239474Y-24602212D01*
X11249520Y-24608101D01*
X11269033Y-24621139D01*
X11321359Y-24642813D01*
X11321365Y-24642814D01*
X11321367Y-24642815D01*
X11388475Y-24658133D01*
X11388476Y-24658132D01*
X11388477Y-24658133D01*
X11478641Y-24642813D01*
X11507641Y-24630801D01*
X11530961Y-24621142D01*
X11530963Y-24621140D01*
X11530967Y-24621139D01*
X11550489Y-24608093D01*
X11560515Y-24602217D01*
X11625022Y-24569348D01*
X11654475Y-24559778D01*
X11684517Y-24555021D01*
X11715481Y-24555021D01*
X11745519Y-24559778D01*
X11774977Y-24569349D01*
X11802076Y-24583157D01*
X11827134Y-24601362D01*
X11868400Y-24642628D01*
X11875450Y-24650474D01*
X11891657Y-24670565D01*
X11889388Y-24672394D01*
X11912893Y-24715168D01*
X11905213Y-24775869D01*
X11903851Y-24778647D01*
X11885509Y-24814642D01*
X11883726Y-24818937D01*
X11866843Y-24852073D01*
X11848640Y-24877129D01*
X11830732Y-24895038D01*
X11814881Y-24913596D01*
X11814874Y-24913605D01*
X11796673Y-24938658D01*
X11768892Y-25005731D01*
X11759325Y-25066142D01*
X11759323Y-25066150D01*
X11757621Y-25082348D01*
X11771999Y-25149997D01*
X11774355Y-25161080D01*
X11802130Y-25215594D01*
X11830728Y-25254956D01*
X11830732Y-25254960D01*
X11830733Y-25254961D01*
X11848636Y-25272865D01*
X11866840Y-25297920D01*
X11880649Y-25325020D01*
X11890221Y-25354482D01*
X11894977Y-25384514D01*
X11894977Y-25415484D01*
X11890221Y-25445516D01*
X11880649Y-25474977D01*
X11866841Y-25502076D01*
X11848636Y-25527134D01*
X11827134Y-25548636D01*
X11802076Y-25566841D01*
X11774977Y-25580649D01*
X11745516Y-25590221D01*
X11715484Y-25594977D01*
X11684514Y-25594977D01*
X11654482Y-25590221D01*
X11625022Y-25580650D01*
X11625020Y-25580649D01*
X11596078Y-25565902D01*
X11576733Y-25552975D01*
X11561399Y-25539879D01*
X11545927Y-25528638D01*
X11536343Y-25521675D01*
X11536340Y-25521674D01*
X11469270Y-25493893D01*
X11469262Y-25493891D01*
X11408856Y-25484324D01*
X11408837Y-25484322D01*
X11392655Y-25482621D01*
X11392654Y-25482621D01*
X11392653Y-25482621D01*
X11313921Y-25499355D01*
X11259412Y-25527126D01*
X11259408Y-25527128D01*
X11217310Y-25557713D01*
X11204070Y-25565825D01*
X11174979Y-25580649D01*
X11145521Y-25590220D01*
X11115486Y-25594977D01*
X11084514Y-25594977D01*
X11054482Y-25590221D01*
X11025021Y-25580649D01*
X10997922Y-25566841D01*
X10972864Y-25548636D01*
X10951362Y-25527134D01*
X10933157Y-25502076D01*
X10922363Y-25480892D01*
X10919348Y-25474976D01*
X10909778Y-25445523D01*
X10905021Y-25415482D01*
X10905022Y-25384518D01*
X10907105Y-25371365D01*
X10909780Y-25354472D01*
X10919349Y-25325019D01*
X10933157Y-25297920D01*
X10951357Y-25272869D01*
X10969273Y-25254954D01*
X10985118Y-25236402D01*
X11003322Y-25211347D01*
X11031107Y-25144269D01*
X11040678Y-25083837D01*
X11042379Y-25067653D01*
X11025644Y-24988919D01*
X10997868Y-24934404D01*
X10969271Y-24895043D01*
X10969266Y-24895038D01*
X10951362Y-24877133D01*
X10933157Y-24852076D01*
X10907462Y-24801647D01*
X10905766Y-24798150D01*
X10901200Y-24788246D01*
X10885671Y-24754560D01*
X10878480Y-24693803D01*
X10908376Y-24640419D01*
X10920575Y-24630801D01*
X10922765Y-24629337D01*
X10922771Y-24629335D01*
X10967623Y-24599363D01*
X10977670Y-24593476D01*
X10997922Y-24583157D01*
X11025023Y-24569348D01*
X11054477Y-24559778D01*
X11084517Y-24555021D01*
X11115481Y-24555021D01*
X11145521Y-24559778D01*
G37*
G04 #@! TD.AperFunction*
G04 #@! TA.AperFunction,Conductor*
G36*
X13268089Y-24774407D02*
G01*
X13304053Y-24823907D01*
X13308355Y-24864852D01*
X13306620Y-24881344D01*
X13323354Y-24960075D01*
X13323353Y-24960075D01*
X13323354Y-24960078D01*
X13323355Y-24960079D01*
X13329696Y-24972525D01*
X13330113Y-24975160D01*
X13330424Y-24975781D01*
X13330566Y-24976725D01*
X13348100Y-25011138D01*
X13348438Y-25011809D01*
X13349363Y-25013660D01*
X13349614Y-25014110D01*
X13380650Y-25075023D01*
X13390220Y-25104476D01*
X13394978Y-25134510D01*
X13394978Y-25165486D01*
X13390220Y-25195523D01*
X13380648Y-25224980D01*
X13365906Y-25253912D01*
X13352983Y-25273255D01*
X13339874Y-25288605D01*
X13321673Y-25313659D01*
X13291659Y-25386125D01*
X13289911Y-25385401D01*
X13260519Y-25429374D01*
X13203112Y-25450542D01*
X13144226Y-25433925D01*
X13106355Y-25385869D01*
X13102404Y-25372198D01*
X13100644Y-25363920D01*
X13100644Y-25363919D01*
X13072868Y-25309404D01*
X13044271Y-25270043D01*
X13044269Y-25270041D01*
X13042290Y-25267317D01*
X13034178Y-25254080D01*
X13019346Y-25224972D01*
X13009778Y-25195520D01*
X13005021Y-25165486D01*
X13005021Y-25134513D01*
X13009779Y-25104473D01*
X13019348Y-25075022D01*
X13051458Y-25012005D01*
X13051457Y-25012004D01*
X13051863Y-25011210D01*
X13055663Y-25004425D01*
X13055739Y-25004301D01*
X13067051Y-24985843D01*
X13069133Y-24982343D01*
X13089966Y-24904593D01*
X13089966Y-24854500D01*
X13108873Y-24796309D01*
X13158373Y-24760345D01*
X13188966Y-24755500D01*
X13209898Y-24755500D01*
X13268089Y-24774407D01*
G37*
G04 #@! TD.AperFunction*
G04 #@! TA.AperFunction,Conductor*
G36*
X10474593Y-20686078D02*
G01*
X10482705Y-20699316D01*
X10512905Y-20758587D01*
X10584316Y-20829998D01*
X10612092Y-20884513D01*
X10602521Y-20944945D01*
X10584317Y-20970000D01*
X10512905Y-21041413D01*
X10512903Y-21041415D01*
X10482709Y-21100675D01*
X10439445Y-21143940D01*
X10415612Y-21147714D01*
X10426995Y-21155106D01*
X10448922Y-21212227D01*
X10447840Y-21232893D01*
X10446994Y-21238236D01*
X10445131Y-21250000D01*
X10462500Y-21359661D01*
X10512905Y-21458587D01*
X10584316Y-21529998D01*
X10612092Y-21584513D01*
X10602521Y-21644945D01*
X10584317Y-21670000D01*
X10544894Y-21709424D01*
X10512905Y-21741413D01*
X10462498Y-21840342D01*
X10460419Y-21846742D01*
X10424455Y-21896241D01*
X10366264Y-21915148D01*
X10308073Y-21896240D01*
X10278055Y-21861093D01*
X10249558Y-21805164D01*
X10249552Y-21805153D01*
X10241420Y-21791066D01*
X10214403Y-21766740D01*
X10181600Y-21737204D01*
X10181598Y-21737203D01*
X10181597Y-21737202D01*
X10181595Y-21737201D01*
X10127079Y-21709424D01*
X10080812Y-21694391D01*
X10054478Y-21690220D01*
X10025024Y-21680649D01*
X9997925Y-21666842D01*
X9972864Y-21648636D01*
X9951362Y-21627134D01*
X9933157Y-21602076D01*
X9919349Y-21574977D01*
X9909778Y-21545520D01*
X9905021Y-21515486D01*
X9905021Y-21484514D01*
X9905425Y-21481960D01*
X9909779Y-21454474D01*
X9919347Y-21425024D01*
X9933157Y-21397920D01*
X9951357Y-21372869D01*
X9972869Y-21351357D01*
X9997923Y-21333155D01*
X10025021Y-21319349D01*
X10054473Y-21309779D01*
X10080816Y-21305607D01*
X10092788Y-21303226D01*
X10107892Y-21299600D01*
X10162994Y-21274198D01*
X10196300Y-21250000D01*
X10212492Y-21238236D01*
X10225142Y-21227992D01*
X10225142Y-21227991D01*
X10225144Y-21227990D01*
X10267030Y-21163489D01*
X10314579Y-21124985D01*
X10323866Y-21124498D01*
X10296719Y-21071217D01*
X10295500Y-21055730D01*
X10295500Y-20744269D01*
X10314407Y-20686078D01*
X10363907Y-20650114D01*
X10425093Y-20650114D01*
X10474593Y-20686078D01*
G37*
G04 #@! TD.AperFunction*
G04 #@! TA.AperFunction,Conductor*
G36*
X10435677Y-19248668D02*
G01*
X10478943Y-19291932D01*
X10478943Y-19291933D01*
X10490721Y-19315049D01*
X10512905Y-19358587D01*
X10591413Y-19437095D01*
X10690339Y-19487500D01*
X10800000Y-19504869D01*
X10909661Y-19487500D01*
X11008587Y-19437095D01*
X11029998Y-19415683D01*
X11084513Y-19387908D01*
X11144945Y-19397479D01*
X11170000Y-19415682D01*
X11191413Y-19437095D01*
X11290339Y-19487500D01*
X11400000Y-19504869D01*
X11509661Y-19487500D01*
X11608587Y-19437095D01*
X11629998Y-19415683D01*
X11684513Y-19387908D01*
X11744945Y-19397479D01*
X11770000Y-19415682D01*
X11791413Y-19437095D01*
X11890339Y-19487500D01*
X12000000Y-19504869D01*
X12080014Y-19492195D01*
X12140444Y-19501766D01*
X12183709Y-19545030D01*
X12194500Y-19589976D01*
X12194500Y-19809490D01*
X12195133Y-19825626D01*
X12196044Y-19837202D01*
X12196184Y-19838380D01*
X12196184Y-19838970D01*
X12196197Y-19839136D01*
X12196184Y-19839137D01*
X12196184Y-19860860D01*
X12196197Y-19860862D01*
X12196184Y-19861027D01*
X12196184Y-19861618D01*
X12196044Y-19862795D01*
X12195133Y-19874371D01*
X12194500Y-19890507D01*
X12194500Y-20110023D01*
X12175593Y-20168214D01*
X12126093Y-20204178D01*
X12080013Y-20207804D01*
X12000001Y-20195131D01*
X12000000Y-20195131D01*
X11890338Y-20212500D01*
X11805501Y-20255727D01*
X11791413Y-20262905D01*
X11770001Y-20284316D01*
X11715487Y-20312092D01*
X11655055Y-20302521D01*
X11629999Y-20284317D01*
X11608587Y-20262905D01*
X11509661Y-20212500D01*
X11400000Y-20195131D01*
X11290338Y-20212500D01*
X11205501Y-20255727D01*
X11191413Y-20262905D01*
X11170001Y-20284316D01*
X11115487Y-20312092D01*
X11055055Y-20302521D01*
X11029999Y-20284317D01*
X11008587Y-20262905D01*
X10909661Y-20212500D01*
X10800000Y-20195131D01*
X10690338Y-20212500D01*
X10591413Y-20262905D01*
X10512903Y-20341415D01*
X10482709Y-20400675D01*
X10439445Y-20443940D01*
X10379013Y-20453511D01*
X10324496Y-20425733D01*
X10296719Y-20371217D01*
X10295500Y-20355730D01*
X10295500Y-19894690D01*
X10295500Y-19894689D01*
X10291204Y-19858389D01*
X10280414Y-19813444D01*
X10279411Y-19809498D01*
X10239165Y-19739789D01*
X10195900Y-19696524D01*
X10195889Y-19696514D01*
X10195882Y-19696507D01*
X10183805Y-19685634D01*
X10183803Y-19685632D01*
X10183799Y-19685630D01*
X10177268Y-19681389D01*
X10179210Y-19678397D01*
X10145134Y-19647605D01*
X10132520Y-19587734D01*
X10157506Y-19531883D01*
X10172767Y-19518166D01*
X10212494Y-19489304D01*
X10225144Y-19479060D01*
X10268983Y-19411553D01*
X10287890Y-19353362D01*
X10292953Y-19321391D01*
X10320729Y-19266877D01*
X10375245Y-19239098D01*
X10435677Y-19248668D01*
G37*
G04 #@! TD.AperFunction*
G04 #@! TA.AperFunction,Conductor*
G36*
X9745520Y-19409778D02*
G01*
X9774972Y-19419346D01*
X9802079Y-19433158D01*
X9827131Y-19451359D01*
X9861043Y-19485271D01*
X9889749Y-19507901D01*
X9902752Y-19515869D01*
X9942489Y-19562393D01*
X9947290Y-19623390D01*
X9915321Y-19675559D01*
X9902756Y-19684689D01*
X9900407Y-19686128D01*
X9861046Y-19714725D01*
X9861039Y-19714731D01*
X9827132Y-19748637D01*
X9802076Y-19766841D01*
X9774977Y-19780649D01*
X9745516Y-19790221D01*
X9715484Y-19794977D01*
X9684514Y-19794977D01*
X9654482Y-19790221D01*
X9625021Y-19780649D01*
X9597922Y-19766841D01*
X9572864Y-19748636D01*
X9551362Y-19727134D01*
X9533157Y-19702076D01*
X9519349Y-19674977D01*
X9509778Y-19645520D01*
X9505021Y-19615486D01*
X9505021Y-19584514D01*
X9507888Y-19566413D01*
X9509779Y-19554474D01*
X9519347Y-19525024D01*
X9533157Y-19497920D01*
X9551357Y-19472869D01*
X9572869Y-19451357D01*
X9597923Y-19433155D01*
X9625019Y-19419349D01*
X9654472Y-19409779D01*
X9684513Y-19405021D01*
X9715486Y-19405021D01*
X9745520Y-19409778D01*
G37*
G04 #@! TD.AperFunction*
G04 #@! TA.AperFunction,Conductor*
G36*
X17945521Y-17659778D02*
G01*
X17974976Y-17669348D01*
X18039474Y-17702212D01*
X18049520Y-17708101D01*
X18069033Y-17721139D01*
X18121359Y-17742813D01*
X18174553Y-17754954D01*
X18196479Y-17768055D01*
X18208569Y-17757493D01*
X18230894Y-17750926D01*
X18278637Y-17742814D01*
X18278638Y-17742813D01*
X18278641Y-17742813D01*
X18278648Y-17742810D01*
X18330961Y-17721142D01*
X18330963Y-17721140D01*
X18330967Y-17721139D01*
X18350489Y-17708093D01*
X18360515Y-17702217D01*
X18425022Y-17669348D01*
X18454475Y-17659778D01*
X18484517Y-17655021D01*
X18515481Y-17655021D01*
X18545519Y-17659778D01*
X18574977Y-17669349D01*
X18602076Y-17683157D01*
X18627134Y-17701362D01*
X18648638Y-17722866D01*
X18666841Y-17747921D01*
X18680649Y-17775020D01*
X18690219Y-17804473D01*
X18691966Y-17815504D01*
X18693564Y-17825593D01*
X18694977Y-17834510D01*
X18694977Y-17865488D01*
X18690219Y-17895525D01*
X18680648Y-17924980D01*
X18668373Y-17949073D01*
X18666844Y-17952073D01*
X18648638Y-17977132D01*
X18627132Y-17998638D01*
X18602074Y-18016842D01*
X18574981Y-18030648D01*
X18545525Y-18040219D01*
X18520420Y-18044195D01*
X18515487Y-18044977D01*
X18484512Y-18044977D01*
X18467755Y-18042323D01*
X18454474Y-18040219D01*
X18425019Y-18030648D01*
X18383951Y-18009723D01*
X18360525Y-17997786D01*
X18350474Y-17991895D01*
X18330966Y-17978860D01*
X18278647Y-17957189D01*
X18278634Y-17957185D01*
X18225445Y-17945044D01*
X18203520Y-17931943D01*
X18191431Y-17942506D01*
X18169107Y-17949073D01*
X18121360Y-17957186D01*
X18121357Y-17957187D01*
X18069030Y-17978862D01*
X18049517Y-17991899D01*
X18039466Y-17997790D01*
X17974979Y-18030648D01*
X17945524Y-18040219D01*
X17924125Y-18043608D01*
X17915487Y-18044977D01*
X17884512Y-18044977D01*
X17866874Y-18042183D01*
X17854473Y-18040219D01*
X17825020Y-18030649D01*
X17797921Y-18016841D01*
X17772866Y-17998638D01*
X17751362Y-17977134D01*
X17733157Y-17952076D01*
X17723569Y-17933259D01*
X17719348Y-17924976D01*
X17709778Y-17895519D01*
X17705021Y-17865481D01*
X17705021Y-17834514D01*
X17708032Y-17815504D01*
X17709778Y-17804477D01*
X17719347Y-17775024D01*
X17733159Y-17747918D01*
X17751360Y-17722865D01*
X17772865Y-17701360D01*
X17797918Y-17683159D01*
X17825024Y-17669347D01*
X17854477Y-17659778D01*
X17884517Y-17655021D01*
X17915481Y-17655021D01*
X17945521Y-17659778D01*
G37*
G04 #@! TD.AperFunction*
G04 #@! TA.AperFunction,Conductor*
G36*
X9845520Y-16909778D02*
G01*
X9874977Y-16919349D01*
X9902076Y-16933157D01*
X9927134Y-16951362D01*
X9966424Y-16990652D01*
X9968321Y-16994376D01*
X9977872Y-17002533D01*
X9982379Y-17006698D01*
X9983905Y-17007868D01*
X9987970Y-17011158D01*
X10021086Y-17039441D01*
X10024207Y-17042036D01*
X10024208Y-17042036D01*
X10024209Y-17042037D01*
X10032900Y-17045906D01*
X10078370Y-17086847D01*
X10091092Y-17146695D01*
X10066206Y-17202591D01*
X10013219Y-17233184D01*
X10008121Y-17234129D01*
X9971735Y-17239891D01*
X9925462Y-17254927D01*
X9925456Y-17254929D01*
X9874976Y-17280650D01*
X9845520Y-17290221D01*
X9830504Y-17292599D01*
X9815487Y-17294978D01*
X9784513Y-17294978D01*
X9754478Y-17290220D01*
X9725021Y-17280649D01*
X9697922Y-17266841D01*
X9672864Y-17248636D01*
X9651362Y-17227134D01*
X9633157Y-17202076D01*
X9619349Y-17174977D01*
X9609777Y-17145517D01*
X9605021Y-17115487D01*
X9605021Y-17084513D01*
X9605048Y-17084347D01*
X9609779Y-17054473D01*
X9619350Y-17025019D01*
X9633155Y-16997923D01*
X9651357Y-16972869D01*
X9672869Y-16951357D01*
X9697923Y-16933155D01*
X9725019Y-16919349D01*
X9754472Y-16909779D01*
X9784513Y-16905021D01*
X9815486Y-16905021D01*
X9845520Y-16909778D01*
G37*
G04 #@! TD.AperFunction*
G04 #@! TA.AperFunction,Conductor*
G36*
X17945521Y-16659778D02*
G01*
X17974976Y-16669348D01*
X18039474Y-16702212D01*
X18049520Y-16708101D01*
X18069033Y-16721139D01*
X18121359Y-16742813D01*
X18174553Y-16754954D01*
X18196479Y-16768055D01*
X18208569Y-16757493D01*
X18230894Y-16750926D01*
X18278637Y-16742814D01*
X18278638Y-16742813D01*
X18278641Y-16742813D01*
X18287878Y-16738987D01*
X18330961Y-16721142D01*
X18330963Y-16721140D01*
X18330967Y-16721139D01*
X18350489Y-16708093D01*
X18360515Y-16702217D01*
X18425022Y-16669348D01*
X18454475Y-16659778D01*
X18484517Y-16655021D01*
X18515481Y-16655021D01*
X18545519Y-16659778D01*
X18574977Y-16669349D01*
X18602076Y-16683157D01*
X18627134Y-16701362D01*
X18648638Y-16722866D01*
X18666841Y-16747921D01*
X18680649Y-16775020D01*
X18690219Y-16804473D01*
X18694977Y-16834510D01*
X18694977Y-16865488D01*
X18690219Y-16895525D01*
X18680648Y-16924980D01*
X18668373Y-16949073D01*
X18666844Y-16952073D01*
X18648638Y-16977132D01*
X18627132Y-16998638D01*
X18602074Y-17016842D01*
X18579010Y-17028595D01*
X18574981Y-17030648D01*
X18545525Y-17040219D01*
X18520420Y-17044195D01*
X18515487Y-17044977D01*
X18484512Y-17044977D01*
X18465944Y-17042036D01*
X18454474Y-17040219D01*
X18425019Y-17030648D01*
X18390263Y-17012939D01*
X18360525Y-16997786D01*
X18350474Y-16991895D01*
X18348983Y-16990899D01*
X18338039Y-16983586D01*
X18330966Y-16978860D01*
X18278647Y-16957189D01*
X18278634Y-16957185D01*
X18225445Y-16945044D01*
X18203520Y-16931943D01*
X18191431Y-16942506D01*
X18169107Y-16949073D01*
X18121360Y-16957186D01*
X18121357Y-16957187D01*
X18069030Y-16978862D01*
X18049517Y-16991899D01*
X18039466Y-16997790D01*
X17974979Y-17030648D01*
X17945524Y-17040219D01*
X17924125Y-17043608D01*
X17915487Y-17044977D01*
X17884512Y-17044977D01*
X17862787Y-17041536D01*
X17854473Y-17040219D01*
X17825020Y-17030649D01*
X17797921Y-17016841D01*
X17772866Y-16998638D01*
X17751362Y-16977134D01*
X17733157Y-16952076D01*
X17723516Y-16933154D01*
X17719348Y-16924976D01*
X17709778Y-16895519D01*
X17705021Y-16865481D01*
X17705021Y-16834514D01*
X17705401Y-16832117D01*
X17709778Y-16804477D01*
X17719347Y-16775024D01*
X17733159Y-16747918D01*
X17751360Y-16722865D01*
X17772865Y-16701360D01*
X17797918Y-16683159D01*
X17825024Y-16669347D01*
X17854477Y-16659778D01*
X17884517Y-16655021D01*
X17915481Y-16655021D01*
X17945521Y-16659778D01*
G37*
G04 #@! TD.AperFunction*
G04 #@! TA.AperFunction,Conductor*
G36*
X17945521Y-15609778D02*
G01*
X17974976Y-15619348D01*
X18039474Y-15652212D01*
X18049520Y-15658101D01*
X18069033Y-15671139D01*
X18121359Y-15692813D01*
X18174553Y-15704954D01*
X18196479Y-15718055D01*
X18208569Y-15707493D01*
X18230894Y-15700926D01*
X18278637Y-15692814D01*
X18278638Y-15692813D01*
X18278641Y-15692813D01*
X18278648Y-15692810D01*
X18330961Y-15671142D01*
X18330963Y-15671140D01*
X18330967Y-15671139D01*
X18350489Y-15658093D01*
X18360515Y-15652217D01*
X18425022Y-15619348D01*
X18454475Y-15609778D01*
X18484517Y-15605021D01*
X18515481Y-15605021D01*
X18545519Y-15609778D01*
X18574977Y-15619349D01*
X18602076Y-15633157D01*
X18627134Y-15651362D01*
X18648638Y-15672866D01*
X18666841Y-15697921D01*
X18680649Y-15725020D01*
X18690219Y-15754473D01*
X18691041Y-15759661D01*
X18693808Y-15777134D01*
X18694977Y-15784510D01*
X18694977Y-15815488D01*
X18690219Y-15845525D01*
X18680648Y-15874980D01*
X18668373Y-15899073D01*
X18666844Y-15902073D01*
X18648638Y-15927132D01*
X18627132Y-15948638D01*
X18602074Y-15966842D01*
X18574981Y-15980648D01*
X18545525Y-15990219D01*
X18520420Y-15994195D01*
X18515487Y-15994977D01*
X18484512Y-15994977D01*
X18467755Y-15992323D01*
X18454474Y-15990219D01*
X18425019Y-15980648D01*
X18383951Y-15959723D01*
X18360525Y-15947786D01*
X18350474Y-15941895D01*
X18330966Y-15928860D01*
X18278647Y-15907189D01*
X18278634Y-15907185D01*
X18225445Y-15895044D01*
X18203520Y-15881943D01*
X18191431Y-15892506D01*
X18169107Y-15899073D01*
X18121360Y-15907186D01*
X18121357Y-15907187D01*
X18069030Y-15928862D01*
X18049517Y-15941899D01*
X18039466Y-15947790D01*
X17974979Y-15980648D01*
X17945524Y-15990219D01*
X17924125Y-15993608D01*
X17915487Y-15994977D01*
X17884512Y-15994977D01*
X17866874Y-15992183D01*
X17854473Y-15990219D01*
X17825020Y-15980649D01*
X17797921Y-15966841D01*
X17772866Y-15948638D01*
X17751362Y-15927134D01*
X17733157Y-15902076D01*
X17725730Y-15887500D01*
X17719348Y-15874976D01*
X17709778Y-15845519D01*
X17705021Y-15815481D01*
X17705021Y-15784514D01*
X17706190Y-15777134D01*
X17709778Y-15754477D01*
X17719347Y-15725024D01*
X17733159Y-15697918D01*
X17751360Y-15672865D01*
X17772865Y-15651360D01*
X17797918Y-15633159D01*
X17825024Y-15619347D01*
X17854477Y-15609778D01*
X17884517Y-15605021D01*
X17915481Y-15605021D01*
X17945521Y-15609778D01*
G37*
G04 #@! TD.AperFunction*
G04 #@! TA.AperFunction,Conductor*
G36*
X11445524Y-14759778D02*
G01*
X11474977Y-14769349D01*
X11503915Y-14784094D01*
X11523264Y-14797022D01*
X11538599Y-14810120D01*
X11538606Y-14810125D01*
X11563652Y-14828322D01*
X11563655Y-14828324D01*
X11630727Y-14856106D01*
X11630731Y-14856107D01*
X11691163Y-14865678D01*
X11707348Y-14867379D01*
X11786082Y-14850644D01*
X11840596Y-14822868D01*
X11870201Y-14801360D01*
X11882699Y-14792280D01*
X11895934Y-14784169D01*
X11925023Y-14769347D01*
X11954473Y-14759778D01*
X11984513Y-14755021D01*
X12015486Y-14755021D01*
X12055687Y-14761389D01*
X12092211Y-14762825D01*
X12092228Y-14762823D01*
X12093550Y-14762798D01*
X12093849Y-14762888D01*
X12095125Y-14762939D01*
X12095111Y-14763271D01*
X12152102Y-14780556D01*
X12189034Y-14829338D01*
X12194500Y-14861779D01*
X12194500Y-14909490D01*
X12195133Y-14925626D01*
X12196044Y-14937202D01*
X12196184Y-14938380D01*
X12196184Y-14938970D01*
X12196197Y-14939136D01*
X12196184Y-14939137D01*
X12196184Y-14960860D01*
X12196197Y-14960862D01*
X12196184Y-14961027D01*
X12196184Y-14961618D01*
X12196044Y-14962795D01*
X12195133Y-14974371D01*
X12194500Y-14990507D01*
X12194500Y-15210023D01*
X12175593Y-15268214D01*
X12126093Y-15304178D01*
X12080013Y-15307804D01*
X12000001Y-15295131D01*
X12000000Y-15295131D01*
X11890338Y-15312500D01*
X11805501Y-15355727D01*
X11791413Y-15362905D01*
X11770001Y-15384316D01*
X11715487Y-15412092D01*
X11655055Y-15402521D01*
X11629999Y-15384317D01*
X11608587Y-15362905D01*
X11509661Y-15312500D01*
X11400000Y-15295131D01*
X11290338Y-15312500D01*
X11205501Y-15355727D01*
X11191413Y-15362905D01*
X11170001Y-15384316D01*
X11115487Y-15412092D01*
X11055055Y-15402521D01*
X11029999Y-15384317D01*
X11008587Y-15362905D01*
X10909661Y-15312500D01*
X10894108Y-15310036D01*
X10833990Y-15300514D01*
X10779474Y-15272736D01*
X10752641Y-15223313D01*
X10750644Y-15213920D01*
X10750644Y-15213919D01*
X10722868Y-15159404D01*
X10694271Y-15120043D01*
X10651359Y-15077131D01*
X10633158Y-15052079D01*
X10619346Y-15024972D01*
X10609778Y-14995521D01*
X10605021Y-14965489D01*
X10605021Y-14934522D01*
X10605594Y-14930906D01*
X10605595Y-14930903D01*
X10609781Y-14904464D01*
X10619349Y-14875018D01*
X10633157Y-14847919D01*
X10651355Y-14822871D01*
X10672869Y-14801357D01*
X10697923Y-14783155D01*
X10725019Y-14769349D01*
X10754472Y-14759779D01*
X10784513Y-14755021D01*
X10815486Y-14755021D01*
X10845520Y-14759778D01*
X10874977Y-14769349D01*
X10903915Y-14784094D01*
X10923264Y-14797022D01*
X10938599Y-14810120D01*
X10938606Y-14810125D01*
X10963652Y-14828322D01*
X10963655Y-14828324D01*
X11030727Y-14856106D01*
X11030731Y-14856107D01*
X11091163Y-14865678D01*
X11107348Y-14867379D01*
X11186082Y-14850644D01*
X11240596Y-14822868D01*
X11270201Y-14801360D01*
X11282699Y-14792280D01*
X11295934Y-14784169D01*
X11325023Y-14769347D01*
X11354470Y-14759779D01*
X11384518Y-14755020D01*
X11415480Y-14755020D01*
X11445524Y-14759778D01*
G37*
G04 #@! TD.AperFunction*
G04 #@! TA.AperFunction,Conductor*
G36*
X18592731Y-14465375D02*
G01*
X18634265Y-14510305D01*
X18641664Y-14561671D01*
X18642332Y-14561694D01*
X18642206Y-14565432D01*
X18642308Y-14566139D01*
X18642145Y-14567248D01*
X18642144Y-14567251D01*
X18645538Y-14610383D01*
X18646588Y-14623715D01*
X18646589Y-14623720D01*
X18646590Y-14623723D01*
X18668353Y-14700889D01*
X18668354Y-14700894D01*
X18680648Y-14725020D01*
X18690219Y-14754477D01*
X18694350Y-14780556D01*
X18694977Y-14784511D01*
X18694977Y-14815488D01*
X18690219Y-14845525D01*
X18680648Y-14874980D01*
X18672045Y-14891866D01*
X18666844Y-14902073D01*
X18648638Y-14927132D01*
X18627132Y-14948638D01*
X18602074Y-14966842D01*
X18574981Y-14980648D01*
X18545525Y-14990219D01*
X18520420Y-14994195D01*
X18515487Y-14994977D01*
X18484512Y-14994977D01*
X18467755Y-14992323D01*
X18454474Y-14990219D01*
X18425019Y-14980648D01*
X18387670Y-14961618D01*
X18360525Y-14947786D01*
X18350474Y-14941895D01*
X18349956Y-14941549D01*
X18334028Y-14930906D01*
X18330966Y-14928860D01*
X18278647Y-14907189D01*
X18278632Y-14907184D01*
X18211524Y-14891866D01*
X18121361Y-14907186D01*
X18121357Y-14907187D01*
X18069030Y-14928862D01*
X18049517Y-14941899D01*
X18039466Y-14947790D01*
X17974979Y-14980648D01*
X17945524Y-14990219D01*
X17924125Y-14993608D01*
X17915487Y-14994977D01*
X17884512Y-14994977D01*
X17866874Y-14992183D01*
X17854473Y-14990219D01*
X17825020Y-14980649D01*
X17797921Y-14966841D01*
X17772866Y-14948638D01*
X17751362Y-14927134D01*
X17733157Y-14902076D01*
X17720771Y-14877768D01*
X17719348Y-14874976D01*
X17709778Y-14845519D01*
X17705021Y-14815481D01*
X17705021Y-14784514D01*
X17709778Y-14754478D01*
X17719355Y-14725010D01*
X17719361Y-14725000D01*
X17724330Y-14715248D01*
X17724338Y-14715232D01*
X17731652Y-14700875D01*
X17748365Y-14655572D01*
X17756431Y-14621979D01*
X17761787Y-14585523D01*
X17759333Y-14571082D01*
X17768225Y-14510549D01*
X17811000Y-14466801D01*
X17856934Y-14455500D01*
X18515309Y-14455500D01*
X18515311Y-14455500D01*
X18532723Y-14453439D01*
X18592731Y-14465375D01*
G37*
G04 #@! TD.AperFunction*
G04 #@! TA.AperFunction,Conductor*
G36*
X20945520Y-14059778D02*
G01*
X20974977Y-14069349D01*
X21002076Y-14083157D01*
X21027134Y-14101362D01*
X21048637Y-14122865D01*
X21066841Y-14147922D01*
X21080648Y-14175018D01*
X21090220Y-14204477D01*
X21091070Y-14209837D01*
X21093526Y-14225346D01*
X21095106Y-14235323D01*
X21097482Y-14247271D01*
X21101437Y-14263744D01*
X21096636Y-14324741D01*
X21060177Y-14369167D01*
X21049409Y-14376362D01*
X21049408Y-14376363D01*
X21027128Y-14398641D01*
X21002075Y-14416842D01*
X20974982Y-14430647D01*
X20945525Y-14440219D01*
X20920420Y-14444195D01*
X20915487Y-14444977D01*
X20884512Y-14444977D01*
X20866874Y-14442183D01*
X20854473Y-14440219D01*
X20825020Y-14430649D01*
X20797921Y-14416841D01*
X20772866Y-14398638D01*
X20750595Y-14376367D01*
X20750592Y-14376364D01*
X20737699Y-14367749D01*
X20699822Y-14319699D01*
X20697422Y-14258561D01*
X20698550Y-14254842D01*
X20704895Y-14235314D01*
X20704896Y-14235311D01*
X20709779Y-14204478D01*
X20719350Y-14175019D01*
X20733154Y-14147926D01*
X20751357Y-14122869D01*
X20772869Y-14101357D01*
X20797923Y-14083155D01*
X20825019Y-14069349D01*
X20854472Y-14059779D01*
X20884513Y-14055021D01*
X20915486Y-14055021D01*
X20945520Y-14059778D01*
G37*
G04 #@! TD.AperFunction*
G04 #@! TA.AperFunction,Conductor*
G36*
X19395524Y-12459778D02*
G01*
X19424977Y-12469349D01*
X19452076Y-12483157D01*
X19477134Y-12501362D01*
X19498636Y-12522864D01*
X19516841Y-12547922D01*
X19530649Y-12575021D01*
X19540221Y-12604482D01*
X19544977Y-12634514D01*
X19544977Y-12665486D01*
X19540220Y-12695521D01*
X19530648Y-12724980D01*
X19515906Y-12753912D01*
X19502983Y-12773255D01*
X19489874Y-12788605D01*
X19471673Y-12813659D01*
X19443892Y-12880731D01*
X19434325Y-12941142D01*
X19434323Y-12941150D01*
X19432621Y-12957348D01*
X19447774Y-13028641D01*
X19449355Y-13036080D01*
X19477130Y-13090594D01*
X19492686Y-13112005D01*
X19507705Y-13132677D01*
X19515821Y-13145920D01*
X19530649Y-13175020D01*
X19540221Y-13204482D01*
X19544977Y-13234514D01*
X19544977Y-13265486D01*
X19540220Y-13295521D01*
X19530648Y-13324980D01*
X19515906Y-13353912D01*
X19502983Y-13373255D01*
X19489874Y-13388605D01*
X19471673Y-13413659D01*
X19443892Y-13480731D01*
X19434325Y-13541142D01*
X19434323Y-13541150D01*
X19432621Y-13557348D01*
X19447774Y-13628641D01*
X19449355Y-13636080D01*
X19477130Y-13690594D01*
X19492686Y-13712005D01*
X19507705Y-13732677D01*
X19515821Y-13745920D01*
X19530649Y-13775020D01*
X19540221Y-13804482D01*
X19544977Y-13834514D01*
X19544977Y-13865484D01*
X19540221Y-13895516D01*
X19530649Y-13924977D01*
X19516841Y-13952076D01*
X19498637Y-13977132D01*
X19460228Y-14015542D01*
X19460225Y-14015545D01*
X19437597Y-14044250D01*
X19413431Y-14083687D01*
X19411368Y-14087154D01*
X19411366Y-14087157D01*
X19390534Y-14164908D01*
X19390534Y-14195500D01*
X19371627Y-14253691D01*
X19322127Y-14289655D01*
X19291534Y-14294500D01*
X18917382Y-14294500D01*
X18878813Y-14299065D01*
X18818803Y-14287127D01*
X18777271Y-14242197D01*
X18770527Y-14201339D01*
X18768786Y-14201431D01*
X18768378Y-14193658D01*
X18768379Y-14193653D01*
X18751644Y-14114919D01*
X18723868Y-14060404D01*
X18695271Y-14021043D01*
X18651359Y-13977131D01*
X18633158Y-13952079D01*
X18619346Y-13924972D01*
X18609777Y-13895516D01*
X18605021Y-13865484D01*
X18605021Y-13834512D01*
X18605021Y-13834511D01*
X18609779Y-13804472D01*
X18619350Y-13775019D01*
X18634092Y-13746086D01*
X18647022Y-13726736D01*
X18660106Y-13711416D01*
X18660105Y-13711416D01*
X18660118Y-13711402D01*
X18678322Y-13686347D01*
X18706107Y-13619269D01*
X18715678Y-13558837D01*
X18717379Y-13542653D01*
X18700644Y-13463919D01*
X18672868Y-13409404D01*
X18644271Y-13370043D01*
X18644269Y-13370041D01*
X18642290Y-13367317D01*
X18634178Y-13354080D01*
X18619346Y-13324971D01*
X18609777Y-13295516D01*
X18605021Y-13265484D01*
X18605021Y-13234512D01*
X18605021Y-13234511D01*
X18609779Y-13204472D01*
X18619350Y-13175019D01*
X18634093Y-13146084D01*
X18647017Y-13126741D01*
X18660118Y-13111402D01*
X18678322Y-13086347D01*
X18706107Y-13019269D01*
X18715678Y-12958837D01*
X18717379Y-12942653D01*
X18700644Y-12863919D01*
X18672868Y-12809404D01*
X18644271Y-12770043D01*
X18644269Y-12770041D01*
X18642290Y-12767317D01*
X18634178Y-12754080D01*
X18619346Y-12724972D01*
X18609777Y-12695516D01*
X18605021Y-12665484D01*
X18605021Y-12634512D01*
X18605021Y-12634511D01*
X18609779Y-12604472D01*
X18619347Y-12575024D01*
X18633157Y-12547920D01*
X18651357Y-12522869D01*
X18672869Y-12501357D01*
X18697923Y-12483155D01*
X18725019Y-12469349D01*
X18754472Y-12459779D01*
X18784513Y-12455021D01*
X18815486Y-12455021D01*
X18845520Y-12459778D01*
X18874976Y-12469349D01*
X18924653Y-12494661D01*
X18937905Y-12502782D01*
X18938626Y-12503306D01*
X19005667Y-12531087D01*
X19005668Y-12531087D01*
X19005671Y-12531088D01*
X19023732Y-12533953D01*
X19066097Y-12540674D01*
X19082285Y-12542380D01*
X19161023Y-12525664D01*
X19173374Y-12519374D01*
X19178402Y-12518579D01*
X19212004Y-12501457D01*
X19212005Y-12501458D01*
X19275025Y-12469346D01*
X19304471Y-12459779D01*
X19334518Y-12455020D01*
X19365480Y-12455020D01*
X19395524Y-12459778D01*
G37*
G04 #@! TD.AperFunction*
G04 #@! TA.AperFunction,Conductor*
G36*
X14921298Y-12374407D02*
G01*
X14957262Y-12423907D01*
X14957262Y-12485092D01*
X14952110Y-12500948D01*
X14944500Y-12548996D01*
X14944500Y-14195500D01*
X14925593Y-14253691D01*
X14876093Y-14289655D01*
X14845500Y-14294500D01*
X14494500Y-14294500D01*
X14436309Y-14275593D01*
X14400345Y-14226093D01*
X14395500Y-14195500D01*
X14395500Y-12455418D01*
X14414407Y-12397227D01*
X14424496Y-12385414D01*
X14425414Y-12384496D01*
X14479931Y-12356719D01*
X14495418Y-12355500D01*
X14863107Y-12355500D01*
X14921298Y-12374407D01*
G37*
G04 #@! TD.AperFunction*
G04 #@! TA.AperFunction,Conductor*
G36*
X12627623Y-12374407D02*
G01*
X12663587Y-12423907D01*
X12666769Y-12461654D01*
X12667809Y-12461689D01*
X12667621Y-12467248D01*
X12672063Y-12523706D01*
X12672064Y-12523715D01*
X12682714Y-12561474D01*
X12685212Y-12572860D01*
X12694977Y-12634512D01*
X12694977Y-12665489D01*
X12690219Y-12695524D01*
X12680648Y-12724979D01*
X12647790Y-12789466D01*
X12641899Y-12799517D01*
X12628862Y-12819030D01*
X12607188Y-12871356D01*
X12607185Y-12871365D01*
X12591744Y-12939008D01*
X12592101Y-12939856D01*
X12607186Y-13028638D01*
X12607187Y-13028642D01*
X12628861Y-13080967D01*
X12641895Y-13100474D01*
X12647786Y-13110525D01*
X12648541Y-13112005D01*
X12680648Y-13175019D01*
X12690219Y-13204474D01*
X12692323Y-13217755D01*
X12694977Y-13234511D01*
X12694977Y-13265489D01*
X12690219Y-13295524D01*
X12680648Y-13324979D01*
X12647790Y-13389466D01*
X12641899Y-13399517D01*
X12628862Y-13419030D01*
X12607188Y-13471356D01*
X12607185Y-13471365D01*
X12591744Y-13539008D01*
X12592101Y-13539856D01*
X12607186Y-13628638D01*
X12607187Y-13628642D01*
X12628861Y-13680967D01*
X12641895Y-13700474D01*
X12647786Y-13710525D01*
X12648541Y-13712005D01*
X12680648Y-13775019D01*
X12690219Y-13804474D01*
X12692323Y-13817755D01*
X12694977Y-13834511D01*
X12694977Y-13865488D01*
X12690219Y-13895525D01*
X12680648Y-13924981D01*
X12666844Y-13952073D01*
X12648638Y-13977132D01*
X12627132Y-13998638D01*
X12602074Y-14016842D01*
X12593826Y-14021046D01*
X12574981Y-14030648D01*
X12545524Y-14040219D01*
X12508074Y-14046151D01*
X12485918Y-14047145D01*
X12485524Y-14047118D01*
X12485520Y-14047118D01*
X12461616Y-14051180D01*
X12401080Y-14042287D01*
X12357333Y-13999511D01*
X12356824Y-13998524D01*
X12319349Y-13924976D01*
X12309778Y-13895524D01*
X12305020Y-13865479D01*
X12305020Y-13834518D01*
X12309779Y-13804471D01*
X12319345Y-13775027D01*
X12351458Y-13712005D01*
X12351457Y-13712004D01*
X12357138Y-13700856D01*
X12358960Y-13697448D01*
X12368983Y-13679552D01*
X12387890Y-13621361D01*
X12390934Y-13602140D01*
X12395500Y-13573313D01*
X12395500Y-13556440D01*
X12399673Y-13543594D01*
X12395422Y-13524725D01*
X12395021Y-13514487D01*
X12393802Y-13499000D01*
X12377334Y-13440609D01*
X12369711Y-13425649D01*
X12369291Y-13422992D01*
X12319349Y-13324977D01*
X12309778Y-13295521D01*
X12305020Y-13265479D01*
X12305020Y-13234515D01*
X12309779Y-13204471D01*
X12319345Y-13175027D01*
X12351458Y-13112005D01*
X12351457Y-13112004D01*
X12357138Y-13100856D01*
X12358960Y-13097448D01*
X12368983Y-13079552D01*
X12387890Y-13021361D01*
X12390934Y-13002140D01*
X12395500Y-12973313D01*
X12395500Y-12956440D01*
X12399673Y-12943594D01*
X12395422Y-12924725D01*
X12395021Y-12914487D01*
X12393802Y-12899000D01*
X12377334Y-12840609D01*
X12369711Y-12825649D01*
X12369291Y-12822992D01*
X12319349Y-12724977D01*
X12309778Y-12695521D01*
X12305020Y-12665479D01*
X12305020Y-12634518D01*
X12309779Y-12604471D01*
X12319345Y-12575027D01*
X12351458Y-12512005D01*
X12351457Y-12512004D01*
X12357138Y-12500856D01*
X12358960Y-12497448D01*
X12368983Y-12479552D01*
X12387063Y-12423907D01*
X12423027Y-12374407D01*
X12481218Y-12355500D01*
X12569432Y-12355500D01*
X12627623Y-12374407D01*
G37*
G04 #@! TD.AperFunction*
G04 #@! TA.AperFunction,Conductor*
G36*
X25145519Y-12459778D02*
G01*
X25174977Y-12469349D01*
X25202076Y-12483157D01*
X25227134Y-12501362D01*
X25248638Y-12522866D01*
X25266841Y-12547921D01*
X25280649Y-12575020D01*
X25290219Y-12604473D01*
X25294977Y-12634510D01*
X25294977Y-12665489D01*
X25290219Y-12695524D01*
X25280648Y-12724979D01*
X25247790Y-12789466D01*
X25241899Y-12799517D01*
X25228862Y-12819030D01*
X25207188Y-12871356D01*
X25207185Y-12871365D01*
X25195044Y-12924554D01*
X25181943Y-12946479D01*
X25192505Y-12958568D01*
X25199073Y-12980892D01*
X25207186Y-13028639D01*
X25207187Y-13028642D01*
X25228861Y-13080967D01*
X25241895Y-13100474D01*
X25247786Y-13110525D01*
X25248541Y-13112005D01*
X25280648Y-13175019D01*
X25290219Y-13204474D01*
X25292323Y-13217755D01*
X25294977Y-13234511D01*
X25294977Y-13265489D01*
X25290219Y-13295524D01*
X25280648Y-13324979D01*
X25247790Y-13389466D01*
X25241899Y-13399517D01*
X25228862Y-13419030D01*
X25207188Y-13471356D01*
X25207185Y-13471365D01*
X25195044Y-13524554D01*
X25181943Y-13546479D01*
X25192505Y-13558568D01*
X25199073Y-13580892D01*
X25207186Y-13628639D01*
X25207187Y-13628642D01*
X25228861Y-13680967D01*
X25241895Y-13700474D01*
X25247786Y-13710525D01*
X25248541Y-13712005D01*
X25280648Y-13775019D01*
X25290219Y-13804474D01*
X25292323Y-13817755D01*
X25294977Y-13834511D01*
X25294977Y-13865488D01*
X25290219Y-13895525D01*
X25280648Y-13924981D01*
X25266844Y-13952073D01*
X25248638Y-13977132D01*
X25227132Y-13998638D01*
X25202074Y-14016842D01*
X25193826Y-14021046D01*
X25174981Y-14030648D01*
X25145525Y-14040219D01*
X25120420Y-14044195D01*
X25115487Y-14044977D01*
X25084512Y-14044977D01*
X25066874Y-14042183D01*
X25054473Y-14040219D01*
X25025020Y-14030649D01*
X24997921Y-14016841D01*
X24972866Y-13998638D01*
X24951362Y-13977134D01*
X24933157Y-13952076D01*
X24919349Y-13924977D01*
X24909778Y-13895519D01*
X24905021Y-13865481D01*
X24905021Y-13834514D01*
X24909779Y-13804474D01*
X24919349Y-13775022D01*
X24934092Y-13746087D01*
X24952217Y-13710515D01*
X24958093Y-13700489D01*
X24971139Y-13680967D01*
X24971140Y-13680963D01*
X24971142Y-13680961D01*
X24989032Y-13637768D01*
X24992813Y-13628641D01*
X25004955Y-13575444D01*
X25018055Y-13553519D01*
X25007493Y-13541429D01*
X25000926Y-13519105D01*
X24992814Y-13471362D01*
X24992812Y-13471357D01*
X24971139Y-13419033D01*
X24958106Y-13399528D01*
X24952211Y-13389470D01*
X24919348Y-13324971D01*
X24909777Y-13295514D01*
X24909777Y-13295513D01*
X24905021Y-13265481D01*
X24905021Y-13234514D01*
X24909779Y-13204474D01*
X24919349Y-13175022D01*
X24919351Y-13175018D01*
X24952217Y-13110515D01*
X24958093Y-13100489D01*
X24971139Y-13080967D01*
X24971140Y-13080963D01*
X24971142Y-13080961D01*
X24981976Y-13054804D01*
X24992813Y-13028641D01*
X25004955Y-12975444D01*
X25018055Y-12953519D01*
X25007493Y-12941429D01*
X25000926Y-12919105D01*
X24992814Y-12871362D01*
X24992812Y-12871357D01*
X24980076Y-12840609D01*
X24971139Y-12819033D01*
X24958099Y-12799517D01*
X24952208Y-12789466D01*
X24919348Y-12724976D01*
X24909778Y-12695520D01*
X24909778Y-12695519D01*
X24905021Y-12665481D01*
X24905021Y-12634514D01*
X24909778Y-12604477D01*
X24919347Y-12575024D01*
X24933159Y-12547918D01*
X24951362Y-12522864D01*
X24972865Y-12501360D01*
X24997918Y-12483159D01*
X25025024Y-12469347D01*
X25054477Y-12459778D01*
X25084517Y-12455021D01*
X25115481Y-12455021D01*
X25145519Y-12459778D01*
G37*
G04 #@! TD.AperFunction*
G04 #@! TA.AperFunction,Conductor*
G36*
X9044943Y-12254046D02*
G01*
X9102075Y-12283156D01*
X9127134Y-12301362D01*
X9148636Y-12322864D01*
X9166841Y-12347922D01*
X9180649Y-12375021D01*
X9190220Y-12404478D01*
X9193073Y-12422487D01*
X9193079Y-12422533D01*
X9194977Y-12434516D01*
X9194977Y-12465489D01*
X9190221Y-12495518D01*
X9180649Y-12524977D01*
X9166841Y-12552076D01*
X9148636Y-12577134D01*
X9127134Y-12598636D01*
X9102076Y-12616841D01*
X9074977Y-12630649D01*
X9045516Y-12640221D01*
X9015484Y-12644977D01*
X8984514Y-12644977D01*
X8954482Y-12640221D01*
X8925021Y-12630649D01*
X8897922Y-12616841D01*
X8872864Y-12598636D01*
X8851362Y-12577134D01*
X8833157Y-12552076D01*
X8819349Y-12524977D01*
X8809778Y-12495522D01*
X8805021Y-12465484D01*
X8805021Y-12434521D01*
X8809780Y-12404469D01*
X8819349Y-12375021D01*
X8833157Y-12347920D01*
X8851357Y-12322869D01*
X8872869Y-12301357D01*
X8897919Y-12283157D01*
X8955057Y-12254045D01*
X9015485Y-12244475D01*
X9044943Y-12254046D01*
G37*
G04 #@! TD.AperFunction*
G04 #@! TA.AperFunction,Conductor*
G36*
X15645524Y-11509778D02*
G01*
X15674977Y-11519349D01*
X15702076Y-11533157D01*
X15727134Y-11551362D01*
X15748636Y-11572864D01*
X15766841Y-11597922D01*
X15780649Y-11625021D01*
X15790221Y-11654482D01*
X15794977Y-11684514D01*
X15794977Y-11715484D01*
X15790221Y-11745516D01*
X15780649Y-11774977D01*
X15766841Y-11802076D01*
X15748636Y-11827134D01*
X15727133Y-11848637D01*
X15702079Y-11866840D01*
X15687567Y-11874234D01*
X15676887Y-11880216D01*
X15663664Y-11888319D01*
X15659787Y-11891255D01*
X15658720Y-11889846D01*
X15609707Y-11912423D01*
X15549701Y-11900467D01*
X15539912Y-11894198D01*
X15512443Y-11874240D01*
X15512435Y-11874236D01*
X15497925Y-11866843D01*
X15472866Y-11848637D01*
X15429961Y-11805733D01*
X15429955Y-11805727D01*
X15411399Y-11789879D01*
X15386344Y-11771676D01*
X15386342Y-11771675D01*
X15381622Y-11768246D01*
X15382636Y-11766849D01*
X15346373Y-11727619D01*
X15339183Y-11666858D01*
X15369080Y-11613475D01*
X15391334Y-11597965D01*
X15440591Y-11572870D01*
X15479953Y-11544274D01*
X15479957Y-11544269D01*
X15482689Y-11542285D01*
X15495924Y-11534174D01*
X15525026Y-11519346D01*
X15554471Y-11509779D01*
X15584518Y-11505020D01*
X15615480Y-11505020D01*
X15645524Y-11509778D01*
G37*
G04 #@! TD.AperFunction*
G04 #@! TA.AperFunction,Conductor*
G36*
X12155754Y-11366062D02*
G01*
X12193637Y-11414109D01*
X12197594Y-11427798D01*
X12199355Y-11436080D01*
X12227130Y-11490594D01*
X12255724Y-11529951D01*
X12257705Y-11532677D01*
X12265821Y-11545920D01*
X12280649Y-11575020D01*
X12290221Y-11604482D01*
X12294977Y-11634514D01*
X12294977Y-11665484D01*
X12290221Y-11695516D01*
X12280649Y-11724977D01*
X12266841Y-11752076D01*
X12248636Y-11777134D01*
X12227134Y-11798636D01*
X12202076Y-11816841D01*
X12174977Y-11830649D01*
X12145516Y-11840221D01*
X12115484Y-11844977D01*
X12084514Y-11844977D01*
X12054482Y-11840221D01*
X12025021Y-11830649D01*
X11997922Y-11816841D01*
X11972864Y-11798636D01*
X11951362Y-11777134D01*
X11933157Y-11752076D01*
X11919349Y-11724977D01*
X11909778Y-11695522D01*
X11905021Y-11665484D01*
X11905021Y-11634522D01*
X11909780Y-11604469D01*
X11919349Y-11575020D01*
X11934095Y-11546079D01*
X11947018Y-11526740D01*
X11960118Y-11511402D01*
X11978322Y-11486347D01*
X12006107Y-11419269D01*
X12006107Y-11419267D01*
X12008341Y-11413875D01*
X12010092Y-11414600D01*
X12039462Y-11370639D01*
X12096864Y-11349458D01*
X12155754Y-11366062D01*
G37*
G04 #@! TD.AperFunction*
G04 #@! TA.AperFunction,Conductor*
G36*
X15005754Y-11366062D02*
G01*
X15043637Y-11414109D01*
X15047594Y-11427798D01*
X15049355Y-11436080D01*
X15077130Y-11490594D01*
X15105728Y-11529956D01*
X15105732Y-11529960D01*
X15105733Y-11529962D01*
X15120036Y-11544265D01*
X15120042Y-11544270D01*
X15120043Y-11544271D01*
X15138598Y-11560118D01*
X15138614Y-11560129D01*
X15138617Y-11560132D01*
X15168374Y-11581752D01*
X15167361Y-11583145D01*
X15203627Y-11622383D01*
X15210814Y-11683144D01*
X15180915Y-11736526D01*
X15158661Y-11752034D01*
X15152674Y-11755085D01*
X15109407Y-11777129D01*
X15067315Y-11807709D01*
X15054073Y-11815823D01*
X15024980Y-11830647D01*
X14995521Y-11840219D01*
X14965481Y-11844977D01*
X14934507Y-11844977D01*
X14904478Y-11840220D01*
X14875021Y-11830649D01*
X14847922Y-11816841D01*
X14822864Y-11798636D01*
X14801362Y-11777134D01*
X14783157Y-11752076D01*
X14769349Y-11724977D01*
X14759778Y-11695522D01*
X14755021Y-11665484D01*
X14755021Y-11634522D01*
X14759780Y-11604469D01*
X14769349Y-11575020D01*
X14784095Y-11546079D01*
X14797018Y-11526740D01*
X14810118Y-11511402D01*
X14828322Y-11486347D01*
X14856107Y-11419269D01*
X14856107Y-11419267D01*
X14858341Y-11413875D01*
X14860092Y-11414600D01*
X14889462Y-11370639D01*
X14946864Y-11349458D01*
X15005754Y-11366062D01*
G37*
G04 #@! TD.AperFunction*
G04 #@! TA.AperFunction,Conductor*
G36*
X9045520Y-11409778D02*
G01*
X9074977Y-11419349D01*
X9102076Y-11433157D01*
X9127134Y-11451362D01*
X9148636Y-11472864D01*
X9166841Y-11497922D01*
X9180649Y-11525021D01*
X9190221Y-11554482D01*
X9194977Y-11584514D01*
X9194977Y-11615484D01*
X9190221Y-11645516D01*
X9180649Y-11674977D01*
X9166841Y-11702076D01*
X9148636Y-11727134D01*
X9127133Y-11748637D01*
X9102074Y-11766842D01*
X9044943Y-11795952D01*
X8984511Y-11805524D01*
X8955052Y-11795952D01*
X8897924Y-11766843D01*
X8872866Y-11748638D01*
X8851362Y-11727134D01*
X8833157Y-11702076D01*
X8825759Y-11687557D01*
X8819348Y-11674976D01*
X8809778Y-11645522D01*
X8805021Y-11615484D01*
X8805021Y-11584522D01*
X8809780Y-11554469D01*
X8819349Y-11525021D01*
X8833157Y-11497920D01*
X8851357Y-11472869D01*
X8872869Y-11451357D01*
X8897923Y-11433155D01*
X8925019Y-11419349D01*
X8954472Y-11409779D01*
X8984513Y-11405021D01*
X9015486Y-11405021D01*
X9045520Y-11409778D01*
G37*
G04 #@! TD.AperFunction*
G04 #@! TA.AperFunction,Conductor*
G36*
X12155754Y-10766062D02*
G01*
X12193637Y-10814109D01*
X12197594Y-10827798D01*
X12199355Y-10836080D01*
X12227130Y-10890594D01*
X12242230Y-10911377D01*
X12257705Y-10932677D01*
X12265821Y-10945920D01*
X12280649Y-10975020D01*
X12290221Y-11004482D01*
X12294977Y-11034514D01*
X12294977Y-11065486D01*
X12290220Y-11095521D01*
X12280648Y-11124980D01*
X12265906Y-11153912D01*
X12252983Y-11173255D01*
X12239874Y-11188605D01*
X12221673Y-11213659D01*
X12191659Y-11286125D01*
X12189911Y-11285401D01*
X12160519Y-11329374D01*
X12103112Y-11350542D01*
X12044226Y-11333925D01*
X12006355Y-11285869D01*
X12002404Y-11272198D01*
X12000644Y-11263920D01*
X12000644Y-11263919D01*
X11972868Y-11209404D01*
X11944271Y-11170043D01*
X11944269Y-11170041D01*
X11942290Y-11167317D01*
X11934178Y-11154080D01*
X11919346Y-11124972D01*
X11909778Y-11095521D01*
X11905021Y-11065485D01*
X11905021Y-11034522D01*
X11909780Y-11004469D01*
X11919350Y-10975018D01*
X11934092Y-10946086D01*
X11947017Y-10926741D01*
X11960118Y-10911402D01*
X11978322Y-10886347D01*
X12006107Y-10819269D01*
X12006107Y-10819267D01*
X12008341Y-10813875D01*
X12010092Y-10814600D01*
X12039462Y-10770639D01*
X12096864Y-10749458D01*
X12155754Y-10766062D01*
G37*
G04 #@! TD.AperFunction*
G04 #@! TA.AperFunction,Conductor*
G36*
X14995520Y-10259778D02*
G01*
X15024977Y-10269349D01*
X15052076Y-10283157D01*
X15077134Y-10301362D01*
X15098636Y-10322864D01*
X15116842Y-10347923D01*
X15142364Y-10398013D01*
X15142768Y-10400564D01*
X15146051Y-10405922D01*
X15149843Y-10412692D01*
X15152520Y-10417945D01*
X15152533Y-10417970D01*
X15156152Y-10423199D01*
X15155969Y-10423325D01*
X15160115Y-10428872D01*
X15178234Y-10458440D01*
X15180406Y-10461884D01*
X15233597Y-10509777D01*
X15240225Y-10515745D01*
X15258164Y-10524885D01*
X15294741Y-10543522D01*
X15309610Y-10550142D01*
X15309613Y-10550142D01*
X15309616Y-10550143D01*
X15389656Y-10558557D01*
X15389657Y-10558556D01*
X15389661Y-10558557D01*
X15450093Y-10548986D01*
X15496365Y-10533951D01*
X15525019Y-10519350D01*
X15554474Y-10509779D01*
X15584513Y-10505021D01*
X15615486Y-10505021D01*
X15645520Y-10509778D01*
X15674977Y-10519349D01*
X15702076Y-10533157D01*
X15727134Y-10551362D01*
X15748636Y-10572864D01*
X15766841Y-10597922D01*
X15780649Y-10625021D01*
X15790221Y-10654482D01*
X15794977Y-10684514D01*
X15794977Y-10715484D01*
X15790221Y-10745516D01*
X15780649Y-10774977D01*
X15766841Y-10802076D01*
X15748636Y-10827134D01*
X15727134Y-10848636D01*
X15702076Y-10866841D01*
X15674977Y-10880649D01*
X15645517Y-10890221D01*
X15615487Y-10894977D01*
X15584512Y-10894977D01*
X15554475Y-10890219D01*
X15525025Y-10880650D01*
X15512562Y-10874301D01*
X15512545Y-10874293D01*
X15466289Y-10859264D01*
X15466274Y-10859260D01*
X15405866Y-10849694D01*
X15405868Y-10849694D01*
X15405852Y-10849692D01*
X15405850Y-10849692D01*
X15389664Y-10847991D01*
X15389663Y-10847991D01*
X15389662Y-10847991D01*
X15310930Y-10864726D01*
X15256425Y-10892499D01*
X15256384Y-10892521D01*
X15242322Y-10900640D01*
X15188458Y-10960461D01*
X15160682Y-11014977D01*
X15160680Y-11014980D01*
X15145647Y-11061248D01*
X15140218Y-11095524D01*
X15130646Y-11124981D01*
X15115903Y-11153915D01*
X15102981Y-11173257D01*
X15089873Y-11188606D01*
X15071673Y-11213659D01*
X15041659Y-11286125D01*
X15039911Y-11285401D01*
X15010519Y-11329374D01*
X14953112Y-11350542D01*
X14894226Y-11333925D01*
X14856355Y-11285869D01*
X14852404Y-11272198D01*
X14850644Y-11263920D01*
X14850644Y-11263919D01*
X14822868Y-11209404D01*
X14794271Y-11170043D01*
X14794269Y-11170041D01*
X14792290Y-11167317D01*
X14784178Y-11154080D01*
X14769346Y-11124972D01*
X14759778Y-11095521D01*
X14755021Y-11065485D01*
X14755021Y-11034522D01*
X14759780Y-11004469D01*
X14769350Y-10975018D01*
X14784092Y-10946086D01*
X14797017Y-10926741D01*
X14810118Y-10911402D01*
X14828322Y-10886347D01*
X14856107Y-10819269D01*
X14865678Y-10758837D01*
X14867379Y-10742653D01*
X14850644Y-10663919D01*
X14822868Y-10609404D01*
X14794271Y-10570043D01*
X14794269Y-10570041D01*
X14792290Y-10567317D01*
X14784178Y-10554080D01*
X14769346Y-10524972D01*
X14759778Y-10495519D01*
X14755021Y-10465482D01*
X14755022Y-10434512D01*
X14755915Y-10428876D01*
X14759780Y-10404471D01*
X14769351Y-10375017D01*
X14773921Y-10366048D01*
X14783157Y-10347922D01*
X14801357Y-10322869D01*
X14822869Y-10301357D01*
X14847923Y-10283155D01*
X14875019Y-10269349D01*
X14904472Y-10259779D01*
X14934513Y-10255021D01*
X14965486Y-10255021D01*
X14995520Y-10259778D01*
G37*
G04 #@! TD.AperFunction*
G04 #@! TA.AperFunction,Conductor*
G36*
X12145520Y-10259778D02*
G01*
X12174977Y-10269349D01*
X12202076Y-10283157D01*
X12227134Y-10301362D01*
X12248636Y-10322864D01*
X12266841Y-10347922D01*
X12280649Y-10375021D01*
X12290221Y-10404482D01*
X12294977Y-10434514D01*
X12294977Y-10465486D01*
X12290220Y-10495521D01*
X12280648Y-10524980D01*
X12265906Y-10553912D01*
X12252983Y-10573255D01*
X12239874Y-10588605D01*
X12221673Y-10613659D01*
X12191659Y-10686125D01*
X12189911Y-10685401D01*
X12160519Y-10729374D01*
X12103112Y-10750542D01*
X12044226Y-10733925D01*
X12006355Y-10685869D01*
X12002404Y-10672198D01*
X12000644Y-10663920D01*
X12000644Y-10663919D01*
X11972868Y-10609404D01*
X11944271Y-10570043D01*
X11944269Y-10570041D01*
X11942290Y-10567317D01*
X11934178Y-10554080D01*
X11919346Y-10524972D01*
X11909778Y-10495519D01*
X11905021Y-10465482D01*
X11905022Y-10434512D01*
X11905915Y-10428876D01*
X11909780Y-10404471D01*
X11919351Y-10375017D01*
X11923921Y-10366048D01*
X11933157Y-10347922D01*
X11951357Y-10322869D01*
X11972869Y-10301357D01*
X11997923Y-10283155D01*
X12025019Y-10269349D01*
X12054472Y-10259779D01*
X12084513Y-10255021D01*
X12115486Y-10255021D01*
X12145520Y-10259778D01*
G37*
G04 #@! TD.AperFunction*
G04 #@! TA.AperFunction,Conductor*
G36*
X16909811Y-4505173D02*
G01*
X16939521Y-4526759D01*
X16952073Y-4533154D01*
X16977132Y-4551360D01*
X16998636Y-4572864D01*
X17016841Y-4597922D01*
X17030649Y-4625021D01*
X17040221Y-4654482D01*
X17044977Y-4684514D01*
X17044977Y-4715484D01*
X17040221Y-4745516D01*
X17030649Y-4774977D01*
X17016841Y-4802076D01*
X16998636Y-4827134D01*
X16977134Y-4848636D01*
X16952076Y-4866841D01*
X16924977Y-4880649D01*
X16895516Y-4890221D01*
X16865484Y-4894977D01*
X16834514Y-4894977D01*
X16804482Y-4890221D01*
X16775021Y-4880649D01*
X16747922Y-4866841D01*
X16722864Y-4848636D01*
X16701362Y-4827134D01*
X16683157Y-4802076D01*
X16669349Y-4774977D01*
X16659778Y-4745520D01*
X16655021Y-4715484D01*
X16655021Y-4684514D01*
X16655425Y-4681960D01*
X16659779Y-4654474D01*
X16669347Y-4625024D01*
X16683157Y-4597920D01*
X16701357Y-4572869D01*
X16722867Y-4551359D01*
X16747928Y-4533154D01*
X16747930Y-4533153D01*
X16760476Y-4526761D01*
X16781282Y-4514011D01*
X16793437Y-4505179D01*
X16851623Y-4486271D01*
X16909811Y-4505173D01*
G37*
G04 #@! TD.AperFunction*
G04 #@! TA.AperFunction,Conductor*
G36*
X16895520Y-3709778D02*
G01*
X16924977Y-3719349D01*
X16952076Y-3733157D01*
X16977134Y-3751362D01*
X16998636Y-3772864D01*
X17016841Y-3797922D01*
X17030649Y-3825021D01*
X17040221Y-3854482D01*
X17044977Y-3884514D01*
X17044977Y-3915484D01*
X17040221Y-3945516D01*
X17030649Y-3974977D01*
X17016841Y-4002076D01*
X16998636Y-4027134D01*
X16977134Y-4048636D01*
X16952077Y-4066841D01*
X16939517Y-4073240D01*
X16918705Y-4085994D01*
X16906560Y-4094819D01*
X16848370Y-4113727D01*
X16790179Y-4094820D01*
X16760478Y-4073240D01*
X16747920Y-4066841D01*
X16722866Y-4048638D01*
X16701362Y-4027134D01*
X16683157Y-4002076D01*
X16669349Y-3974977D01*
X16659778Y-3945520D01*
X16655021Y-3915484D01*
X16655021Y-3884514D01*
X16655425Y-3881960D01*
X16659779Y-3854474D01*
X16669347Y-3825024D01*
X16683157Y-3797920D01*
X16701357Y-3772869D01*
X16722869Y-3751357D01*
X16747923Y-3733155D01*
X16775019Y-3719349D01*
X16804472Y-3709779D01*
X16834513Y-3705021D01*
X16865486Y-3705021D01*
X16895520Y-3709778D01*
G37*
G04 #@! TD.AperFunction*
G04 #@! TA.AperFunction,Conductor*
G36*
X35552682Y-18907D02*
G01*
X35588646Y-68407D01*
X35588646Y-129593D01*
X35552682Y-179093D01*
X35537445Y-188196D01*
X35288569Y-308047D01*
X35288557Y-308054D01*
X35050751Y-457477D01*
X34831176Y-632583D01*
X34632583Y-831176D01*
X34457477Y-1050751D01*
X34308054Y-1288557D01*
X34308047Y-1288569D01*
X34186199Y-1541590D01*
X34186198Y-1541593D01*
X34093440Y-1806680D01*
X34030944Y-2080492D01*
X33999500Y-2359573D01*
X33999500Y-2640426D01*
X34030944Y-2919507D01*
X34093440Y-3193319D01*
X34186198Y-3458406D01*
X34186199Y-3458409D01*
X34308047Y-3711430D01*
X34308051Y-3711437D01*
X34308055Y-3711445D01*
X34457477Y-3949248D01*
X34632584Y-4168825D01*
X34831175Y-4367416D01*
X35050752Y-4542523D01*
X35288555Y-4691945D01*
X35288566Y-4691950D01*
X35288569Y-4691952D01*
X35431964Y-4761007D01*
X35541592Y-4813801D01*
X35806682Y-4906560D01*
X36080491Y-4969055D01*
X36359575Y-5000500D01*
X36359576Y-5000500D01*
X36640424Y-5000500D01*
X36640425Y-5000500D01*
X36919509Y-4969055D01*
X37193318Y-4906560D01*
X37458408Y-4813801D01*
X37711445Y-4691945D01*
X37949248Y-4542523D01*
X38168825Y-4367416D01*
X38367416Y-4168825D01*
X38542523Y-3949248D01*
X38691945Y-3711445D01*
X38813801Y-3458408D01*
X38906560Y-3193318D01*
X38969055Y-2919509D01*
X39000500Y-2640425D01*
X39000500Y-2359575D01*
X38969055Y-2080491D01*
X38906560Y-1806682D01*
X38813801Y-1541592D01*
X38691945Y-1288555D01*
X38542523Y-1050752D01*
X38367416Y-831175D01*
X38168825Y-632584D01*
X37949248Y-457477D01*
X37711445Y-308055D01*
X37711437Y-308051D01*
X37711430Y-308047D01*
X37462555Y-188196D01*
X37418330Y-145913D01*
X37407405Y-85711D01*
X37433952Y-30585D01*
X37487832Y-1591D01*
X37505509Y0D01*
X41799177Y0D01*
X41800795Y-13D01*
X41958013Y-2583D01*
X41969309Y-3416D01*
X42281820Y-44559D01*
X42294506Y-47082D01*
X42598204Y-128458D01*
X42610448Y-132615D01*
X42900916Y-252931D01*
X42912519Y-258652D01*
X43184806Y-415857D01*
X43195561Y-423044D01*
X43360362Y-549500D01*
X43444979Y-614429D01*
X43454716Y-622967D01*
X43677032Y-845283D01*
X43685570Y-855020D01*
X43876951Y-1104432D01*
X43884144Y-1115196D01*
X43984234Y-1288557D01*
X44041344Y-1387475D01*
X44047071Y-1399089D01*
X44167381Y-1689542D01*
X44171544Y-1701805D01*
X44252915Y-2005486D01*
X44255441Y-2018187D01*
X44296582Y-2330686D01*
X44297416Y-2341989D01*
X44299987Y-2499203D01*
X44300000Y-2500822D01*
X44300000Y-36499177D01*
X44299987Y-36500796D01*
X44297416Y-36658010D01*
X44296582Y-36669313D01*
X44255441Y-36981812D01*
X44252915Y-36994513D01*
X44171544Y-37298194D01*
X44167381Y-37310457D01*
X44047071Y-37600910D01*
X44041344Y-37612524D01*
X43884146Y-37884800D01*
X43876951Y-37895567D01*
X43685570Y-38144979D01*
X43677032Y-38154716D01*
X43454716Y-38377032D01*
X43444979Y-38385570D01*
X43195567Y-38576951D01*
X43184800Y-38584146D01*
X42912524Y-38741344D01*
X42900910Y-38747071D01*
X42610457Y-38867381D01*
X42598194Y-38871544D01*
X42294513Y-38952915D01*
X42281812Y-38955441D01*
X41969313Y-38996582D01*
X41958010Y-38997416D01*
X41803599Y-38999941D01*
X41800794Y-38999987D01*
X41799177Y-39000000D01*
X37505509Y-39000000D01*
X37447318Y-38981093D01*
X37411354Y-38931593D01*
X37411354Y-38870407D01*
X37447318Y-38820907D01*
X37462555Y-38811804D01*
X37711430Y-38691952D01*
X37711445Y-38691945D01*
X37949248Y-38542523D01*
X38168825Y-38367416D01*
X38367416Y-38168825D01*
X38542523Y-37949248D01*
X38691945Y-37711445D01*
X38813801Y-37458408D01*
X38906560Y-37193318D01*
X38969055Y-36919509D01*
X39000500Y-36640425D01*
X39000500Y-36359575D01*
X38969055Y-36080491D01*
X38906560Y-35806682D01*
X38813801Y-35541592D01*
X38782949Y-35477527D01*
X38691952Y-35288569D01*
X38691950Y-35288566D01*
X38691945Y-35288555D01*
X38542523Y-35050752D01*
X38367416Y-34831175D01*
X38168825Y-34632584D01*
X37949248Y-34457477D01*
X37711445Y-34308055D01*
X37711437Y-34308051D01*
X37711430Y-34308047D01*
X37458409Y-34186199D01*
X37458406Y-34186198D01*
X37193319Y-34093440D01*
X36919507Y-34030944D01*
X36640426Y-33999500D01*
X36640425Y-33999500D01*
X36359575Y-33999500D01*
X36359573Y-33999500D01*
X36080492Y-34030944D01*
X35806680Y-34093440D01*
X35541593Y-34186198D01*
X35541590Y-34186199D01*
X35288569Y-34308047D01*
X35288557Y-34308054D01*
X35050751Y-34457477D01*
X34831176Y-34632583D01*
X34632583Y-34831176D01*
X34457477Y-35050751D01*
X34308054Y-35288557D01*
X34308047Y-35288569D01*
X34186199Y-35541590D01*
X34186198Y-35541593D01*
X34093440Y-35806680D01*
X34030944Y-36080492D01*
X33999500Y-36359573D01*
X33999500Y-36640426D01*
X34030944Y-36919507D01*
X34093440Y-37193319D01*
X34186198Y-37458406D01*
X34186199Y-37458409D01*
X34308047Y-37711430D01*
X34308051Y-37711437D01*
X34308055Y-37711445D01*
X34457477Y-37949248D01*
X34632584Y-38168825D01*
X34831175Y-38367416D01*
X35050752Y-38542523D01*
X35288555Y-38691945D01*
X35288566Y-38691950D01*
X35288569Y-38691952D01*
X35537445Y-38811804D01*
X35581670Y-38854087D01*
X35592595Y-38914289D01*
X35566048Y-38969415D01*
X35512168Y-38998409D01*
X35494491Y-39000000D01*
X3505509Y-39000000D01*
X3447318Y-38981093D01*
X3411354Y-38931593D01*
X3411354Y-38870407D01*
X3447318Y-38820907D01*
X3462555Y-38811804D01*
X3711430Y-38691952D01*
X3711445Y-38691945D01*
X3949248Y-38542523D01*
X4168825Y-38367416D01*
X4367416Y-38168825D01*
X4542523Y-37949248D01*
X4691945Y-37711445D01*
X4813801Y-37458408D01*
X4906560Y-37193318D01*
X4969055Y-36919509D01*
X5000500Y-36640425D01*
X5000500Y-36359575D01*
X4969055Y-36080491D01*
X4906560Y-35806682D01*
X4813801Y-35541592D01*
X4782949Y-35477527D01*
X4691952Y-35288569D01*
X4691950Y-35288566D01*
X4691945Y-35288555D01*
X4542523Y-35050752D01*
X4367416Y-34831175D01*
X4168825Y-34632584D01*
X3949248Y-34457477D01*
X3711445Y-34308055D01*
X3711437Y-34308051D01*
X3711430Y-34308047D01*
X3458409Y-34186199D01*
X3458406Y-34186198D01*
X3193319Y-34093440D01*
X2919507Y-34030944D01*
X2640426Y-33999500D01*
X2640425Y-33999500D01*
X2359575Y-33999500D01*
X2359573Y-33999500D01*
X2080492Y-34030944D01*
X1806680Y-34093440D01*
X1541593Y-34186198D01*
X1541590Y-34186199D01*
X1288569Y-34308047D01*
X1288557Y-34308054D01*
X1050751Y-34457477D01*
X831176Y-34632583D01*
X632583Y-34831176D01*
X457477Y-35050751D01*
X308054Y-35288557D01*
X308047Y-35288569D01*
X188196Y-35537444D01*
X145913Y-35581669D01*
X85711Y-35592594D01*
X30585Y-35566047D01*
X1591Y-35512167D01*
X0Y-35494490D01*
X0Y-7627525D01*
X1649500Y-7627525D01*
X1649500Y-30327526D01*
X1649500Y-30472474D01*
X1687016Y-30612485D01*
X1759490Y-30738015D01*
X9161985Y-38140510D01*
X9287515Y-38212984D01*
X9427525Y-38250500D01*
X9427526Y-38250500D01*
X29322474Y-38250500D01*
X29322475Y-38250500D01*
X29462485Y-38212984D01*
X29588015Y-38140510D01*
X31840510Y-35888015D01*
X31912984Y-35762485D01*
X31950499Y-35622474D01*
X31950499Y-35477526D01*
X31912984Y-35337515D01*
X31840510Y-35211985D01*
X31738015Y-35109490D01*
X31612485Y-35037016D01*
X31472474Y-34999501D01*
X31327526Y-34999501D01*
X31234185Y-35024511D01*
X31187514Y-35037016D01*
X31061985Y-35109490D01*
X29050971Y-37120504D01*
X28996454Y-37148281D01*
X28980967Y-37149500D01*
X9769033Y-37149500D01*
X9710842Y-37130593D01*
X9699029Y-37120504D01*
X7128525Y-34550000D01*
X26887631Y-34550000D01*
X26905000Y-34659661D01*
X26955405Y-34758587D01*
X27033913Y-34837095D01*
X27132839Y-34887500D01*
X27242500Y-34904869D01*
X27352161Y-34887500D01*
X27451087Y-34837095D01*
X27529595Y-34758587D01*
X27580000Y-34659661D01*
X27597369Y-34550000D01*
X27580000Y-34440339D01*
X27529595Y-34341413D01*
X27451087Y-34262905D01*
X27352161Y-34212500D01*
X27242500Y-34195131D01*
X27132838Y-34212500D01*
X27033913Y-34262905D01*
X26955405Y-34341413D01*
X26905000Y-34440338D01*
X26902286Y-34457477D01*
X26887631Y-34550000D01*
X7128525Y-34550000D01*
X6528525Y-33950000D01*
X11945131Y-33950000D01*
X11962500Y-34059661D01*
X12012905Y-34158587D01*
X12091413Y-34237095D01*
X12190339Y-34287500D01*
X12300000Y-34304869D01*
X12409661Y-34287500D01*
X12508587Y-34237095D01*
X12587095Y-34158587D01*
X12637500Y-34059661D01*
X12654869Y-33950000D01*
X12646950Y-33900000D01*
X13195131Y-33900000D01*
X13212500Y-34009661D01*
X13262905Y-34108587D01*
X13341413Y-34187095D01*
X13440339Y-34237500D01*
X13550000Y-34254869D01*
X13659661Y-34237500D01*
X13758587Y-34187095D01*
X13837095Y-34108587D01*
X13887500Y-34009661D01*
X13904869Y-33900000D01*
X13887500Y-33790339D01*
X13837095Y-33691413D01*
X13758587Y-33612905D01*
X13659661Y-33562500D01*
X13550000Y-33545131D01*
X13440338Y-33562500D01*
X13341413Y-33612905D01*
X13262905Y-33691413D01*
X13212500Y-33790338D01*
X13204581Y-33840339D01*
X13195131Y-33900000D01*
X12646950Y-33900000D01*
X12637500Y-33840339D01*
X12587095Y-33741413D01*
X12508587Y-33662905D01*
X12409661Y-33612500D01*
X12300000Y-33595131D01*
X12190338Y-33612500D01*
X12091413Y-33662905D01*
X12012905Y-33741413D01*
X11962500Y-33840338D01*
X11953051Y-33899999D01*
X11945131Y-33950000D01*
X6528525Y-33950000D01*
X5778525Y-33200000D01*
X10845131Y-33200000D01*
X10862500Y-33309661D01*
X10912905Y-33408587D01*
X10991413Y-33487095D01*
X11090339Y-33537500D01*
X11200000Y-33554869D01*
X11309661Y-33537500D01*
X11408587Y-33487095D01*
X11487095Y-33408587D01*
X11537500Y-33309661D01*
X11554869Y-33200000D01*
X11537500Y-33090339D01*
X11487095Y-32991413D01*
X11408587Y-32912905D01*
X11309661Y-32862500D01*
X11200000Y-32845131D01*
X11090338Y-32862500D01*
X10991413Y-32912905D01*
X10912905Y-32991413D01*
X10862500Y-33090338D01*
X10862500Y-33090339D01*
X10845131Y-33200000D01*
X5778525Y-33200000D01*
X2779496Y-30200971D01*
X2751719Y-30146454D01*
X2750500Y-30130967D01*
X2750500Y-7969032D01*
X2769407Y-7910841D01*
X2779496Y-7899028D01*
X2937520Y-7741004D01*
X4584500Y-7741004D01*
X4584500Y-29408982D01*
X4584979Y-29421197D01*
X4586198Y-29436682D01*
X4602665Y-29495070D01*
X4602667Y-29495073D01*
X4630444Y-29549590D01*
X4659041Y-29588951D01*
X7401049Y-32330959D01*
X7410016Y-32339248D01*
X7421829Y-32349337D01*
X7421830Y-32349338D01*
X7421832Y-32349339D01*
X7474762Y-32378982D01*
X7493128Y-32384949D01*
X7532957Y-32397890D01*
X7542567Y-32399412D01*
X7581004Y-32405500D01*
X7581008Y-32405500D01*
X11572440Y-32405500D01*
X11572453Y-32405500D01*
X11584661Y-32405020D01*
X11600153Y-32403800D01*
X11658547Y-32387328D01*
X11713062Y-32359548D01*
X11727158Y-32351409D01*
X11781015Y-32291589D01*
X11808790Y-32237071D01*
X11815411Y-32222198D01*
X11823819Y-32142145D01*
X11821464Y-32127282D01*
X11822096Y-32123285D01*
X11816085Y-32085335D01*
X11805022Y-32015483D01*
X11805022Y-31984508D01*
X11806866Y-31972866D01*
X11809779Y-31954473D01*
X11819350Y-31925019D01*
X11833157Y-31897922D01*
X11851357Y-31872869D01*
X11872869Y-31851357D01*
X11897923Y-31833155D01*
X11925019Y-31819349D01*
X11954472Y-31809779D01*
X11984513Y-31805021D01*
X12015486Y-31805021D01*
X12045520Y-31809778D01*
X12074977Y-31819349D01*
X12102076Y-31833157D01*
X12127134Y-31851362D01*
X12148638Y-31872866D01*
X12166841Y-31897921D01*
X12173227Y-31910454D01*
X12173238Y-31910474D01*
X12173239Y-31910476D01*
X12173251Y-31910496D01*
X12185984Y-31931275D01*
X12185988Y-31931281D01*
X12185989Y-31931282D01*
X12204194Y-31956339D01*
X12259399Y-32003489D01*
X12313915Y-32031267D01*
X12313931Y-32031274D01*
X12328784Y-32037887D01*
X12408831Y-32046302D01*
X12408833Y-32046301D01*
X12408836Y-32046302D01*
X12461969Y-32037887D01*
X12469250Y-32036734D01*
X12469252Y-32036733D01*
X12469268Y-32036731D01*
X12485189Y-32033347D01*
X12554898Y-31993101D01*
X12598163Y-31949837D01*
X12626761Y-31910476D01*
X12633155Y-31897925D01*
X12651358Y-31872868D01*
X12672869Y-31851357D01*
X12697923Y-31833155D01*
X12725019Y-31819349D01*
X12754472Y-31809779D01*
X12784513Y-31805021D01*
X12815486Y-31805021D01*
X12845520Y-31809778D01*
X12874977Y-31819349D01*
X12902076Y-31833157D01*
X12927134Y-31851362D01*
X12948638Y-31872866D01*
X12966841Y-31897921D01*
X12973227Y-31910454D01*
X12973238Y-31910474D01*
X12973239Y-31910476D01*
X12973251Y-31910496D01*
X12985984Y-31931275D01*
X12985988Y-31931281D01*
X12985989Y-31931282D01*
X13004194Y-31956339D01*
X13059399Y-32003489D01*
X13113915Y-32031267D01*
X13113931Y-32031274D01*
X13128784Y-32037887D01*
X13208831Y-32046302D01*
X13208833Y-32046301D01*
X13208836Y-32046302D01*
X13261969Y-32037887D01*
X13269250Y-32036734D01*
X13269252Y-32036733D01*
X13269268Y-32036731D01*
X13285189Y-32033347D01*
X13354898Y-31993101D01*
X13398163Y-31949837D01*
X13426761Y-31910476D01*
X13433155Y-31897925D01*
X13451358Y-31872868D01*
X13472869Y-31851357D01*
X13497923Y-31833155D01*
X13525019Y-31819349D01*
X13554472Y-31809779D01*
X13584513Y-31805021D01*
X13615486Y-31805021D01*
X13645520Y-31809778D01*
X13674977Y-31819349D01*
X13702076Y-31833157D01*
X13727134Y-31851362D01*
X13748636Y-31872864D01*
X13766841Y-31897922D01*
X13780649Y-31925021D01*
X13790221Y-31954482D01*
X13794977Y-31984514D01*
X13794977Y-32015486D01*
X13780494Y-32106929D01*
X13779812Y-32110749D01*
X13777892Y-32120405D01*
X13777892Y-32181600D01*
X13778744Y-32197846D01*
X13778745Y-32197852D01*
X13807590Y-32272994D01*
X13843551Y-32322492D01*
X13853795Y-32335142D01*
X13853799Y-32335145D01*
X13921299Y-32378980D01*
X13921303Y-32378982D01*
X13921305Y-32378983D01*
X13979496Y-32397890D01*
X13989106Y-32399412D01*
X14027543Y-32405500D01*
X14027547Y-32405500D01*
X14452976Y-32405500D01*
X14452975Y-32405499D01*
X14489277Y-32401203D01*
X14534223Y-32390412D01*
X14534228Y-32390410D01*
X14534256Y-32390404D01*
X14535928Y-32389978D01*
X14538169Y-32389410D01*
X14538171Y-32389408D01*
X14538173Y-32389408D01*
X14558343Y-32377762D01*
X14607877Y-32349163D01*
X14651141Y-32305898D01*
X14662032Y-32293802D01*
X14694771Y-32220268D01*
X14704342Y-32159836D01*
X14704340Y-32111179D01*
X14704339Y-32111175D01*
X14704084Y-32107933D01*
X14704995Y-32084677D01*
X14709780Y-32054469D01*
X14719347Y-32025024D01*
X14733157Y-31997920D01*
X14751357Y-31972869D01*
X14772869Y-31951357D01*
X14797923Y-31933155D01*
X14825019Y-31919349D01*
X14854472Y-31909779D01*
X14884513Y-31905021D01*
X14915486Y-31905021D01*
X14945520Y-31909778D01*
X14974977Y-31919349D01*
X15002076Y-31933157D01*
X15027134Y-31951362D01*
X15048636Y-31972864D01*
X15066842Y-31997924D01*
X15080647Y-32025019D01*
X15090218Y-32054474D01*
X15095907Y-32090389D01*
X15095900Y-32090431D01*
X15098791Y-32108644D01*
X15097880Y-32114406D01*
X15102361Y-32133070D01*
X15103876Y-32140689D01*
X15105335Y-32149897D01*
X15106445Y-32151423D01*
X15108581Y-32158989D01*
X15114246Y-32182595D01*
X15114258Y-32182626D01*
X15114450Y-32183428D01*
X15115458Y-32187396D01*
X15155702Y-32257101D01*
X15198967Y-32300367D01*
X15198980Y-32300379D01*
X15211057Y-32311253D01*
X15211061Y-32311255D01*
X15211063Y-32311257D01*
X15284596Y-32343997D01*
X15345028Y-32353569D01*
X15393680Y-32353570D01*
X15393680Y-32353569D01*
X15397570Y-32353570D01*
X15397569Y-32354108D01*
X15413687Y-32354736D01*
X15445524Y-32359778D01*
X15474974Y-32369347D01*
X15491488Y-32377762D01*
X15494790Y-32378980D01*
X15525775Y-32390412D01*
X15525782Y-32390413D01*
X15525783Y-32390414D01*
X15570727Y-32401204D01*
X15607027Y-32405500D01*
X15607029Y-32405500D01*
X19348983Y-32405500D01*
X19348992Y-32405500D01*
X19361194Y-32405021D01*
X19376681Y-32403802D01*
X19427716Y-32389408D01*
X19435070Y-32387334D01*
X19435070Y-32387333D01*
X19435073Y-32387333D01*
X19489590Y-32359556D01*
X19528951Y-32330959D01*
X20047410Y-31812500D01*
X24657631Y-31812500D01*
X24675000Y-31922161D01*
X24725405Y-32021087D01*
X24803913Y-32099595D01*
X24902839Y-32150000D01*
X25012500Y-32167369D01*
X25122161Y-32150000D01*
X25221087Y-32099595D01*
X25299595Y-32021087D01*
X25350000Y-31922161D01*
X25367369Y-31812500D01*
X25367326Y-31812231D01*
X25360347Y-31768167D01*
X25350000Y-31702839D01*
X25299595Y-31603913D01*
X25221087Y-31525405D01*
X25122161Y-31475000D01*
X25012500Y-31457631D01*
X24902838Y-31475000D01*
X24803913Y-31525405D01*
X24725405Y-31603913D01*
X24675000Y-31702838D01*
X24657674Y-31812231D01*
X24657631Y-31812500D01*
X20047410Y-31812500D01*
X20070959Y-31788951D01*
X20079248Y-31779984D01*
X20089337Y-31768171D01*
X20097073Y-31754356D01*
X20118982Y-31715237D01*
X20123010Y-31702839D01*
X20137890Y-31657043D01*
X20145500Y-31608992D01*
X20145500Y-29450571D01*
X20164407Y-29392380D01*
X20213907Y-29356416D01*
X20263820Y-29353475D01*
X20269323Y-29354569D01*
X20273994Y-29355499D01*
X20273997Y-29355499D01*
X20274000Y-29355500D01*
X20274001Y-29355500D01*
X27669347Y-29355500D01*
X27669348Y-29355500D01*
X27747989Y-29339857D01*
X27800315Y-29318183D01*
X27866984Y-29273636D01*
X28523636Y-28616984D01*
X28568183Y-28550315D01*
X28589857Y-28497989D01*
X28605500Y-28419348D01*
X28605500Y-24080652D01*
X28589857Y-24002011D01*
X28568183Y-23949685D01*
X28523636Y-23883016D01*
X28366984Y-23726364D01*
X28300315Y-23681817D01*
X28300314Y-23681816D01*
X28300312Y-23681815D01*
X28247990Y-23660143D01*
X28169348Y-23644500D01*
X27076128Y-23644500D01*
X27017937Y-23625593D01*
X27006124Y-23615504D01*
X26884496Y-23493876D01*
X26856719Y-23439359D01*
X26855500Y-23423872D01*
X26855500Y-19363026D01*
X26851976Y-19333259D01*
X26849821Y-19315050D01*
X26841755Y-19281456D01*
X26825036Y-19236138D01*
X26819360Y-19224999D01*
X32995131Y-19224999D01*
X32995131Y-19225000D01*
X33012500Y-19334661D01*
X33062906Y-19433589D01*
X33067486Y-19439892D01*
X33065205Y-19441549D01*
X33087095Y-19484538D01*
X33077508Y-19544968D01*
X33066845Y-19559642D01*
X33067486Y-19560108D01*
X33062906Y-19566410D01*
X33012500Y-19665338D01*
X32997551Y-19759724D01*
X32995131Y-19775000D01*
X33012500Y-19884661D01*
X33062905Y-19983587D01*
X33141413Y-20062095D01*
X33240339Y-20112500D01*
X33350000Y-20129869D01*
X33459661Y-20112500D01*
X33558587Y-20062095D01*
X33637095Y-19983587D01*
X33687500Y-19884661D01*
X33704869Y-19775000D01*
X33687500Y-19665339D01*
X33637095Y-19566413D01*
X33637094Y-19566412D01*
X33637093Y-19566410D01*
X33632514Y-19560108D01*
X33634797Y-19558448D01*
X33612908Y-19515487D01*
X33622479Y-19455055D01*
X33633156Y-19440358D01*
X33632514Y-19439892D01*
X33637093Y-19433589D01*
X33637095Y-19433587D01*
X33687500Y-19334661D01*
X33704869Y-19225000D01*
X33687500Y-19115339D01*
X33637095Y-19016413D01*
X33558587Y-18937905D01*
X33459661Y-18887500D01*
X33350000Y-18870131D01*
X33240338Y-18887500D01*
X33141413Y-18937905D01*
X33062905Y-19016413D01*
X33012500Y-19115338D01*
X32995131Y-19224999D01*
X26819360Y-19224999D01*
X26819349Y-19224978D01*
X26809778Y-19195520D01*
X26805021Y-19165481D01*
X26805021Y-19134514D01*
X26808058Y-19115338D01*
X26809778Y-19104477D01*
X26819347Y-19075024D01*
X26833159Y-19047918D01*
X26851360Y-19022865D01*
X26872865Y-19001360D01*
X26897918Y-18983159D01*
X26925024Y-18969347D01*
X26954473Y-18959779D01*
X26984524Y-18955020D01*
X27015477Y-18955020D01*
X27045522Y-18959777D01*
X27074977Y-18969349D01*
X27086138Y-18975036D01*
X27131457Y-18991755D01*
X27165052Y-18999821D01*
X27213027Y-19005499D01*
X27213027Y-19005500D01*
X27213028Y-19005500D01*
X27386973Y-19005500D01*
X27386972Y-19005499D01*
X27434948Y-18999821D01*
X27468543Y-18991755D01*
X27513863Y-18975035D01*
X27525015Y-18969351D01*
X27554476Y-18959777D01*
X27584517Y-18955020D01*
X27615481Y-18955020D01*
X27645518Y-18959777D01*
X27674977Y-18969349D01*
X27686138Y-18975036D01*
X27731457Y-18991755D01*
X27765052Y-18999821D01*
X27813027Y-19005499D01*
X27813027Y-19005500D01*
X27813028Y-19005500D01*
X27986973Y-19005500D01*
X27986972Y-19005499D01*
X28034948Y-18999821D01*
X28068543Y-18991755D01*
X28113863Y-18975035D01*
X28125015Y-18969351D01*
X28154475Y-18959777D01*
X28184517Y-18955020D01*
X28215486Y-18955020D01*
X28226205Y-18956718D01*
X28232266Y-18957679D01*
X28232271Y-18957679D01*
X28232280Y-18957681D01*
X28248301Y-18959577D01*
X28256927Y-18960255D01*
X28259799Y-18960482D01*
X28259804Y-18960482D01*
X28259876Y-18960488D01*
X28264477Y-18960799D01*
X28354641Y-18945479D01*
X28406967Y-18923805D01*
X28465261Y-18887177D01*
X28518183Y-18812589D01*
X28539857Y-18760263D01*
X28555500Y-18681622D01*
X28555500Y-18355545D01*
X29700676Y-18355545D01*
X29718045Y-18465206D01*
X29768450Y-18564132D01*
X29846958Y-18642640D01*
X29945884Y-18693045D01*
X30013889Y-18703816D01*
X30068406Y-18731594D01*
X30096183Y-18786109D01*
X30101100Y-18817149D01*
X30106955Y-18854116D01*
X30157360Y-18953042D01*
X30235868Y-19031550D01*
X30334794Y-19081955D01*
X30444455Y-19099324D01*
X30554116Y-19081955D01*
X30653042Y-19031550D01*
X30731550Y-18953042D01*
X30781955Y-18854116D01*
X30799324Y-18744455D01*
X30781955Y-18634794D01*
X30731550Y-18535868D01*
X30653042Y-18457360D01*
X30554116Y-18406955D01*
X30537727Y-18404359D01*
X30486109Y-18396183D01*
X30431593Y-18368405D01*
X30403816Y-18313889D01*
X30396597Y-18268313D01*
X30393045Y-18245884D01*
X30342640Y-18146958D01*
X30264132Y-18068450D01*
X30165206Y-18018045D01*
X30055545Y-18000676D01*
X29945883Y-18018045D01*
X29846958Y-18068450D01*
X29768450Y-18146958D01*
X29718045Y-18245883D01*
X29706883Y-18316359D01*
X29700676Y-18355545D01*
X28555500Y-18355545D01*
X28555500Y-18124000D01*
X28539857Y-18045359D01*
X28520505Y-17998638D01*
X28518184Y-17993035D01*
X28509277Y-17978860D01*
X28481555Y-17934739D01*
X28467802Y-17924981D01*
X28406966Y-17881816D01*
X28385291Y-17872838D01*
X28354641Y-17860143D01*
X28276000Y-17844500D01*
X27076128Y-17844500D01*
X27017937Y-17825593D01*
X27006124Y-17815504D01*
X26484496Y-17293876D01*
X26456719Y-17239359D01*
X26455500Y-17223872D01*
X26455500Y-16697045D01*
X26455500Y-16697044D01*
X26439857Y-16618403D01*
X26418183Y-16566077D01*
X26373636Y-16499408D01*
X26351363Y-16477135D01*
X26333156Y-16452074D01*
X26327793Y-16441549D01*
X26319348Y-16424973D01*
X26309778Y-16395518D01*
X26305021Y-16365480D01*
X26305021Y-16334516D01*
X26309778Y-16304475D01*
X26319348Y-16275023D01*
X26333157Y-16247921D01*
X26351363Y-16222864D01*
X26373635Y-16200594D01*
X26418183Y-16133923D01*
X26439857Y-16081597D01*
X26455500Y-16002956D01*
X26455500Y-15997044D01*
X26439857Y-15918403D01*
X26429020Y-15892240D01*
X26418184Y-15866079D01*
X26418183Y-15866077D01*
X26373636Y-15799408D01*
X26351362Y-15777134D01*
X26333157Y-15752076D01*
X26325759Y-15737557D01*
X26319348Y-15724976D01*
X26309778Y-15695519D01*
X26305021Y-15665481D01*
X26305021Y-15650000D01*
X27245131Y-15650000D01*
X27262500Y-15759661D01*
X27312905Y-15858587D01*
X27384316Y-15929998D01*
X27412092Y-15984513D01*
X27402521Y-16044945D01*
X27384317Y-16070000D01*
X27338980Y-16115338D01*
X27312905Y-16141413D01*
X27262500Y-16240338D01*
X27247561Y-16334661D01*
X27245131Y-16350000D01*
X27262500Y-16459661D01*
X27312905Y-16558587D01*
X27391413Y-16637095D01*
X27490339Y-16687500D01*
X27600000Y-16704869D01*
X27709661Y-16687500D01*
X27808587Y-16637095D01*
X27887095Y-16558587D01*
X27937500Y-16459661D01*
X27954869Y-16350000D01*
X27952439Y-16334661D01*
X27942993Y-16275021D01*
X27937500Y-16240339D01*
X27929684Y-16224999D01*
X30745131Y-16224999D01*
X30745131Y-16225000D01*
X30762500Y-16334661D01*
X30812906Y-16433589D01*
X30817486Y-16439892D01*
X30815205Y-16441549D01*
X30837095Y-16484538D01*
X30827508Y-16544968D01*
X30816845Y-16559642D01*
X30817486Y-16560108D01*
X30812906Y-16566410D01*
X30762500Y-16665338D01*
X30747803Y-16758133D01*
X30745131Y-16775000D01*
X30762500Y-16884661D01*
X30812905Y-16983587D01*
X30891413Y-17062095D01*
X30990339Y-17112500D01*
X31100000Y-17129869D01*
X31209661Y-17112500D01*
X31308587Y-17062095D01*
X31387095Y-16983587D01*
X31437500Y-16884661D01*
X31454869Y-16775000D01*
X31437500Y-16665339D01*
X31387095Y-16566413D01*
X31387094Y-16566412D01*
X31387093Y-16566410D01*
X31382514Y-16560108D01*
X31384797Y-16558448D01*
X31362908Y-16515487D01*
X31372479Y-16455055D01*
X31383156Y-16440358D01*
X31382514Y-16439892D01*
X31387093Y-16433589D01*
X31387095Y-16433587D01*
X31437500Y-16334661D01*
X31454869Y-16225000D01*
X31454530Y-16222862D01*
X31451003Y-16200591D01*
X31437500Y-16115339D01*
X31387095Y-16016413D01*
X31308587Y-15937905D01*
X31209661Y-15887500D01*
X31100000Y-15870131D01*
X30990338Y-15887500D01*
X30891413Y-15937905D01*
X30812905Y-16016413D01*
X30762500Y-16115338D01*
X30745131Y-16224999D01*
X27929684Y-16224999D01*
X27887095Y-16141413D01*
X27815683Y-16070001D01*
X27787908Y-16015487D01*
X27797479Y-15955055D01*
X27815682Y-15929999D01*
X27887095Y-15858587D01*
X27937500Y-15759661D01*
X27954869Y-15650000D01*
X27937500Y-15540339D01*
X27887095Y-15441413D01*
X27808587Y-15362905D01*
X27709661Y-15312500D01*
X27600000Y-15295131D01*
X27490338Y-15312500D01*
X27391413Y-15362905D01*
X27312905Y-15441413D01*
X27262500Y-15540338D01*
X27247799Y-15633158D01*
X27245131Y-15650000D01*
X26305021Y-15650000D01*
X26305021Y-15634514D01*
X26307423Y-15619349D01*
X26309778Y-15604477D01*
X26319348Y-15575023D01*
X26333157Y-15547921D01*
X26351363Y-15522864D01*
X26373635Y-15500594D01*
X26418183Y-15433923D01*
X26439857Y-15381597D01*
X26455500Y-15302956D01*
X26455500Y-14724999D01*
X32995131Y-14724999D01*
X32995131Y-14725000D01*
X33012500Y-14834661D01*
X33062906Y-14933589D01*
X33067486Y-14939892D01*
X33065205Y-14941549D01*
X33087095Y-14984538D01*
X33077508Y-15044968D01*
X33066845Y-15059642D01*
X33067486Y-15060108D01*
X33062906Y-15066410D01*
X33012500Y-15165338D01*
X32995490Y-15272736D01*
X32995131Y-15275000D01*
X33012500Y-15384661D01*
X33062905Y-15483587D01*
X33141413Y-15562095D01*
X33240339Y-15612500D01*
X33350000Y-15629869D01*
X33459661Y-15612500D01*
X33558587Y-15562095D01*
X33637095Y-15483587D01*
X33687500Y-15384661D01*
X33704869Y-15275000D01*
X33704510Y-15272736D01*
X33696682Y-15223313D01*
X33687500Y-15165339D01*
X33637095Y-15066413D01*
X33637094Y-15066412D01*
X33637093Y-15066410D01*
X33632514Y-15060108D01*
X33634797Y-15058448D01*
X33612908Y-15015487D01*
X33622479Y-14955055D01*
X33633156Y-14940358D01*
X33632514Y-14939892D01*
X33637093Y-14933589D01*
X33637095Y-14933587D01*
X33687500Y-14834661D01*
X33704869Y-14725000D01*
X33687500Y-14615339D01*
X33637095Y-14516413D01*
X33558587Y-14437905D01*
X33459661Y-14387500D01*
X33350000Y-14370131D01*
X33240338Y-14387500D01*
X33141413Y-14437905D01*
X33062905Y-14516413D01*
X33012500Y-14615338D01*
X32995131Y-14724999D01*
X26455500Y-14724999D01*
X26455500Y-11880652D01*
X26439857Y-11802011D01*
X26422341Y-11759723D01*
X26418184Y-11749687D01*
X26418183Y-11749685D01*
X26373636Y-11683016D01*
X25966984Y-11276364D01*
X25900315Y-11231817D01*
X25900314Y-11231816D01*
X25900312Y-11231815D01*
X25847990Y-11210143D01*
X25769348Y-11194500D01*
X25080652Y-11194500D01*
X25080651Y-11194500D01*
X25002009Y-11210143D01*
X24949687Y-11231815D01*
X24883016Y-11276364D01*
X24883012Y-11276367D01*
X23876367Y-12283012D01*
X23876364Y-12283016D01*
X23831815Y-12349687D01*
X23810143Y-12402009D01*
X23794500Y-12480651D01*
X23794500Y-14195500D01*
X23775593Y-14253691D01*
X23726093Y-14289655D01*
X23695500Y-14294500D01*
X23061652Y-14294500D01*
X23003461Y-14275593D01*
X22967497Y-14226093D01*
X22964321Y-14195876D01*
X22963286Y-14195931D01*
X22962878Y-14188158D01*
X22962879Y-14188153D01*
X22946144Y-14109419D01*
X22918368Y-14054904D01*
X22889771Y-14015543D01*
X22851359Y-13977131D01*
X22833158Y-13952079D01*
X22819346Y-13924972D01*
X22809778Y-13895519D01*
X22805021Y-13865481D01*
X22805022Y-13834511D01*
X22805023Y-13834509D01*
X22809780Y-13804471D01*
X22819351Y-13775017D01*
X22834093Y-13746083D01*
X22847019Y-13726739D01*
X22860118Y-13711402D01*
X22860750Y-13710533D01*
X22870272Y-13697426D01*
X22878322Y-13686347D01*
X22906107Y-13619269D01*
X22915678Y-13558837D01*
X22917379Y-13542653D01*
X22900644Y-13463919D01*
X22872868Y-13409404D01*
X22844271Y-13370043D01*
X22844269Y-13370041D01*
X22842290Y-13367317D01*
X22834178Y-13354080D01*
X22819346Y-13324971D01*
X22809778Y-13295519D01*
X22805021Y-13265481D01*
X22805021Y-13234515D01*
X22809779Y-13204471D01*
X22819350Y-13175019D01*
X22834093Y-13146084D01*
X22847016Y-13126742D01*
X22860118Y-13111402D01*
X22860137Y-13111377D01*
X22870272Y-13097426D01*
X22878322Y-13086347D01*
X22906107Y-13019269D01*
X22915678Y-12958837D01*
X22917379Y-12942653D01*
X22900644Y-12863919D01*
X22872868Y-12809404D01*
X22844271Y-12770043D01*
X22844269Y-12770041D01*
X22842290Y-12767317D01*
X22834178Y-12754080D01*
X22819346Y-12724972D01*
X22809778Y-12695519D01*
X22805021Y-12665481D01*
X22805022Y-12634511D01*
X22808949Y-12609723D01*
X22809780Y-12604471D01*
X22819351Y-12575017D01*
X22823921Y-12566048D01*
X22833158Y-12547920D01*
X22851357Y-12522869D01*
X22872869Y-12501357D01*
X22897920Y-12483157D01*
X22925024Y-12469347D01*
X22954475Y-12459779D01*
X22973312Y-12456795D01*
X22984511Y-12455022D01*
X23015477Y-12455021D01*
X23045529Y-12459780D01*
X23074981Y-12469350D01*
X23086166Y-12475049D01*
X23132435Y-12490083D01*
X23192866Y-12499654D01*
X23209051Y-12501355D01*
X23287785Y-12484620D01*
X23342302Y-12456843D01*
X23381663Y-12428246D01*
X25170959Y-10638951D01*
X25179248Y-10629984D01*
X25189337Y-10618171D01*
X25205895Y-10588605D01*
X25218982Y-10565237D01*
X25223886Y-10550143D01*
X25237890Y-10507043D01*
X25244472Y-10465486D01*
X25245500Y-10458995D01*
X25245500Y-9277525D01*
X26899500Y-9277525D01*
X26899500Y-10272475D01*
X26919717Y-10347926D01*
X26937017Y-10412489D01*
X27009487Y-10538010D01*
X27009489Y-10538012D01*
X27009491Y-10538015D01*
X27111985Y-10640509D01*
X27111987Y-10640510D01*
X27111989Y-10640512D01*
X27237511Y-10712982D01*
X27237512Y-10712982D01*
X27237515Y-10712984D01*
X27377525Y-10750500D01*
X27377526Y-10750500D01*
X27522474Y-10750500D01*
X27522475Y-10750500D01*
X27662485Y-10712984D01*
X27662487Y-10712982D01*
X27662489Y-10712982D01*
X27788010Y-10640512D01*
X27788010Y-10640511D01*
X27788015Y-10640509D01*
X27890509Y-10538015D01*
X27905395Y-10512232D01*
X27962982Y-10412489D01*
X27962982Y-10412487D01*
X27962984Y-10412485D01*
X28000500Y-10272475D01*
X28000500Y-9619033D01*
X28019407Y-9560842D01*
X28029496Y-9549029D01*
X29599029Y-7979496D01*
X29653546Y-7951719D01*
X29669033Y-7950500D01*
X36014811Y-7950500D01*
X36073002Y-7969407D01*
X36108966Y-8018907D01*
X36108966Y-8080093D01*
X36084816Y-8119501D01*
X36012905Y-8191413D01*
X35962500Y-8290338D01*
X35948612Y-8378025D01*
X35945131Y-8400000D01*
X35962500Y-8509661D01*
X36012905Y-8608587D01*
X36091413Y-8687095D01*
X36190339Y-8737500D01*
X36300000Y-8754869D01*
X36409661Y-8737500D01*
X36508587Y-8687095D01*
X36587095Y-8608587D01*
X36637500Y-8509661D01*
X36654869Y-8400000D01*
X36637500Y-8290339D01*
X36587095Y-8191413D01*
X36515183Y-8119501D01*
X36487408Y-8064987D01*
X36496979Y-8004555D01*
X36540244Y-7961290D01*
X36585189Y-7950500D01*
X39680967Y-7950500D01*
X39739158Y-7969407D01*
X39750971Y-7979496D01*
X40120504Y-8349029D01*
X40148281Y-8403546D01*
X40149500Y-8419033D01*
X40149500Y-23130967D01*
X40130593Y-23189158D01*
X40120504Y-23200971D01*
X39050971Y-24270504D01*
X38996454Y-24298281D01*
X38980967Y-24299500D01*
X37727525Y-24299500D01*
X37665790Y-24316041D01*
X37587510Y-24337017D01*
X37461989Y-24409487D01*
X37461984Y-24409491D01*
X37378024Y-24493451D01*
X37323507Y-24521228D01*
X37263077Y-24511657D01*
X37217486Y-24488427D01*
X37217482Y-24488426D01*
X37100000Y-24469819D01*
X36982518Y-24488426D01*
X36982511Y-24488428D01*
X36876537Y-24542425D01*
X36792425Y-24626537D01*
X36738428Y-24732511D01*
X36738426Y-24732518D01*
X36723438Y-24827153D01*
X36719819Y-24850000D01*
X36736452Y-24955021D01*
X36738426Y-24967481D01*
X36738428Y-24967488D01*
X36792425Y-25073462D01*
X36792427Y-25073465D01*
X36823960Y-25104998D01*
X36851736Y-25159513D01*
X36842165Y-25219945D01*
X36823961Y-25245000D01*
X36802918Y-25266044D01*
X36792425Y-25276537D01*
X36738428Y-25382511D01*
X36738426Y-25382518D01*
X36719974Y-25499024D01*
X36719819Y-25500000D01*
X36737325Y-25610533D01*
X36738426Y-25617481D01*
X36738428Y-25617488D01*
X36792425Y-25723462D01*
X36792427Y-25723465D01*
X36876535Y-25807573D01*
X36876537Y-25807574D01*
X36982511Y-25861571D01*
X36982513Y-25861571D01*
X36982518Y-25861574D01*
X37100000Y-25880181D01*
X37217482Y-25861574D01*
X37323465Y-25807573D01*
X37379998Y-25751039D01*
X37434513Y-25723264D01*
X37494945Y-25732835D01*
X37520000Y-25751038D01*
X37576535Y-25807573D01*
X37576537Y-25807574D01*
X37682511Y-25861571D01*
X37682513Y-25861571D01*
X37682518Y-25861574D01*
X37800000Y-25880181D01*
X37917482Y-25861574D01*
X38023465Y-25807573D01*
X38107573Y-25723465D01*
X38161574Y-25617482D01*
X38180181Y-25500000D01*
X38180181Y-25499999D01*
X38180181Y-25499500D01*
X38180335Y-25499024D01*
X38181400Y-25492304D01*
X38182464Y-25492472D01*
X38199088Y-25441309D01*
X38248588Y-25405345D01*
X38279181Y-25400500D01*
X39322474Y-25400500D01*
X39322475Y-25400500D01*
X39462485Y-25362984D01*
X39588015Y-25290510D01*
X41140510Y-23738014D01*
X41212984Y-23612485D01*
X41216216Y-23600423D01*
X41220631Y-23583950D01*
X41239847Y-23512231D01*
X41250500Y-23472475D01*
X41250500Y-8077525D01*
X41212984Y-7937515D01*
X41211511Y-7934963D01*
X41198534Y-7912485D01*
X41140511Y-7811987D01*
X41140510Y-7811985D01*
X40288015Y-6959490D01*
X40162485Y-6887016D01*
X40022475Y-6849500D01*
X29327525Y-6849500D01*
X29231937Y-6875113D01*
X29187515Y-6887016D01*
X29061985Y-6959490D01*
X27009487Y-9011988D01*
X26980092Y-9062904D01*
X26980092Y-9062905D01*
X26937016Y-9137513D01*
X26899500Y-9277525D01*
X25245500Y-9277525D01*
X25245500Y-5400000D01*
X38495131Y-5400000D01*
X38512500Y-5509661D01*
X38562905Y-5608587D01*
X38641413Y-5687095D01*
X38740339Y-5737500D01*
X38850000Y-5754869D01*
X38959661Y-5737500D01*
X39058587Y-5687095D01*
X39137095Y-5608587D01*
X39187500Y-5509661D01*
X39204869Y-5400000D01*
X39187500Y-5290339D01*
X39137095Y-5191413D01*
X39058587Y-5112905D01*
X38959661Y-5062500D01*
X38850000Y-5045131D01*
X38740338Y-5062500D01*
X38641413Y-5112905D01*
X38562905Y-5191413D01*
X38512500Y-5290338D01*
X38512500Y-5290339D01*
X38495131Y-5400000D01*
X25245500Y-5400000D01*
X25245500Y-4291017D01*
X25245500Y-4291008D01*
X25245021Y-4278806D01*
X25243802Y-4263319D01*
X25227333Y-4204927D01*
X25199556Y-4150410D01*
X25170959Y-4111049D01*
X24178951Y-3119041D01*
X24169984Y-3110752D01*
X24158171Y-3100663D01*
X24158169Y-3100662D01*
X24158167Y-3100660D01*
X24105237Y-3071017D01*
X24047040Y-3052109D01*
X24047041Y-3052109D01*
X23998995Y-3044500D01*
X23998992Y-3044500D01*
X9281008Y-3044500D01*
X9272560Y-3044831D01*
X9268802Y-3044979D01*
X9253317Y-3046198D01*
X9194929Y-3062665D01*
X9194924Y-3062668D01*
X9140416Y-3090440D01*
X9140409Y-3090444D01*
X9101052Y-3119038D01*
X4659028Y-7561062D01*
X4650752Y-7570015D01*
X4640660Y-7581832D01*
X4611017Y-7634762D01*
X4592109Y-7692958D01*
X4584500Y-7741004D01*
X2937520Y-7741004D01*
X8999028Y-1679496D01*
X9053545Y-1651719D01*
X9069032Y-1650500D01*
X16272474Y-1650500D01*
X16272475Y-1650500D01*
X16412485Y-1612984D01*
X16412487Y-1612982D01*
X16412489Y-1612982D01*
X16538010Y-1540512D01*
X16538010Y-1540511D01*
X16538015Y-1540509D01*
X16640509Y-1438015D01*
X16662983Y-1399089D01*
X16712982Y-1312489D01*
X16712982Y-1312487D01*
X16712984Y-1312485D01*
X16750500Y-1172475D01*
X16750500Y-1027525D01*
X16712984Y-887515D01*
X16712982Y-887512D01*
X16712982Y-887510D01*
X16640512Y-761989D01*
X16640510Y-761987D01*
X16640509Y-761985D01*
X16538015Y-659491D01*
X16538012Y-659489D01*
X16538010Y-659487D01*
X16412488Y-587017D01*
X16412489Y-587017D01*
X16382896Y-579087D01*
X16272475Y-549500D01*
X8727525Y-549500D01*
X8665790Y-566041D01*
X8587510Y-587017D01*
X8461988Y-659488D01*
X1759490Y-7361985D01*
X1695700Y-7472474D01*
X1687016Y-7487513D01*
X1649500Y-7627525D01*
X0Y-7627525D01*
X0Y-3505509D01*
X18907Y-3447318D01*
X68407Y-3411354D01*
X129593Y-3411354D01*
X179093Y-3447318D01*
X188196Y-3462555D01*
X308047Y-3711430D01*
X308051Y-3711437D01*
X308055Y-3711445D01*
X457477Y-3949248D01*
X632584Y-4168825D01*
X831175Y-4367416D01*
X1050752Y-4542523D01*
X1288555Y-4691945D01*
X1288566Y-4691950D01*
X1288569Y-4691952D01*
X1431964Y-4761007D01*
X1541592Y-4813801D01*
X1806682Y-4906560D01*
X2080491Y-4969055D01*
X2359575Y-5000500D01*
X2359576Y-5000500D01*
X2640424Y-5000500D01*
X2640425Y-5000500D01*
X2919509Y-4969055D01*
X3193318Y-4906560D01*
X3458408Y-4813801D01*
X3711445Y-4691945D01*
X3949248Y-4542523D01*
X4168825Y-4367416D01*
X4367416Y-4168825D01*
X4542523Y-3949248D01*
X4691945Y-3711445D01*
X4813801Y-3458408D01*
X4906560Y-3193318D01*
X4969055Y-2919509D01*
X5000500Y-2640425D01*
X5000500Y-2359575D01*
X4969055Y-2080491D01*
X4906560Y-1806682D01*
X4813801Y-1541592D01*
X4691945Y-1288555D01*
X4542523Y-1050752D01*
X4367416Y-831175D01*
X4168825Y-632584D01*
X3949248Y-457477D01*
X3711445Y-308055D01*
X3711437Y-308051D01*
X3711430Y-308047D01*
X3462555Y-188196D01*
X3418330Y-145913D01*
X3407405Y-85711D01*
X3433952Y-30585D01*
X3487832Y-1591D01*
X3505509Y0D01*
X35494491Y0D01*
X35552682Y-18907D01*
G37*
G04 #@! TD.AperFunction*
G04 #@! TD*
G04 #@! TA.AperFunction,Conductor*
G04 #@! TO.N,VDD*
G36*
X25821674Y-11421674D02*
G01*
X26228326Y-11828326D01*
X26250000Y-11880652D01*
X26250000Y-15302956D01*
X26228326Y-15355282D01*
X26171951Y-15411656D01*
X26114353Y-15524698D01*
X26094508Y-15650000D01*
X26114353Y-15775301D01*
X26114353Y-15775302D01*
X26114354Y-15775304D01*
X26171950Y-15888342D01*
X26171951Y-15888343D01*
X26228326Y-15944718D01*
X26250000Y-15997044D01*
X26250000Y-16002956D01*
X26228326Y-16055282D01*
X26171951Y-16111656D01*
X26114353Y-16224698D01*
X26094508Y-16350000D01*
X26114353Y-16475301D01*
X26114353Y-16475302D01*
X26114354Y-16475304D01*
X26153920Y-16552956D01*
X26171951Y-16588343D01*
X26228326Y-16644718D01*
X26250000Y-16697044D01*
X26250000Y-17350000D01*
X26950000Y-18050000D01*
X28276000Y-18050000D01*
X28328326Y-18071674D01*
X28350000Y-18124000D01*
X28350000Y-18681622D01*
X28328326Y-18733948D01*
X28276000Y-18755622D01*
X28264425Y-18754711D01*
X28200001Y-18744508D01*
X28200000Y-18744508D01*
X28074695Y-18764353D01*
X28074695Y-18764354D01*
X28020567Y-18791934D01*
X27986972Y-18800000D01*
X27813028Y-18800000D01*
X27779433Y-18791934D01*
X27725304Y-18764354D01*
X27725304Y-18764353D01*
X27600000Y-18744508D01*
X27474695Y-18764353D01*
X27474695Y-18764354D01*
X27420567Y-18791934D01*
X27386972Y-18800000D01*
X27213028Y-18800000D01*
X27179433Y-18791934D01*
X27125304Y-18764354D01*
X27125304Y-18764353D01*
X27000000Y-18744508D01*
X26874698Y-18764353D01*
X26761656Y-18821951D01*
X26671951Y-18911656D01*
X26614353Y-19024698D01*
X26594508Y-19150000D01*
X26614353Y-19275302D01*
X26614353Y-19275303D01*
X26614354Y-19275304D01*
X26641934Y-19329433D01*
X26650000Y-19363027D01*
X26650000Y-23550000D01*
X26950000Y-23850000D01*
X28169348Y-23850000D01*
X28221674Y-23871674D01*
X28378326Y-24028326D01*
X28400000Y-24080652D01*
X28400000Y-28419348D01*
X28378326Y-28471674D01*
X27721674Y-29128326D01*
X27669348Y-29150000D01*
X20274000Y-29150000D01*
X20221674Y-29128326D01*
X20200000Y-29076000D01*
X20200000Y-26900000D01*
X20193164Y-26893164D01*
X20172128Y-26900000D01*
X18827872Y-26900000D01*
X18803366Y-26889849D01*
X18772128Y-26900000D01*
X18180652Y-26900000D01*
X18128326Y-26878326D01*
X17821674Y-26571674D01*
X17800000Y-26519348D01*
X17800000Y-26390499D01*
X17800911Y-26378923D01*
X17805492Y-26350000D01*
X17800911Y-26321075D01*
X17800000Y-26309499D01*
X17800000Y-25790499D01*
X17800911Y-25778923D01*
X17805492Y-25750000D01*
X17800911Y-25721075D01*
X17800000Y-25709499D01*
X17800000Y-25190499D01*
X17800911Y-25178923D01*
X17805492Y-25150000D01*
X18394508Y-25150000D01*
X18414353Y-25275301D01*
X18414353Y-25275302D01*
X18414354Y-25275304D01*
X18471950Y-25388342D01*
X18471951Y-25388343D01*
X18481282Y-25397674D01*
X18502956Y-25450000D01*
X18481282Y-25502326D01*
X18471951Y-25511656D01*
X18414353Y-25624698D01*
X18394508Y-25750000D01*
X18414353Y-25875301D01*
X18414353Y-25875302D01*
X18414354Y-25875304D01*
X18471950Y-25988342D01*
X18471951Y-25988343D01*
X18481282Y-25997674D01*
X18502956Y-26050000D01*
X18481282Y-26102326D01*
X18471951Y-26111656D01*
X18414353Y-26224698D01*
X18394508Y-26350000D01*
X18414353Y-26475301D01*
X18414353Y-26475302D01*
X18414354Y-26475304D01*
X18471950Y-26588342D01*
X18561658Y-26678050D01*
X18674696Y-26735646D01*
X18765325Y-26750000D01*
X18783704Y-26752911D01*
X18798500Y-26761978D01*
X18816296Y-26752911D01*
X18834675Y-26750000D01*
X18925304Y-26735646D01*
X19038342Y-26678050D01*
X19128050Y-26588342D01*
X19185646Y-26475304D01*
X19205492Y-26350000D01*
X19185646Y-26224696D01*
X19128050Y-26111658D01*
X19118718Y-26102326D01*
X19097044Y-26050000D01*
X19118718Y-25997674D01*
X19128050Y-25988342D01*
X19185646Y-25875304D01*
X19205492Y-25750000D01*
X19185646Y-25624696D01*
X19128050Y-25511658D01*
X19118718Y-25502326D01*
X19097044Y-25450000D01*
X19118718Y-25397674D01*
X19128050Y-25388342D01*
X19185646Y-25275304D01*
X19205492Y-25150000D01*
X19794508Y-25150000D01*
X19814353Y-25275301D01*
X19814353Y-25275302D01*
X19814354Y-25275304D01*
X19871950Y-25388342D01*
X19871951Y-25388343D01*
X19881282Y-25397674D01*
X19902956Y-25450000D01*
X19881282Y-25502326D01*
X19871951Y-25511656D01*
X19814353Y-25624698D01*
X19794508Y-25750000D01*
X19814353Y-25875301D01*
X19814353Y-25875302D01*
X19814354Y-25875304D01*
X19871950Y-25988342D01*
X19871951Y-25988343D01*
X19881282Y-25997674D01*
X19902956Y-26050000D01*
X19881282Y-26102326D01*
X19871951Y-26111656D01*
X19814353Y-26224698D01*
X19794508Y-26350000D01*
X19814353Y-26475301D01*
X19814353Y-26475302D01*
X19814354Y-26475304D01*
X19871950Y-26588342D01*
X19961658Y-26678050D01*
X20074696Y-26735646D01*
X20165325Y-26750000D01*
X20183704Y-26752911D01*
X20198500Y-26761978D01*
X20216296Y-26752911D01*
X20234675Y-26750000D01*
X20325304Y-26735646D01*
X20438342Y-26678050D01*
X20528050Y-26588342D01*
X20585646Y-26475304D01*
X20605492Y-26350000D01*
X20585646Y-26224696D01*
X20528050Y-26111658D01*
X20518718Y-26102326D01*
X20497044Y-26050000D01*
X20518718Y-25997674D01*
X20528050Y-25988342D01*
X20585646Y-25875304D01*
X20605492Y-25750000D01*
X20585646Y-25624696D01*
X20528050Y-25511658D01*
X20518718Y-25502326D01*
X20497044Y-25450000D01*
X20518718Y-25397674D01*
X20528050Y-25388342D01*
X20585646Y-25275304D01*
X20605492Y-25150000D01*
X21194508Y-25150000D01*
X21214353Y-25275301D01*
X21214353Y-25275302D01*
X21214354Y-25275304D01*
X21271950Y-25388342D01*
X21271951Y-25388343D01*
X21281282Y-25397674D01*
X21302956Y-25450000D01*
X21281282Y-25502326D01*
X21271951Y-25511656D01*
X21214353Y-25624698D01*
X21194508Y-25750000D01*
X21214353Y-25875301D01*
X21214353Y-25875302D01*
X21214354Y-25875304D01*
X21271950Y-25988342D01*
X21271951Y-25988343D01*
X21281282Y-25997674D01*
X21302956Y-26050000D01*
X21281282Y-26102326D01*
X21271951Y-26111656D01*
X21214353Y-26224698D01*
X21194508Y-26350000D01*
X21214353Y-26475301D01*
X21214353Y-26475302D01*
X21214354Y-26475304D01*
X21271950Y-26588342D01*
X21361658Y-26678050D01*
X21474696Y-26735646D01*
X21600000Y-26755492D01*
X21725304Y-26735646D01*
X21838342Y-26678050D01*
X21838343Y-26678048D01*
X21841404Y-26676489D01*
X21897867Y-26672045D01*
X21908596Y-26676489D01*
X21911656Y-26678048D01*
X21911658Y-26678050D01*
X22024696Y-26735646D01*
X22024695Y-26735646D01*
X22041718Y-26738342D01*
X22150000Y-26755492D01*
X22275304Y-26735646D01*
X22388342Y-26678050D01*
X22478050Y-26588342D01*
X22535646Y-26475304D01*
X22555492Y-26350000D01*
X22535646Y-26224696D01*
X22478050Y-26111658D01*
X22468718Y-26102326D01*
X22447044Y-26050000D01*
X22468718Y-25997674D01*
X22478050Y-25988342D01*
X22535646Y-25875304D01*
X22555492Y-25750000D01*
X22535646Y-25624696D01*
X22478050Y-25511658D01*
X22468718Y-25502326D01*
X22447044Y-25450000D01*
X22468718Y-25397674D01*
X22478050Y-25388342D01*
X22535646Y-25275304D01*
X22555492Y-25150000D01*
X23294508Y-25150000D01*
X23314353Y-25275301D01*
X23314353Y-25275302D01*
X23314354Y-25275304D01*
X23371950Y-25388342D01*
X23371951Y-25388343D01*
X23381282Y-25397674D01*
X23402956Y-25450000D01*
X23381282Y-25502326D01*
X23371951Y-25511656D01*
X23314353Y-25624698D01*
X23294508Y-25750000D01*
X23314353Y-25875301D01*
X23314353Y-25875302D01*
X23314354Y-25875304D01*
X23371950Y-25988342D01*
X23371951Y-25988343D01*
X23381282Y-25997674D01*
X23402956Y-26050000D01*
X23381282Y-26102326D01*
X23371951Y-26111656D01*
X23314353Y-26224698D01*
X23294508Y-26350000D01*
X23314353Y-26475301D01*
X23314353Y-26475302D01*
X23314354Y-26475304D01*
X23371950Y-26588342D01*
X23461658Y-26678050D01*
X23574696Y-26735646D01*
X23700000Y-26755492D01*
X23825304Y-26735646D01*
X23938342Y-26678050D01*
X24028050Y-26588342D01*
X24085646Y-26475304D01*
X24105492Y-26350000D01*
X24085646Y-26224696D01*
X24028050Y-26111658D01*
X24018718Y-26102326D01*
X23997044Y-26050000D01*
X24018718Y-25997674D01*
X24028050Y-25988342D01*
X24085646Y-25875304D01*
X24105492Y-25750000D01*
X24085646Y-25624696D01*
X24028050Y-25511658D01*
X24018718Y-25502326D01*
X23997044Y-25450000D01*
X24018718Y-25397674D01*
X24028050Y-25388342D01*
X24085646Y-25275304D01*
X24105492Y-25150000D01*
X24085646Y-25024696D01*
X24028050Y-24911658D01*
X23938342Y-24821950D01*
X23825304Y-24764354D01*
X23825302Y-24764353D01*
X23825301Y-24764353D01*
X23700000Y-24744508D01*
X23574698Y-24764353D01*
X23461656Y-24821951D01*
X23371951Y-24911656D01*
X23314353Y-25024698D01*
X23294508Y-25150000D01*
X22555492Y-25150000D01*
X22535646Y-25024696D01*
X22478050Y-24911658D01*
X22388342Y-24821950D01*
X22275304Y-24764354D01*
X22275302Y-24764353D01*
X22275301Y-24764353D01*
X22150000Y-24744508D01*
X22024698Y-24764353D01*
X22024696Y-24764353D01*
X22024696Y-24764354D01*
X21911658Y-24821950D01*
X21911657Y-24821950D01*
X21908595Y-24823511D01*
X21852133Y-24827954D01*
X21841405Y-24823511D01*
X21838342Y-24821950D01*
X21725304Y-24764354D01*
X21725302Y-24764353D01*
X21725301Y-24764353D01*
X21600000Y-24744508D01*
X21474698Y-24764353D01*
X21361656Y-24821951D01*
X21271951Y-24911656D01*
X21214353Y-25024698D01*
X21194508Y-25150000D01*
X20605492Y-25150000D01*
X20585646Y-25024696D01*
X20528050Y-24911658D01*
X20438342Y-24821950D01*
X20325304Y-24764354D01*
X20325302Y-24764353D01*
X20325301Y-24764353D01*
X20200000Y-24744508D01*
X20074698Y-24764353D01*
X19961656Y-24821951D01*
X19871951Y-24911656D01*
X19814353Y-25024698D01*
X19794508Y-25150000D01*
X19205492Y-25150000D01*
X19185646Y-25024696D01*
X19128050Y-24911658D01*
X19038342Y-24821950D01*
X18925304Y-24764354D01*
X18925302Y-24764353D01*
X18925301Y-24764353D01*
X18800000Y-24744508D01*
X18674698Y-24764353D01*
X18561656Y-24821951D01*
X18471951Y-24911656D01*
X18414353Y-25024698D01*
X18394508Y-25150000D01*
X17805492Y-25150000D01*
X17800911Y-25121075D01*
X17800000Y-25109499D01*
X17800000Y-24800000D01*
X17550000Y-24550000D01*
X12092934Y-24550000D01*
X12040608Y-24528326D01*
X12031766Y-24516157D01*
X12031474Y-24516370D01*
X12028051Y-24511659D01*
X11938343Y-24421951D01*
X11938342Y-24421950D01*
X11825304Y-24364354D01*
X11825302Y-24364353D01*
X11825301Y-24364353D01*
X11700000Y-24344508D01*
X11574698Y-24364353D01*
X11461656Y-24421951D01*
X11452326Y-24431282D01*
X11400000Y-24452956D01*
X11347674Y-24431282D01*
X11338343Y-24421951D01*
X11338342Y-24421950D01*
X11225304Y-24364354D01*
X11225302Y-24364353D01*
X11225301Y-24364353D01*
X11100000Y-24344508D01*
X10974698Y-24364353D01*
X10861656Y-24421951D01*
X10844130Y-24439478D01*
X10791804Y-24461152D01*
X10739478Y-24439478D01*
X10421674Y-24121674D01*
X10400000Y-24069348D01*
X10400000Y-23174000D01*
X10421674Y-23121674D01*
X10474000Y-23100000D01*
X12200000Y-23100000D01*
X12400000Y-22900000D01*
X12400000Y-22690499D01*
X12400911Y-22678923D01*
X12405492Y-22649999D01*
X12400911Y-22621075D01*
X12400000Y-22609499D01*
X12400000Y-21990499D01*
X12400911Y-21978923D01*
X12405492Y-21949999D01*
X12400911Y-21921075D01*
X12400000Y-21909499D01*
X12400000Y-21290499D01*
X12400911Y-21278923D01*
X12405492Y-21250000D01*
X12400911Y-21221075D01*
X12400000Y-21209499D01*
X12400000Y-20590499D01*
X12400911Y-20578923D01*
X12405492Y-20549999D01*
X12400911Y-20521075D01*
X12400000Y-20509499D01*
X12400000Y-19890499D01*
X12400911Y-19878923D01*
X12405492Y-19849999D01*
X12400911Y-19821075D01*
X12400000Y-19809499D01*
X12400000Y-19190499D01*
X12400911Y-19178923D01*
X12405492Y-19149999D01*
X12400911Y-19121075D01*
X12400000Y-19109499D01*
X12400000Y-17850000D01*
X17494508Y-17850000D01*
X17514353Y-17975301D01*
X17514353Y-17975302D01*
X17514354Y-17975304D01*
X17571950Y-18088342D01*
X17661658Y-18178050D01*
X17774696Y-18235646D01*
X17900000Y-18255492D01*
X18025304Y-18235646D01*
X18138342Y-18178050D01*
X18147674Y-18168718D01*
X18200000Y-18147044D01*
X18252326Y-18168718D01*
X18261658Y-18178050D01*
X18374696Y-18235646D01*
X18500000Y-18255492D01*
X18625304Y-18235646D01*
X18738342Y-18178050D01*
X18828050Y-18088342D01*
X18885646Y-17975304D01*
X18905492Y-17850000D01*
X18885646Y-17724696D01*
X18828050Y-17611658D01*
X18738342Y-17521950D01*
X18625304Y-17464354D01*
X18625302Y-17464353D01*
X18625301Y-17464353D01*
X18500000Y-17444508D01*
X18374698Y-17464353D01*
X18261656Y-17521951D01*
X18252326Y-17531282D01*
X18200000Y-17552956D01*
X18147674Y-17531282D01*
X18138343Y-17521951D01*
X18138342Y-17521950D01*
X18025304Y-17464354D01*
X18025302Y-17464353D01*
X18025301Y-17464353D01*
X17900000Y-17444508D01*
X17774698Y-17464353D01*
X17661656Y-17521951D01*
X17571951Y-17611656D01*
X17514353Y-17724698D01*
X17494508Y-17850000D01*
X12400000Y-17850000D01*
X12400000Y-17790499D01*
X12400911Y-17778923D01*
X12405492Y-17749999D01*
X12400911Y-17721075D01*
X12400000Y-17709499D01*
X12400000Y-17090499D01*
X12400911Y-17078923D01*
X12405492Y-17049999D01*
X12400911Y-17021075D01*
X12400000Y-17009499D01*
X12400000Y-16850000D01*
X17494508Y-16850000D01*
X17514353Y-16975301D01*
X17514353Y-16975302D01*
X17514354Y-16975304D01*
X17571950Y-17088342D01*
X17661658Y-17178050D01*
X17774696Y-17235646D01*
X17900000Y-17255492D01*
X18025304Y-17235646D01*
X18138342Y-17178050D01*
X18147674Y-17168718D01*
X18200000Y-17147044D01*
X18252326Y-17168718D01*
X18261658Y-17178050D01*
X18374696Y-17235646D01*
X18500000Y-17255492D01*
X18625304Y-17235646D01*
X18738342Y-17178050D01*
X18828050Y-17088342D01*
X18885646Y-16975304D01*
X18905492Y-16850000D01*
X18885646Y-16724696D01*
X18828050Y-16611658D01*
X18738342Y-16521950D01*
X18625304Y-16464354D01*
X18625302Y-16464353D01*
X18625301Y-16464353D01*
X18500000Y-16444508D01*
X18374698Y-16464353D01*
X18261656Y-16521951D01*
X18252326Y-16531282D01*
X18200000Y-16552956D01*
X18147674Y-16531282D01*
X18138343Y-16521951D01*
X18138342Y-16521950D01*
X18025304Y-16464354D01*
X18025302Y-16464353D01*
X18025301Y-16464353D01*
X17900000Y-16444508D01*
X17774698Y-16464353D01*
X17661656Y-16521951D01*
X17571951Y-16611656D01*
X17514353Y-16724698D01*
X17494508Y-16850000D01*
X12400000Y-16850000D01*
X12400000Y-16390499D01*
X12400911Y-16378923D01*
X12405492Y-16349999D01*
X12400911Y-16321075D01*
X12400000Y-16309499D01*
X12400000Y-15800000D01*
X17494508Y-15800000D01*
X17514353Y-15925301D01*
X17514353Y-15925302D01*
X17514354Y-15925304D01*
X17571950Y-16038342D01*
X17661658Y-16128050D01*
X17774696Y-16185646D01*
X17900000Y-16205492D01*
X18025304Y-16185646D01*
X18138342Y-16128050D01*
X18147674Y-16118718D01*
X18200000Y-16097044D01*
X18252326Y-16118718D01*
X18261658Y-16128050D01*
X18374696Y-16185646D01*
X18500000Y-16205492D01*
X18625304Y-16185646D01*
X18738342Y-16128050D01*
X18828050Y-16038342D01*
X18885646Y-15925304D01*
X18905492Y-15800000D01*
X18885646Y-15674696D01*
X18828050Y-15561658D01*
X18738342Y-15471950D01*
X18625304Y-15414354D01*
X18625302Y-15414353D01*
X18625301Y-15414353D01*
X18500000Y-15394508D01*
X18374698Y-15414353D01*
X18261656Y-15471951D01*
X18252326Y-15481282D01*
X18200000Y-15502956D01*
X18147674Y-15481282D01*
X18138343Y-15471951D01*
X18138342Y-15471950D01*
X18025304Y-15414354D01*
X18025302Y-15414353D01*
X18025301Y-15414353D01*
X17900000Y-15394508D01*
X17774698Y-15414353D01*
X17661656Y-15471951D01*
X17571951Y-15561656D01*
X17514353Y-15674698D01*
X17494508Y-15800000D01*
X12400000Y-15800000D01*
X12400000Y-15690499D01*
X12400911Y-15678923D01*
X12401580Y-15674698D01*
X12405492Y-15650000D01*
X12400911Y-15621075D01*
X12400000Y-15609499D01*
X12400000Y-14990499D01*
X12400911Y-14978923D01*
X12405492Y-14949999D01*
X12400911Y-14921075D01*
X12400000Y-14909499D01*
X12400000Y-14326296D01*
X12421674Y-14273970D01*
X12474000Y-14252296D01*
X12485569Y-14253206D01*
X12500000Y-14255492D01*
X12625304Y-14235646D01*
X12738342Y-14178050D01*
X12828050Y-14088342D01*
X12885646Y-13975304D01*
X12905492Y-13850000D01*
X12885646Y-13724696D01*
X12828050Y-13611658D01*
X12818718Y-13602326D01*
X12797044Y-13550000D01*
X12818718Y-13497674D01*
X12828050Y-13488342D01*
X12885646Y-13375304D01*
X12905492Y-13250000D01*
X12885646Y-13124696D01*
X12828050Y-13011658D01*
X12818718Y-13002326D01*
X12797044Y-12950000D01*
X12818718Y-12897674D01*
X12828050Y-12888342D01*
X12885646Y-12775304D01*
X12905492Y-12650000D01*
X12885646Y-12524696D01*
X12876931Y-12507593D01*
X12872489Y-12451132D01*
X12909272Y-12408065D01*
X12942867Y-12400000D01*
X13326000Y-12400000D01*
X13378326Y-12421674D01*
X13400000Y-12474000D01*
X13400000Y-14500000D01*
X17482610Y-14500000D01*
X17534936Y-14521674D01*
X17556610Y-14574000D01*
X17548544Y-14607593D01*
X17541230Y-14621950D01*
X17514353Y-14674697D01*
X17494508Y-14800000D01*
X17514353Y-14925301D01*
X17514353Y-14925302D01*
X17514354Y-14925304D01*
X17571950Y-15038342D01*
X17661658Y-15128050D01*
X17774696Y-15185646D01*
X17900000Y-15205492D01*
X18025304Y-15185646D01*
X18138342Y-15128050D01*
X18147674Y-15118718D01*
X18200000Y-15097044D01*
X18252326Y-15118718D01*
X18261658Y-15128050D01*
X18374696Y-15185646D01*
X18500000Y-15205492D01*
X18625304Y-15185646D01*
X18738342Y-15128050D01*
X18828050Y-15038342D01*
X18885646Y-14925304D01*
X18905492Y-14800000D01*
X18885646Y-14674696D01*
X18851455Y-14607594D01*
X18847012Y-14551133D01*
X18883794Y-14508066D01*
X18917390Y-14500000D01*
X20552956Y-14500000D01*
X20605282Y-14521674D01*
X20661658Y-14578050D01*
X20774696Y-14635646D01*
X20900000Y-14655492D01*
X21025304Y-14635646D01*
X21138342Y-14578050D01*
X21194718Y-14521674D01*
X21247044Y-14500000D01*
X24000000Y-14500000D01*
X24000000Y-12650000D01*
X24694508Y-12650000D01*
X24714353Y-12775301D01*
X24714353Y-12775302D01*
X24714354Y-12775304D01*
X24771950Y-12888342D01*
X24771951Y-12888343D01*
X24781282Y-12897674D01*
X24802956Y-12950000D01*
X24781282Y-13002326D01*
X24771951Y-13011656D01*
X24714353Y-13124698D01*
X24694508Y-13250000D01*
X24714353Y-13375301D01*
X24714353Y-13375302D01*
X24714354Y-13375304D01*
X24746474Y-13438342D01*
X24771951Y-13488343D01*
X24781282Y-13497674D01*
X24802956Y-13550000D01*
X24781282Y-13602326D01*
X24771951Y-13611656D01*
X24714353Y-13724698D01*
X24694508Y-13850000D01*
X24714353Y-13975301D01*
X24714353Y-13975302D01*
X24714354Y-13975304D01*
X24771950Y-14088342D01*
X24861658Y-14178050D01*
X24974696Y-14235646D01*
X25100000Y-14255492D01*
X25225304Y-14235646D01*
X25338342Y-14178050D01*
X25428050Y-14088342D01*
X25485646Y-13975304D01*
X25505492Y-13850000D01*
X25485646Y-13724696D01*
X25428050Y-13611658D01*
X25418718Y-13602326D01*
X25397044Y-13550000D01*
X25418718Y-13497674D01*
X25428050Y-13488342D01*
X25485646Y-13375304D01*
X25505492Y-13250000D01*
X25485646Y-13124696D01*
X25428050Y-13011658D01*
X25418718Y-13002326D01*
X25397044Y-12950000D01*
X25418718Y-12897674D01*
X25428050Y-12888342D01*
X25485646Y-12775304D01*
X25505492Y-12650000D01*
X25485646Y-12524696D01*
X25428050Y-12411658D01*
X25338342Y-12321950D01*
X25225304Y-12264354D01*
X25225302Y-12264353D01*
X25225301Y-12264353D01*
X25100000Y-12244508D01*
X24974698Y-12264353D01*
X24861656Y-12321951D01*
X24771951Y-12411656D01*
X24714353Y-12524698D01*
X24694508Y-12650000D01*
X24000000Y-12650000D01*
X24000000Y-12480652D01*
X24021674Y-12428326D01*
X25028326Y-11421674D01*
X25080652Y-11400000D01*
X25769348Y-11400000D01*
X25821674Y-11421674D01*
G37*
G04 #@! TD.AperFunction*
G04 #@! TD*
M02*
